%TF.GenerationSoftware,KiCad,Pcbnew,8.0.3*%
%TF.CreationDate,2024-07-14T15:46:43+08:00*%
%TF.ProjectId,circadian-rave-hardware,63697263-6164-4696-916e-2d726176652d,rev?*%
%TF.SameCoordinates,Original*%
%TF.FileFunction,Copper,L2,Bot*%
%TF.FilePolarity,Positive*%
%FSLAX46Y46*%
G04 Gerber Fmt 4.6, Leading zero omitted, Abs format (unit mm)*
G04 Created by KiCad (PCBNEW 8.0.3) date 2024-07-14 15:46:43*
%MOMM*%
%LPD*%
G01*
G04 APERTURE LIST*
G04 Aperture macros list*
%AMRoundRect*
0 Rectangle with rounded corners*
0 $1 Rounding radius*
0 $2 $3 $4 $5 $6 $7 $8 $9 X,Y pos of 4 corners*
0 Add a 4 corners polygon primitive as box body*
4,1,4,$2,$3,$4,$5,$6,$7,$8,$9,$2,$3,0*
0 Add four circle primitives for the rounded corners*
1,1,$1+$1,$2,$3*
1,1,$1+$1,$4,$5*
1,1,$1+$1,$6,$7*
1,1,$1+$1,$8,$9*
0 Add four rect primitives between the rounded corners*
20,1,$1+$1,$2,$3,$4,$5,0*
20,1,$1+$1,$4,$5,$6,$7,0*
20,1,$1+$1,$6,$7,$8,$9,0*
20,1,$1+$1,$8,$9,$2,$3,0*%
G04 Aperture macros list end*
%TA.AperFunction,ComponentPad*%
%ADD10R,3.500000X3.900000*%
%TD*%
%TA.AperFunction,ComponentPad*%
%ADD11RoundRect,0.750000X-0.750000X-1.200000X0.750000X-1.200000X0.750000X1.200000X-0.750000X1.200000X0*%
%TD*%
%TA.AperFunction,ComponentPad*%
%ADD12RoundRect,0.925000X-1.025000X-0.925000X1.025000X-0.925000X1.025000X0.925000X-1.025000X0.925000X0*%
%TD*%
%TA.AperFunction,ComponentPad*%
%ADD13C,1.600000*%
%TD*%
%TA.AperFunction,ComponentPad*%
%ADD14O,1.600000X1.600000*%
%TD*%
%TA.AperFunction,ComponentPad*%
%ADD15R,2.200000X2.200000*%
%TD*%
%TA.AperFunction,ComponentPad*%
%ADD16O,2.200000X2.200000*%
%TD*%
%TA.AperFunction,ComponentPad*%
%ADD17R,1.980000X3.960000*%
%TD*%
%TA.AperFunction,ComponentPad*%
%ADD18O,1.980000X3.960000*%
%TD*%
%TA.AperFunction,ComponentPad*%
%ADD19O,2.000000X1.905000*%
%TD*%
%TA.AperFunction,ComponentPad*%
%ADD20R,2.000000X1.905000*%
%TD*%
%TA.AperFunction,ComponentPad*%
%ADD21R,1.700000X1.700000*%
%TD*%
%TA.AperFunction,ComponentPad*%
%ADD22O,1.700000X1.700000*%
%TD*%
%TA.AperFunction,Conductor*%
%ADD23C,0.200000*%
%TD*%
%TA.AperFunction,Conductor*%
%ADD24C,0.500000*%
%TD*%
%TA.AperFunction,Conductor*%
%ADD25C,1.000000*%
%TD*%
G04 APERTURE END LIST*
D10*
%TO.P,J1,1*%
%TO.N,Net-(U1-IN)*%
X86400000Y-92200000D03*
D11*
%TO.P,J1,2*%
%TO.N,GND*%
X80200000Y-92200000D03*
D12*
%TO.P,J1,3*%
X83300000Y-97200000D03*
%TD*%
D13*
%TO.P,C2,1*%
%TO.N,+5V*%
X97800000Y-100800000D03*
D14*
%TO.P,C2,2*%
%TO.N,GND*%
X90300000Y-100800000D03*
%TD*%
D13*
%TO.P,C1,1*%
%TO.N,Net-(U1-IN)*%
X94250000Y-84600000D03*
D14*
%TO.P,C1,2*%
%TO.N,GND*%
X101750000Y-84600000D03*
%TD*%
D13*
%TO.P,C4,1*%
%TO.N,+5V*%
X101800000Y-97700000D03*
%TO.P,C4,2*%
%TO.N,GND*%
X101800000Y-92700000D03*
%TD*%
%TO.P,C3,1*%
%TO.N,Net-(U1-IN)*%
X95500000Y-89000000D03*
%TO.P,C3,2*%
%TO.N,GND*%
X100500000Y-89000000D03*
%TD*%
D15*
%TO.P,D1,1,K*%
%TO.N,/ARDUINO_5V*%
X132000000Y-106810000D03*
D16*
%TO.P,D1,2,A*%
%TO.N,+5V*%
X132000000Y-99190000D03*
%TD*%
D17*
%TO.P,J3,1,Pin_1*%
%TO.N,+5V*%
X128700000Y-122500000D03*
D18*
%TO.P,J3,2,Pin_2*%
%TO.N,Net-(J3-Pin_2)*%
X133700000Y-122500000D03*
%TD*%
D14*
%TO.P,A1,5,+5V*%
%TO.N,/ARDUINO_5V*%
X120960000Y-113200000D03*
%TO.P,A1,6,GND*%
%TO.N,GND*%
X123500000Y-113200000D03*
%TO.P,A1,7,GND*%
X126040000Y-113200000D03*
%TO.P,A1,15,D0/RX*%
%TO.N,/RX_FROM_PC*%
X146360000Y-64940000D03*
%TO.P,A1,16,D1/TX*%
%TO.N,/TX_TO_PC*%
X143820000Y-64940000D03*
%TO.P,A1,17,D2*%
%TO.N,unconnected-(A1-D2-Pad17)*%
X141280000Y-64940000D03*
%TO.P,A1,18,D3*%
%TO.N,/LED1*%
X138740000Y-64940000D03*
%TO.P,A1,19,D4*%
%TO.N,unconnected-(A1-D4-Pad19)*%
X136200000Y-64940000D03*
%TO.P,A1,20,D5*%
%TO.N,/LED2*%
X133660000Y-64940000D03*
%TO.P,A1,21,D6*%
%TO.N,/LED3*%
X131120000Y-64940000D03*
%TO.P,A1,22,D7*%
%TO.N,unconnected-(A1-D7-Pad22)*%
X128580000Y-64940000D03*
%TO.P,A1,23,D8*%
%TO.N,unconnected-(A1-D8-Pad23)*%
X124520000Y-64940000D03*
%TO.P,A1,24,D9*%
%TO.N,/LED4*%
X121980000Y-64940000D03*
%TO.P,A1,25,D10*%
%TO.N,/LED5*%
X119440000Y-64940000D03*
%TO.P,A1,26,D11*%
%TO.N,/LED6*%
X116900000Y-64940000D03*
%TO.P,A1,27,D12*%
%TO.N,unconnected-(A1-D12-Pad27)*%
X114360000Y-64940000D03*
%TO.P,A1,28,D13*%
%TO.N,unconnected-(A1-D13-Pad28)*%
X111820000Y-64940000D03*
%TO.P,A1,29,GND*%
%TO.N,GND*%
X109280000Y-64940000D03*
%TO.P,A1,30,AREF*%
%TO.N,unconnected-(A1-AREF-Pad30)*%
X106740000Y-64940000D03*
%TO.P,A1,31,SDA/A4*%
%TO.N,unconnected-(A1-SDA{slash}A4-Pad31)*%
X104200000Y-64940000D03*
%TO.P,A1,32,SCL/A5*%
%TO.N,unconnected-(A1-SCL{slash}A5-Pad32)*%
X101660000Y-64940000D03*
%TD*%
D18*
%TO.P,J8,2,Pin_2*%
%TO.N,Net-(J8-Pin_2)*%
X81235000Y-122400000D03*
D17*
%TO.P,J8,1,Pin_1*%
%TO.N,+5V*%
X76235000Y-122400000D03*
%TD*%
D18*
%TO.P,J7,2,Pin_2*%
%TO.N,Net-(J7-Pin_2)*%
X94300000Y-122400000D03*
D17*
%TO.P,J7,1,Pin_1*%
%TO.N,+5V*%
X89300000Y-122400000D03*
%TD*%
D18*
%TO.P,J6,2,Pin_2*%
%TO.N,Net-(J6-Pin_2)*%
X107300000Y-122400000D03*
D17*
%TO.P,J6,1,Pin_1*%
%TO.N,+5V*%
X102300000Y-122400000D03*
%TD*%
D18*
%TO.P,J5,2,Pin_2*%
%TO.N,Net-(J5-Pin_2)*%
X120400000Y-122500000D03*
D17*
%TO.P,J5,1,Pin_1*%
%TO.N,+5V*%
X115400000Y-122500000D03*
%TD*%
%TO.P,J2,1,Pin_1*%
%TO.N,+5V*%
X141900000Y-122500000D03*
D18*
%TO.P,J2,2,Pin_2*%
%TO.N,Net-(J2-Pin_2)*%
X146900000Y-122500000D03*
%TD*%
D14*
%TO.P,R12,2*%
%TO.N,Net-(Q6-G)*%
X106600000Y-99390000D03*
D13*
%TO.P,R12,1*%
%TO.N,GND*%
X106600000Y-107010000D03*
%TD*%
D14*
%TO.P,R11,2*%
%TO.N,Net-(Q6-G)*%
X115800000Y-77840000D03*
D13*
%TO.P,R11,1*%
%TO.N,/LED6*%
X115800000Y-70220000D03*
%TD*%
D14*
%TO.P,R10,2*%
%TO.N,Net-(Q5-G)*%
X106800000Y-84130000D03*
D13*
%TO.P,R10,1*%
%TO.N,GND*%
X106800000Y-91750000D03*
%TD*%
D14*
%TO.P,R9,2*%
%TO.N,Net-(Q5-G)*%
X120100000Y-77840000D03*
D13*
%TO.P,R9,1*%
%TO.N,/LED5*%
X120100000Y-70220000D03*
%TD*%
%TO.P,R8,1*%
%TO.N,GND*%
X121000000Y-106810000D03*
D14*
%TO.P,R8,2*%
%TO.N,Net-(Q4-G)*%
X121000000Y-99190000D03*
%TD*%
%TO.P,R7,2*%
%TO.N,Net-(Q4-G)*%
X123900000Y-78040000D03*
D13*
%TO.P,R7,1*%
%TO.N,/LED4*%
X123900000Y-70420000D03*
%TD*%
D14*
%TO.P,R6,2*%
%TO.N,Net-(Q3-G)*%
X121000000Y-83930000D03*
D13*
%TO.P,R6,1*%
%TO.N,GND*%
X121000000Y-91550000D03*
%TD*%
D14*
%TO.P,R5,2*%
%TO.N,Net-(Q3-G)*%
X130600000Y-78040000D03*
D13*
%TO.P,R5,1*%
%TO.N,/LED3*%
X130600000Y-70420000D03*
%TD*%
%TO.P,R4,1*%
%TO.N,GND*%
X136400000Y-106870000D03*
D14*
%TO.P,R4,2*%
%TO.N,Net-(Q2-G)*%
X136400000Y-99250000D03*
%TD*%
%TO.P,R3,2*%
%TO.N,Net-(Q2-G)*%
X134600000Y-77930000D03*
D13*
%TO.P,R3,1*%
%TO.N,/LED2*%
X134600000Y-70310000D03*
%TD*%
%TO.P,R2,1*%
%TO.N,GND*%
X136400000Y-91610000D03*
D14*
%TO.P,R2,2*%
%TO.N,Net-(Q1-G)*%
X136400000Y-83990000D03*
%TD*%
%TO.P,R1,2*%
%TO.N,Net-(Q1-G)*%
X138700000Y-77930000D03*
D13*
%TO.P,R1,1*%
%TO.N,/LED1*%
X138700000Y-70310000D03*
%TD*%
D19*
%TO.P,Q6,3,S*%
%TO.N,GND*%
X111455000Y-105740000D03*
%TO.P,Q6,2,D*%
%TO.N,Net-(J8-Pin_2)*%
X111455000Y-103200000D03*
D20*
%TO.P,Q6,1,G*%
%TO.N,Net-(Q6-G)*%
X111455000Y-100660000D03*
%TD*%
D19*
%TO.P,Q5,3,S*%
%TO.N,GND*%
X111455000Y-90480000D03*
%TO.P,Q5,2,D*%
%TO.N,Net-(J7-Pin_2)*%
X111455000Y-87940000D03*
D20*
%TO.P,Q5,1,G*%
%TO.N,Net-(Q5-G)*%
X111455000Y-85400000D03*
%TD*%
%TO.P,Q4,1,G*%
%TO.N,Net-(Q4-G)*%
X125055000Y-100460000D03*
D19*
%TO.P,Q4,2,D*%
%TO.N,Net-(J6-Pin_2)*%
X125055000Y-103000000D03*
%TO.P,Q4,3,S*%
%TO.N,GND*%
X125055000Y-105540000D03*
%TD*%
%TO.P,Q3,3,S*%
%TO.N,GND*%
X125055000Y-90280000D03*
%TO.P,Q3,2,D*%
%TO.N,Net-(J5-Pin_2)*%
X125055000Y-87740000D03*
D20*
%TO.P,Q3,1,G*%
%TO.N,Net-(Q3-G)*%
X125055000Y-85200000D03*
%TD*%
D19*
%TO.P,Q2,3,S*%
%TO.N,GND*%
X140455000Y-105600000D03*
%TO.P,Q2,2,D*%
%TO.N,Net-(J3-Pin_2)*%
X140455000Y-103060000D03*
D20*
%TO.P,Q2,1,G*%
%TO.N,Net-(Q2-G)*%
X140455000Y-100520000D03*
%TD*%
D19*
%TO.P,Q1,3,S*%
%TO.N,GND*%
X140455000Y-90340000D03*
%TO.P,Q1,2,D*%
%TO.N,Net-(J2-Pin_2)*%
X140455000Y-87800000D03*
D20*
%TO.P,Q1,1,G*%
%TO.N,Net-(Q1-G)*%
X140455000Y-85260000D03*
%TD*%
D21*
%TO.P,J4,1,Pin_1*%
%TO.N,GND*%
X146800000Y-73780000D03*
D22*
%TO.P,J4,2,Pin_2*%
%TO.N,unconnected-(J4-Pin_2-Pad2)*%
X146800000Y-76320000D03*
%TO.P,J4,3,Pin_3*%
%TO.N,unconnected-(J4-Pin_3-Pad3)*%
X146800000Y-78860000D03*
%TO.P,J4,4,Pin_4*%
%TO.N,/RX_FROM_PC*%
X146800000Y-81400000D03*
%TO.P,J4,5,Pin_5*%
%TO.N,/TX_TO_PC*%
X146800000Y-83940000D03*
%TO.P,J4,6,Pin_6*%
%TO.N,unconnected-(J4-Pin_6-Pad6)*%
X146800000Y-86480000D03*
%TD*%
D23*
%TO.N,/RX_FROM_PC*%
X146800000Y-81400000D02*
X145600000Y-81400000D01*
X145600000Y-81400000D02*
X144800000Y-80600000D01*
X146360000Y-67640000D02*
X146360000Y-64940000D01*
X144800000Y-80600000D02*
X144800000Y-69200000D01*
X144800000Y-69200000D02*
X146360000Y-67640000D01*
%TO.N,/TX_TO_PC*%
X146800000Y-83940000D02*
X145340000Y-83940000D01*
X145340000Y-83940000D02*
X143820000Y-82420000D01*
X143820000Y-82420000D02*
X143820000Y-64940000D01*
D24*
%TO.N,+5V*%
X132000000Y-99190000D02*
X132000000Y-101000000D01*
X132000000Y-101000000D02*
X134000000Y-103000000D01*
X134000000Y-103000000D02*
X134000000Y-112800000D01*
X134000000Y-112800000D02*
X128700000Y-118100000D01*
X128700000Y-118100000D02*
X128700000Y-122500000D01*
%TO.N,Net-(J6-Pin_2)*%
X107300000Y-122400000D02*
X107300000Y-119100000D01*
X107300000Y-119100000D02*
X118400000Y-108000000D01*
X118400000Y-104400000D02*
X119800000Y-103000000D01*
X118400000Y-108000000D02*
X118400000Y-104400000D01*
X119800000Y-103000000D02*
X125055000Y-103000000D01*
%TO.N,Net-(J7-Pin_2)*%
X94300000Y-122400000D02*
X94300000Y-118500000D01*
X94300000Y-118500000D02*
X101000000Y-111800000D01*
X101000000Y-111800000D02*
X111200000Y-111800000D01*
X114740000Y-87940000D02*
X111455000Y-87940000D01*
X111200000Y-111800000D02*
X116200000Y-106800000D01*
X116200000Y-106800000D02*
X116200000Y-89400000D01*
X116200000Y-89400000D02*
X114740000Y-87940000D01*
D25*
%TO.N,+5V*%
X100400000Y-100800000D02*
X101800000Y-99400000D01*
X97800000Y-100800000D02*
X100400000Y-100800000D01*
X101800000Y-99400000D02*
X101800000Y-97700000D01*
D24*
%TO.N,Net-(J5-Pin_2)*%
X129600000Y-108200000D02*
X129600000Y-89800000D01*
X120400000Y-118800000D02*
X120400000Y-122500000D01*
X129600000Y-108200000D02*
X127800000Y-110000000D01*
X117200000Y-112200000D02*
X117200000Y-115600000D01*
X127800000Y-110000000D02*
X119400000Y-110000000D01*
X119400000Y-110000000D02*
X117200000Y-112200000D01*
X117200000Y-115600000D02*
X120400000Y-118800000D01*
X125055000Y-87740000D02*
X127540000Y-87740000D01*
X127540000Y-87740000D02*
X129600000Y-89800000D01*
%TO.N,Net-(J3-Pin_2)*%
X140455000Y-103060000D02*
X142860000Y-103060000D01*
X144800000Y-111000000D02*
X141000000Y-114800000D01*
X142860000Y-103060000D02*
X144800000Y-105000000D01*
X144800000Y-105000000D02*
X144800000Y-111000000D01*
X136400000Y-114800000D02*
X133700000Y-117500000D01*
X141000000Y-114800000D02*
X136400000Y-114800000D01*
X133700000Y-117500000D02*
X133700000Y-122500000D01*
%TO.N,Net-(J2-Pin_2)*%
X146900000Y-91900000D02*
X142800000Y-87800000D01*
X146900000Y-122500000D02*
X146900000Y-91900000D01*
X142800000Y-87800000D02*
X140455000Y-87800000D01*
%TO.N,Net-(J8-Pin_2)*%
X81235000Y-122400000D02*
X81235000Y-112565000D01*
X81235000Y-112565000D02*
X84400000Y-109400000D01*
X103000000Y-103200000D02*
X111455000Y-103200000D01*
X84400000Y-109400000D02*
X96800000Y-109400000D01*
X96800000Y-109400000D02*
X103000000Y-103200000D01*
D25*
%TO.N,+5V*%
X97800000Y-100800000D02*
X97800000Y-103400000D01*
X97800000Y-103400000D02*
X95600000Y-105600000D01*
X81000000Y-105600000D02*
X76700000Y-109900000D01*
X95600000Y-105600000D02*
X81000000Y-105600000D01*
X76700000Y-109900000D02*
X76700000Y-125500000D01*
X76700000Y-125500000D02*
X78600000Y-127400000D01*
X78600000Y-127400000D02*
X115400000Y-127400000D01*
%TO.N,Net-(U1-IN)*%
X94250000Y-84600000D02*
X94250000Y-87750000D01*
X94250000Y-87750000D02*
X95500000Y-89000000D01*
X86400000Y-89200000D02*
X91000000Y-84600000D01*
X86400000Y-92200000D02*
X86400000Y-89200000D01*
X91000000Y-84600000D02*
X94250000Y-84600000D01*
%TO.N,+5V*%
X89300000Y-122400000D02*
X89300000Y-127300000D01*
X102300000Y-122400000D02*
X102300000Y-127300000D01*
X115400000Y-127400000D02*
X128600000Y-127400000D01*
X115400000Y-122500000D02*
X115400000Y-127400000D01*
X128600000Y-127400000D02*
X141000000Y-127400000D01*
X128700000Y-122500000D02*
X128700000Y-127300000D01*
X141000000Y-127400000D02*
X141900000Y-126500000D01*
X141900000Y-126500000D02*
X141900000Y-122500000D01*
%TD*%
%TA.AperFunction,Conductor*%
%TO.N,GND*%
G36*
X125574075Y-113007007D02*
G01*
X125540000Y-113134174D01*
X125540000Y-113265826D01*
X125574075Y-113392993D01*
X125606988Y-113450000D01*
X123933012Y-113450000D01*
X123965925Y-113392993D01*
X124000000Y-113265826D01*
X124000000Y-113134174D01*
X123965925Y-113007007D01*
X123933012Y-112950000D01*
X125606988Y-112950000D01*
X125574075Y-113007007D01*
G37*
%TD.AperFunction*%
%TA.AperFunction,Conductor*%
G36*
X149003736Y-62500726D02*
G01*
X149293796Y-62518271D01*
X149308659Y-62520076D01*
X149590798Y-62571780D01*
X149605335Y-62575363D01*
X149879172Y-62660695D01*
X149893163Y-62666000D01*
X150154743Y-62783727D01*
X150167989Y-62790680D01*
X150413465Y-62939075D01*
X150425776Y-62947573D01*
X150651573Y-63124473D01*
X150662781Y-63134403D01*
X150865596Y-63337218D01*
X150875526Y-63348426D01*
X150995481Y-63501538D01*
X151052422Y-63574217D01*
X151060926Y-63586537D01*
X151201633Y-63819295D01*
X151209316Y-63832004D01*
X151216275Y-63845263D01*
X151333997Y-64106831D01*
X151339306Y-64120832D01*
X151424635Y-64394663D01*
X151428219Y-64409201D01*
X151479923Y-64691340D01*
X151481728Y-64706205D01*
X151499274Y-64996263D01*
X151499500Y-65003750D01*
X151499500Y-126996249D01*
X151499274Y-127003736D01*
X151481728Y-127293794D01*
X151479923Y-127308659D01*
X151428219Y-127590798D01*
X151424635Y-127605336D01*
X151339306Y-127879167D01*
X151333997Y-127893168D01*
X151216275Y-128154736D01*
X151209316Y-128167995D01*
X151060928Y-128413459D01*
X151052422Y-128425782D01*
X150875526Y-128651573D01*
X150865596Y-128662781D01*
X150662781Y-128865596D01*
X150651573Y-128875526D01*
X150425782Y-129052422D01*
X150413459Y-129060928D01*
X150167995Y-129209316D01*
X150154736Y-129216275D01*
X149893168Y-129333997D01*
X149879167Y-129339306D01*
X149605336Y-129424635D01*
X149590798Y-129428219D01*
X149308659Y-129479923D01*
X149293794Y-129481728D01*
X149003736Y-129499274D01*
X148996249Y-129499500D01*
X75003751Y-129499500D01*
X74996264Y-129499274D01*
X74706205Y-129481728D01*
X74691340Y-129479923D01*
X74409201Y-129428219D01*
X74394663Y-129424635D01*
X74120832Y-129339306D01*
X74106831Y-129333997D01*
X73845263Y-129216275D01*
X73832004Y-129209316D01*
X73586540Y-129060928D01*
X73574217Y-129052422D01*
X73348426Y-128875526D01*
X73337218Y-128865596D01*
X73134403Y-128662781D01*
X73124473Y-128651573D01*
X72947573Y-128425776D01*
X72939075Y-128413465D01*
X72790680Y-128167989D01*
X72783727Y-128154743D01*
X72666000Y-127893163D01*
X72660693Y-127879167D01*
X72575364Y-127605336D01*
X72571780Y-127590798D01*
X72520076Y-127308659D01*
X72518271Y-127293794D01*
X72500726Y-127003736D01*
X72500500Y-126996249D01*
X72500500Y-120388475D01*
X74844500Y-120388475D01*
X74844500Y-124411517D01*
X74855292Y-124479657D01*
X74859354Y-124505304D01*
X74916950Y-124618342D01*
X74916952Y-124618344D01*
X74916954Y-124618347D01*
X75006652Y-124708045D01*
X75006654Y-124708046D01*
X75006658Y-124708050D01*
X75119694Y-124765645D01*
X75119698Y-124765647D01*
X75213475Y-124780499D01*
X75213481Y-124780500D01*
X75675500Y-124780499D01*
X75742539Y-124800183D01*
X75788294Y-124852987D01*
X75799500Y-124904499D01*
X75799500Y-125588696D01*
X75834103Y-125762659D01*
X75834106Y-125762669D01*
X75849792Y-125800536D01*
X75849793Y-125800539D01*
X75901984Y-125926542D01*
X75901985Y-125926544D01*
X75961063Y-126014960D01*
X75961064Y-126014961D01*
X76000537Y-126074038D01*
X77900536Y-127974035D01*
X78025965Y-128099464D01*
X78173453Y-128198013D01*
X78221452Y-128217895D01*
X78337334Y-128265895D01*
X78511303Y-128300499D01*
X78511307Y-128300500D01*
X78511308Y-128300500D01*
X141088693Y-128300500D01*
X141088694Y-128300499D01*
X141262666Y-128265895D01*
X141344606Y-128231953D01*
X141426547Y-128198013D01*
X141426549Y-128198011D01*
X141426552Y-128198010D01*
X141514955Y-128138939D01*
X141514955Y-128138938D01*
X141514959Y-128138936D01*
X141574036Y-128099464D01*
X142599464Y-127074036D01*
X142648933Y-127000000D01*
X142698013Y-126926547D01*
X142739675Y-126825965D01*
X142765895Y-126762666D01*
X142800500Y-126588692D01*
X142800500Y-126411308D01*
X142800500Y-125004499D01*
X142820185Y-124937460D01*
X142872989Y-124891705D01*
X142916769Y-124882180D01*
X142916667Y-124880881D01*
X142921511Y-124880499D01*
X142921518Y-124880499D01*
X143015304Y-124865646D01*
X143128342Y-124808050D01*
X143218050Y-124718342D01*
X143275646Y-124605304D01*
X143275646Y-124605302D01*
X143275647Y-124605301D01*
X143288331Y-124525216D01*
X143290500Y-124511519D01*
X143290499Y-120488482D01*
X143275646Y-120394696D01*
X143218050Y-120281658D01*
X143218046Y-120281654D01*
X143218045Y-120281652D01*
X143128347Y-120191954D01*
X143128344Y-120191952D01*
X143128342Y-120191950D01*
X143051517Y-120152805D01*
X143015301Y-120134352D01*
X142921524Y-120119500D01*
X140878482Y-120119500D01*
X140797519Y-120132323D01*
X140784696Y-120134354D01*
X140671658Y-120191950D01*
X140671657Y-120191951D01*
X140671652Y-120191954D01*
X140581954Y-120281652D01*
X140581951Y-120281657D01*
X140581950Y-120281658D01*
X140575306Y-120294698D01*
X140524352Y-120394698D01*
X140509500Y-120488475D01*
X140509500Y-124511517D01*
X140516385Y-124554987D01*
X140524354Y-124605304D01*
X140581950Y-124718342D01*
X140581952Y-124718344D01*
X140581954Y-124718347D01*
X140671652Y-124808045D01*
X140671654Y-124808046D01*
X140671658Y-124808050D01*
X140784694Y-124865645D01*
X140784698Y-124865647D01*
X140878476Y-124880500D01*
X140883332Y-124880882D01*
X140883183Y-124882769D01*
X140942484Y-124900148D01*
X140988267Y-124952928D01*
X140999500Y-125004499D01*
X140999500Y-126075638D01*
X140979815Y-126142677D01*
X140963181Y-126163319D01*
X140663319Y-126463181D01*
X140601996Y-126496666D01*
X140575638Y-126499500D01*
X129724500Y-126499500D01*
X129657461Y-126479815D01*
X129611706Y-126427011D01*
X129600500Y-126375500D01*
X129600500Y-125004499D01*
X129620185Y-124937460D01*
X129672989Y-124891705D01*
X129716769Y-124882180D01*
X129716667Y-124880881D01*
X129721511Y-124880499D01*
X129721518Y-124880499D01*
X129815304Y-124865646D01*
X129928342Y-124808050D01*
X130018050Y-124718342D01*
X130075646Y-124605304D01*
X130075646Y-124605302D01*
X130075647Y-124605301D01*
X130088331Y-124525216D01*
X130090500Y-124511519D01*
X130090499Y-121400559D01*
X132309500Y-121400559D01*
X132309500Y-123599440D01*
X132343737Y-123815606D01*
X132343738Y-123815610D01*
X132411373Y-124023767D01*
X132510737Y-124218781D01*
X132639386Y-124395850D01*
X132794150Y-124550614D01*
X132971219Y-124679263D01*
X133166233Y-124778627D01*
X133374390Y-124846262D01*
X133436154Y-124856044D01*
X133590560Y-124880500D01*
X133590565Y-124880500D01*
X133809440Y-124880500D01*
X133929532Y-124861478D01*
X134025610Y-124846262D01*
X134233767Y-124778627D01*
X134428781Y-124679263D01*
X134605850Y-124550614D01*
X134760614Y-124395850D01*
X134889263Y-124218781D01*
X134988627Y-124023767D01*
X135056262Y-123815610D01*
X135072101Y-123715606D01*
X135090500Y-123599440D01*
X135090500Y-121400559D01*
X135056262Y-121184393D01*
X135056262Y-121184390D01*
X134988627Y-120976233D01*
X134889263Y-120781219D01*
X134760614Y-120604150D01*
X134605850Y-120449386D01*
X134428781Y-120320737D01*
X134421791Y-120317175D01*
X134418203Y-120315347D01*
X134367408Y-120267371D01*
X134350500Y-120204863D01*
X134350500Y-117820808D01*
X134370185Y-117753769D01*
X134386819Y-117733127D01*
X136633127Y-115486819D01*
X136694450Y-115453334D01*
X136720808Y-115450500D01*
X141064071Y-115450500D01*
X141148615Y-115433682D01*
X141189744Y-115425501D01*
X141308127Y-115376465D01*
X141414669Y-115305277D01*
X145305277Y-111414669D01*
X145376466Y-111308126D01*
X145425501Y-111189743D01*
X145428534Y-111174499D01*
X145428535Y-111174496D01*
X145450499Y-111064073D01*
X145450500Y-111064071D01*
X145450500Y-104935928D01*
X145425502Y-104810261D01*
X145425501Y-104810260D01*
X145425501Y-104810256D01*
X145376465Y-104691873D01*
X145308226Y-104589746D01*
X145308225Y-104589741D01*
X145308224Y-104589742D01*
X145305275Y-104585328D01*
X143274673Y-102554726D01*
X143253574Y-102540628D01*
X143168127Y-102483535D01*
X143161106Y-102480627D01*
X143049744Y-102434499D01*
X143049738Y-102434497D01*
X142924071Y-102409500D01*
X142924069Y-102409500D01*
X141765060Y-102409500D01*
X141698021Y-102389815D01*
X141663261Y-102354300D01*
X141662554Y-102354815D01*
X141649728Y-102337162D01*
X141534511Y-102178579D01*
X141436234Y-102080302D01*
X141402749Y-102018979D01*
X141407733Y-101949287D01*
X141449605Y-101893354D01*
X141504516Y-101870148D01*
X141580304Y-101858146D01*
X141693342Y-101800550D01*
X141783050Y-101710842D01*
X141840646Y-101597804D01*
X141840646Y-101597802D01*
X141840647Y-101597801D01*
X141855499Y-101504024D01*
X141855500Y-101504019D01*
X141855499Y-99535982D01*
X141840646Y-99442196D01*
X141783050Y-99329158D01*
X141783046Y-99329154D01*
X141783045Y-99329152D01*
X141693347Y-99239454D01*
X141693344Y-99239452D01*
X141693342Y-99239450D01*
X141616517Y-99200305D01*
X141580301Y-99181852D01*
X141486524Y-99167000D01*
X139423482Y-99167000D01*
X139344869Y-99179451D01*
X139329696Y-99181854D01*
X139216658Y-99239450D01*
X139216657Y-99239451D01*
X139216652Y-99239454D01*
X139126954Y-99329152D01*
X139126951Y-99329157D01*
X139069352Y-99442198D01*
X139054500Y-99535975D01*
X139054500Y-101504017D01*
X139064390Y-101566463D01*
X139069354Y-101597804D01*
X139126950Y-101710842D01*
X139126952Y-101710844D01*
X139126954Y-101710847D01*
X139216652Y-101800545D01*
X139216654Y-101800546D01*
X139216658Y-101800550D01*
X139329696Y-101858146D01*
X139405482Y-101870149D01*
X139468615Y-101900077D01*
X139505547Y-101959389D01*
X139504549Y-102029251D01*
X139473765Y-102080303D01*
X139375488Y-102178580D01*
X139250310Y-102350872D01*
X139153624Y-102540627D01*
X139153623Y-102540630D01*
X139087815Y-102743170D01*
X139054500Y-102953511D01*
X139054500Y-103166488D01*
X139087815Y-103376829D01*
X139153623Y-103579369D01*
X139153624Y-103579372D01*
X139248301Y-103765185D01*
X139250310Y-103769127D01*
X139375489Y-103941421D01*
X139526079Y-104092011D01*
X139624500Y-104163518D01*
X139630928Y-104168188D01*
X139673593Y-104223518D01*
X139679572Y-104293132D01*
X139646966Y-104354926D01*
X139630928Y-104368824D01*
X139461258Y-104492097D01*
X139461257Y-104492097D01*
X139299597Y-104653757D01*
X139165211Y-104838723D01*
X139061417Y-105042429D01*
X138990765Y-105259871D01*
X138976491Y-105350000D01*
X139964252Y-105350000D01*
X139942482Y-105387708D01*
X139905000Y-105527591D01*
X139905000Y-105672409D01*
X139942482Y-105812292D01*
X139964252Y-105850000D01*
X138976491Y-105850000D01*
X138990765Y-105940128D01*
X139061417Y-106157570D01*
X139165211Y-106361276D01*
X139299597Y-106546242D01*
X139461257Y-106707902D01*
X139646223Y-106842288D01*
X139849929Y-106946082D01*
X140067371Y-107016734D01*
X140205000Y-107038532D01*
X140205000Y-106090747D01*
X140242708Y-106112518D01*
X140382591Y-106150000D01*
X140527409Y-106150000D01*
X140667292Y-106112518D01*
X140705000Y-106090747D01*
X140705000Y-107038531D01*
X140842628Y-107016734D01*
X141060070Y-106946082D01*
X141263776Y-106842288D01*
X141448742Y-106707902D01*
X141610402Y-106546242D01*
X141744788Y-106361276D01*
X141848582Y-106157570D01*
X141919234Y-105940128D01*
X141933509Y-105850000D01*
X140945748Y-105850000D01*
X140967518Y-105812292D01*
X141005000Y-105672409D01*
X141005000Y-105527591D01*
X140967518Y-105387708D01*
X140945748Y-105350000D01*
X141933509Y-105350000D01*
X141919234Y-105259871D01*
X141848582Y-105042429D01*
X141744788Y-104838723D01*
X141610402Y-104653757D01*
X141448742Y-104492097D01*
X141448736Y-104492092D01*
X141279072Y-104368824D01*
X141236406Y-104313494D01*
X141230427Y-104243881D01*
X141263033Y-104182086D01*
X141279072Y-104168188D01*
X141285500Y-104163518D01*
X141383921Y-104092011D01*
X141534511Y-103941421D01*
X141659690Y-103769127D01*
X141659690Y-103769126D01*
X141662554Y-103765185D01*
X141663543Y-103765903D01*
X141711137Y-103722838D01*
X141765060Y-103710500D01*
X142539192Y-103710500D01*
X142606231Y-103730185D01*
X142626873Y-103746819D01*
X144113181Y-105233127D01*
X144146666Y-105294450D01*
X144149500Y-105320808D01*
X144149500Y-110679192D01*
X144129815Y-110746231D01*
X144113181Y-110766873D01*
X140766873Y-114113181D01*
X140705550Y-114146666D01*
X140679192Y-114149500D01*
X136335929Y-114149500D01*
X136210261Y-114174497D01*
X136210251Y-114174500D01*
X136161220Y-114194810D01*
X136091881Y-114223530D01*
X136091863Y-114223540D01*
X135985332Y-114294721D01*
X135985325Y-114294727D01*
X133194726Y-117085326D01*
X133123534Y-117191874D01*
X133074499Y-117310255D01*
X133074497Y-117310261D01*
X133049500Y-117435928D01*
X133049500Y-120204863D01*
X133029815Y-120271902D01*
X132981797Y-120315347D01*
X132971219Y-120320737D01*
X132794150Y-120449386D01*
X132794148Y-120449388D01*
X132794147Y-120449388D01*
X132639388Y-120604147D01*
X132639388Y-120604148D01*
X132639386Y-120604150D01*
X132584136Y-120680193D01*
X132510737Y-120781218D01*
X132411374Y-120976230D01*
X132343737Y-121184393D01*
X132309500Y-121400559D01*
X130090499Y-121400559D01*
X130090499Y-120488482D01*
X130075646Y-120394696D01*
X130018050Y-120281658D01*
X130018046Y-120281654D01*
X130018045Y-120281652D01*
X129928347Y-120191954D01*
X129928344Y-120191952D01*
X129928342Y-120191950D01*
X129851517Y-120152805D01*
X129815301Y-120134352D01*
X129721524Y-120119500D01*
X129721519Y-120119500D01*
X129474500Y-120119500D01*
X129407461Y-120099815D01*
X129361706Y-120047011D01*
X129350500Y-119995500D01*
X129350500Y-118420808D01*
X129370185Y-118353769D01*
X129386819Y-118333127D01*
X134505273Y-113214673D01*
X134505277Y-113214669D01*
X134576465Y-113108127D01*
X134625501Y-112989744D01*
X134635926Y-112937334D01*
X134650500Y-112864069D01*
X134650500Y-106869997D01*
X135095034Y-106869997D01*
X135095034Y-106870002D01*
X135114858Y-107096599D01*
X135114860Y-107096610D01*
X135173730Y-107316317D01*
X135173735Y-107316331D01*
X135269863Y-107522478D01*
X135320974Y-107595472D01*
X136000000Y-106916446D01*
X136000000Y-106922661D01*
X136027259Y-107024394D01*
X136079920Y-107115606D01*
X136154394Y-107190080D01*
X136245606Y-107242741D01*
X136347339Y-107270000D01*
X136353553Y-107270000D01*
X135674526Y-107949025D01*
X135747513Y-108000132D01*
X135747521Y-108000136D01*
X135953668Y-108096264D01*
X135953682Y-108096269D01*
X136173389Y-108155139D01*
X136173400Y-108155141D01*
X136399998Y-108174966D01*
X136400002Y-108174966D01*
X136626599Y-108155141D01*
X136626610Y-108155139D01*
X136846317Y-108096269D01*
X136846331Y-108096264D01*
X137052478Y-108000136D01*
X137125471Y-107949024D01*
X136446447Y-107270000D01*
X136452661Y-107270000D01*
X136554394Y-107242741D01*
X136645606Y-107190080D01*
X136720080Y-107115606D01*
X136772741Y-107024394D01*
X136800000Y-106922661D01*
X136800000Y-106916447D01*
X137479024Y-107595471D01*
X137530136Y-107522478D01*
X137626264Y-107316331D01*
X137626269Y-107316317D01*
X137685139Y-107096610D01*
X137685141Y-107096599D01*
X137704966Y-106870002D01*
X137704966Y-106869997D01*
X137685141Y-106643400D01*
X137685139Y-106643389D01*
X137626269Y-106423682D01*
X137626264Y-106423668D01*
X137530136Y-106217521D01*
X137530132Y-106217513D01*
X137479025Y-106144526D01*
X136800000Y-106823551D01*
X136800000Y-106817339D01*
X136772741Y-106715606D01*
X136720080Y-106624394D01*
X136645606Y-106549920D01*
X136554394Y-106497259D01*
X136452661Y-106470000D01*
X136446448Y-106470000D01*
X137125472Y-105790974D01*
X137052478Y-105739863D01*
X136846331Y-105643735D01*
X136846317Y-105643730D01*
X136626610Y-105584860D01*
X136626599Y-105584858D01*
X136400002Y-105565034D01*
X136399998Y-105565034D01*
X136173400Y-105584858D01*
X136173389Y-105584860D01*
X135953682Y-105643730D01*
X135953673Y-105643734D01*
X135747516Y-105739866D01*
X135747512Y-105739868D01*
X135674526Y-105790973D01*
X135674526Y-105790974D01*
X136353553Y-106470000D01*
X136347339Y-106470000D01*
X136245606Y-106497259D01*
X136154394Y-106549920D01*
X136079920Y-106624394D01*
X136027259Y-106715606D01*
X136000000Y-106817339D01*
X136000000Y-106823552D01*
X135320974Y-106144526D01*
X135320973Y-106144526D01*
X135269868Y-106217512D01*
X135269866Y-106217516D01*
X135173734Y-106423673D01*
X135173730Y-106423682D01*
X135114860Y-106643389D01*
X135114858Y-106643400D01*
X135095034Y-106869997D01*
X134650500Y-106869997D01*
X134650500Y-102935931D01*
X134650500Y-102935928D01*
X134625502Y-102810261D01*
X134625501Y-102810260D01*
X134625501Y-102810256D01*
X134576465Y-102691873D01*
X134576464Y-102691872D01*
X134576461Y-102691866D01*
X134505277Y-102585332D01*
X134460572Y-102540627D01*
X134414669Y-102494724D01*
X134414668Y-102494723D01*
X133551769Y-101631824D01*
X132686819Y-100766873D01*
X132653334Y-100705550D01*
X132650500Y-100679192D01*
X132650500Y-100617989D01*
X132670185Y-100550950D01*
X132715483Y-100508934D01*
X132823507Y-100450475D01*
X132823506Y-100450475D01*
X132823509Y-100450474D01*
X133019744Y-100297738D01*
X133188164Y-100114785D01*
X133324173Y-99906607D01*
X133424063Y-99678881D01*
X133485108Y-99437821D01*
X133489717Y-99382197D01*
X133500672Y-99249999D01*
X135194357Y-99249999D01*
X135194357Y-99250000D01*
X135214884Y-99471535D01*
X135214885Y-99471537D01*
X135275769Y-99685523D01*
X135275775Y-99685538D01*
X135374938Y-99884683D01*
X135374943Y-99884691D01*
X135509020Y-100062238D01*
X135673437Y-100212123D01*
X135673439Y-100212125D01*
X135862595Y-100329245D01*
X135862596Y-100329245D01*
X135862599Y-100329247D01*
X136070060Y-100409618D01*
X136288757Y-100450500D01*
X136288759Y-100450500D01*
X136511241Y-100450500D01*
X136511243Y-100450500D01*
X136729940Y-100409618D01*
X136937401Y-100329247D01*
X137126562Y-100212124D01*
X137290981Y-100062236D01*
X137425058Y-99884689D01*
X137524229Y-99685528D01*
X137585115Y-99471536D01*
X137605643Y-99250000D01*
X137605191Y-99245127D01*
X137585115Y-99028464D01*
X137585114Y-99028462D01*
X137570084Y-98975638D01*
X137524229Y-98814472D01*
X137494773Y-98755316D01*
X137425061Y-98615316D01*
X137425056Y-98615308D01*
X137290979Y-98437761D01*
X137126562Y-98287876D01*
X137126560Y-98287874D01*
X136937404Y-98170754D01*
X136937398Y-98170752D01*
X136729940Y-98090382D01*
X136511243Y-98049500D01*
X136288757Y-98049500D01*
X136070060Y-98090382D01*
X135953538Y-98135523D01*
X135862601Y-98170752D01*
X135862595Y-98170754D01*
X135673439Y-98287874D01*
X135673437Y-98287876D01*
X135509020Y-98437761D01*
X135374943Y-98615308D01*
X135374938Y-98615316D01*
X135275775Y-98814461D01*
X135275769Y-98814476D01*
X135214885Y-99028462D01*
X135214884Y-99028464D01*
X135194357Y-99249999D01*
X133500672Y-99249999D01*
X133505643Y-99190005D01*
X133505643Y-99189994D01*
X133485109Y-98942187D01*
X133485107Y-98942175D01*
X133424063Y-98701118D01*
X133324173Y-98473393D01*
X133188166Y-98265217D01*
X133148384Y-98222002D01*
X133019744Y-98082262D01*
X132823509Y-97929526D01*
X132823507Y-97929525D01*
X132823506Y-97929524D01*
X132604811Y-97811172D01*
X132604802Y-97811169D01*
X132369616Y-97730429D01*
X132124335Y-97689500D01*
X131875665Y-97689500D01*
X131630383Y-97730429D01*
X131395197Y-97811169D01*
X131395188Y-97811172D01*
X131176493Y-97929524D01*
X130980257Y-98082261D01*
X130811833Y-98265217D01*
X130675826Y-98473393D01*
X130575936Y-98701118D01*
X130514892Y-98942175D01*
X130514890Y-98942187D01*
X130498076Y-99145112D01*
X130480659Y-99190247D01*
X130493477Y-99210192D01*
X130498076Y-99234887D01*
X130514890Y-99437812D01*
X130514892Y-99437824D01*
X130575936Y-99678881D01*
X130675826Y-99906606D01*
X130811833Y-100114782D01*
X130811836Y-100114785D01*
X130980256Y-100297738D01*
X131102764Y-100393090D01*
X131176488Y-100450472D01*
X131176492Y-100450475D01*
X131284517Y-100508934D01*
X131334108Y-100558153D01*
X131349500Y-100617989D01*
X131349500Y-101064069D01*
X131349500Y-101064071D01*
X131349499Y-101064071D01*
X131374497Y-101189738D01*
X131374499Y-101189744D01*
X131423534Y-101308125D01*
X131494726Y-101414673D01*
X131494727Y-101414674D01*
X133313181Y-103233126D01*
X133346666Y-103294449D01*
X133349500Y-103320807D01*
X133349500Y-105198839D01*
X133329815Y-105265878D01*
X133277011Y-105311633D01*
X133207853Y-105321577D01*
X133206102Y-105321312D01*
X133131524Y-105309500D01*
X130868482Y-105309500D01*
X130787519Y-105322323D01*
X130774696Y-105324354D01*
X130661658Y-105381950D01*
X130661657Y-105381951D01*
X130661652Y-105381954D01*
X130571954Y-105471652D01*
X130571951Y-105471657D01*
X130514352Y-105584698D01*
X130499500Y-105678475D01*
X130499500Y-107941517D01*
X130508784Y-108000132D01*
X130514354Y-108035304D01*
X130571950Y-108148342D01*
X130571952Y-108148344D01*
X130571954Y-108148347D01*
X130661652Y-108238045D01*
X130661654Y-108238046D01*
X130661658Y-108238050D01*
X130773701Y-108295139D01*
X130774698Y-108295647D01*
X130868475Y-108310499D01*
X130868481Y-108310500D01*
X133131518Y-108310499D01*
X133131523Y-108310499D01*
X133206103Y-108298687D01*
X133275396Y-108307642D01*
X133328848Y-108352638D01*
X133349487Y-108419390D01*
X133349500Y-108421160D01*
X133349500Y-112479191D01*
X133329815Y-112546230D01*
X133313181Y-112566872D01*
X128194727Y-117685325D01*
X128194726Y-117685326D01*
X128123534Y-117791874D01*
X128074499Y-117910255D01*
X128074497Y-117910261D01*
X128049500Y-118035928D01*
X128049500Y-119995500D01*
X128029815Y-120062539D01*
X127977011Y-120108294D01*
X127925500Y-120119500D01*
X127678482Y-120119500D01*
X127597519Y-120132323D01*
X127584696Y-120134354D01*
X127471658Y-120191950D01*
X127471657Y-120191951D01*
X127471652Y-120191954D01*
X127381954Y-120281652D01*
X127381951Y-120281657D01*
X127381950Y-120281658D01*
X127375306Y-120294698D01*
X127324352Y-120394698D01*
X127309500Y-120488475D01*
X127309500Y-124511517D01*
X127316385Y-124554987D01*
X127324354Y-124605304D01*
X127381950Y-124718342D01*
X127381952Y-124718344D01*
X127381954Y-124718347D01*
X127471652Y-124808045D01*
X127471654Y-124808046D01*
X127471658Y-124808050D01*
X127584694Y-124865645D01*
X127584698Y-124865647D01*
X127678476Y-124880500D01*
X127683332Y-124880882D01*
X127683183Y-124882769D01*
X127742484Y-124900148D01*
X127788267Y-124952928D01*
X127799500Y-125004499D01*
X127799500Y-126375500D01*
X127779815Y-126442539D01*
X127727011Y-126488294D01*
X127675500Y-126499500D01*
X116424500Y-126499500D01*
X116357461Y-126479815D01*
X116311706Y-126427011D01*
X116300500Y-126375500D01*
X116300500Y-125004499D01*
X116320185Y-124937460D01*
X116372989Y-124891705D01*
X116416769Y-124882180D01*
X116416667Y-124880881D01*
X116421511Y-124880499D01*
X116421518Y-124880499D01*
X116515304Y-124865646D01*
X116628342Y-124808050D01*
X116718050Y-124718342D01*
X116775646Y-124605304D01*
X116775646Y-124605302D01*
X116775647Y-124605301D01*
X116788331Y-124525216D01*
X116790500Y-124511519D01*
X116790499Y-120488482D01*
X116775646Y-120394696D01*
X116718050Y-120281658D01*
X116718046Y-120281654D01*
X116718045Y-120281652D01*
X116628347Y-120191954D01*
X116628344Y-120191952D01*
X116628342Y-120191950D01*
X116551517Y-120152805D01*
X116515301Y-120134352D01*
X116421524Y-120119500D01*
X114378482Y-120119500D01*
X114297519Y-120132323D01*
X114284696Y-120134354D01*
X114171658Y-120191950D01*
X114171657Y-120191951D01*
X114171652Y-120191954D01*
X114081954Y-120281652D01*
X114081951Y-120281657D01*
X114081950Y-120281658D01*
X114075306Y-120294698D01*
X114024352Y-120394698D01*
X114009500Y-120488475D01*
X114009500Y-124511517D01*
X114016385Y-124554987D01*
X114024354Y-124605304D01*
X114081950Y-124718342D01*
X114081952Y-124718344D01*
X114081954Y-124718347D01*
X114171652Y-124808045D01*
X114171654Y-124808046D01*
X114171658Y-124808050D01*
X114284694Y-124865645D01*
X114284698Y-124865647D01*
X114378476Y-124880500D01*
X114383332Y-124880882D01*
X114383183Y-124882769D01*
X114442484Y-124900148D01*
X114488267Y-124952928D01*
X114499500Y-125004499D01*
X114499500Y-126375500D01*
X114479815Y-126442539D01*
X114427011Y-126488294D01*
X114375500Y-126499500D01*
X103324500Y-126499500D01*
X103257461Y-126479815D01*
X103211706Y-126427011D01*
X103200500Y-126375500D01*
X103200500Y-124904499D01*
X103220185Y-124837460D01*
X103272989Y-124791705D01*
X103316769Y-124782180D01*
X103316667Y-124780881D01*
X103321511Y-124780499D01*
X103321518Y-124780499D01*
X103415304Y-124765646D01*
X103528342Y-124708050D01*
X103618050Y-124618342D01*
X103675646Y-124505304D01*
X103675646Y-124505302D01*
X103675647Y-124505301D01*
X103690499Y-124411524D01*
X103690500Y-124411519D01*
X103690499Y-121300559D01*
X105909500Y-121300559D01*
X105909500Y-123499440D01*
X105943737Y-123715606D01*
X105943738Y-123715610D01*
X106011373Y-123923767D01*
X106110737Y-124118781D01*
X106239386Y-124295850D01*
X106394150Y-124450614D01*
X106571219Y-124579263D01*
X106766233Y-124678627D01*
X106974390Y-124746262D01*
X107036154Y-124756044D01*
X107190560Y-124780500D01*
X107190565Y-124780500D01*
X107409440Y-124780500D01*
X107529532Y-124761478D01*
X107625610Y-124746262D01*
X107833767Y-124678627D01*
X108028781Y-124579263D01*
X108205850Y-124450614D01*
X108360614Y-124295850D01*
X108489263Y-124118781D01*
X108588627Y-123923767D01*
X108656262Y-123715610D01*
X108674662Y-123599435D01*
X108690500Y-123499440D01*
X108690500Y-121300559D01*
X108656262Y-121084393D01*
X108656262Y-121084390D01*
X108588627Y-120876233D01*
X108489263Y-120681219D01*
X108360614Y-120504150D01*
X108205850Y-120349386D01*
X108028781Y-120220737D01*
X108021791Y-120217175D01*
X108018203Y-120215347D01*
X107967408Y-120167371D01*
X107950500Y-120104863D01*
X107950500Y-119420808D01*
X107970185Y-119353769D01*
X107986819Y-119333127D01*
X111655875Y-115664071D01*
X116549499Y-115664071D01*
X116574497Y-115789738D01*
X116574499Y-115789744D01*
X116623534Y-115908125D01*
X116694726Y-116014673D01*
X116694727Y-116014674D01*
X119713181Y-119033127D01*
X119746666Y-119094450D01*
X119749500Y-119120808D01*
X119749500Y-120204863D01*
X119729815Y-120271902D01*
X119681797Y-120315347D01*
X119671219Y-120320737D01*
X119494150Y-120449386D01*
X119494148Y-120449388D01*
X119494147Y-120449388D01*
X119339388Y-120604147D01*
X119339388Y-120604148D01*
X119339386Y-120604150D01*
X119284136Y-120680193D01*
X119210737Y-120781218D01*
X119111374Y-120976230D01*
X119043737Y-121184393D01*
X119009500Y-121400559D01*
X119009500Y-123599440D01*
X119043737Y-123815606D01*
X119043738Y-123815610D01*
X119111373Y-124023767D01*
X119210737Y-124218781D01*
X119339386Y-124395850D01*
X119494150Y-124550614D01*
X119671219Y-124679263D01*
X119866233Y-124778627D01*
X120074390Y-124846262D01*
X120136154Y-124856044D01*
X120290560Y-124880500D01*
X120290565Y-124880500D01*
X120509440Y-124880500D01*
X120629532Y-124861478D01*
X120725610Y-124846262D01*
X120933767Y-124778627D01*
X121128781Y-124679263D01*
X121305850Y-124550614D01*
X121460614Y-124395850D01*
X121589263Y-124218781D01*
X121688627Y-124023767D01*
X121756262Y-123815610D01*
X121772101Y-123715606D01*
X121790500Y-123599440D01*
X121790500Y-121400559D01*
X121756262Y-121184393D01*
X121756262Y-121184390D01*
X121688627Y-120976233D01*
X121589263Y-120781219D01*
X121460614Y-120604150D01*
X121305850Y-120449386D01*
X121128781Y-120320737D01*
X121121791Y-120317175D01*
X121118203Y-120315347D01*
X121067408Y-120267371D01*
X121050500Y-120204863D01*
X121050500Y-118735928D01*
X121025502Y-118610261D01*
X121025501Y-118610260D01*
X121025501Y-118610256D01*
X120976465Y-118491873D01*
X120964856Y-118474499D01*
X120928981Y-118420808D01*
X120905277Y-118385331D01*
X120905271Y-118385324D01*
X117886819Y-115366872D01*
X117853334Y-115305549D01*
X117850500Y-115279191D01*
X117850500Y-113199999D01*
X119754357Y-113199999D01*
X119754357Y-113200000D01*
X119774884Y-113421535D01*
X119774885Y-113421537D01*
X119835769Y-113635523D01*
X119835775Y-113635538D01*
X119934938Y-113834683D01*
X119934943Y-113834691D01*
X120069020Y-114012238D01*
X120233437Y-114162123D01*
X120233439Y-114162125D01*
X120422595Y-114279245D01*
X120422596Y-114279245D01*
X120422599Y-114279247D01*
X120630060Y-114359618D01*
X120848757Y-114400500D01*
X120848759Y-114400500D01*
X121071241Y-114400500D01*
X121071243Y-114400500D01*
X121289940Y-114359618D01*
X121497401Y-114279247D01*
X121686562Y-114162124D01*
X121850981Y-114012236D01*
X121985058Y-113834689D01*
X121985061Y-113834683D01*
X122064825Y-113674497D01*
X122112328Y-113623260D01*
X122179991Y-113605839D01*
X122246331Y-113627765D01*
X122288207Y-113677364D01*
X122369865Y-113852482D01*
X122500342Y-114038820D01*
X122661179Y-114199657D01*
X122847517Y-114330134D01*
X123053673Y-114426265D01*
X123053682Y-114426269D01*
X123249999Y-114478872D01*
X123250000Y-114478871D01*
X123250000Y-113633012D01*
X123307007Y-113665925D01*
X123434174Y-113700000D01*
X123565826Y-113700000D01*
X123692993Y-113665925D01*
X123750000Y-113633012D01*
X123750000Y-114478872D01*
X123946317Y-114426269D01*
X123946326Y-114426265D01*
X124152482Y-114330134D01*
X124338820Y-114199657D01*
X124499657Y-114038820D01*
X124630134Y-113852481D01*
X124630135Y-113852479D01*
X124657618Y-113793543D01*
X124703790Y-113741103D01*
X124770983Y-113721951D01*
X124837864Y-113742166D01*
X124882382Y-113793543D01*
X124909864Y-113852479D01*
X124909865Y-113852481D01*
X125040342Y-114038820D01*
X125201179Y-114199657D01*
X125387517Y-114330134D01*
X125593673Y-114426265D01*
X125593682Y-114426269D01*
X125789999Y-114478872D01*
X125790000Y-114478871D01*
X125790000Y-113633012D01*
X125847007Y-113665925D01*
X125974174Y-113700000D01*
X126105826Y-113700000D01*
X126232993Y-113665925D01*
X126290000Y-113633012D01*
X126290000Y-114478872D01*
X126486317Y-114426269D01*
X126486326Y-114426265D01*
X126692482Y-114330134D01*
X126878820Y-114199657D01*
X127039657Y-114038820D01*
X127170134Y-113852482D01*
X127266265Y-113646326D01*
X127266269Y-113646317D01*
X127318872Y-113450000D01*
X126473012Y-113450000D01*
X126505925Y-113392993D01*
X126540000Y-113265826D01*
X126540000Y-113134174D01*
X126505925Y-113007007D01*
X126473012Y-112950000D01*
X127318872Y-112950000D01*
X127318872Y-112949999D01*
X127266269Y-112753682D01*
X127266265Y-112753673D01*
X127170134Y-112547517D01*
X127039657Y-112361179D01*
X126878820Y-112200342D01*
X126692482Y-112069865D01*
X126486328Y-111973734D01*
X126290000Y-111921127D01*
X126290000Y-112766988D01*
X126232993Y-112734075D01*
X126105826Y-112700000D01*
X125974174Y-112700000D01*
X125847007Y-112734075D01*
X125790000Y-112766988D01*
X125790000Y-111921127D01*
X125593671Y-111973734D01*
X125387517Y-112069865D01*
X125201179Y-112200342D01*
X125040342Y-112361179D01*
X124909865Y-112547517D01*
X124882382Y-112606457D01*
X124836210Y-112658896D01*
X124769016Y-112678048D01*
X124702135Y-112657832D01*
X124657618Y-112606457D01*
X124630134Y-112547517D01*
X124499657Y-112361179D01*
X124338820Y-112200342D01*
X124152482Y-112069865D01*
X123946328Y-111973734D01*
X123750000Y-111921127D01*
X123750000Y-112766988D01*
X123692993Y-112734075D01*
X123565826Y-112700000D01*
X123434174Y-112700000D01*
X123307007Y-112734075D01*
X123250000Y-112766988D01*
X123250000Y-111921127D01*
X123053671Y-111973734D01*
X122847517Y-112069865D01*
X122661179Y-112200342D01*
X122500342Y-112361179D01*
X122369865Y-112547517D01*
X122288207Y-112722635D01*
X122242035Y-112775074D01*
X122174841Y-112794226D01*
X122107960Y-112774010D01*
X122064825Y-112725502D01*
X121985061Y-112565316D01*
X121985056Y-112565308D01*
X121850979Y-112387761D01*
X121686561Y-112237875D01*
X121686560Y-112237874D01*
X121497404Y-112120754D01*
X121497398Y-112120752D01*
X121289940Y-112040382D01*
X121071243Y-111999500D01*
X120848757Y-111999500D01*
X120630060Y-112040382D01*
X120553956Y-112069865D01*
X120422601Y-112120752D01*
X120422595Y-112120754D01*
X120233439Y-112237874D01*
X120233439Y-112237875D01*
X120069020Y-112387761D01*
X119934943Y-112565308D01*
X119934938Y-112565316D01*
X119835775Y-112764461D01*
X119835769Y-112764476D01*
X119774885Y-112978462D01*
X119774884Y-112978464D01*
X119754357Y-113199999D01*
X117850500Y-113199999D01*
X117850500Y-112520808D01*
X117870185Y-112453769D01*
X117886819Y-112433127D01*
X119633127Y-110686819D01*
X119694450Y-110653334D01*
X119720808Y-110650500D01*
X127864071Y-110650500D01*
X127948615Y-110633682D01*
X127989744Y-110625501D01*
X128108127Y-110576465D01*
X128214669Y-110505277D01*
X130105276Y-108614670D01*
X130176465Y-108508127D01*
X130225501Y-108389744D01*
X130250500Y-108264069D01*
X130250500Y-99245127D01*
X130267532Y-99187121D01*
X130253044Y-99159862D01*
X130250500Y-99134872D01*
X130250500Y-91609997D01*
X135095034Y-91609997D01*
X135095034Y-91610002D01*
X135114858Y-91836599D01*
X135114860Y-91836610D01*
X135173730Y-92056317D01*
X135173735Y-92056331D01*
X135269863Y-92262478D01*
X135320974Y-92335472D01*
X136000000Y-91656446D01*
X136000000Y-91662661D01*
X136027259Y-91764394D01*
X136079920Y-91855606D01*
X136154394Y-91930080D01*
X136245606Y-91982741D01*
X136347339Y-92010000D01*
X136353553Y-92010000D01*
X135674526Y-92689025D01*
X135747513Y-92740132D01*
X135747521Y-92740136D01*
X135953668Y-92836264D01*
X135953682Y-92836269D01*
X136173389Y-92895139D01*
X136173400Y-92895141D01*
X136399998Y-92914966D01*
X136400002Y-92914966D01*
X136626599Y-92895141D01*
X136626610Y-92895139D01*
X136846317Y-92836269D01*
X136846331Y-92836264D01*
X137052478Y-92740136D01*
X137125471Y-92689024D01*
X136446447Y-92010000D01*
X136452661Y-92010000D01*
X136554394Y-91982741D01*
X136645606Y-91930080D01*
X136720080Y-91855606D01*
X136772741Y-91764394D01*
X136800000Y-91662661D01*
X136800000Y-91656447D01*
X137479024Y-92335471D01*
X137530136Y-92262478D01*
X137626264Y-92056331D01*
X137626269Y-92056317D01*
X137685139Y-91836610D01*
X137685141Y-91836599D01*
X137704966Y-91610002D01*
X137704966Y-91609997D01*
X137685141Y-91383400D01*
X137685139Y-91383389D01*
X137626269Y-91163682D01*
X137626264Y-91163668D01*
X137530136Y-90957521D01*
X137530132Y-90957513D01*
X137479025Y-90884526D01*
X136800000Y-91563551D01*
X136800000Y-91557339D01*
X136772741Y-91455606D01*
X136720080Y-91364394D01*
X136645606Y-91289920D01*
X136554394Y-91237259D01*
X136452661Y-91210000D01*
X136446448Y-91210000D01*
X137125472Y-90530974D01*
X137052478Y-90479863D01*
X136846331Y-90383735D01*
X136846317Y-90383730D01*
X136626610Y-90324860D01*
X136626599Y-90324858D01*
X136400002Y-90305034D01*
X136399998Y-90305034D01*
X136173400Y-90324858D01*
X136173389Y-90324860D01*
X135953682Y-90383730D01*
X135953673Y-90383734D01*
X135747516Y-90479866D01*
X135747512Y-90479868D01*
X135674526Y-90530973D01*
X135674526Y-90530974D01*
X136353553Y-91210000D01*
X136347339Y-91210000D01*
X136245606Y-91237259D01*
X136154394Y-91289920D01*
X136079920Y-91364394D01*
X136027259Y-91455606D01*
X136000000Y-91557339D01*
X136000000Y-91563552D01*
X135320974Y-90884526D01*
X135320973Y-90884526D01*
X135269868Y-90957512D01*
X135269866Y-90957516D01*
X135173734Y-91163673D01*
X135173730Y-91163682D01*
X135114860Y-91383389D01*
X135114858Y-91383400D01*
X135095034Y-91609997D01*
X130250500Y-91609997D01*
X130250500Y-90090000D01*
X138976491Y-90090000D01*
X139964252Y-90090000D01*
X139942482Y-90127708D01*
X139905000Y-90267591D01*
X139905000Y-90412409D01*
X139942482Y-90552292D01*
X139964252Y-90590000D01*
X138976491Y-90590000D01*
X138990765Y-90680128D01*
X139061417Y-90897570D01*
X139165211Y-91101276D01*
X139299597Y-91286242D01*
X139461257Y-91447902D01*
X139646223Y-91582288D01*
X139849929Y-91686082D01*
X140067371Y-91756734D01*
X140205000Y-91778532D01*
X140205000Y-90830747D01*
X140242708Y-90852518D01*
X140382591Y-90890000D01*
X140527409Y-90890000D01*
X140667292Y-90852518D01*
X140705000Y-90830747D01*
X140705000Y-91778531D01*
X140842628Y-91756734D01*
X141060070Y-91686082D01*
X141263776Y-91582288D01*
X141448742Y-91447902D01*
X141610402Y-91286242D01*
X141744788Y-91101276D01*
X141848582Y-90897570D01*
X141919234Y-90680128D01*
X141933509Y-90590000D01*
X140945748Y-90590000D01*
X140967518Y-90552292D01*
X141005000Y-90412409D01*
X141005000Y-90267591D01*
X140967518Y-90127708D01*
X140945748Y-90090000D01*
X141933509Y-90090000D01*
X141919234Y-89999871D01*
X141848582Y-89782429D01*
X141744788Y-89578723D01*
X141610402Y-89393757D01*
X141448742Y-89232097D01*
X141448736Y-89232092D01*
X141279072Y-89108824D01*
X141236406Y-89053494D01*
X141230427Y-88983881D01*
X141263033Y-88922086D01*
X141279072Y-88908188D01*
X141285500Y-88903518D01*
X141383921Y-88832011D01*
X141534511Y-88681421D01*
X141659690Y-88509127D01*
X141659690Y-88509126D01*
X141662554Y-88505185D01*
X141663543Y-88505903D01*
X141711137Y-88462838D01*
X141765060Y-88450500D01*
X142479192Y-88450500D01*
X142546231Y-88470185D01*
X142566873Y-88486819D01*
X146213181Y-92133127D01*
X146246666Y-92194450D01*
X146249500Y-92220808D01*
X146249500Y-120204863D01*
X146229815Y-120271902D01*
X146181797Y-120315347D01*
X146171219Y-120320737D01*
X145994150Y-120449386D01*
X145994148Y-120449388D01*
X145994147Y-120449388D01*
X145839388Y-120604147D01*
X145839388Y-120604148D01*
X145839386Y-120604150D01*
X145784136Y-120680193D01*
X145710737Y-120781218D01*
X145611374Y-120976230D01*
X145543737Y-121184393D01*
X145509500Y-121400559D01*
X145509500Y-123599440D01*
X145543737Y-123815606D01*
X145543738Y-123815610D01*
X145611373Y-124023767D01*
X145710737Y-124218781D01*
X145839386Y-124395850D01*
X145994150Y-124550614D01*
X146171219Y-124679263D01*
X146366233Y-124778627D01*
X146574390Y-124846262D01*
X146636154Y-124856044D01*
X146790560Y-124880500D01*
X146790565Y-124880500D01*
X147009440Y-124880500D01*
X147129532Y-124861478D01*
X147225610Y-124846262D01*
X147433767Y-124778627D01*
X147628781Y-124679263D01*
X147805850Y-124550614D01*
X147960614Y-124395850D01*
X148089263Y-124218781D01*
X148188627Y-124023767D01*
X148256262Y-123815610D01*
X148272101Y-123715606D01*
X148290500Y-123599440D01*
X148290500Y-121400559D01*
X148256262Y-121184393D01*
X148256262Y-121184390D01*
X148188627Y-120976233D01*
X148089263Y-120781219D01*
X147960614Y-120604150D01*
X147805850Y-120449386D01*
X147628781Y-120320737D01*
X147621791Y-120317175D01*
X147618203Y-120315347D01*
X147567408Y-120267371D01*
X147550500Y-120204863D01*
X147550500Y-91835928D01*
X147525502Y-91710260D01*
X147525500Y-91710254D01*
X147505189Y-91661221D01*
X147505187Y-91661216D01*
X147476468Y-91591878D01*
X147476462Y-91591868D01*
X147405278Y-91485332D01*
X147405272Y-91485325D01*
X143214673Y-87294726D01*
X143193574Y-87280628D01*
X143108127Y-87223535D01*
X143101106Y-87220627D01*
X142989744Y-87174499D01*
X142989738Y-87174497D01*
X142864071Y-87149500D01*
X142864069Y-87149500D01*
X141765060Y-87149500D01*
X141698021Y-87129815D01*
X141663261Y-87094300D01*
X141662554Y-87094815D01*
X141644390Y-87069815D01*
X141534511Y-86918579D01*
X141436234Y-86820302D01*
X141402749Y-86758979D01*
X141407733Y-86689287D01*
X141449605Y-86633354D01*
X141504516Y-86610148D01*
X141580304Y-86598146D01*
X141693342Y-86540550D01*
X141783050Y-86450842D01*
X141840646Y-86337804D01*
X141840646Y-86337802D01*
X141840647Y-86337801D01*
X141855499Y-86244024D01*
X141855500Y-86244019D01*
X141855499Y-84275982D01*
X141840646Y-84182196D01*
X141783050Y-84069158D01*
X141783046Y-84069154D01*
X141783045Y-84069152D01*
X141693347Y-83979454D01*
X141693344Y-83979452D01*
X141693342Y-83979450D01*
X141615911Y-83939997D01*
X141580301Y-83921852D01*
X141486524Y-83907000D01*
X139423482Y-83907000D01*
X139344869Y-83919451D01*
X139329696Y-83921854D01*
X139216658Y-83979450D01*
X139216657Y-83979451D01*
X139216652Y-83979454D01*
X139126954Y-84069152D01*
X139126951Y-84069157D01*
X139069352Y-84182198D01*
X139054500Y-84275975D01*
X139054500Y-86244017D01*
X139065292Y-86312157D01*
X139069354Y-86337804D01*
X139126950Y-86450842D01*
X139126952Y-86450844D01*
X139126954Y-86450847D01*
X139216652Y-86540545D01*
X139216654Y-86540546D01*
X139216658Y-86540550D01*
X139329696Y-86598146D01*
X139405482Y-86610149D01*
X139468615Y-86640077D01*
X139505547Y-86699389D01*
X139504549Y-86769251D01*
X139473765Y-86820303D01*
X139375488Y-86918580D01*
X139250310Y-87090872D01*
X139153624Y-87280627D01*
X139153623Y-87280630D01*
X139087815Y-87483170D01*
X139054500Y-87693511D01*
X139054500Y-87906488D01*
X139087815Y-88116829D01*
X139153623Y-88319369D01*
X139153624Y-88319372D01*
X139248301Y-88505185D01*
X139250310Y-88509127D01*
X139375489Y-88681421D01*
X139526079Y-88832011D01*
X139624500Y-88903518D01*
X139630928Y-88908188D01*
X139673593Y-88963518D01*
X139679572Y-89033132D01*
X139646966Y-89094926D01*
X139630928Y-89108824D01*
X139461258Y-89232097D01*
X139461257Y-89232097D01*
X139299597Y-89393757D01*
X139165211Y-89578723D01*
X139061417Y-89782429D01*
X138990765Y-89999871D01*
X138976491Y-90090000D01*
X130250500Y-90090000D01*
X130250500Y-89735928D01*
X130225502Y-89610261D01*
X130225501Y-89610260D01*
X130225501Y-89610256D01*
X130176465Y-89491873D01*
X130132816Y-89426547D01*
X130132816Y-89426546D01*
X130110907Y-89393757D01*
X130105277Y-89385331D01*
X129039315Y-88319369D01*
X127954674Y-87234727D01*
X127954673Y-87234726D01*
X127954669Y-87234723D01*
X127848127Y-87163535D01*
X127729744Y-87114499D01*
X127729738Y-87114497D01*
X127604071Y-87089500D01*
X127604069Y-87089500D01*
X126365060Y-87089500D01*
X126298021Y-87069815D01*
X126263261Y-87034300D01*
X126262554Y-87034815D01*
X126259689Y-87030872D01*
X126134511Y-86858579D01*
X126036234Y-86760302D01*
X126002749Y-86698979D01*
X126007733Y-86629287D01*
X126049605Y-86573354D01*
X126104516Y-86550148D01*
X126180304Y-86538146D01*
X126293342Y-86480550D01*
X126383050Y-86390842D01*
X126440646Y-86277804D01*
X126440646Y-86277802D01*
X126440647Y-86277801D01*
X126455499Y-86184024D01*
X126455500Y-86184019D01*
X126455499Y-84215982D01*
X126440646Y-84122196D01*
X126383050Y-84009158D01*
X126383046Y-84009154D01*
X126383045Y-84009152D01*
X126363892Y-83989999D01*
X135194357Y-83989999D01*
X135194357Y-83990000D01*
X135214884Y-84211535D01*
X135214885Y-84211537D01*
X135275769Y-84425523D01*
X135275775Y-84425538D01*
X135374938Y-84624683D01*
X135374943Y-84624691D01*
X135509020Y-84802238D01*
X135673437Y-84952123D01*
X135673439Y-84952125D01*
X135862595Y-85069245D01*
X135862596Y-85069245D01*
X135862599Y-85069247D01*
X136070060Y-85149618D01*
X136288757Y-85190500D01*
X136288759Y-85190500D01*
X136511241Y-85190500D01*
X136511243Y-85190500D01*
X136729940Y-85149618D01*
X136937401Y-85069247D01*
X137126562Y-84952124D01*
X137290981Y-84802236D01*
X137425058Y-84624689D01*
X137524229Y-84425528D01*
X137585115Y-84211536D01*
X137605643Y-83990000D01*
X137604665Y-83979450D01*
X137585115Y-83768464D01*
X137585114Y-83768462D01*
X137571900Y-83722020D01*
X137524229Y-83554472D01*
X137524224Y-83554461D01*
X137425061Y-83355316D01*
X137425056Y-83355308D01*
X137290979Y-83177761D01*
X137126562Y-83027876D01*
X137126560Y-83027874D01*
X136937404Y-82910754D01*
X136937398Y-82910752D01*
X136729940Y-82830382D01*
X136511243Y-82789500D01*
X136288757Y-82789500D01*
X136070060Y-82830382D01*
X135938864Y-82881207D01*
X135862601Y-82910752D01*
X135862595Y-82910754D01*
X135673439Y-83027874D01*
X135673437Y-83027876D01*
X135509020Y-83177761D01*
X135374943Y-83355308D01*
X135374938Y-83355316D01*
X135275775Y-83554461D01*
X135275769Y-83554476D01*
X135214885Y-83768462D01*
X135214884Y-83768464D01*
X135194357Y-83989999D01*
X126363892Y-83989999D01*
X126293347Y-83919454D01*
X126293344Y-83919452D01*
X126293342Y-83919450D01*
X126216517Y-83880305D01*
X126180301Y-83861852D01*
X126086524Y-83847000D01*
X124023482Y-83847000D01*
X123942519Y-83859823D01*
X123929696Y-83861854D01*
X123816658Y-83919450D01*
X123816657Y-83919451D01*
X123816652Y-83919454D01*
X123726954Y-84009152D01*
X123726951Y-84009157D01*
X123669352Y-84122198D01*
X123654500Y-84215975D01*
X123654500Y-86184017D01*
X123664003Y-86244017D01*
X123669354Y-86277804D01*
X123726950Y-86390842D01*
X123726952Y-86390844D01*
X123726954Y-86390847D01*
X123816652Y-86480545D01*
X123816654Y-86480546D01*
X123816658Y-86480550D01*
X123929696Y-86538146D01*
X124005482Y-86550149D01*
X124068615Y-86580077D01*
X124105547Y-86639389D01*
X124104549Y-86709251D01*
X124073765Y-86760303D01*
X123975488Y-86858580D01*
X123850310Y-87030872D01*
X123753624Y-87220627D01*
X123753623Y-87220630D01*
X123687815Y-87423170D01*
X123654500Y-87633511D01*
X123654500Y-87846488D01*
X123687815Y-88056829D01*
X123753623Y-88259369D01*
X123753624Y-88259372D01*
X123848301Y-88445185D01*
X123850310Y-88449127D01*
X123975489Y-88621421D01*
X124126079Y-88772011D01*
X124196996Y-88823535D01*
X124230928Y-88848188D01*
X124273593Y-88903518D01*
X124279572Y-88973132D01*
X124246966Y-89034926D01*
X124230928Y-89048824D01*
X124061258Y-89172097D01*
X124061257Y-89172097D01*
X123899597Y-89333757D01*
X123765211Y-89518723D01*
X123661417Y-89722429D01*
X123590765Y-89939871D01*
X123576491Y-90030000D01*
X124564252Y-90030000D01*
X124542482Y-90067708D01*
X124505000Y-90207591D01*
X124505000Y-90352409D01*
X124542482Y-90492292D01*
X124564252Y-90530000D01*
X123576491Y-90530000D01*
X123590765Y-90620128D01*
X123661417Y-90837570D01*
X123765211Y-91041276D01*
X123899597Y-91226242D01*
X124061257Y-91387902D01*
X124246223Y-91522288D01*
X124449929Y-91626082D01*
X124667371Y-91696734D01*
X124805000Y-91718532D01*
X124805000Y-90770747D01*
X124842708Y-90792518D01*
X124982591Y-90830000D01*
X125127409Y-90830000D01*
X125267292Y-90792518D01*
X125305000Y-90770747D01*
X125305000Y-91718531D01*
X125442628Y-91696734D01*
X125660070Y-91626082D01*
X125863776Y-91522288D01*
X126048742Y-91387902D01*
X126210402Y-91226242D01*
X126344788Y-91041276D01*
X126448582Y-90837570D01*
X126519234Y-90620128D01*
X126533509Y-90530000D01*
X125545748Y-90530000D01*
X125567518Y-90492292D01*
X125605000Y-90352409D01*
X125605000Y-90207591D01*
X125567518Y-90067708D01*
X125545748Y-90030000D01*
X126533509Y-90030000D01*
X126519234Y-89939871D01*
X126448582Y-89722429D01*
X126344788Y-89518723D01*
X126210402Y-89333757D01*
X126048742Y-89172097D01*
X126048736Y-89172092D01*
X125879072Y-89048824D01*
X125836406Y-88993494D01*
X125830427Y-88923881D01*
X125863033Y-88862086D01*
X125879072Y-88848188D01*
X125913004Y-88823535D01*
X125983921Y-88772011D01*
X126134511Y-88621421D01*
X126259690Y-88449127D01*
X126259690Y-88449126D01*
X126262554Y-88445185D01*
X126263543Y-88445903D01*
X126311137Y-88402838D01*
X126365060Y-88390500D01*
X127219192Y-88390500D01*
X127286231Y-88410185D01*
X127306873Y-88426819D01*
X128913181Y-90033127D01*
X128946666Y-90094450D01*
X128949500Y-90120808D01*
X128949500Y-107879192D01*
X128929815Y-107946231D01*
X128913181Y-107966873D01*
X127566873Y-109313181D01*
X127505550Y-109346666D01*
X127479192Y-109349500D01*
X119335929Y-109349500D01*
X119210261Y-109374497D01*
X119210255Y-109374499D01*
X119091874Y-109423534D01*
X118985326Y-109494726D01*
X116694726Y-111785326D01*
X116642114Y-111864068D01*
X116642112Y-111864070D01*
X116623539Y-111891864D01*
X116623533Y-111891875D01*
X116574499Y-112010255D01*
X116574497Y-112010261D01*
X116549500Y-112135928D01*
X116549500Y-112135931D01*
X116549500Y-115664069D01*
X116549500Y-115664071D01*
X116549499Y-115664071D01*
X111655875Y-115664071D01*
X118905272Y-108414674D01*
X118905277Y-108414669D01*
X118976466Y-108308126D01*
X119025501Y-108189743D01*
X119033737Y-108148342D01*
X119044096Y-108096264D01*
X119050500Y-108064071D01*
X119050500Y-106809997D01*
X119695034Y-106809997D01*
X119695034Y-106810002D01*
X119714858Y-107036599D01*
X119714860Y-107036610D01*
X119773730Y-107256317D01*
X119773735Y-107256331D01*
X119869863Y-107462478D01*
X119920974Y-107535472D01*
X120600000Y-106856446D01*
X120600000Y-106862661D01*
X120627259Y-106964394D01*
X120679920Y-107055606D01*
X120754394Y-107130080D01*
X120845606Y-107182741D01*
X120947339Y-107210000D01*
X120953553Y-107210000D01*
X120274526Y-107889025D01*
X120347513Y-107940132D01*
X120347521Y-107940136D01*
X120553668Y-108036264D01*
X120553682Y-108036269D01*
X120773389Y-108095139D01*
X120773400Y-108095141D01*
X120999998Y-108114966D01*
X121000002Y-108114966D01*
X121226599Y-108095141D01*
X121226610Y-108095139D01*
X121446317Y-108036269D01*
X121446331Y-108036264D01*
X121652478Y-107940136D01*
X121725471Y-107889024D01*
X121046447Y-107210000D01*
X121052661Y-107210000D01*
X121154394Y-107182741D01*
X121245606Y-107130080D01*
X121320080Y-107055606D01*
X121372741Y-106964394D01*
X121400000Y-106862661D01*
X121400000Y-106856447D01*
X122079024Y-107535471D01*
X122130136Y-107462478D01*
X122226264Y-107256331D01*
X122226269Y-107256317D01*
X122285139Y-107036610D01*
X122285141Y-107036599D01*
X122304966Y-106810002D01*
X122304966Y-106809997D01*
X122285141Y-106583400D01*
X122285139Y-106583389D01*
X122226269Y-106363682D01*
X122226264Y-106363668D01*
X122130136Y-106157521D01*
X122130132Y-106157513D01*
X122079025Y-106084526D01*
X121400000Y-106763551D01*
X121400000Y-106757339D01*
X121372741Y-106655606D01*
X121320080Y-106564394D01*
X121245606Y-106489920D01*
X121154394Y-106437259D01*
X121052661Y-106410000D01*
X121046448Y-106410000D01*
X121725472Y-105730974D01*
X121652478Y-105679863D01*
X121446331Y-105583735D01*
X121446317Y-105583730D01*
X121226610Y-105524860D01*
X121226599Y-105524858D01*
X121000002Y-105505034D01*
X120999998Y-105505034D01*
X120773400Y-105524858D01*
X120773389Y-105524860D01*
X120553682Y-105583730D01*
X120553673Y-105583734D01*
X120347516Y-105679866D01*
X120347512Y-105679868D01*
X120274526Y-105730973D01*
X120274526Y-105730974D01*
X120953553Y-106410000D01*
X120947339Y-106410000D01*
X120845606Y-106437259D01*
X120754394Y-106489920D01*
X120679920Y-106564394D01*
X120627259Y-106655606D01*
X120600000Y-106757339D01*
X120600000Y-106763552D01*
X119920974Y-106084526D01*
X119920973Y-106084526D01*
X119869868Y-106157512D01*
X119869866Y-106157516D01*
X119773734Y-106363673D01*
X119773730Y-106363682D01*
X119714860Y-106583389D01*
X119714858Y-106583400D01*
X119695034Y-106809997D01*
X119050500Y-106809997D01*
X119050500Y-104720808D01*
X119070185Y-104653769D01*
X119086819Y-104633127D01*
X120033127Y-103686819D01*
X120094450Y-103653334D01*
X120120808Y-103650500D01*
X123744940Y-103650500D01*
X123811979Y-103670185D01*
X123846738Y-103705699D01*
X123847446Y-103705185D01*
X123850309Y-103709126D01*
X123850310Y-103709127D01*
X123975489Y-103881421D01*
X124126079Y-104032011D01*
X124194089Y-104081423D01*
X124230928Y-104108188D01*
X124273593Y-104163518D01*
X124279572Y-104233132D01*
X124246966Y-104294926D01*
X124230928Y-104308824D01*
X124061258Y-104432097D01*
X124061257Y-104432097D01*
X123899597Y-104593757D01*
X123765211Y-104778723D01*
X123661417Y-104982429D01*
X123590765Y-105199871D01*
X123576491Y-105290000D01*
X124564252Y-105290000D01*
X124542482Y-105327708D01*
X124505000Y-105467591D01*
X124505000Y-105612409D01*
X124542482Y-105752292D01*
X124564252Y-105790000D01*
X123576491Y-105790000D01*
X123590765Y-105880128D01*
X123661417Y-106097570D01*
X123765211Y-106301276D01*
X123899597Y-106486242D01*
X124061257Y-106647902D01*
X124246223Y-106782288D01*
X124449929Y-106886082D01*
X124667371Y-106956734D01*
X124805000Y-106978532D01*
X124805000Y-106030747D01*
X124842708Y-106052518D01*
X124982591Y-106090000D01*
X125127409Y-106090000D01*
X125267292Y-106052518D01*
X125305000Y-106030747D01*
X125305000Y-106978531D01*
X125442628Y-106956734D01*
X125660070Y-106886082D01*
X125863776Y-106782288D01*
X126048742Y-106647902D01*
X126210402Y-106486242D01*
X126344788Y-106301276D01*
X126448582Y-106097570D01*
X126519234Y-105880128D01*
X126533509Y-105790000D01*
X125545748Y-105790000D01*
X125567518Y-105752292D01*
X125605000Y-105612409D01*
X125605000Y-105467591D01*
X125567518Y-105327708D01*
X125545748Y-105290000D01*
X126533509Y-105290000D01*
X126519234Y-105199871D01*
X126448582Y-104982429D01*
X126344788Y-104778723D01*
X126210402Y-104593757D01*
X126048742Y-104432097D01*
X126048736Y-104432092D01*
X125879072Y-104308824D01*
X125836406Y-104253494D01*
X125830427Y-104183881D01*
X125863033Y-104122086D01*
X125879072Y-104108188D01*
X125901525Y-104091875D01*
X125983921Y-104032011D01*
X126134511Y-103881421D01*
X126259690Y-103709127D01*
X126356375Y-103519372D01*
X126422185Y-103316828D01*
X126439348Y-103208458D01*
X126455500Y-103106488D01*
X126455500Y-102893511D01*
X126431688Y-102743172D01*
X126422185Y-102683172D01*
X126360956Y-102494727D01*
X126356376Y-102480630D01*
X126356375Y-102480627D01*
X126292008Y-102354300D01*
X126259690Y-102290873D01*
X126134511Y-102118579D01*
X126036234Y-102020302D01*
X126002749Y-101958979D01*
X126007733Y-101889287D01*
X126049605Y-101833354D01*
X126104516Y-101810148D01*
X126180304Y-101798146D01*
X126293342Y-101740550D01*
X126383050Y-101650842D01*
X126440646Y-101537804D01*
X126440646Y-101537802D01*
X126440647Y-101537801D01*
X126451282Y-101470647D01*
X126455500Y-101444019D01*
X126455499Y-99475982D01*
X126440646Y-99382196D01*
X126383050Y-99269158D01*
X126383046Y-99269154D01*
X126383045Y-99269152D01*
X126293347Y-99179454D01*
X126293344Y-99179452D01*
X126293342Y-99179450D01*
X126205853Y-99134872D01*
X126180301Y-99121852D01*
X126086524Y-99107000D01*
X124023482Y-99107000D01*
X123942519Y-99119823D01*
X123929696Y-99121854D01*
X123816658Y-99179450D01*
X123816657Y-99179451D01*
X123816652Y-99179454D01*
X123726954Y-99269152D01*
X123726951Y-99269157D01*
X123726950Y-99269158D01*
X123707751Y-99306837D01*
X123669352Y-99382198D01*
X123654500Y-99475975D01*
X123654500Y-101444017D01*
X123655841Y-101452482D01*
X123669354Y-101537804D01*
X123726950Y-101650842D01*
X123726952Y-101650844D01*
X123726954Y-101650847D01*
X123816652Y-101740545D01*
X123816654Y-101740546D01*
X123816658Y-101740550D01*
X123929696Y-101798146D01*
X124005482Y-101810149D01*
X124068615Y-101840077D01*
X124105547Y-101899389D01*
X124104549Y-101969251D01*
X124073765Y-102020303D01*
X123975488Y-102118580D01*
X123847446Y-102294815D01*
X123846456Y-102294096D01*
X123798863Y-102337162D01*
X123744940Y-102349500D01*
X119735929Y-102349500D01*
X119610261Y-102374497D01*
X119610255Y-102374499D01*
X119491874Y-102423534D01*
X119491873Y-102423535D01*
X119385331Y-102494723D01*
X119385330Y-102494724D01*
X119385329Y-102494725D01*
X119385325Y-102494727D01*
X117894726Y-103985326D01*
X117830519Y-104081421D01*
X117830518Y-104081423D01*
X117823533Y-104091875D01*
X117774499Y-104210255D01*
X117774497Y-104210261D01*
X117749500Y-104335928D01*
X117749500Y-107679192D01*
X117729815Y-107746231D01*
X117713181Y-107766873D01*
X106794722Y-118685331D01*
X106794717Y-118685337D01*
X106767885Y-118725498D01*
X106767883Y-118725501D01*
X106762788Y-118733127D01*
X106723534Y-118791873D01*
X106674499Y-118910255D01*
X106674497Y-118910261D01*
X106649500Y-119035928D01*
X106649500Y-120104863D01*
X106629815Y-120171902D01*
X106581797Y-120215347D01*
X106571219Y-120220737D01*
X106394150Y-120349386D01*
X106394148Y-120349388D01*
X106394147Y-120349388D01*
X106239388Y-120504147D01*
X106239388Y-120504148D01*
X106239386Y-120504150D01*
X106184136Y-120580193D01*
X106110737Y-120681218D01*
X106011374Y-120876230D01*
X105943737Y-121084393D01*
X105909500Y-121300559D01*
X103690499Y-121300559D01*
X103690499Y-120388482D01*
X103675646Y-120294696D01*
X103618050Y-120181658D01*
X103618046Y-120181654D01*
X103618045Y-120181652D01*
X103528347Y-120091954D01*
X103528344Y-120091952D01*
X103528342Y-120091950D01*
X103440145Y-120047011D01*
X103415301Y-120034352D01*
X103321524Y-120019500D01*
X101278482Y-120019500D01*
X101197519Y-120032323D01*
X101184696Y-120034354D01*
X101071658Y-120091950D01*
X101071657Y-120091951D01*
X101071652Y-120091954D01*
X100981954Y-120181652D01*
X100981951Y-120181657D01*
X100981950Y-120181658D01*
X100964785Y-120215347D01*
X100924352Y-120294698D01*
X100909500Y-120388475D01*
X100909500Y-124411517D01*
X100920292Y-124479657D01*
X100924354Y-124505304D01*
X100981950Y-124618342D01*
X100981952Y-124618344D01*
X100981954Y-124618347D01*
X101071652Y-124708045D01*
X101071654Y-124708046D01*
X101071658Y-124708050D01*
X101184694Y-124765645D01*
X101184698Y-124765647D01*
X101278476Y-124780500D01*
X101283332Y-124780882D01*
X101283183Y-124782769D01*
X101342484Y-124800148D01*
X101388267Y-124852928D01*
X101399500Y-124904499D01*
X101399500Y-126375500D01*
X101379815Y-126442539D01*
X101327011Y-126488294D01*
X101275500Y-126499500D01*
X90324500Y-126499500D01*
X90257461Y-126479815D01*
X90211706Y-126427011D01*
X90200500Y-126375500D01*
X90200500Y-124904499D01*
X90220185Y-124837460D01*
X90272989Y-124791705D01*
X90316769Y-124782180D01*
X90316667Y-124780881D01*
X90321511Y-124780499D01*
X90321518Y-124780499D01*
X90415304Y-124765646D01*
X90528342Y-124708050D01*
X90618050Y-124618342D01*
X90675646Y-124505304D01*
X90675646Y-124505302D01*
X90675647Y-124505301D01*
X90690499Y-124411524D01*
X90690500Y-124411519D01*
X90690499Y-121300559D01*
X92909500Y-121300559D01*
X92909500Y-123499440D01*
X92943737Y-123715606D01*
X92943738Y-123715610D01*
X93011373Y-123923767D01*
X93110737Y-124118781D01*
X93239386Y-124295850D01*
X93394150Y-124450614D01*
X93571219Y-124579263D01*
X93766233Y-124678627D01*
X93974390Y-124746262D01*
X94036154Y-124756044D01*
X94190560Y-124780500D01*
X94190565Y-124780500D01*
X94409440Y-124780500D01*
X94529532Y-124761478D01*
X94625610Y-124746262D01*
X94833767Y-124678627D01*
X95028781Y-124579263D01*
X95205850Y-124450614D01*
X95360614Y-124295850D01*
X95489263Y-124118781D01*
X95588627Y-123923767D01*
X95656262Y-123715610D01*
X95674662Y-123599435D01*
X95690500Y-123499440D01*
X95690500Y-121300559D01*
X95656262Y-121084393D01*
X95656262Y-121084390D01*
X95588627Y-120876233D01*
X95489263Y-120681219D01*
X95360614Y-120504150D01*
X95205850Y-120349386D01*
X95028781Y-120220737D01*
X95021791Y-120217175D01*
X95018203Y-120215347D01*
X94967408Y-120167371D01*
X94950500Y-120104863D01*
X94950500Y-118820808D01*
X94970185Y-118753769D01*
X94986819Y-118733127D01*
X101233127Y-112486819D01*
X101294450Y-112453334D01*
X101320808Y-112450500D01*
X111264071Y-112450500D01*
X111348615Y-112433682D01*
X111389744Y-112425501D01*
X111508127Y-112376465D01*
X111509911Y-112375272D01*
X111509940Y-112375263D01*
X111509936Y-112375256D01*
X111531004Y-112361179D01*
X111614669Y-112305277D01*
X116705277Y-107214669D01*
X116776465Y-107108127D01*
X116825501Y-106989743D01*
X116842633Y-106903616D01*
X116850500Y-106864069D01*
X116850500Y-99189999D01*
X119794357Y-99189999D01*
X119794357Y-99190000D01*
X119814884Y-99411535D01*
X119814885Y-99411537D01*
X119875769Y-99625523D01*
X119875775Y-99625538D01*
X119974938Y-99824683D01*
X119974943Y-99824691D01*
X120109020Y-100002238D01*
X120273437Y-100152123D01*
X120273439Y-100152125D01*
X120462595Y-100269245D01*
X120462596Y-100269245D01*
X120462599Y-100269247D01*
X120670060Y-100349618D01*
X120888757Y-100390500D01*
X120888759Y-100390500D01*
X121111241Y-100390500D01*
X121111243Y-100390500D01*
X121329940Y-100349618D01*
X121537401Y-100269247D01*
X121726562Y-100152124D01*
X121890981Y-100002236D01*
X122025058Y-99824689D01*
X122124229Y-99625528D01*
X122185115Y-99411536D01*
X122205643Y-99190000D01*
X122205642Y-99189994D01*
X122185115Y-98968464D01*
X122185114Y-98968462D01*
X122181130Y-98954461D01*
X122124229Y-98754472D01*
X122124224Y-98754461D01*
X122025061Y-98555316D01*
X122025056Y-98555308D01*
X121890979Y-98377761D01*
X121726562Y-98227876D01*
X121726560Y-98227874D01*
X121537404Y-98110754D01*
X121537398Y-98110752D01*
X121329940Y-98030382D01*
X121111243Y-97989500D01*
X120888757Y-97989500D01*
X120670060Y-98030382D01*
X120620711Y-98049500D01*
X120462601Y-98110752D01*
X120462595Y-98110754D01*
X120273439Y-98227874D01*
X120273437Y-98227876D01*
X120109020Y-98377761D01*
X119974943Y-98555308D01*
X119974938Y-98555316D01*
X119875775Y-98754461D01*
X119875769Y-98754476D01*
X119814885Y-98968462D01*
X119814884Y-98968464D01*
X119794357Y-99189999D01*
X116850500Y-99189999D01*
X116850500Y-91549997D01*
X119695034Y-91549997D01*
X119695034Y-91550002D01*
X119714858Y-91776599D01*
X119714860Y-91776610D01*
X119773730Y-91996317D01*
X119773735Y-91996331D01*
X119869863Y-92202478D01*
X119920974Y-92275472D01*
X120600000Y-91596446D01*
X120600000Y-91602661D01*
X120627259Y-91704394D01*
X120679920Y-91795606D01*
X120754394Y-91870080D01*
X120845606Y-91922741D01*
X120947339Y-91950000D01*
X120953553Y-91950000D01*
X120274526Y-92629025D01*
X120347513Y-92680132D01*
X120347521Y-92680136D01*
X120553668Y-92776264D01*
X120553682Y-92776269D01*
X120773389Y-92835139D01*
X120773400Y-92835141D01*
X120999998Y-92854966D01*
X121000002Y-92854966D01*
X121226599Y-92835141D01*
X121226610Y-92835139D01*
X121446317Y-92776269D01*
X121446331Y-92776264D01*
X121652478Y-92680136D01*
X121725471Y-92629024D01*
X121046447Y-91950000D01*
X121052661Y-91950000D01*
X121154394Y-91922741D01*
X121245606Y-91870080D01*
X121320080Y-91795606D01*
X121372741Y-91704394D01*
X121400000Y-91602661D01*
X121400000Y-91596447D01*
X122079024Y-92275471D01*
X122130136Y-92202478D01*
X122226264Y-91996331D01*
X122226269Y-91996317D01*
X122285139Y-91776610D01*
X122285141Y-91776599D01*
X122304966Y-91550002D01*
X122304966Y-91549997D01*
X122285141Y-91323400D01*
X122285139Y-91323389D01*
X122226269Y-91103682D01*
X122226264Y-91103668D01*
X122130136Y-90897521D01*
X122130132Y-90897513D01*
X122079025Y-90824526D01*
X121400000Y-91503551D01*
X121400000Y-91497339D01*
X121372741Y-91395606D01*
X121320080Y-91304394D01*
X121245606Y-91229920D01*
X121154394Y-91177259D01*
X121052661Y-91150000D01*
X121046448Y-91150000D01*
X121725472Y-90470974D01*
X121652478Y-90419863D01*
X121446331Y-90323735D01*
X121446317Y-90323730D01*
X121226610Y-90264860D01*
X121226599Y-90264858D01*
X121000002Y-90245034D01*
X120999998Y-90245034D01*
X120773400Y-90264858D01*
X120773389Y-90264860D01*
X120553682Y-90323730D01*
X120553673Y-90323734D01*
X120347516Y-90419866D01*
X120347512Y-90419868D01*
X120274526Y-90470973D01*
X120274526Y-90470974D01*
X120953553Y-91150000D01*
X120947339Y-91150000D01*
X120845606Y-91177259D01*
X120754394Y-91229920D01*
X120679920Y-91304394D01*
X120627259Y-91395606D01*
X120600000Y-91497339D01*
X120600000Y-91503552D01*
X119920974Y-90824526D01*
X119920973Y-90824526D01*
X119869868Y-90897512D01*
X119869866Y-90897516D01*
X119773734Y-91103673D01*
X119773730Y-91103682D01*
X119714860Y-91323389D01*
X119714858Y-91323400D01*
X119695034Y-91549997D01*
X116850500Y-91549997D01*
X116850500Y-89335931D01*
X116850500Y-89335928D01*
X116825502Y-89210261D01*
X116825501Y-89210260D01*
X116825501Y-89210256D01*
X116776465Y-89091873D01*
X116715078Y-89000000D01*
X116705277Y-88985331D01*
X115976774Y-88256828D01*
X115154674Y-87434727D01*
X115154673Y-87434726D01*
X115133574Y-87420628D01*
X115048127Y-87363535D01*
X115020269Y-87351996D01*
X114929744Y-87314499D01*
X114929738Y-87314497D01*
X114804071Y-87289500D01*
X114804069Y-87289500D01*
X112765060Y-87289500D01*
X112698021Y-87269815D01*
X112663261Y-87234300D01*
X112662554Y-87234815D01*
X112659689Y-87230872D01*
X112534511Y-87058579D01*
X112436234Y-86960302D01*
X112402749Y-86898979D01*
X112407733Y-86829287D01*
X112449605Y-86773354D01*
X112504516Y-86750148D01*
X112580304Y-86738146D01*
X112693342Y-86680550D01*
X112783050Y-86590842D01*
X112840646Y-86477804D01*
X112840646Y-86477802D01*
X112840647Y-86477801D01*
X112851282Y-86410647D01*
X112855500Y-86384019D01*
X112855499Y-84415982D01*
X112840646Y-84322196D01*
X112783050Y-84209158D01*
X112783046Y-84209154D01*
X112783045Y-84209152D01*
X112693347Y-84119454D01*
X112693344Y-84119452D01*
X112693342Y-84119450D01*
X112594637Y-84069157D01*
X112580301Y-84061852D01*
X112486524Y-84047000D01*
X110423482Y-84047000D01*
X110342519Y-84059823D01*
X110329696Y-84061854D01*
X110216658Y-84119450D01*
X110216657Y-84119451D01*
X110216652Y-84119454D01*
X110126954Y-84209152D01*
X110126951Y-84209157D01*
X110126950Y-84209158D01*
X110123473Y-84215982D01*
X110069352Y-84322198D01*
X110054500Y-84415975D01*
X110054500Y-86384017D01*
X110065084Y-86450842D01*
X110069354Y-86477804D01*
X110126950Y-86590842D01*
X110126952Y-86590844D01*
X110126954Y-86590847D01*
X110216652Y-86680545D01*
X110216654Y-86680546D01*
X110216658Y-86680550D01*
X110329696Y-86738146D01*
X110405482Y-86750149D01*
X110468615Y-86780077D01*
X110505547Y-86839389D01*
X110504549Y-86909251D01*
X110473765Y-86960303D01*
X110375488Y-87058580D01*
X110250310Y-87230872D01*
X110153624Y-87420627D01*
X110153623Y-87420630D01*
X110087815Y-87623170D01*
X110054500Y-87833511D01*
X110054500Y-88046488D01*
X110087815Y-88256829D01*
X110153623Y-88459369D01*
X110153624Y-88459372D01*
X110239168Y-88627259D01*
X110250310Y-88649127D01*
X110375489Y-88821421D01*
X110526079Y-88972011D01*
X110623962Y-89043127D01*
X110630928Y-89048188D01*
X110673593Y-89103518D01*
X110679572Y-89173132D01*
X110646966Y-89234926D01*
X110630928Y-89248824D01*
X110461258Y-89372097D01*
X110461257Y-89372097D01*
X110299597Y-89533757D01*
X110165211Y-89718723D01*
X110061417Y-89922429D01*
X109990765Y-90139871D01*
X109976491Y-90230000D01*
X110964252Y-90230000D01*
X110942482Y-90267708D01*
X110905000Y-90407591D01*
X110905000Y-90552409D01*
X110942482Y-90692292D01*
X110964252Y-90730000D01*
X109976491Y-90730000D01*
X109990765Y-90820128D01*
X110061417Y-91037570D01*
X110165211Y-91241276D01*
X110299597Y-91426242D01*
X110461257Y-91587902D01*
X110646223Y-91722288D01*
X110849929Y-91826082D01*
X111067371Y-91896734D01*
X111205000Y-91918532D01*
X111205000Y-90970747D01*
X111242708Y-90992518D01*
X111382591Y-91030000D01*
X111527409Y-91030000D01*
X111667292Y-90992518D01*
X111705000Y-90970747D01*
X111705000Y-91918531D01*
X111842628Y-91896734D01*
X112060070Y-91826082D01*
X112263776Y-91722288D01*
X112448742Y-91587902D01*
X112610402Y-91426242D01*
X112744788Y-91241276D01*
X112848582Y-91037570D01*
X112919234Y-90820128D01*
X112933509Y-90730000D01*
X111945748Y-90730000D01*
X111967518Y-90692292D01*
X112005000Y-90552409D01*
X112005000Y-90407591D01*
X111967518Y-90267708D01*
X111945748Y-90230000D01*
X112933509Y-90230000D01*
X112919234Y-90139871D01*
X112848582Y-89922429D01*
X112744788Y-89718723D01*
X112610402Y-89533757D01*
X112448742Y-89372097D01*
X112448736Y-89372092D01*
X112279072Y-89248824D01*
X112236406Y-89193494D01*
X112230427Y-89123881D01*
X112263033Y-89062086D01*
X112279072Y-89048188D01*
X112286038Y-89043127D01*
X112383921Y-88972011D01*
X112534511Y-88821421D01*
X112659690Y-88649127D01*
X112659690Y-88649126D01*
X112662554Y-88645185D01*
X112663543Y-88645903D01*
X112711137Y-88602838D01*
X112765060Y-88590500D01*
X114419192Y-88590500D01*
X114486231Y-88610185D01*
X114506873Y-88626819D01*
X115513181Y-89633127D01*
X115546666Y-89694450D01*
X115549500Y-89720808D01*
X115549500Y-106479192D01*
X115529815Y-106546231D01*
X115513181Y-106566873D01*
X110966873Y-111113181D01*
X110905550Y-111146666D01*
X110879192Y-111149500D01*
X100935929Y-111149500D01*
X100810261Y-111174497D01*
X100810255Y-111174499D01*
X100691874Y-111223534D01*
X100585326Y-111294726D01*
X93794724Y-118085328D01*
X93751179Y-118150498D01*
X93751180Y-118150499D01*
X93723534Y-118191874D01*
X93674499Y-118310255D01*
X93674497Y-118310261D01*
X93649500Y-118435928D01*
X93649500Y-120104863D01*
X93629815Y-120171902D01*
X93581797Y-120215347D01*
X93571219Y-120220737D01*
X93394150Y-120349386D01*
X93394148Y-120349388D01*
X93394147Y-120349388D01*
X93239388Y-120504147D01*
X93239388Y-120504148D01*
X93239386Y-120504150D01*
X93184136Y-120580193D01*
X93110737Y-120681218D01*
X93011374Y-120876230D01*
X92943737Y-121084393D01*
X92909500Y-121300559D01*
X90690499Y-121300559D01*
X90690499Y-120388482D01*
X90675646Y-120294696D01*
X90618050Y-120181658D01*
X90618046Y-120181654D01*
X90618045Y-120181652D01*
X90528347Y-120091954D01*
X90528344Y-120091952D01*
X90528342Y-120091950D01*
X90440145Y-120047011D01*
X90415301Y-120034352D01*
X90321524Y-120019500D01*
X88278482Y-120019500D01*
X88197519Y-120032323D01*
X88184696Y-120034354D01*
X88071658Y-120091950D01*
X88071657Y-120091951D01*
X88071652Y-120091954D01*
X87981954Y-120181652D01*
X87981951Y-120181657D01*
X87981950Y-120181658D01*
X87964785Y-120215347D01*
X87924352Y-120294698D01*
X87909500Y-120388475D01*
X87909500Y-124411517D01*
X87920292Y-124479657D01*
X87924354Y-124505304D01*
X87981950Y-124618342D01*
X87981952Y-124618344D01*
X87981954Y-124618347D01*
X88071652Y-124708045D01*
X88071654Y-124708046D01*
X88071658Y-124708050D01*
X88184694Y-124765645D01*
X88184698Y-124765647D01*
X88278476Y-124780500D01*
X88283332Y-124780882D01*
X88283183Y-124782769D01*
X88342484Y-124800148D01*
X88388267Y-124852928D01*
X88399500Y-124904499D01*
X88399500Y-126375500D01*
X88379815Y-126442539D01*
X88327011Y-126488294D01*
X88275500Y-126499500D01*
X79024361Y-126499500D01*
X78957322Y-126479815D01*
X78936680Y-126463181D01*
X77636819Y-125163319D01*
X77603334Y-125101996D01*
X77600500Y-125075638D01*
X77600500Y-124554987D01*
X77610014Y-124515360D01*
X77607630Y-124514586D01*
X77610644Y-124505307D01*
X77610646Y-124505304D01*
X77625500Y-124411519D01*
X77625499Y-121300559D01*
X79844500Y-121300559D01*
X79844500Y-123499440D01*
X79878737Y-123715606D01*
X79878738Y-123715610D01*
X79946373Y-123923767D01*
X80045737Y-124118781D01*
X80174386Y-124295850D01*
X80329150Y-124450614D01*
X80506219Y-124579263D01*
X80701233Y-124678627D01*
X80909390Y-124746262D01*
X80971154Y-124756044D01*
X81125560Y-124780500D01*
X81125565Y-124780500D01*
X81344440Y-124780500D01*
X81464532Y-124761478D01*
X81560610Y-124746262D01*
X81768767Y-124678627D01*
X81963781Y-124579263D01*
X82140850Y-124450614D01*
X82295614Y-124295850D01*
X82424263Y-124118781D01*
X82523627Y-123923767D01*
X82591262Y-123715610D01*
X82609662Y-123599435D01*
X82625500Y-123499440D01*
X82625500Y-121300559D01*
X82591262Y-121084393D01*
X82591262Y-121084390D01*
X82523627Y-120876233D01*
X82424263Y-120681219D01*
X82295614Y-120504150D01*
X82140850Y-120349386D01*
X81963781Y-120220737D01*
X81956791Y-120217175D01*
X81953203Y-120215347D01*
X81902408Y-120167371D01*
X81885500Y-120104863D01*
X81885500Y-112885808D01*
X81905185Y-112818769D01*
X81921819Y-112798127D01*
X84633127Y-110086819D01*
X84694450Y-110053334D01*
X84720808Y-110050500D01*
X96864071Y-110050500D01*
X96948615Y-110033682D01*
X96989744Y-110025501D01*
X97108127Y-109976465D01*
X97214669Y-109905277D01*
X100109949Y-107009997D01*
X105295034Y-107009997D01*
X105295034Y-107010002D01*
X105314858Y-107236599D01*
X105314860Y-107236610D01*
X105373730Y-107456317D01*
X105373735Y-107456331D01*
X105469863Y-107662478D01*
X105520974Y-107735472D01*
X106200000Y-107056446D01*
X106200000Y-107062661D01*
X106227259Y-107164394D01*
X106279920Y-107255606D01*
X106354394Y-107330080D01*
X106445606Y-107382741D01*
X106547339Y-107410000D01*
X106553553Y-107410000D01*
X105874526Y-108089025D01*
X105947513Y-108140132D01*
X105947521Y-108140136D01*
X106153668Y-108236264D01*
X106153682Y-108236269D01*
X106373389Y-108295139D01*
X106373400Y-108295141D01*
X106599998Y-108314966D01*
X106600002Y-108314966D01*
X106826599Y-108295141D01*
X106826610Y-108295139D01*
X107046317Y-108236269D01*
X107046331Y-108236264D01*
X107252478Y-108140136D01*
X107325471Y-108089024D01*
X106646447Y-107410000D01*
X106652661Y-107410000D01*
X106754394Y-107382741D01*
X106845606Y-107330080D01*
X106920080Y-107255606D01*
X106972741Y-107164394D01*
X107000000Y-107062661D01*
X107000000Y-107056447D01*
X107679024Y-107735471D01*
X107730136Y-107662478D01*
X107826264Y-107456331D01*
X107826269Y-107456317D01*
X107885139Y-107236610D01*
X107885141Y-107236599D01*
X107904966Y-107010002D01*
X107904966Y-107009997D01*
X107885141Y-106783400D01*
X107885139Y-106783389D01*
X107826269Y-106563682D01*
X107826264Y-106563668D01*
X107730136Y-106357521D01*
X107730132Y-106357513D01*
X107679025Y-106284526D01*
X107000000Y-106963551D01*
X107000000Y-106957339D01*
X106972741Y-106855606D01*
X106920080Y-106764394D01*
X106845606Y-106689920D01*
X106754394Y-106637259D01*
X106652661Y-106610000D01*
X106646448Y-106610000D01*
X107325472Y-105930974D01*
X107252478Y-105879863D01*
X107046331Y-105783735D01*
X107046317Y-105783730D01*
X106826610Y-105724860D01*
X106826599Y-105724858D01*
X106600002Y-105705034D01*
X106599998Y-105705034D01*
X106373400Y-105724858D01*
X106373389Y-105724860D01*
X106153682Y-105783730D01*
X106153673Y-105783734D01*
X105947516Y-105879866D01*
X105947512Y-105879868D01*
X105874526Y-105930973D01*
X105874526Y-105930974D01*
X106553553Y-106610000D01*
X106547339Y-106610000D01*
X106445606Y-106637259D01*
X106354394Y-106689920D01*
X106279920Y-106764394D01*
X106227259Y-106855606D01*
X106200000Y-106957339D01*
X106200000Y-106963552D01*
X105520974Y-106284526D01*
X105520973Y-106284526D01*
X105469868Y-106357512D01*
X105469866Y-106357516D01*
X105373734Y-106563673D01*
X105373730Y-106563682D01*
X105314860Y-106783389D01*
X105314858Y-106783400D01*
X105295034Y-107009997D01*
X100109949Y-107009997D01*
X103233127Y-103886819D01*
X103294450Y-103853334D01*
X103320808Y-103850500D01*
X110144940Y-103850500D01*
X110211979Y-103870185D01*
X110246738Y-103905699D01*
X110247446Y-103905185D01*
X110250309Y-103909126D01*
X110250310Y-103909127D01*
X110375489Y-104081421D01*
X110526079Y-104232011D01*
X110630928Y-104308188D01*
X110673593Y-104363518D01*
X110679572Y-104433132D01*
X110646966Y-104494926D01*
X110630928Y-104508824D01*
X110461258Y-104632097D01*
X110461257Y-104632097D01*
X110299597Y-104793757D01*
X110165211Y-104978723D01*
X110061417Y-105182429D01*
X109990765Y-105399871D01*
X109976491Y-105490000D01*
X110964252Y-105490000D01*
X110942482Y-105527708D01*
X110905000Y-105667591D01*
X110905000Y-105812409D01*
X110942482Y-105952292D01*
X110964252Y-105990000D01*
X109976491Y-105990000D01*
X109990765Y-106080128D01*
X110061417Y-106297570D01*
X110165211Y-106501276D01*
X110299597Y-106686242D01*
X110461257Y-106847902D01*
X110646223Y-106982288D01*
X110849929Y-107086082D01*
X111067371Y-107156734D01*
X111205000Y-107178532D01*
X111205000Y-106230747D01*
X111242708Y-106252518D01*
X111382591Y-106290000D01*
X111527409Y-106290000D01*
X111667292Y-106252518D01*
X111705000Y-106230747D01*
X111705000Y-107178531D01*
X111842628Y-107156734D01*
X112060070Y-107086082D01*
X112263776Y-106982288D01*
X112448742Y-106847902D01*
X112610402Y-106686242D01*
X112744788Y-106501276D01*
X112848582Y-106297570D01*
X112919234Y-106080128D01*
X112933509Y-105990000D01*
X111945748Y-105990000D01*
X111967518Y-105952292D01*
X112005000Y-105812409D01*
X112005000Y-105667591D01*
X111967518Y-105527708D01*
X111945748Y-105490000D01*
X112933509Y-105490000D01*
X112919234Y-105399871D01*
X112848582Y-105182429D01*
X112744788Y-104978723D01*
X112610402Y-104793757D01*
X112448742Y-104632097D01*
X112448736Y-104632092D01*
X112279072Y-104508824D01*
X112236406Y-104453494D01*
X112230427Y-104383881D01*
X112263033Y-104322086D01*
X112279072Y-104308188D01*
X112383921Y-104232011D01*
X112534511Y-104081421D01*
X112659690Y-103909127D01*
X112756375Y-103719372D01*
X112822185Y-103516828D01*
X112839348Y-103408458D01*
X112855500Y-103306488D01*
X112855500Y-103093511D01*
X112830541Y-102935931D01*
X112822185Y-102883172D01*
X112760955Y-102694723D01*
X112756376Y-102680630D01*
X112756375Y-102680627D01*
X112683275Y-102537162D01*
X112659690Y-102490873D01*
X112534511Y-102318579D01*
X112436234Y-102220302D01*
X112402749Y-102158979D01*
X112407733Y-102089287D01*
X112449605Y-102033354D01*
X112504516Y-102010148D01*
X112580304Y-101998146D01*
X112693342Y-101940550D01*
X112783050Y-101850842D01*
X112840646Y-101737804D01*
X112840646Y-101737802D01*
X112840647Y-101737801D01*
X112852035Y-101665894D01*
X112855500Y-101644019D01*
X112855499Y-99675982D01*
X112840646Y-99582196D01*
X112783050Y-99469158D01*
X112783046Y-99469154D01*
X112783045Y-99469152D01*
X112693347Y-99379454D01*
X112693344Y-99379452D01*
X112693342Y-99379450D01*
X112594637Y-99329157D01*
X112580301Y-99321852D01*
X112486524Y-99307000D01*
X110423482Y-99307000D01*
X110342519Y-99319823D01*
X110329696Y-99321854D01*
X110216658Y-99379450D01*
X110216657Y-99379451D01*
X110216652Y-99379454D01*
X110126954Y-99469152D01*
X110126951Y-99469157D01*
X110126950Y-99469158D01*
X110116995Y-99488696D01*
X110069352Y-99582198D01*
X110054500Y-99675975D01*
X110054500Y-101644017D01*
X110063446Y-101700499D01*
X110069354Y-101737804D01*
X110126950Y-101850842D01*
X110126952Y-101850844D01*
X110126954Y-101850847D01*
X110216652Y-101940545D01*
X110216654Y-101940546D01*
X110216658Y-101940550D01*
X110329696Y-101998146D01*
X110405482Y-102010149D01*
X110468615Y-102040077D01*
X110505547Y-102099389D01*
X110504549Y-102169251D01*
X110473765Y-102220303D01*
X110375488Y-102318580D01*
X110247446Y-102494815D01*
X110246456Y-102494096D01*
X110198863Y-102537162D01*
X110144940Y-102549500D01*
X102935929Y-102549500D01*
X102810261Y-102574497D01*
X102810255Y-102574499D01*
X102691874Y-102623534D01*
X102585326Y-102694726D01*
X102585325Y-102694727D01*
X96566873Y-108713181D01*
X96505550Y-108746666D01*
X96479192Y-108749500D01*
X84335929Y-108749500D01*
X84210261Y-108774497D01*
X84210255Y-108774499D01*
X84091874Y-108823534D01*
X83985326Y-108894726D01*
X80729724Y-112150328D01*
X80671228Y-112237874D01*
X80671229Y-112237875D01*
X80658536Y-112256871D01*
X80658533Y-112256877D01*
X80609499Y-112375255D01*
X80609499Y-112375256D01*
X80584500Y-112500928D01*
X80584500Y-120104863D01*
X80564815Y-120171902D01*
X80516797Y-120215347D01*
X80506219Y-120220737D01*
X80329150Y-120349386D01*
X80329148Y-120349388D01*
X80329147Y-120349388D01*
X80174388Y-120504147D01*
X80174388Y-120504148D01*
X80174386Y-120504150D01*
X80119136Y-120580193D01*
X80045737Y-120681218D01*
X79946374Y-120876230D01*
X79878737Y-121084393D01*
X79844500Y-121300559D01*
X77625499Y-121300559D01*
X77625499Y-120388482D01*
X77610646Y-120294696D01*
X77610644Y-120294692D01*
X77607630Y-120285413D01*
X77610010Y-120284639D01*
X77600500Y-120245013D01*
X77600500Y-110324361D01*
X77620185Y-110257322D01*
X77636819Y-110236680D01*
X81336680Y-106536819D01*
X81398003Y-106503334D01*
X81424361Y-106500500D01*
X95688693Y-106500500D01*
X95688694Y-106500499D01*
X95862666Y-106465895D01*
X95944606Y-106431953D01*
X96026547Y-106398013D01*
X96026549Y-106398011D01*
X96026552Y-106398010D01*
X96114955Y-106338939D01*
X96114955Y-106338938D01*
X96114959Y-106338936D01*
X96174036Y-106299464D01*
X98499464Y-103974036D01*
X98587472Y-103842322D01*
X98598013Y-103826547D01*
X98637927Y-103730185D01*
X98646081Y-103710501D01*
X98662780Y-103670185D01*
X98665895Y-103662666D01*
X98700500Y-103488692D01*
X98700500Y-103311308D01*
X98700500Y-101824500D01*
X98720185Y-101757461D01*
X98772989Y-101711706D01*
X98824500Y-101700500D01*
X100488693Y-101700500D01*
X100488694Y-101700499D01*
X100662666Y-101665895D01*
X100760184Y-101625501D01*
X100826547Y-101598013D01*
X100916656Y-101537804D01*
X100974036Y-101499464D01*
X102499464Y-99974036D01*
X102522545Y-99939491D01*
X102567783Y-99871790D01*
X102567784Y-99871788D01*
X102598010Y-99826552D01*
X102598010Y-99826550D01*
X102598013Y-99826547D01*
X102631953Y-99744606D01*
X102665895Y-99662666D01*
X102700500Y-99488692D01*
X102700500Y-99389999D01*
X105394357Y-99389999D01*
X105394357Y-99390000D01*
X105414884Y-99611535D01*
X105414885Y-99611537D01*
X105475769Y-99825523D01*
X105475775Y-99825538D01*
X105574938Y-100024683D01*
X105574943Y-100024691D01*
X105709020Y-100202238D01*
X105873437Y-100352123D01*
X105873439Y-100352125D01*
X106062595Y-100469245D01*
X106062596Y-100469245D01*
X106062599Y-100469247D01*
X106270060Y-100549618D01*
X106488757Y-100590500D01*
X106488759Y-100590500D01*
X106711241Y-100590500D01*
X106711243Y-100590500D01*
X106929940Y-100549618D01*
X107137401Y-100469247D01*
X107326562Y-100352124D01*
X107480133Y-100212125D01*
X107490979Y-100202238D01*
X107518862Y-100165316D01*
X107625058Y-100024689D01*
X107724229Y-99825528D01*
X107785115Y-99611536D01*
X107805643Y-99390000D01*
X107804665Y-99379450D01*
X107785115Y-99168464D01*
X107785114Y-99168462D01*
X107784698Y-99167001D01*
X107724229Y-98954472D01*
X107654517Y-98814472D01*
X107625061Y-98755316D01*
X107625056Y-98755308D01*
X107490979Y-98577761D01*
X107326562Y-98427876D01*
X107326560Y-98427874D01*
X107137404Y-98310754D01*
X107137398Y-98310752D01*
X106929940Y-98230382D01*
X106711243Y-98189500D01*
X106488757Y-98189500D01*
X106270060Y-98230382D01*
X106150998Y-98276507D01*
X106062601Y-98310752D01*
X106062595Y-98310754D01*
X105873439Y-98427874D01*
X105873437Y-98427876D01*
X105709020Y-98577761D01*
X105574943Y-98755308D01*
X105574938Y-98755316D01*
X105475775Y-98954461D01*
X105475769Y-98954476D01*
X105414885Y-99168462D01*
X105414884Y-99168464D01*
X105394357Y-99389999D01*
X102700500Y-99389999D01*
X102700500Y-99311308D01*
X102700500Y-98541190D01*
X102720185Y-98474151D01*
X102725538Y-98466473D01*
X102825058Y-98334689D01*
X102924229Y-98135528D01*
X102985115Y-97921536D01*
X103005643Y-97700000D01*
X102985115Y-97478464D01*
X102924229Y-97264472D01*
X102859348Y-97134174D01*
X102825061Y-97065316D01*
X102825056Y-97065308D01*
X102690979Y-96887761D01*
X102526562Y-96737876D01*
X102526560Y-96737874D01*
X102337404Y-96620754D01*
X102337398Y-96620752D01*
X102129940Y-96540382D01*
X101911243Y-96499500D01*
X101688757Y-96499500D01*
X101470060Y-96540382D01*
X101338864Y-96591207D01*
X101262601Y-96620752D01*
X101262595Y-96620754D01*
X101073439Y-96737874D01*
X101073437Y-96737876D01*
X100909020Y-96887761D01*
X100774943Y-97065308D01*
X100774938Y-97065316D01*
X100675775Y-97264461D01*
X100675769Y-97264476D01*
X100614885Y-97478462D01*
X100614884Y-97478464D01*
X100594357Y-97699999D01*
X100594357Y-97700000D01*
X100614884Y-97921535D01*
X100614885Y-97921537D01*
X100675769Y-98135523D01*
X100675775Y-98135538D01*
X100774938Y-98334683D01*
X100774943Y-98334691D01*
X100807471Y-98377764D01*
X100874454Y-98466464D01*
X100899146Y-98531824D01*
X100899500Y-98541190D01*
X100899500Y-98975638D01*
X100879815Y-99042677D01*
X100863181Y-99063319D01*
X100063319Y-99863181D01*
X100001996Y-99896666D01*
X99975638Y-99899500D01*
X98642198Y-99899500D01*
X98575159Y-99879815D01*
X98558663Y-99867140D01*
X98526562Y-99837876D01*
X98526559Y-99837874D01*
X98526558Y-99837873D01*
X98337404Y-99720754D01*
X98337398Y-99720752D01*
X98129940Y-99640382D01*
X97911243Y-99599500D01*
X97688757Y-99599500D01*
X97470060Y-99640382D01*
X97393956Y-99669865D01*
X97262601Y-99720752D01*
X97262595Y-99720754D01*
X97073439Y-99837874D01*
X97073437Y-99837876D01*
X96909020Y-99987761D01*
X96774943Y-100165308D01*
X96774938Y-100165316D01*
X96675775Y-100364461D01*
X96675769Y-100364476D01*
X96614885Y-100578462D01*
X96614884Y-100578464D01*
X96594357Y-100799999D01*
X96594357Y-100800000D01*
X96614884Y-101021535D01*
X96614885Y-101021537D01*
X96675769Y-101235523D01*
X96675775Y-101235538D01*
X96774938Y-101434683D01*
X96774943Y-101434691D01*
X96819718Y-101493982D01*
X96874454Y-101566464D01*
X96899146Y-101631824D01*
X96899500Y-101641190D01*
X96899500Y-102975638D01*
X96879815Y-103042677D01*
X96863181Y-103063319D01*
X95263319Y-104663181D01*
X95201996Y-104696666D01*
X95175638Y-104699500D01*
X80911307Y-104699500D01*
X80889623Y-104703813D01*
X80867938Y-104708127D01*
X80867937Y-104708127D01*
X80737341Y-104734103D01*
X80737332Y-104734106D01*
X80573459Y-104801983D01*
X80573446Y-104801990D01*
X80425966Y-104900534D01*
X80425964Y-104900537D01*
X76000538Y-109325960D01*
X76000537Y-109325961D01*
X75976159Y-109362446D01*
X75968108Y-109374497D01*
X75968107Y-109374498D01*
X75968106Y-109374499D01*
X75901990Y-109473446D01*
X75901985Y-109473456D01*
X75868046Y-109555393D01*
X75834106Y-109637330D01*
X75834103Y-109637342D01*
X75823256Y-109691874D01*
X75799500Y-109811304D01*
X75799500Y-119895500D01*
X75779815Y-119962539D01*
X75727011Y-120008294D01*
X75675500Y-120019500D01*
X75213482Y-120019500D01*
X75132519Y-120032323D01*
X75119696Y-120034354D01*
X75006658Y-120091950D01*
X75006657Y-120091951D01*
X75006652Y-120091954D01*
X74916954Y-120181652D01*
X74916951Y-120181657D01*
X74916950Y-120181658D01*
X74899785Y-120215347D01*
X74859352Y-120294698D01*
X74844500Y-120388475D01*
X72500500Y-120388475D01*
X72500500Y-100549999D01*
X89021127Y-100549999D01*
X89021128Y-100550000D01*
X89984314Y-100550000D01*
X89979920Y-100554394D01*
X89927259Y-100645606D01*
X89900000Y-100747339D01*
X89900000Y-100852661D01*
X89927259Y-100954394D01*
X89979920Y-101045606D01*
X89984314Y-101050000D01*
X89021128Y-101050000D01*
X89073730Y-101246317D01*
X89073734Y-101246326D01*
X89169865Y-101452482D01*
X89300342Y-101638820D01*
X89461179Y-101799657D01*
X89647517Y-101930134D01*
X89853673Y-102026265D01*
X89853682Y-102026269D01*
X90049999Y-102078872D01*
X90050000Y-102078871D01*
X90050000Y-101115686D01*
X90054394Y-101120080D01*
X90145606Y-101172741D01*
X90247339Y-101200000D01*
X90352661Y-101200000D01*
X90454394Y-101172741D01*
X90545606Y-101120080D01*
X90550000Y-101115686D01*
X90550000Y-102078872D01*
X90746317Y-102026269D01*
X90746326Y-102026265D01*
X90952482Y-101930134D01*
X91138820Y-101799657D01*
X91299657Y-101638820D01*
X91430134Y-101452482D01*
X91526265Y-101246326D01*
X91526269Y-101246317D01*
X91578872Y-101050000D01*
X90615686Y-101050000D01*
X90620080Y-101045606D01*
X90672741Y-100954394D01*
X90700000Y-100852661D01*
X90700000Y-100747339D01*
X90672741Y-100645606D01*
X90620080Y-100554394D01*
X90615686Y-100550000D01*
X91578872Y-100550000D01*
X91578872Y-100549999D01*
X91526269Y-100353682D01*
X91526265Y-100353673D01*
X91430134Y-100147517D01*
X91299657Y-99961179D01*
X91138820Y-99800342D01*
X90952482Y-99669865D01*
X90746328Y-99573734D01*
X90550000Y-99521127D01*
X90550000Y-100484314D01*
X90545606Y-100479920D01*
X90454394Y-100427259D01*
X90352661Y-100400000D01*
X90247339Y-100400000D01*
X90145606Y-100427259D01*
X90054394Y-100479920D01*
X90050000Y-100484314D01*
X90050000Y-99521127D01*
X89853671Y-99573734D01*
X89647517Y-99669865D01*
X89461179Y-99800342D01*
X89300342Y-99961179D01*
X89169865Y-100147517D01*
X89073734Y-100353673D01*
X89073730Y-100353682D01*
X89021127Y-100549999D01*
X72500500Y-100549999D01*
X72500500Y-96178009D01*
X80850000Y-96178009D01*
X80850000Y-96950000D01*
X81766988Y-96950000D01*
X81734075Y-97007007D01*
X81700000Y-97134174D01*
X81700000Y-97265826D01*
X81734075Y-97392993D01*
X81766988Y-97450000D01*
X80850001Y-97450000D01*
X80850001Y-98222002D01*
X80852895Y-98276506D01*
X80898955Y-98514657D01*
X80984600Y-98741606D01*
X81107373Y-98950821D01*
X81107375Y-98950824D01*
X81263728Y-99136269D01*
X81263730Y-99136271D01*
X81449175Y-99292624D01*
X81449178Y-99292626D01*
X81658393Y-99415399D01*
X81885342Y-99501044D01*
X82123492Y-99547104D01*
X82177967Y-99549998D01*
X82178009Y-99549999D01*
X83049999Y-99549999D01*
X83050000Y-99549998D01*
X83050000Y-97700000D01*
X83550000Y-97700000D01*
X83550000Y-99549999D01*
X84421987Y-99549999D01*
X84422002Y-99549998D01*
X84476506Y-99547104D01*
X84714657Y-99501044D01*
X84941606Y-99415399D01*
X85150821Y-99292626D01*
X85150824Y-99292624D01*
X85336269Y-99136271D01*
X85336271Y-99136269D01*
X85492624Y-98950824D01*
X85492626Y-98950821D01*
X85615399Y-98741606D01*
X85701044Y-98514657D01*
X85747104Y-98276507D01*
X85749998Y-98222032D01*
X85750000Y-98221990D01*
X85750000Y-97450000D01*
X84833012Y-97450000D01*
X84865925Y-97392993D01*
X84900000Y-97265826D01*
X84900000Y-97134174D01*
X84865925Y-97007007D01*
X84833012Y-96950000D01*
X85749999Y-96950000D01*
X85749999Y-96178012D01*
X85749998Y-96177997D01*
X85747104Y-96123493D01*
X85701044Y-95885342D01*
X85615399Y-95658393D01*
X85492626Y-95449178D01*
X85492624Y-95449175D01*
X85336271Y-95263730D01*
X85336269Y-95263728D01*
X85150824Y-95107375D01*
X85150821Y-95107373D01*
X84941606Y-94984600D01*
X84714657Y-94898955D01*
X84476507Y-94852895D01*
X84422032Y-94850001D01*
X84421991Y-94850000D01*
X83550000Y-94850000D01*
X83550000Y-96700000D01*
X83050000Y-96700000D01*
X83050000Y-94850000D01*
X82178013Y-94850000D01*
X82177997Y-94850001D01*
X82123493Y-94852895D01*
X81885342Y-94898955D01*
X81658393Y-94984600D01*
X81449178Y-95107373D01*
X81449175Y-95107375D01*
X81263730Y-95263728D01*
X81263728Y-95263730D01*
X81107375Y-95449175D01*
X81107373Y-95449178D01*
X80984600Y-95658393D01*
X80898955Y-95885342D01*
X80852895Y-96123492D01*
X80850001Y-96177967D01*
X80850000Y-96178009D01*
X72500500Y-96178009D01*
X72500500Y-90935803D01*
X78200000Y-90935803D01*
X78200000Y-91950000D01*
X79700000Y-91950000D01*
X79700000Y-92450000D01*
X78200001Y-92450000D01*
X78200001Y-93464197D01*
X78210400Y-93596332D01*
X78265377Y-93814519D01*
X78358428Y-94019374D01*
X78358431Y-94019380D01*
X78486559Y-94204323D01*
X78486569Y-94204335D01*
X78645664Y-94363430D01*
X78645676Y-94363440D01*
X78830619Y-94491568D01*
X78830625Y-94491571D01*
X79035480Y-94584622D01*
X79253667Y-94639599D01*
X79385810Y-94649999D01*
X79949999Y-94649999D01*
X79950000Y-94649998D01*
X79950000Y-93733012D01*
X80007007Y-93765925D01*
X80134174Y-93800000D01*
X80265826Y-93800000D01*
X80392993Y-93765925D01*
X80450000Y-93733012D01*
X80450000Y-94649999D01*
X81014182Y-94649999D01*
X81014197Y-94649998D01*
X81146332Y-94639599D01*
X81364519Y-94584622D01*
X81569374Y-94491571D01*
X81569380Y-94491568D01*
X81754323Y-94363440D01*
X81754335Y-94363430D01*
X81913430Y-94204335D01*
X81913440Y-94204323D01*
X82041568Y-94019380D01*
X82041571Y-94019374D01*
X82134622Y-93814519D01*
X82189599Y-93596332D01*
X82199999Y-93464196D01*
X82200000Y-93464184D01*
X82200000Y-92450000D01*
X80700000Y-92450000D01*
X80700000Y-91950000D01*
X82199999Y-91950000D01*
X82199999Y-90935817D01*
X82199998Y-90935802D01*
X82189599Y-90803667D01*
X82134622Y-90585480D01*
X82041571Y-90380625D01*
X82041568Y-90380619D01*
X81929235Y-90218475D01*
X84249500Y-90218475D01*
X84249500Y-94181517D01*
X84260292Y-94249657D01*
X84264354Y-94275304D01*
X84321950Y-94388342D01*
X84321952Y-94388344D01*
X84321954Y-94388347D01*
X84411652Y-94478045D01*
X84411654Y-94478046D01*
X84411658Y-94478050D01*
X84524694Y-94535645D01*
X84524698Y-94535647D01*
X84618475Y-94550499D01*
X84618481Y-94550500D01*
X88181518Y-94550499D01*
X88275304Y-94535646D01*
X88388342Y-94478050D01*
X88478050Y-94388342D01*
X88535646Y-94275304D01*
X88535646Y-94275302D01*
X88535647Y-94275301D01*
X88550499Y-94181524D01*
X88550500Y-94181519D01*
X88550500Y-92699997D01*
X100495034Y-92699997D01*
X100495034Y-92700002D01*
X100514858Y-92926599D01*
X100514860Y-92926610D01*
X100573730Y-93146317D01*
X100573735Y-93146331D01*
X100669863Y-93352478D01*
X100720974Y-93425472D01*
X101400000Y-92746446D01*
X101400000Y-92752661D01*
X101427259Y-92854394D01*
X101479920Y-92945606D01*
X101554394Y-93020080D01*
X101645606Y-93072741D01*
X101747339Y-93100000D01*
X101753553Y-93100000D01*
X101074526Y-93779025D01*
X101147513Y-93830132D01*
X101147521Y-93830136D01*
X101353668Y-93926264D01*
X101353682Y-93926269D01*
X101573389Y-93985139D01*
X101573400Y-93985141D01*
X101799998Y-94004966D01*
X101800002Y-94004966D01*
X102026599Y-93985141D01*
X102026610Y-93985139D01*
X102246317Y-93926269D01*
X102246331Y-93926264D01*
X102452478Y-93830136D01*
X102525471Y-93779024D01*
X101846447Y-93100000D01*
X101852661Y-93100000D01*
X101954394Y-93072741D01*
X102045606Y-93020080D01*
X102120080Y-92945606D01*
X102172741Y-92854394D01*
X102200000Y-92752661D01*
X102200000Y-92746447D01*
X102879024Y-93425471D01*
X102930136Y-93352478D01*
X103026264Y-93146331D01*
X103026269Y-93146317D01*
X103085139Y-92926610D01*
X103085141Y-92926599D01*
X103104966Y-92700002D01*
X103104966Y-92699997D01*
X103085141Y-92473400D01*
X103085139Y-92473389D01*
X103026269Y-92253682D01*
X103026264Y-92253668D01*
X102930136Y-92047521D01*
X102930132Y-92047513D01*
X102879025Y-91974526D01*
X102200000Y-92653551D01*
X102200000Y-92647339D01*
X102172741Y-92545606D01*
X102120080Y-92454394D01*
X102045606Y-92379920D01*
X101954394Y-92327259D01*
X101852661Y-92300000D01*
X101846448Y-92300000D01*
X102396449Y-91749997D01*
X105495034Y-91749997D01*
X105495034Y-91750002D01*
X105514858Y-91976599D01*
X105514860Y-91976610D01*
X105573730Y-92196317D01*
X105573735Y-92196331D01*
X105669863Y-92402478D01*
X105720974Y-92475472D01*
X106400000Y-91796446D01*
X106400000Y-91802661D01*
X106427259Y-91904394D01*
X106479920Y-91995606D01*
X106554394Y-92070080D01*
X106645606Y-92122741D01*
X106747339Y-92150000D01*
X106753553Y-92150000D01*
X106074526Y-92829025D01*
X106147513Y-92880132D01*
X106147521Y-92880136D01*
X106353668Y-92976264D01*
X106353682Y-92976269D01*
X106573389Y-93035139D01*
X106573400Y-93035141D01*
X106799998Y-93054966D01*
X106800002Y-93054966D01*
X107026599Y-93035141D01*
X107026610Y-93035139D01*
X107246317Y-92976269D01*
X107246331Y-92976264D01*
X107452478Y-92880136D01*
X107525471Y-92829024D01*
X106846447Y-92150000D01*
X106852661Y-92150000D01*
X106954394Y-92122741D01*
X107045606Y-92070080D01*
X107120080Y-91995606D01*
X107172741Y-91904394D01*
X107200000Y-91802661D01*
X107200000Y-91796447D01*
X107879024Y-92475471D01*
X107930136Y-92402478D01*
X108026264Y-92196331D01*
X108026269Y-92196317D01*
X108085139Y-91976610D01*
X108085141Y-91976599D01*
X108104966Y-91750002D01*
X108104966Y-91749997D01*
X108085141Y-91523400D01*
X108085139Y-91523389D01*
X108026269Y-91303682D01*
X108026264Y-91303668D01*
X107930136Y-91097521D01*
X107930132Y-91097513D01*
X107879025Y-91024526D01*
X107200000Y-91703551D01*
X107200000Y-91697339D01*
X107172741Y-91595606D01*
X107120080Y-91504394D01*
X107045606Y-91429920D01*
X106954394Y-91377259D01*
X106852661Y-91350000D01*
X106846448Y-91350000D01*
X107525472Y-90670974D01*
X107452478Y-90619863D01*
X107246331Y-90523735D01*
X107246317Y-90523730D01*
X107026610Y-90464860D01*
X107026599Y-90464858D01*
X106800002Y-90445034D01*
X106799998Y-90445034D01*
X106573400Y-90464858D01*
X106573389Y-90464860D01*
X106353682Y-90523730D01*
X106353673Y-90523734D01*
X106147516Y-90619866D01*
X106147512Y-90619868D01*
X106074526Y-90670973D01*
X106074526Y-90670974D01*
X106753553Y-91350000D01*
X106747339Y-91350000D01*
X106645606Y-91377259D01*
X106554394Y-91429920D01*
X106479920Y-91504394D01*
X106427259Y-91595606D01*
X106400000Y-91697339D01*
X106400000Y-91703552D01*
X105720974Y-91024526D01*
X105720973Y-91024526D01*
X105669868Y-91097512D01*
X105669866Y-91097516D01*
X105573734Y-91303673D01*
X105573730Y-91303682D01*
X105514860Y-91523389D01*
X105514858Y-91523400D01*
X105495034Y-91749997D01*
X102396449Y-91749997D01*
X102525472Y-91620974D01*
X102452478Y-91569863D01*
X102246331Y-91473735D01*
X102246317Y-91473730D01*
X102026610Y-91414860D01*
X102026599Y-91414858D01*
X101800002Y-91395034D01*
X101799998Y-91395034D01*
X101573400Y-91414858D01*
X101573389Y-91414860D01*
X101353682Y-91473730D01*
X101353673Y-91473734D01*
X101147516Y-91569866D01*
X101147512Y-91569868D01*
X101074526Y-91620973D01*
X101074526Y-91620974D01*
X101753553Y-92300000D01*
X101747339Y-92300000D01*
X101645606Y-92327259D01*
X101554394Y-92379920D01*
X101479920Y-92454394D01*
X101427259Y-92545606D01*
X101400000Y-92647339D01*
X101400000Y-92653552D01*
X100720974Y-91974526D01*
X100720973Y-91974526D01*
X100669868Y-92047512D01*
X100669866Y-92047516D01*
X100573734Y-92253673D01*
X100573730Y-92253682D01*
X100514860Y-92473389D01*
X100514858Y-92473400D01*
X100495034Y-92699997D01*
X88550500Y-92699997D01*
X88550499Y-90218482D01*
X88535646Y-90124696D01*
X88478050Y-90011658D01*
X88478046Y-90011654D01*
X88478045Y-90011652D01*
X88388347Y-89921954D01*
X88388344Y-89921952D01*
X88388342Y-89921950D01*
X88311517Y-89882805D01*
X88275301Y-89864352D01*
X88181524Y-89849500D01*
X88181519Y-89849500D01*
X87424500Y-89849500D01*
X87357461Y-89829815D01*
X87311706Y-89777011D01*
X87300500Y-89725500D01*
X87300500Y-89624361D01*
X87320185Y-89557322D01*
X87336819Y-89536680D01*
X91336680Y-85536819D01*
X91398003Y-85503334D01*
X91424361Y-85500500D01*
X93225500Y-85500500D01*
X93292539Y-85520185D01*
X93338294Y-85572989D01*
X93349500Y-85624500D01*
X93349500Y-87838696D01*
X93384103Y-88012658D01*
X93384105Y-88012666D01*
X93418046Y-88094606D01*
X93418046Y-88094607D01*
X93451983Y-88176540D01*
X93451990Y-88176552D01*
X93507329Y-88259372D01*
X93507330Y-88259373D01*
X93550537Y-88324038D01*
X93550538Y-88324039D01*
X94269627Y-89043127D01*
X94303112Y-89104450D01*
X94305417Y-89119366D01*
X94314885Y-89221535D01*
X94314885Y-89221537D01*
X94375769Y-89435523D01*
X94375775Y-89435538D01*
X94474938Y-89634683D01*
X94474943Y-89634691D01*
X94609020Y-89812238D01*
X94773437Y-89962123D01*
X94773439Y-89962125D01*
X94962595Y-90079245D01*
X94962596Y-90079245D01*
X94962599Y-90079247D01*
X95170060Y-90159618D01*
X95388757Y-90200500D01*
X95388759Y-90200500D01*
X95611241Y-90200500D01*
X95611243Y-90200500D01*
X95829940Y-90159618D01*
X96037401Y-90079247D01*
X96226562Y-89962124D01*
X96374257Y-89827482D01*
X96390979Y-89812238D01*
X96407773Y-89790000D01*
X96525058Y-89634689D01*
X96624229Y-89435528D01*
X96685115Y-89221536D01*
X96705643Y-89000000D01*
X96705643Y-88999997D01*
X99195034Y-88999997D01*
X99195034Y-89000000D01*
X99214858Y-89226599D01*
X99214860Y-89226610D01*
X99273730Y-89446317D01*
X99273735Y-89446331D01*
X99369863Y-89652478D01*
X99420974Y-89725472D01*
X100100000Y-89046446D01*
X100100000Y-89052661D01*
X100127259Y-89154394D01*
X100179920Y-89245606D01*
X100254394Y-89320080D01*
X100345606Y-89372741D01*
X100447339Y-89400000D01*
X100453553Y-89400000D01*
X99774526Y-90079025D01*
X99847513Y-90130132D01*
X99847521Y-90130136D01*
X100053668Y-90226264D01*
X100053682Y-90226269D01*
X100273389Y-90285139D01*
X100273400Y-90285141D01*
X100499998Y-90304966D01*
X100500002Y-90304966D01*
X100726599Y-90285141D01*
X100726610Y-90285139D01*
X100946317Y-90226269D01*
X100946331Y-90226264D01*
X101152478Y-90130136D01*
X101225471Y-90079024D01*
X100546447Y-89400000D01*
X100552661Y-89400000D01*
X100654394Y-89372741D01*
X100745606Y-89320080D01*
X100820080Y-89245606D01*
X100872741Y-89154394D01*
X100900000Y-89052661D01*
X100900000Y-89046447D01*
X101579024Y-89725471D01*
X101630136Y-89652478D01*
X101726264Y-89446331D01*
X101726269Y-89446317D01*
X101785139Y-89226610D01*
X101785141Y-89226599D01*
X101804966Y-89000000D01*
X101804966Y-88999997D01*
X101785141Y-88773400D01*
X101785139Y-88773389D01*
X101726269Y-88553682D01*
X101726264Y-88553668D01*
X101630136Y-88347521D01*
X101630132Y-88347513D01*
X101579025Y-88274526D01*
X100900000Y-88953551D01*
X100900000Y-88947339D01*
X100872741Y-88845606D01*
X100820080Y-88754394D01*
X100745606Y-88679920D01*
X100654394Y-88627259D01*
X100552661Y-88600000D01*
X100546448Y-88600000D01*
X101225472Y-87920974D01*
X101152478Y-87869863D01*
X100946331Y-87773735D01*
X100946317Y-87773730D01*
X100726610Y-87714860D01*
X100726599Y-87714858D01*
X100500002Y-87695034D01*
X100499998Y-87695034D01*
X100273400Y-87714858D01*
X100273389Y-87714860D01*
X100053682Y-87773730D01*
X100053673Y-87773734D01*
X99847516Y-87869866D01*
X99847512Y-87869868D01*
X99774526Y-87920973D01*
X99774526Y-87920974D01*
X100453553Y-88600000D01*
X100447339Y-88600000D01*
X100345606Y-88627259D01*
X100254394Y-88679920D01*
X100179920Y-88754394D01*
X100127259Y-88845606D01*
X100100000Y-88947339D01*
X100100000Y-88953552D01*
X99420974Y-88274526D01*
X99420973Y-88274526D01*
X99369868Y-88347512D01*
X99369866Y-88347516D01*
X99273734Y-88553673D01*
X99273730Y-88553682D01*
X99214860Y-88773389D01*
X99214858Y-88773400D01*
X99195034Y-88999997D01*
X96705643Y-88999997D01*
X96705075Y-88993875D01*
X96685115Y-88778464D01*
X96685114Y-88778462D01*
X96683687Y-88773447D01*
X96624229Y-88564472D01*
X96624224Y-88564461D01*
X96525061Y-88365316D01*
X96525056Y-88365308D01*
X96390979Y-88187761D01*
X96226562Y-88037876D01*
X96226560Y-88037874D01*
X96037404Y-87920754D01*
X96037398Y-87920752D01*
X95829940Y-87840382D01*
X95611243Y-87799500D01*
X95611241Y-87799500D01*
X95605608Y-87798447D01*
X95605942Y-87796657D01*
X95548727Y-87773931D01*
X95537435Y-87763935D01*
X95186819Y-87413319D01*
X95153334Y-87351996D01*
X95150500Y-87325638D01*
X95150500Y-85441190D01*
X95170185Y-85374151D01*
X95175538Y-85366473D01*
X95275058Y-85234689D01*
X95374229Y-85035528D01*
X95435115Y-84821536D01*
X95455643Y-84600000D01*
X95452370Y-84564683D01*
X95435115Y-84378464D01*
X95435114Y-84378462D01*
X95432513Y-84369322D01*
X95427015Y-84349999D01*
X100471127Y-84349999D01*
X100471128Y-84350000D01*
X101434314Y-84350000D01*
X101429920Y-84354394D01*
X101377259Y-84445606D01*
X101350000Y-84547339D01*
X101350000Y-84652661D01*
X101377259Y-84754394D01*
X101429920Y-84845606D01*
X101434314Y-84850000D01*
X100471128Y-84850000D01*
X100523730Y-85046317D01*
X100523734Y-85046326D01*
X100619865Y-85252482D01*
X100750342Y-85438820D01*
X100911179Y-85599657D01*
X101097517Y-85730134D01*
X101303673Y-85826265D01*
X101303682Y-85826269D01*
X101499999Y-85878872D01*
X101500000Y-85878871D01*
X101500000Y-84915686D01*
X101504394Y-84920080D01*
X101595606Y-84972741D01*
X101697339Y-85000000D01*
X101802661Y-85000000D01*
X101904394Y-84972741D01*
X101995606Y-84920080D01*
X102000000Y-84915686D01*
X102000000Y-85878872D01*
X102196317Y-85826269D01*
X102196326Y-85826265D01*
X102402482Y-85730134D01*
X102588820Y-85599657D01*
X102749657Y-85438820D01*
X102880134Y-85252482D01*
X102976265Y-85046326D01*
X102976269Y-85046317D01*
X103028872Y-84850000D01*
X102065686Y-84850000D01*
X102070080Y-84845606D01*
X102122741Y-84754394D01*
X102150000Y-84652661D01*
X102150000Y-84547339D01*
X102122741Y-84445606D01*
X102070080Y-84354394D01*
X102065686Y-84350000D01*
X103028872Y-84350000D01*
X103028872Y-84349999D01*
X102976269Y-84153682D01*
X102976265Y-84153673D01*
X102965226Y-84129999D01*
X105594357Y-84129999D01*
X105594357Y-84130000D01*
X105614884Y-84351535D01*
X105614885Y-84351537D01*
X105675769Y-84565523D01*
X105675775Y-84565538D01*
X105774938Y-84764683D01*
X105774943Y-84764691D01*
X105909020Y-84942238D01*
X106073437Y-85092123D01*
X106073439Y-85092125D01*
X106262595Y-85209245D01*
X106262596Y-85209245D01*
X106262599Y-85209247D01*
X106470060Y-85289618D01*
X106688757Y-85330500D01*
X106688759Y-85330500D01*
X106911241Y-85330500D01*
X106911243Y-85330500D01*
X107129940Y-85289618D01*
X107337401Y-85209247D01*
X107526562Y-85092124D01*
X107680133Y-84952125D01*
X107690979Y-84942238D01*
X107728824Y-84892124D01*
X107825058Y-84764689D01*
X107924229Y-84565528D01*
X107985115Y-84351536D01*
X108005643Y-84130000D01*
X108004665Y-84119450D01*
X107987110Y-83929999D01*
X119794357Y-83929999D01*
X119794357Y-83930000D01*
X119814884Y-84151535D01*
X119814885Y-84151537D01*
X119875769Y-84365523D01*
X119875775Y-84365538D01*
X119974938Y-84564683D01*
X119974943Y-84564691D01*
X120109020Y-84742238D01*
X120273437Y-84892123D01*
X120273439Y-84892125D01*
X120462595Y-85009245D01*
X120462596Y-85009245D01*
X120462599Y-85009247D01*
X120670060Y-85089618D01*
X120888757Y-85130500D01*
X120888759Y-85130500D01*
X121111241Y-85130500D01*
X121111243Y-85130500D01*
X121329940Y-85089618D01*
X121537401Y-85009247D01*
X121726562Y-84892124D01*
X121890981Y-84742236D01*
X122025058Y-84564689D01*
X122124229Y-84365528D01*
X122185115Y-84151536D01*
X122205643Y-83930000D01*
X122204666Y-83919451D01*
X122185115Y-83708462D01*
X122124230Y-83494476D01*
X122124229Y-83494472D01*
X122124224Y-83494461D01*
X122025061Y-83295316D01*
X122025056Y-83295308D01*
X121890979Y-83117761D01*
X121726562Y-82967876D01*
X121726560Y-82967874D01*
X121537404Y-82850754D01*
X121537398Y-82850752D01*
X121329940Y-82770382D01*
X121111243Y-82729500D01*
X120888757Y-82729500D01*
X120670060Y-82770382D01*
X120620711Y-82789500D01*
X120462601Y-82850752D01*
X120462595Y-82850754D01*
X120273439Y-82967874D01*
X120273437Y-82967876D01*
X120109020Y-83117761D01*
X119974943Y-83295308D01*
X119974938Y-83295316D01*
X119875775Y-83494461D01*
X119875769Y-83494476D01*
X119814885Y-83708462D01*
X119794357Y-83929999D01*
X107987110Y-83929999D01*
X107985115Y-83908464D01*
X107985114Y-83908462D01*
X107984698Y-83907001D01*
X107924229Y-83694472D01*
X107910618Y-83667137D01*
X107825061Y-83495316D01*
X107825056Y-83495308D01*
X107690979Y-83317761D01*
X107526562Y-83167876D01*
X107526560Y-83167874D01*
X107337404Y-83050754D01*
X107337398Y-83050752D01*
X107129940Y-82970382D01*
X106911243Y-82929500D01*
X106688757Y-82929500D01*
X106470060Y-82970382D01*
X106338864Y-83021207D01*
X106262601Y-83050752D01*
X106262595Y-83050754D01*
X106073439Y-83167874D01*
X106073437Y-83167876D01*
X105909020Y-83317761D01*
X105774943Y-83495308D01*
X105774938Y-83495316D01*
X105675775Y-83694461D01*
X105675769Y-83694476D01*
X105614885Y-83908462D01*
X105614884Y-83908464D01*
X105594357Y-84129999D01*
X102965226Y-84129999D01*
X102880134Y-83947517D01*
X102749657Y-83761179D01*
X102588820Y-83600342D01*
X102402482Y-83469865D01*
X102196328Y-83373734D01*
X102000000Y-83321127D01*
X102000000Y-84284314D01*
X101995606Y-84279920D01*
X101904394Y-84227259D01*
X101802661Y-84200000D01*
X101697339Y-84200000D01*
X101595606Y-84227259D01*
X101504394Y-84279920D01*
X101500000Y-84284314D01*
X101500000Y-83321127D01*
X101303671Y-83373734D01*
X101097517Y-83469865D01*
X100911179Y-83600342D01*
X100750342Y-83761179D01*
X100619865Y-83947517D01*
X100523734Y-84153673D01*
X100523730Y-84153682D01*
X100471127Y-84349999D01*
X95427015Y-84349999D01*
X95374229Y-84164472D01*
X95370994Y-84157975D01*
X95275061Y-83965316D01*
X95275056Y-83965308D01*
X95140979Y-83787761D01*
X94976562Y-83637876D01*
X94976560Y-83637874D01*
X94787404Y-83520754D01*
X94787398Y-83520752D01*
X94579940Y-83440382D01*
X94361243Y-83399500D01*
X94138757Y-83399500D01*
X93920060Y-83440382D01*
X93843956Y-83469865D01*
X93712601Y-83520752D01*
X93712595Y-83520754D01*
X93523441Y-83637873D01*
X93523438Y-83637876D01*
X93491339Y-83667137D01*
X93428536Y-83697754D01*
X93407802Y-83699500D01*
X90911306Y-83699500D01*
X90798079Y-83722023D01*
X90798078Y-83722023D01*
X90737341Y-83734103D01*
X90737332Y-83734106D01*
X90573459Y-83801983D01*
X90573452Y-83801987D01*
X90516794Y-83839845D01*
X90432001Y-83896503D01*
X90427491Y-83899516D01*
X90425962Y-83900538D01*
X85700538Y-88625960D01*
X85700537Y-88625961D01*
X85665566Y-88678301D01*
X85665565Y-88678302D01*
X85601990Y-88773447D01*
X85601985Y-88773456D01*
X85581243Y-88823534D01*
X85539678Y-88923881D01*
X85534105Y-88937334D01*
X85505958Y-89078842D01*
X85505958Y-89078843D01*
X85499500Y-89111307D01*
X85499500Y-89725500D01*
X85479815Y-89792539D01*
X85427011Y-89838294D01*
X85375500Y-89849500D01*
X84618482Y-89849500D01*
X84537519Y-89862323D01*
X84524696Y-89864354D01*
X84411658Y-89921950D01*
X84411657Y-89921951D01*
X84411652Y-89921954D01*
X84321954Y-90011652D01*
X84321951Y-90011657D01*
X84264352Y-90124698D01*
X84249500Y-90218475D01*
X81929235Y-90218475D01*
X81913440Y-90195676D01*
X81913430Y-90195664D01*
X81754335Y-90036569D01*
X81754323Y-90036559D01*
X81569380Y-89908431D01*
X81569374Y-89908428D01*
X81364519Y-89815377D01*
X81146332Y-89760400D01*
X81014196Y-89750000D01*
X80450000Y-89750000D01*
X80450000Y-90666988D01*
X80392993Y-90634075D01*
X80265826Y-90600000D01*
X80134174Y-90600000D01*
X80007007Y-90634075D01*
X79950000Y-90666988D01*
X79950000Y-89750000D01*
X79385817Y-89750000D01*
X79385802Y-89750001D01*
X79253667Y-89760400D01*
X79035480Y-89815377D01*
X78830625Y-89908428D01*
X78830619Y-89908431D01*
X78645676Y-90036559D01*
X78645664Y-90036569D01*
X78486569Y-90195664D01*
X78486559Y-90195676D01*
X78358431Y-90380619D01*
X78358428Y-90380625D01*
X78265377Y-90585480D01*
X78210400Y-90803667D01*
X78200000Y-90935803D01*
X72500500Y-90935803D01*
X72500500Y-77839999D01*
X114594357Y-77839999D01*
X114594357Y-77840000D01*
X114614884Y-78061535D01*
X114614885Y-78061537D01*
X114675769Y-78275523D01*
X114675775Y-78275538D01*
X114774938Y-78474683D01*
X114774943Y-78474691D01*
X114909020Y-78652238D01*
X115073437Y-78802123D01*
X115073439Y-78802125D01*
X115262595Y-78919245D01*
X115262596Y-78919245D01*
X115262599Y-78919247D01*
X115470060Y-78999618D01*
X115688757Y-79040500D01*
X115688759Y-79040500D01*
X115911241Y-79040500D01*
X115911243Y-79040500D01*
X116129940Y-78999618D01*
X116337401Y-78919247D01*
X116526562Y-78802124D01*
X116690981Y-78652236D01*
X116825058Y-78474689D01*
X116924229Y-78275528D01*
X116985115Y-78061536D01*
X117005643Y-77840000D01*
X117005643Y-77839999D01*
X118894357Y-77839999D01*
X118894357Y-77840000D01*
X118914884Y-78061535D01*
X118914885Y-78061537D01*
X118975769Y-78275523D01*
X118975775Y-78275538D01*
X119074938Y-78474683D01*
X119074943Y-78474691D01*
X119209020Y-78652238D01*
X119373437Y-78802123D01*
X119373439Y-78802125D01*
X119562595Y-78919245D01*
X119562596Y-78919245D01*
X119562599Y-78919247D01*
X119770060Y-78999618D01*
X119988757Y-79040500D01*
X119988759Y-79040500D01*
X120211241Y-79040500D01*
X120211243Y-79040500D01*
X120429940Y-78999618D01*
X120637401Y-78919247D01*
X120826562Y-78802124D01*
X120990981Y-78652236D01*
X121125058Y-78474689D01*
X121224229Y-78275528D01*
X121285115Y-78061536D01*
X121287111Y-78039999D01*
X122694357Y-78039999D01*
X122694357Y-78040000D01*
X122714884Y-78261535D01*
X122714885Y-78261537D01*
X122775769Y-78475523D01*
X122775775Y-78475538D01*
X122874938Y-78674683D01*
X122874943Y-78674691D01*
X123009020Y-78852238D01*
X123173437Y-79002123D01*
X123173439Y-79002125D01*
X123362595Y-79119245D01*
X123362596Y-79119245D01*
X123362599Y-79119247D01*
X123570060Y-79199618D01*
X123788757Y-79240500D01*
X123788759Y-79240500D01*
X124011241Y-79240500D01*
X124011243Y-79240500D01*
X124229940Y-79199618D01*
X124437401Y-79119247D01*
X124626562Y-79002124D01*
X124790981Y-78852236D01*
X124925058Y-78674689D01*
X125024229Y-78475528D01*
X125085115Y-78261536D01*
X125105643Y-78040000D01*
X125105643Y-78039999D01*
X129394357Y-78039999D01*
X129394357Y-78040000D01*
X129414884Y-78261535D01*
X129414885Y-78261537D01*
X129475769Y-78475523D01*
X129475775Y-78475538D01*
X129574938Y-78674683D01*
X129574943Y-78674691D01*
X129709020Y-78852238D01*
X129873437Y-79002123D01*
X129873439Y-79002125D01*
X130062595Y-79119245D01*
X130062596Y-79119245D01*
X130062599Y-79119247D01*
X130270060Y-79199618D01*
X130488757Y-79240500D01*
X130488759Y-79240500D01*
X130711241Y-79240500D01*
X130711243Y-79240500D01*
X130929940Y-79199618D01*
X131137401Y-79119247D01*
X131326562Y-79002124D01*
X131490981Y-78852236D01*
X131625058Y-78674689D01*
X131724229Y-78475528D01*
X131785115Y-78261536D01*
X131805643Y-78040000D01*
X131795450Y-77929999D01*
X133394357Y-77929999D01*
X133394357Y-77930000D01*
X133414884Y-78151535D01*
X133414885Y-78151537D01*
X133475769Y-78365523D01*
X133475775Y-78365538D01*
X133574938Y-78564683D01*
X133574943Y-78564691D01*
X133709020Y-78742238D01*
X133873437Y-78892123D01*
X133873439Y-78892125D01*
X134062595Y-79009245D01*
X134062596Y-79009245D01*
X134062599Y-79009247D01*
X134270060Y-79089618D01*
X134488757Y-79130500D01*
X134488759Y-79130500D01*
X134711241Y-79130500D01*
X134711243Y-79130500D01*
X134929940Y-79089618D01*
X135137401Y-79009247D01*
X135326562Y-78892124D01*
X135490981Y-78742236D01*
X135625058Y-78564689D01*
X135724229Y-78365528D01*
X135785115Y-78151536D01*
X135805643Y-77930000D01*
X135805643Y-77929999D01*
X137494357Y-77929999D01*
X137494357Y-77930000D01*
X137514884Y-78151535D01*
X137514885Y-78151537D01*
X137575769Y-78365523D01*
X137575775Y-78365538D01*
X137674938Y-78564683D01*
X137674943Y-78564691D01*
X137809020Y-78742238D01*
X137973437Y-78892123D01*
X137973439Y-78892125D01*
X138162595Y-79009245D01*
X138162596Y-79009245D01*
X138162599Y-79009247D01*
X138370060Y-79089618D01*
X138588757Y-79130500D01*
X138588759Y-79130500D01*
X138811241Y-79130500D01*
X138811243Y-79130500D01*
X139029940Y-79089618D01*
X139237401Y-79009247D01*
X139426562Y-78892124D01*
X139590981Y-78742236D01*
X139725058Y-78564689D01*
X139824229Y-78365528D01*
X139885115Y-78151536D01*
X139905643Y-77930000D01*
X139885115Y-77708464D01*
X139824229Y-77494472D01*
X139780724Y-77407102D01*
X139725061Y-77295316D01*
X139725056Y-77295308D01*
X139590979Y-77117761D01*
X139426562Y-76967876D01*
X139426560Y-76967874D01*
X139237404Y-76850754D01*
X139237398Y-76850752D01*
X139029940Y-76770382D01*
X138811243Y-76729500D01*
X138588757Y-76729500D01*
X138370060Y-76770382D01*
X138238864Y-76821207D01*
X138162601Y-76850752D01*
X138162595Y-76850754D01*
X137973439Y-76967874D01*
X137973437Y-76967876D01*
X137809020Y-77117761D01*
X137674943Y-77295308D01*
X137674938Y-77295316D01*
X137575775Y-77494461D01*
X137575769Y-77494476D01*
X137514885Y-77708462D01*
X137514884Y-77708464D01*
X137494357Y-77929999D01*
X135805643Y-77929999D01*
X135785115Y-77708464D01*
X135724229Y-77494472D01*
X135680724Y-77407102D01*
X135625061Y-77295316D01*
X135625056Y-77295308D01*
X135490979Y-77117761D01*
X135326562Y-76967876D01*
X135326560Y-76967874D01*
X135137404Y-76850754D01*
X135137398Y-76850752D01*
X134929940Y-76770382D01*
X134711243Y-76729500D01*
X134488757Y-76729500D01*
X134270060Y-76770382D01*
X134138864Y-76821207D01*
X134062601Y-76850752D01*
X134062595Y-76850754D01*
X133873439Y-76967874D01*
X133873437Y-76967876D01*
X133709020Y-77117761D01*
X133574943Y-77295308D01*
X133574938Y-77295316D01*
X133475775Y-77494461D01*
X133475769Y-77494476D01*
X133414885Y-77708462D01*
X133414884Y-77708464D01*
X133394357Y-77929999D01*
X131795450Y-77929999D01*
X131785115Y-77818464D01*
X131724229Y-77604472D01*
X131683230Y-77522135D01*
X131625061Y-77405316D01*
X131625056Y-77405308D01*
X131490979Y-77227761D01*
X131326562Y-77077876D01*
X131326560Y-77077874D01*
X131137404Y-76960754D01*
X131137398Y-76960752D01*
X130929940Y-76880382D01*
X130711243Y-76839500D01*
X130488757Y-76839500D01*
X130270060Y-76880382D01*
X130138864Y-76931207D01*
X130062601Y-76960752D01*
X130062595Y-76960754D01*
X129873439Y-77077874D01*
X129873437Y-77077876D01*
X129709020Y-77227761D01*
X129574943Y-77405308D01*
X129574938Y-77405316D01*
X129475775Y-77604461D01*
X129475769Y-77604476D01*
X129414885Y-77818462D01*
X129414884Y-77818464D01*
X129394357Y-78039999D01*
X125105643Y-78039999D01*
X125085115Y-77818464D01*
X125024229Y-77604472D01*
X124983230Y-77522135D01*
X124925061Y-77405316D01*
X124925056Y-77405308D01*
X124790979Y-77227761D01*
X124626562Y-77077876D01*
X124626560Y-77077874D01*
X124437404Y-76960754D01*
X124437398Y-76960752D01*
X124229940Y-76880382D01*
X124011243Y-76839500D01*
X123788757Y-76839500D01*
X123570060Y-76880382D01*
X123438864Y-76931207D01*
X123362601Y-76960752D01*
X123362595Y-76960754D01*
X123173439Y-77077874D01*
X123173437Y-77077876D01*
X123009020Y-77227761D01*
X122874943Y-77405308D01*
X122874938Y-77405316D01*
X122775775Y-77604461D01*
X122775769Y-77604476D01*
X122714885Y-77818462D01*
X122714884Y-77818464D01*
X122694357Y-78039999D01*
X121287111Y-78039999D01*
X121305643Y-77840000D01*
X121303647Y-77818464D01*
X121285115Y-77618464D01*
X121285114Y-77618462D01*
X121281130Y-77604461D01*
X121224229Y-77404472D01*
X121224224Y-77404461D01*
X121125061Y-77205316D01*
X121125056Y-77205308D01*
X120990979Y-77027761D01*
X120826562Y-76877876D01*
X120826560Y-76877874D01*
X120637404Y-76760754D01*
X120637398Y-76760752D01*
X120607917Y-76749331D01*
X120429940Y-76680382D01*
X120211243Y-76639500D01*
X119988757Y-76639500D01*
X119770060Y-76680382D01*
X119643272Y-76729500D01*
X119562601Y-76760752D01*
X119562595Y-76760754D01*
X119373439Y-76877874D01*
X119373437Y-76877876D01*
X119209020Y-77027761D01*
X119074943Y-77205308D01*
X119074938Y-77205316D01*
X118975775Y-77404461D01*
X118975769Y-77404476D01*
X118914885Y-77618462D01*
X118914884Y-77618464D01*
X118894357Y-77839999D01*
X117005643Y-77839999D01*
X117003647Y-77818464D01*
X116985115Y-77618464D01*
X116985114Y-77618462D01*
X116981130Y-77604461D01*
X116924229Y-77404472D01*
X116924224Y-77404461D01*
X116825061Y-77205316D01*
X116825056Y-77205308D01*
X116690979Y-77027761D01*
X116526562Y-76877876D01*
X116526560Y-76877874D01*
X116337404Y-76760754D01*
X116337398Y-76760752D01*
X116307917Y-76749331D01*
X116129940Y-76680382D01*
X115911243Y-76639500D01*
X115688757Y-76639500D01*
X115470060Y-76680382D01*
X115343272Y-76729500D01*
X115262601Y-76760752D01*
X115262595Y-76760754D01*
X115073439Y-76877874D01*
X115073437Y-76877876D01*
X114909020Y-77027761D01*
X114774943Y-77205308D01*
X114774938Y-77205316D01*
X114675775Y-77404461D01*
X114675769Y-77404476D01*
X114614885Y-77618462D01*
X114614884Y-77618464D01*
X114594357Y-77839999D01*
X72500500Y-77839999D01*
X72500500Y-70219999D01*
X114594357Y-70219999D01*
X114594357Y-70220000D01*
X114614884Y-70441535D01*
X114614885Y-70441537D01*
X114675769Y-70655523D01*
X114675775Y-70655538D01*
X114774938Y-70854683D01*
X114774943Y-70854691D01*
X114909020Y-71032238D01*
X115073437Y-71182123D01*
X115073439Y-71182125D01*
X115262595Y-71299245D01*
X115262596Y-71299245D01*
X115262599Y-71299247D01*
X115470060Y-71379618D01*
X115688757Y-71420500D01*
X115688759Y-71420500D01*
X115911241Y-71420500D01*
X115911243Y-71420500D01*
X116129940Y-71379618D01*
X116337401Y-71299247D01*
X116526562Y-71182124D01*
X116690981Y-71032236D01*
X116825058Y-70854689D01*
X116924229Y-70655528D01*
X116985115Y-70441536D01*
X117005643Y-70220000D01*
X117005643Y-70219999D01*
X118894357Y-70219999D01*
X118894357Y-70220000D01*
X118914884Y-70441535D01*
X118914885Y-70441537D01*
X118975769Y-70655523D01*
X118975775Y-70655538D01*
X119074938Y-70854683D01*
X119074943Y-70854691D01*
X119209020Y-71032238D01*
X119373437Y-71182123D01*
X119373439Y-71182125D01*
X119562595Y-71299245D01*
X119562596Y-71299245D01*
X119562599Y-71299247D01*
X119770060Y-71379618D01*
X119988757Y-71420500D01*
X119988759Y-71420500D01*
X120211241Y-71420500D01*
X120211243Y-71420500D01*
X120429940Y-71379618D01*
X120637401Y-71299247D01*
X120826562Y-71182124D01*
X120990981Y-71032236D01*
X121125058Y-70854689D01*
X121224229Y-70655528D01*
X121285115Y-70441536D01*
X121287111Y-70419999D01*
X122694357Y-70419999D01*
X122694357Y-70420000D01*
X122714884Y-70641535D01*
X122714885Y-70641537D01*
X122775769Y-70855523D01*
X122775775Y-70855538D01*
X122874938Y-71054683D01*
X122874943Y-71054691D01*
X123009020Y-71232238D01*
X123173437Y-71382123D01*
X123173439Y-71382125D01*
X123362595Y-71499245D01*
X123362596Y-71499245D01*
X123362599Y-71499247D01*
X123570060Y-71579618D01*
X123788757Y-71620500D01*
X123788759Y-71620500D01*
X124011241Y-71620500D01*
X124011243Y-71620500D01*
X124229940Y-71579618D01*
X124437401Y-71499247D01*
X124626562Y-71382124D01*
X124790981Y-71232236D01*
X124925058Y-71054689D01*
X125024229Y-70855528D01*
X125085115Y-70641536D01*
X125105643Y-70420000D01*
X125105643Y-70419999D01*
X129394357Y-70419999D01*
X129394357Y-70420000D01*
X129414884Y-70641535D01*
X129414885Y-70641537D01*
X129475769Y-70855523D01*
X129475775Y-70855538D01*
X129574938Y-71054683D01*
X129574943Y-71054691D01*
X129709020Y-71232238D01*
X129873437Y-71382123D01*
X129873439Y-71382125D01*
X130062595Y-71499245D01*
X130062596Y-71499245D01*
X130062599Y-71499247D01*
X130270060Y-71579618D01*
X130488757Y-71620500D01*
X130488759Y-71620500D01*
X130711241Y-71620500D01*
X130711243Y-71620500D01*
X130929940Y-71579618D01*
X131137401Y-71499247D01*
X131326562Y-71382124D01*
X131490981Y-71232236D01*
X131625058Y-71054689D01*
X131724229Y-70855528D01*
X131785115Y-70641536D01*
X131805643Y-70420000D01*
X131795450Y-70309999D01*
X133394357Y-70309999D01*
X133394357Y-70310000D01*
X133414884Y-70531535D01*
X133414885Y-70531537D01*
X133475769Y-70745523D01*
X133475775Y-70745538D01*
X133574938Y-70944683D01*
X133574943Y-70944691D01*
X133709020Y-71122238D01*
X133873437Y-71272123D01*
X133873439Y-71272125D01*
X134062595Y-71389245D01*
X134062596Y-71389245D01*
X134062599Y-71389247D01*
X134270060Y-71469618D01*
X134488757Y-71510500D01*
X134488759Y-71510500D01*
X134711241Y-71510500D01*
X134711243Y-71510500D01*
X134929940Y-71469618D01*
X135137401Y-71389247D01*
X135326562Y-71272124D01*
X135490981Y-71122236D01*
X135625058Y-70944689D01*
X135724229Y-70745528D01*
X135785115Y-70531536D01*
X135805643Y-70310000D01*
X135805643Y-70309999D01*
X137494357Y-70309999D01*
X137494357Y-70310000D01*
X137514884Y-70531535D01*
X137514885Y-70531537D01*
X137575769Y-70745523D01*
X137575775Y-70745538D01*
X137674938Y-70944683D01*
X137674943Y-70944691D01*
X137809020Y-71122238D01*
X137973437Y-71272123D01*
X137973439Y-71272125D01*
X138162595Y-71389245D01*
X138162596Y-71389245D01*
X138162599Y-71389247D01*
X138370060Y-71469618D01*
X138588757Y-71510500D01*
X138588759Y-71510500D01*
X138811241Y-71510500D01*
X138811243Y-71510500D01*
X139029940Y-71469618D01*
X139237401Y-71389247D01*
X139426562Y-71272124D01*
X139590981Y-71122236D01*
X139725058Y-70944689D01*
X139824229Y-70745528D01*
X139885115Y-70531536D01*
X139905643Y-70310000D01*
X139885115Y-70088464D01*
X139824229Y-69874472D01*
X139824224Y-69874461D01*
X139725061Y-69675316D01*
X139725056Y-69675308D01*
X139590979Y-69497761D01*
X139426562Y-69347876D01*
X139426560Y-69347874D01*
X139237404Y-69230754D01*
X139237398Y-69230752D01*
X139029940Y-69150382D01*
X138811243Y-69109500D01*
X138588757Y-69109500D01*
X138370060Y-69150382D01*
X138238864Y-69201207D01*
X138162601Y-69230752D01*
X138162595Y-69230754D01*
X137973439Y-69347874D01*
X137973437Y-69347876D01*
X137809020Y-69497761D01*
X137674943Y-69675308D01*
X137674938Y-69675316D01*
X137575775Y-69874461D01*
X137575769Y-69874476D01*
X137514885Y-70088462D01*
X137514884Y-70088464D01*
X137494357Y-70309999D01*
X135805643Y-70309999D01*
X135785115Y-70088464D01*
X135724229Y-69874472D01*
X135724224Y-69874461D01*
X135625061Y-69675316D01*
X135625056Y-69675308D01*
X135490979Y-69497761D01*
X135326562Y-69347876D01*
X135326560Y-69347874D01*
X135137404Y-69230754D01*
X135137398Y-69230752D01*
X134929940Y-69150382D01*
X134711243Y-69109500D01*
X134488757Y-69109500D01*
X134270060Y-69150382D01*
X134138864Y-69201207D01*
X134062601Y-69230752D01*
X134062595Y-69230754D01*
X133873439Y-69347874D01*
X133873437Y-69347876D01*
X133709020Y-69497761D01*
X133574943Y-69675308D01*
X133574938Y-69675316D01*
X133475775Y-69874461D01*
X133475769Y-69874476D01*
X133414885Y-70088462D01*
X133414884Y-70088464D01*
X133394357Y-70309999D01*
X131795450Y-70309999D01*
X131785115Y-70198464D01*
X131724229Y-69984472D01*
X131724224Y-69984461D01*
X131625061Y-69785316D01*
X131625056Y-69785308D01*
X131490979Y-69607761D01*
X131326562Y-69457876D01*
X131326560Y-69457874D01*
X131137404Y-69340754D01*
X131137398Y-69340752D01*
X130929940Y-69260382D01*
X130711243Y-69219500D01*
X130488757Y-69219500D01*
X130270060Y-69260382D01*
X130138864Y-69311207D01*
X130062601Y-69340752D01*
X130062595Y-69340754D01*
X129873439Y-69457874D01*
X129873437Y-69457876D01*
X129709020Y-69607761D01*
X129574943Y-69785308D01*
X129574938Y-69785316D01*
X129475775Y-69984461D01*
X129475769Y-69984476D01*
X129414885Y-70198462D01*
X129414884Y-70198464D01*
X129394357Y-70419999D01*
X125105643Y-70419999D01*
X125085115Y-70198464D01*
X125024229Y-69984472D01*
X125024224Y-69984461D01*
X124925061Y-69785316D01*
X124925056Y-69785308D01*
X124790979Y-69607761D01*
X124626562Y-69457876D01*
X124626560Y-69457874D01*
X124437404Y-69340754D01*
X124437398Y-69340752D01*
X124229940Y-69260382D01*
X124011243Y-69219500D01*
X123788757Y-69219500D01*
X123570060Y-69260382D01*
X123438864Y-69311207D01*
X123362601Y-69340752D01*
X123362595Y-69340754D01*
X123173439Y-69457874D01*
X123173437Y-69457876D01*
X123009020Y-69607761D01*
X122874943Y-69785308D01*
X122874938Y-69785316D01*
X122775775Y-69984461D01*
X122775769Y-69984476D01*
X122714885Y-70198462D01*
X122714884Y-70198464D01*
X122694357Y-70419999D01*
X121287111Y-70419999D01*
X121305643Y-70220000D01*
X121303647Y-70198464D01*
X121285115Y-69998464D01*
X121285114Y-69998462D01*
X121281130Y-69984461D01*
X121224229Y-69784472D01*
X121224224Y-69784461D01*
X121125061Y-69585316D01*
X121125056Y-69585308D01*
X120990979Y-69407761D01*
X120826562Y-69257876D01*
X120826560Y-69257874D01*
X120637404Y-69140754D01*
X120637398Y-69140752D01*
X120429940Y-69060382D01*
X120211243Y-69019500D01*
X119988757Y-69019500D01*
X119770060Y-69060382D01*
X119643272Y-69109500D01*
X119562601Y-69140752D01*
X119562595Y-69140754D01*
X119373439Y-69257874D01*
X119373437Y-69257876D01*
X119209020Y-69407761D01*
X119074943Y-69585308D01*
X119074938Y-69585316D01*
X118975775Y-69784461D01*
X118975769Y-69784476D01*
X118914885Y-69998462D01*
X118914884Y-69998464D01*
X118894357Y-70219999D01*
X117005643Y-70219999D01*
X117003647Y-70198464D01*
X116985115Y-69998464D01*
X116985114Y-69998462D01*
X116981130Y-69984461D01*
X116924229Y-69784472D01*
X116924224Y-69784461D01*
X116825061Y-69585316D01*
X116825056Y-69585308D01*
X116690979Y-69407761D01*
X116526562Y-69257876D01*
X116526560Y-69257874D01*
X116337404Y-69140754D01*
X116337398Y-69140752D01*
X116129940Y-69060382D01*
X115911243Y-69019500D01*
X115688757Y-69019500D01*
X115470060Y-69060382D01*
X115343272Y-69109500D01*
X115262601Y-69140752D01*
X115262595Y-69140754D01*
X115073439Y-69257874D01*
X115073437Y-69257876D01*
X114909020Y-69407761D01*
X114774943Y-69585308D01*
X114774938Y-69585316D01*
X114675775Y-69784461D01*
X114675769Y-69784476D01*
X114614885Y-69998462D01*
X114614884Y-69998464D01*
X114594357Y-70219999D01*
X72500500Y-70219999D01*
X72500500Y-65003750D01*
X72500726Y-64996263D01*
X72504129Y-64939999D01*
X100454357Y-64939999D01*
X100454357Y-64940000D01*
X100474884Y-65161535D01*
X100474885Y-65161537D01*
X100535769Y-65375523D01*
X100535775Y-65375538D01*
X100634938Y-65574683D01*
X100634943Y-65574691D01*
X100769020Y-65752238D01*
X100933437Y-65902123D01*
X100933439Y-65902125D01*
X101122595Y-66019245D01*
X101122596Y-66019245D01*
X101122599Y-66019247D01*
X101330060Y-66099618D01*
X101548757Y-66140500D01*
X101548759Y-66140500D01*
X101771241Y-66140500D01*
X101771243Y-66140500D01*
X101989940Y-66099618D01*
X102197401Y-66019247D01*
X102386562Y-65902124D01*
X102550981Y-65752236D01*
X102685058Y-65574689D01*
X102784229Y-65375528D01*
X102810734Y-65282371D01*
X102848013Y-65223278D01*
X102911323Y-65193721D01*
X102980562Y-65203083D01*
X103033749Y-65248393D01*
X103049266Y-65282372D01*
X103075769Y-65375523D01*
X103075775Y-65375538D01*
X103174938Y-65574683D01*
X103174943Y-65574691D01*
X103309020Y-65752238D01*
X103473437Y-65902123D01*
X103473439Y-65902125D01*
X103662595Y-66019245D01*
X103662596Y-66019245D01*
X103662599Y-66019247D01*
X103870060Y-66099618D01*
X104088757Y-66140500D01*
X104088759Y-66140500D01*
X104311241Y-66140500D01*
X104311243Y-66140500D01*
X104529940Y-66099618D01*
X104737401Y-66019247D01*
X104926562Y-65902124D01*
X105090981Y-65752236D01*
X105225058Y-65574689D01*
X105324229Y-65375528D01*
X105350734Y-65282371D01*
X105388013Y-65223278D01*
X105451323Y-65193721D01*
X105520562Y-65203083D01*
X105573749Y-65248393D01*
X105589266Y-65282372D01*
X105615769Y-65375523D01*
X105615775Y-65375538D01*
X105714938Y-65574683D01*
X105714943Y-65574691D01*
X105849020Y-65752238D01*
X106013437Y-65902123D01*
X106013439Y-65902125D01*
X106202595Y-66019245D01*
X106202596Y-66019245D01*
X106202599Y-66019247D01*
X106410060Y-66099618D01*
X106628757Y-66140500D01*
X106628759Y-66140500D01*
X106851241Y-66140500D01*
X106851243Y-66140500D01*
X107069940Y-66099618D01*
X107277401Y-66019247D01*
X107466562Y-65902124D01*
X107630981Y-65752236D01*
X107765058Y-65574689D01*
X107844825Y-65414497D01*
X107892328Y-65363260D01*
X107959991Y-65345839D01*
X108026331Y-65367765D01*
X108068207Y-65417364D01*
X108149865Y-65592482D01*
X108280342Y-65778820D01*
X108441179Y-65939657D01*
X108627517Y-66070134D01*
X108833673Y-66166265D01*
X108833682Y-66166269D01*
X109029999Y-66218872D01*
X109030000Y-66218871D01*
X109030000Y-65373012D01*
X109087007Y-65405925D01*
X109214174Y-65440000D01*
X109345826Y-65440000D01*
X109472993Y-65405925D01*
X109530000Y-65373012D01*
X109530000Y-66218872D01*
X109726317Y-66166269D01*
X109726326Y-66166265D01*
X109932482Y-66070134D01*
X110118820Y-65939657D01*
X110279657Y-65778820D01*
X110410134Y-65592481D01*
X110410135Y-65592479D01*
X110491792Y-65417365D01*
X110537964Y-65364925D01*
X110605157Y-65345773D01*
X110672038Y-65365988D01*
X110715174Y-65414497D01*
X110794938Y-65574683D01*
X110794943Y-65574691D01*
X110929020Y-65752238D01*
X111093437Y-65902123D01*
X111093439Y-65902125D01*
X111282595Y-66019245D01*
X111282596Y-66019245D01*
X111282599Y-66019247D01*
X111490060Y-66099618D01*
X111708757Y-66140500D01*
X111708759Y-66140500D01*
X111931241Y-66140500D01*
X111931243Y-66140500D01*
X112149940Y-66099618D01*
X112357401Y-66019247D01*
X112546562Y-65902124D01*
X112710981Y-65752236D01*
X112845058Y-65574689D01*
X112944229Y-65375528D01*
X112970734Y-65282371D01*
X113008013Y-65223278D01*
X113071323Y-65193721D01*
X113140562Y-65203083D01*
X113193749Y-65248393D01*
X113209266Y-65282372D01*
X113235769Y-65375523D01*
X113235775Y-65375538D01*
X113334938Y-65574683D01*
X113334943Y-65574691D01*
X113469020Y-65752238D01*
X113633437Y-65902123D01*
X113633439Y-65902125D01*
X113822595Y-66019245D01*
X113822596Y-66019245D01*
X113822599Y-66019247D01*
X114030060Y-66099618D01*
X114248757Y-66140500D01*
X114248759Y-66140500D01*
X114471241Y-66140500D01*
X114471243Y-66140500D01*
X114689940Y-66099618D01*
X114897401Y-66019247D01*
X115086562Y-65902124D01*
X115250981Y-65752236D01*
X115385058Y-65574689D01*
X115484229Y-65375528D01*
X115510734Y-65282371D01*
X115548013Y-65223278D01*
X115611323Y-65193721D01*
X115680562Y-65203083D01*
X115733749Y-65248393D01*
X115749266Y-65282372D01*
X115775769Y-65375523D01*
X115775775Y-65375538D01*
X115874938Y-65574683D01*
X115874943Y-65574691D01*
X116009020Y-65752238D01*
X116173437Y-65902123D01*
X116173439Y-65902125D01*
X116362595Y-66019245D01*
X116362596Y-66019245D01*
X116362599Y-66019247D01*
X116570060Y-66099618D01*
X116788757Y-66140500D01*
X116788759Y-66140500D01*
X117011241Y-66140500D01*
X117011243Y-66140500D01*
X117229940Y-66099618D01*
X117437401Y-66019247D01*
X117626562Y-65902124D01*
X117790981Y-65752236D01*
X117925058Y-65574689D01*
X118024229Y-65375528D01*
X118050734Y-65282371D01*
X118088013Y-65223278D01*
X118151323Y-65193721D01*
X118220562Y-65203083D01*
X118273749Y-65248393D01*
X118289266Y-65282372D01*
X118315769Y-65375523D01*
X118315775Y-65375538D01*
X118414938Y-65574683D01*
X118414943Y-65574691D01*
X118549020Y-65752238D01*
X118713437Y-65902123D01*
X118713439Y-65902125D01*
X118902595Y-66019245D01*
X118902596Y-66019245D01*
X118902599Y-66019247D01*
X119110060Y-66099618D01*
X119328757Y-66140500D01*
X119328759Y-66140500D01*
X119551241Y-66140500D01*
X119551243Y-66140500D01*
X119769940Y-66099618D01*
X119977401Y-66019247D01*
X120166562Y-65902124D01*
X120330981Y-65752236D01*
X120465058Y-65574689D01*
X120564229Y-65375528D01*
X120590734Y-65282371D01*
X120628013Y-65223278D01*
X120691323Y-65193721D01*
X120760562Y-65203083D01*
X120813749Y-65248393D01*
X120829266Y-65282372D01*
X120855769Y-65375523D01*
X120855775Y-65375538D01*
X120954938Y-65574683D01*
X120954943Y-65574691D01*
X121089020Y-65752238D01*
X121253437Y-65902123D01*
X121253439Y-65902125D01*
X121442595Y-66019245D01*
X121442596Y-66019245D01*
X121442599Y-66019247D01*
X121650060Y-66099618D01*
X121868757Y-66140500D01*
X121868759Y-66140500D01*
X122091241Y-66140500D01*
X122091243Y-66140500D01*
X122309940Y-66099618D01*
X122517401Y-66019247D01*
X122706562Y-65902124D01*
X122870981Y-65752236D01*
X123005058Y-65574689D01*
X123104229Y-65375528D01*
X123130734Y-65282371D01*
X123168013Y-65223278D01*
X123231323Y-65193721D01*
X123300562Y-65203083D01*
X123353749Y-65248393D01*
X123369266Y-65282372D01*
X123395769Y-65375523D01*
X123395775Y-65375538D01*
X123494938Y-65574683D01*
X123494943Y-65574691D01*
X123629020Y-65752238D01*
X123793437Y-65902123D01*
X123793439Y-65902125D01*
X123982595Y-66019245D01*
X123982596Y-66019245D01*
X123982599Y-66019247D01*
X124190060Y-66099618D01*
X124408757Y-66140500D01*
X124408759Y-66140500D01*
X124631241Y-66140500D01*
X124631243Y-66140500D01*
X124849940Y-66099618D01*
X125057401Y-66019247D01*
X125246562Y-65902124D01*
X125410981Y-65752236D01*
X125545058Y-65574689D01*
X125644229Y-65375528D01*
X125705115Y-65161536D01*
X125725643Y-64940000D01*
X125725643Y-64939999D01*
X127374357Y-64939999D01*
X127374357Y-64940000D01*
X127394884Y-65161535D01*
X127394885Y-65161537D01*
X127455769Y-65375523D01*
X127455775Y-65375538D01*
X127554938Y-65574683D01*
X127554943Y-65574691D01*
X127689020Y-65752238D01*
X127853437Y-65902123D01*
X127853439Y-65902125D01*
X128042595Y-66019245D01*
X128042596Y-66019245D01*
X128042599Y-66019247D01*
X128250060Y-66099618D01*
X128468757Y-66140500D01*
X128468759Y-66140500D01*
X128691241Y-66140500D01*
X128691243Y-66140500D01*
X128909940Y-66099618D01*
X129117401Y-66019247D01*
X129306562Y-65902124D01*
X129470981Y-65752236D01*
X129605058Y-65574689D01*
X129704229Y-65375528D01*
X129730734Y-65282371D01*
X129768013Y-65223278D01*
X129831323Y-65193721D01*
X129900562Y-65203083D01*
X129953749Y-65248393D01*
X129969266Y-65282372D01*
X129995769Y-65375523D01*
X129995775Y-65375538D01*
X130094938Y-65574683D01*
X130094943Y-65574691D01*
X130229020Y-65752238D01*
X130393437Y-65902123D01*
X130393439Y-65902125D01*
X130582595Y-66019245D01*
X130582596Y-66019245D01*
X130582599Y-66019247D01*
X130790060Y-66099618D01*
X131008757Y-66140500D01*
X131008759Y-66140500D01*
X131231241Y-66140500D01*
X131231243Y-66140500D01*
X131449940Y-66099618D01*
X131657401Y-66019247D01*
X131846562Y-65902124D01*
X132010981Y-65752236D01*
X132145058Y-65574689D01*
X132244229Y-65375528D01*
X132270734Y-65282371D01*
X132308013Y-65223278D01*
X132371323Y-65193721D01*
X132440562Y-65203083D01*
X132493749Y-65248393D01*
X132509266Y-65282372D01*
X132535769Y-65375523D01*
X132535775Y-65375538D01*
X132634938Y-65574683D01*
X132634943Y-65574691D01*
X132769020Y-65752238D01*
X132933437Y-65902123D01*
X132933439Y-65902125D01*
X133122595Y-66019245D01*
X133122596Y-66019245D01*
X133122599Y-66019247D01*
X133330060Y-66099618D01*
X133548757Y-66140500D01*
X133548759Y-66140500D01*
X133771241Y-66140500D01*
X133771243Y-66140500D01*
X133989940Y-66099618D01*
X134197401Y-66019247D01*
X134386562Y-65902124D01*
X134550981Y-65752236D01*
X134685058Y-65574689D01*
X134784229Y-65375528D01*
X134810734Y-65282371D01*
X134848013Y-65223278D01*
X134911323Y-65193721D01*
X134980562Y-65203083D01*
X135033749Y-65248393D01*
X135049266Y-65282372D01*
X135075769Y-65375523D01*
X135075775Y-65375538D01*
X135174938Y-65574683D01*
X135174943Y-65574691D01*
X135309020Y-65752238D01*
X135473437Y-65902123D01*
X135473439Y-65902125D01*
X135662595Y-66019245D01*
X135662596Y-66019245D01*
X135662599Y-66019247D01*
X135870060Y-66099618D01*
X136088757Y-66140500D01*
X136088759Y-66140500D01*
X136311241Y-66140500D01*
X136311243Y-66140500D01*
X136529940Y-66099618D01*
X136737401Y-66019247D01*
X136926562Y-65902124D01*
X137090981Y-65752236D01*
X137225058Y-65574689D01*
X137324229Y-65375528D01*
X137350734Y-65282371D01*
X137388013Y-65223278D01*
X137451323Y-65193721D01*
X137520562Y-65203083D01*
X137573749Y-65248393D01*
X137589266Y-65282372D01*
X137615769Y-65375523D01*
X137615775Y-65375538D01*
X137714938Y-65574683D01*
X137714943Y-65574691D01*
X137849020Y-65752238D01*
X138013437Y-65902123D01*
X138013439Y-65902125D01*
X138202595Y-66019245D01*
X138202596Y-66019245D01*
X138202599Y-66019247D01*
X138410060Y-66099618D01*
X138628757Y-66140500D01*
X138628759Y-66140500D01*
X138851241Y-66140500D01*
X138851243Y-66140500D01*
X139069940Y-66099618D01*
X139277401Y-66019247D01*
X139466562Y-65902124D01*
X139630981Y-65752236D01*
X139765058Y-65574689D01*
X139864229Y-65375528D01*
X139890734Y-65282371D01*
X139928013Y-65223278D01*
X139991323Y-65193721D01*
X140060562Y-65203083D01*
X140113749Y-65248393D01*
X140129266Y-65282372D01*
X140155769Y-65375523D01*
X140155775Y-65375538D01*
X140254938Y-65574683D01*
X140254943Y-65574691D01*
X140389020Y-65752238D01*
X140553437Y-65902123D01*
X140553439Y-65902125D01*
X140742595Y-66019245D01*
X140742596Y-66019245D01*
X140742599Y-66019247D01*
X140950060Y-66099618D01*
X141168757Y-66140500D01*
X141168759Y-66140500D01*
X141391241Y-66140500D01*
X141391243Y-66140500D01*
X141609940Y-66099618D01*
X141817401Y-66019247D01*
X142006562Y-65902124D01*
X142170981Y-65752236D01*
X142305058Y-65574689D01*
X142404229Y-65375528D01*
X142430734Y-65282371D01*
X142468013Y-65223278D01*
X142531323Y-65193721D01*
X142600562Y-65203083D01*
X142653749Y-65248393D01*
X142669266Y-65282372D01*
X142695769Y-65375523D01*
X142695775Y-65375538D01*
X142794938Y-65574683D01*
X142794943Y-65574691D01*
X142929020Y-65752238D01*
X143093437Y-65902123D01*
X143093439Y-65902125D01*
X143154056Y-65939657D01*
X143260777Y-66005736D01*
X143307413Y-66057762D01*
X143319500Y-66111162D01*
X143319500Y-82485891D01*
X143353608Y-82613187D01*
X143366899Y-82636207D01*
X143419500Y-82727314D01*
X145032686Y-84340500D01*
X145146814Y-84406392D01*
X145274108Y-84440500D01*
X145405893Y-84440500D01*
X145574616Y-84440500D01*
X145641655Y-84460185D01*
X145686998Y-84512096D01*
X145711913Y-84565528D01*
X145712898Y-84567639D01*
X145838402Y-84746877D01*
X145993123Y-84901598D01*
X146172360Y-85027101D01*
X146172361Y-85027102D01*
X146323583Y-85097618D01*
X146376022Y-85143790D01*
X146395174Y-85210984D01*
X146374958Y-85277865D01*
X146323583Y-85322382D01*
X146172361Y-85392898D01*
X146172357Y-85392900D01*
X145993121Y-85518402D01*
X145838402Y-85673121D01*
X145712900Y-85852357D01*
X145712898Y-85852361D01*
X145620426Y-86050668D01*
X145620422Y-86050677D01*
X145563793Y-86262020D01*
X145563793Y-86262024D01*
X145553120Y-86384024D01*
X145544723Y-86480000D01*
X145562268Y-86680550D01*
X145563793Y-86697975D01*
X145563793Y-86697979D01*
X145620422Y-86909322D01*
X145620424Y-86909326D01*
X145620425Y-86909330D01*
X145644194Y-86960302D01*
X145712897Y-87107638D01*
X145712898Y-87107639D01*
X145838402Y-87286877D01*
X145993123Y-87441598D01*
X146172361Y-87567102D01*
X146370670Y-87659575D01*
X146370676Y-87659576D01*
X146370677Y-87659577D01*
X146401364Y-87667799D01*
X146582023Y-87716207D01*
X146764926Y-87732208D01*
X146799998Y-87735277D01*
X146800000Y-87735277D01*
X146800002Y-87735277D01*
X146828254Y-87732805D01*
X147017977Y-87716207D01*
X147229330Y-87659575D01*
X147427639Y-87567102D01*
X147606877Y-87441598D01*
X147761598Y-87286877D01*
X147887102Y-87107639D01*
X147979575Y-86909330D01*
X148036207Y-86697977D01*
X148055277Y-86480000D01*
X148036207Y-86262023D01*
X147979575Y-86050670D01*
X147887102Y-85852362D01*
X147887100Y-85852359D01*
X147887099Y-85852357D01*
X147761599Y-85673124D01*
X147688132Y-85599657D01*
X147606877Y-85518402D01*
X147427639Y-85392898D01*
X147276414Y-85322381D01*
X147223977Y-85276210D01*
X147204825Y-85209016D01*
X147225041Y-85142135D01*
X147276414Y-85097618D01*
X147427639Y-85027102D01*
X147606877Y-84901598D01*
X147761598Y-84746877D01*
X147887102Y-84567639D01*
X147979575Y-84369330D01*
X148036207Y-84157977D01*
X148055277Y-83940000D01*
X148053689Y-83921854D01*
X148036207Y-83722023D01*
X148036206Y-83722020D01*
X147979577Y-83510677D01*
X147979576Y-83510676D01*
X147979575Y-83510670D01*
X147887102Y-83312362D01*
X147887100Y-83312359D01*
X147887099Y-83312357D01*
X147761599Y-83133124D01*
X147746236Y-83117761D01*
X147606877Y-82978402D01*
X147427639Y-82852898D01*
X147276414Y-82782381D01*
X147223977Y-82736210D01*
X147204825Y-82669016D01*
X147225041Y-82602135D01*
X147276414Y-82557618D01*
X147427639Y-82487102D01*
X147606877Y-82361598D01*
X147761598Y-82206877D01*
X147887102Y-82027639D01*
X147979575Y-81829330D01*
X148036207Y-81617977D01*
X148055277Y-81400000D01*
X148036207Y-81182023D01*
X147979575Y-80970670D01*
X147887102Y-80772362D01*
X147887100Y-80772359D01*
X147887099Y-80772357D01*
X147761599Y-80593124D01*
X147761593Y-80593118D01*
X147606877Y-80438402D01*
X147427639Y-80312898D01*
X147276414Y-80242381D01*
X147223977Y-80196210D01*
X147204825Y-80129016D01*
X147225041Y-80062135D01*
X147276414Y-80017618D01*
X147427639Y-79947102D01*
X147606877Y-79821598D01*
X147761598Y-79666877D01*
X147887102Y-79487639D01*
X147979575Y-79289330D01*
X148036207Y-79077977D01*
X148055277Y-78860000D01*
X148036207Y-78642023D01*
X147979575Y-78430670D01*
X147887102Y-78232362D01*
X147887100Y-78232359D01*
X147887099Y-78232357D01*
X147761599Y-78053124D01*
X147748474Y-78039999D01*
X147606877Y-77898402D01*
X147427639Y-77772898D01*
X147276414Y-77702381D01*
X147223977Y-77656210D01*
X147204825Y-77589016D01*
X147225041Y-77522135D01*
X147276414Y-77477618D01*
X147427639Y-77407102D01*
X147606877Y-77281598D01*
X147761598Y-77126877D01*
X147887102Y-76947639D01*
X147979575Y-76749330D01*
X148036207Y-76537977D01*
X148055277Y-76320000D01*
X148036207Y-76102023D01*
X147979575Y-75890670D01*
X147887102Y-75692362D01*
X147887100Y-75692359D01*
X147887099Y-75692357D01*
X147761599Y-75513124D01*
X147761596Y-75513121D01*
X147606877Y-75358402D01*
X147602835Y-75355572D01*
X147559213Y-75300997D01*
X147552021Y-75231498D01*
X147583544Y-75169144D01*
X147643774Y-75133731D01*
X147673962Y-75130000D01*
X147697828Y-75130000D01*
X147697844Y-75129999D01*
X147757372Y-75123598D01*
X147757379Y-75123596D01*
X147892086Y-75073354D01*
X147892093Y-75073350D01*
X148007187Y-74987190D01*
X148007190Y-74987187D01*
X148093350Y-74872093D01*
X148093354Y-74872086D01*
X148143596Y-74737379D01*
X148143598Y-74737372D01*
X148149999Y-74677844D01*
X148150000Y-74677827D01*
X148150000Y-74030000D01*
X147233012Y-74030000D01*
X147265925Y-73972993D01*
X147300000Y-73845826D01*
X147300000Y-73714174D01*
X147265925Y-73587007D01*
X147233012Y-73530000D01*
X148150000Y-73530000D01*
X148150000Y-72882172D01*
X148149999Y-72882155D01*
X148143598Y-72822627D01*
X148143596Y-72822620D01*
X148093354Y-72687913D01*
X148093350Y-72687906D01*
X148007190Y-72572812D01*
X148007187Y-72572809D01*
X147892093Y-72486649D01*
X147892086Y-72486645D01*
X147757379Y-72436403D01*
X147757372Y-72436401D01*
X147697844Y-72430000D01*
X147050000Y-72430000D01*
X147050000Y-73346988D01*
X146992993Y-73314075D01*
X146865826Y-73280000D01*
X146734174Y-73280000D01*
X146607007Y-73314075D01*
X146550000Y-73346988D01*
X146550000Y-72430000D01*
X145902155Y-72430000D01*
X145842627Y-72436401D01*
X145842620Y-72436403D01*
X145707913Y-72486645D01*
X145707906Y-72486649D01*
X145592812Y-72572809D01*
X145523766Y-72665042D01*
X145467832Y-72706912D01*
X145398140Y-72711896D01*
X145336817Y-72678410D01*
X145303333Y-72617086D01*
X145300500Y-72590730D01*
X145300500Y-69458676D01*
X145320185Y-69391637D01*
X145336819Y-69370995D01*
X146035490Y-68672324D01*
X146760500Y-67947314D01*
X146826392Y-67833186D01*
X146860500Y-67705893D01*
X146860500Y-67574108D01*
X146860500Y-66111162D01*
X146880185Y-66044123D01*
X146919221Y-66005736D01*
X147086562Y-65902124D01*
X147250981Y-65752236D01*
X147385058Y-65574689D01*
X147484229Y-65375528D01*
X147545115Y-65161536D01*
X147565643Y-64940000D01*
X147545115Y-64718464D01*
X147484229Y-64504472D01*
X147484224Y-64504461D01*
X147385061Y-64305316D01*
X147385056Y-64305308D01*
X147250979Y-64127761D01*
X147086562Y-63977876D01*
X147086560Y-63977874D01*
X146897404Y-63860754D01*
X146897398Y-63860752D01*
X146689940Y-63780382D01*
X146471243Y-63739500D01*
X146248757Y-63739500D01*
X146030060Y-63780382D01*
X145953956Y-63809865D01*
X145822601Y-63860752D01*
X145822595Y-63860754D01*
X145633439Y-63977874D01*
X145633437Y-63977876D01*
X145469020Y-64127761D01*
X145334943Y-64305308D01*
X145334938Y-64305316D01*
X145235775Y-64504461D01*
X145235769Y-64504476D01*
X145209266Y-64597627D01*
X145171987Y-64656721D01*
X145108677Y-64686278D01*
X145039438Y-64676916D01*
X144986251Y-64631606D01*
X144970734Y-64597627D01*
X144947719Y-64516739D01*
X144944229Y-64504472D01*
X144944224Y-64504461D01*
X144845061Y-64305316D01*
X144845056Y-64305308D01*
X144710979Y-64127761D01*
X144546562Y-63977876D01*
X144546560Y-63977874D01*
X144357404Y-63860754D01*
X144357398Y-63860752D01*
X144149940Y-63780382D01*
X143931243Y-63739500D01*
X143708757Y-63739500D01*
X143490060Y-63780382D01*
X143413956Y-63809865D01*
X143282601Y-63860752D01*
X143282595Y-63860754D01*
X143093439Y-63977874D01*
X143093437Y-63977876D01*
X142929020Y-64127761D01*
X142794943Y-64305308D01*
X142794938Y-64305316D01*
X142695775Y-64504461D01*
X142695769Y-64504476D01*
X142669266Y-64597627D01*
X142631987Y-64656721D01*
X142568677Y-64686278D01*
X142499438Y-64676916D01*
X142446251Y-64631606D01*
X142430734Y-64597627D01*
X142407719Y-64516739D01*
X142404229Y-64504472D01*
X142404224Y-64504461D01*
X142305061Y-64305316D01*
X142305056Y-64305308D01*
X142170979Y-64127761D01*
X142006562Y-63977876D01*
X142006560Y-63977874D01*
X141817404Y-63860754D01*
X141817398Y-63860752D01*
X141609940Y-63780382D01*
X141391243Y-63739500D01*
X141168757Y-63739500D01*
X140950060Y-63780382D01*
X140873956Y-63809865D01*
X140742601Y-63860752D01*
X140742595Y-63860754D01*
X140553439Y-63977874D01*
X140553437Y-63977876D01*
X140389020Y-64127761D01*
X140254943Y-64305308D01*
X140254938Y-64305316D01*
X140155775Y-64504461D01*
X140155769Y-64504476D01*
X140129266Y-64597627D01*
X140091987Y-64656721D01*
X140028677Y-64686278D01*
X139959438Y-64676916D01*
X139906251Y-64631606D01*
X139890734Y-64597627D01*
X139867719Y-64516739D01*
X139864229Y-64504472D01*
X139864224Y-64504461D01*
X139765061Y-64305316D01*
X139765056Y-64305308D01*
X139630979Y-64127761D01*
X139466562Y-63977876D01*
X139466560Y-63977874D01*
X139277404Y-63860754D01*
X139277398Y-63860752D01*
X139069940Y-63780382D01*
X138851243Y-63739500D01*
X138628757Y-63739500D01*
X138410060Y-63780382D01*
X138333956Y-63809865D01*
X138202601Y-63860752D01*
X138202595Y-63860754D01*
X138013439Y-63977874D01*
X138013437Y-63977876D01*
X137849020Y-64127761D01*
X137714943Y-64305308D01*
X137714938Y-64305316D01*
X137615775Y-64504461D01*
X137615769Y-64504476D01*
X137589266Y-64597627D01*
X137551987Y-64656721D01*
X137488677Y-64686278D01*
X137419438Y-64676916D01*
X137366251Y-64631606D01*
X137350734Y-64597627D01*
X137327719Y-64516739D01*
X137324229Y-64504472D01*
X137324224Y-64504461D01*
X137225061Y-64305316D01*
X137225056Y-64305308D01*
X137090979Y-64127761D01*
X136926562Y-63977876D01*
X136926560Y-63977874D01*
X136737404Y-63860754D01*
X136737398Y-63860752D01*
X136529940Y-63780382D01*
X136311243Y-63739500D01*
X136088757Y-63739500D01*
X135870060Y-63780382D01*
X135793956Y-63809865D01*
X135662601Y-63860752D01*
X135662595Y-63860754D01*
X135473439Y-63977874D01*
X135473437Y-63977876D01*
X135309020Y-64127761D01*
X135174943Y-64305308D01*
X135174938Y-64305316D01*
X135075775Y-64504461D01*
X135075769Y-64504476D01*
X135049266Y-64597627D01*
X135011987Y-64656721D01*
X134948677Y-64686278D01*
X134879438Y-64676916D01*
X134826251Y-64631606D01*
X134810734Y-64597627D01*
X134787719Y-64516739D01*
X134784229Y-64504472D01*
X134784224Y-64504461D01*
X134685061Y-64305316D01*
X134685056Y-64305308D01*
X134550979Y-64127761D01*
X134386562Y-63977876D01*
X134386560Y-63977874D01*
X134197404Y-63860754D01*
X134197398Y-63860752D01*
X133989940Y-63780382D01*
X133771243Y-63739500D01*
X133548757Y-63739500D01*
X133330060Y-63780382D01*
X133253956Y-63809865D01*
X133122601Y-63860752D01*
X133122595Y-63860754D01*
X132933439Y-63977874D01*
X132933437Y-63977876D01*
X132769020Y-64127761D01*
X132634943Y-64305308D01*
X132634938Y-64305316D01*
X132535775Y-64504461D01*
X132535769Y-64504476D01*
X132509266Y-64597627D01*
X132471987Y-64656721D01*
X132408677Y-64686278D01*
X132339438Y-64676916D01*
X132286251Y-64631606D01*
X132270734Y-64597627D01*
X132247719Y-64516739D01*
X132244229Y-64504472D01*
X132244224Y-64504461D01*
X132145061Y-64305316D01*
X132145056Y-64305308D01*
X132010979Y-64127761D01*
X131846562Y-63977876D01*
X131846560Y-63977874D01*
X131657404Y-63860754D01*
X131657398Y-63860752D01*
X131449940Y-63780382D01*
X131231243Y-63739500D01*
X131008757Y-63739500D01*
X130790060Y-63780382D01*
X130713956Y-63809865D01*
X130582601Y-63860752D01*
X130582595Y-63860754D01*
X130393439Y-63977874D01*
X130393437Y-63977876D01*
X130229020Y-64127761D01*
X130094943Y-64305308D01*
X130094938Y-64305316D01*
X129995775Y-64504461D01*
X129995769Y-64504476D01*
X129969266Y-64597627D01*
X129931987Y-64656721D01*
X129868677Y-64686278D01*
X129799438Y-64676916D01*
X129746251Y-64631606D01*
X129730734Y-64597627D01*
X129707719Y-64516739D01*
X129704229Y-64504472D01*
X129704224Y-64504461D01*
X129605061Y-64305316D01*
X129605056Y-64305308D01*
X129470979Y-64127761D01*
X129306562Y-63977876D01*
X129306560Y-63977874D01*
X129117404Y-63860754D01*
X129117398Y-63860752D01*
X128909940Y-63780382D01*
X128691243Y-63739500D01*
X128468757Y-63739500D01*
X128250060Y-63780382D01*
X128173956Y-63809865D01*
X128042601Y-63860752D01*
X128042595Y-63860754D01*
X127853439Y-63977874D01*
X127853437Y-63977876D01*
X127689020Y-64127761D01*
X127554943Y-64305308D01*
X127554938Y-64305316D01*
X127455775Y-64504461D01*
X127455769Y-64504476D01*
X127394885Y-64718462D01*
X127394884Y-64718464D01*
X127374357Y-64939999D01*
X125725643Y-64939999D01*
X125705115Y-64718464D01*
X125644229Y-64504472D01*
X125644224Y-64504461D01*
X125545061Y-64305316D01*
X125545056Y-64305308D01*
X125410979Y-64127761D01*
X125246562Y-63977876D01*
X125246560Y-63977874D01*
X125057404Y-63860754D01*
X125057398Y-63860752D01*
X124849940Y-63780382D01*
X124631243Y-63739500D01*
X124408757Y-63739500D01*
X124190060Y-63780382D01*
X124113956Y-63809865D01*
X123982601Y-63860752D01*
X123982595Y-63860754D01*
X123793439Y-63977874D01*
X123793437Y-63977876D01*
X123629020Y-64127761D01*
X123494943Y-64305308D01*
X123494938Y-64305316D01*
X123395775Y-64504461D01*
X123395769Y-64504476D01*
X123369266Y-64597627D01*
X123331987Y-64656721D01*
X123268677Y-64686278D01*
X123199438Y-64676916D01*
X123146251Y-64631606D01*
X123130734Y-64597627D01*
X123107719Y-64516739D01*
X123104229Y-64504472D01*
X123104224Y-64504461D01*
X123005061Y-64305316D01*
X123005056Y-64305308D01*
X122870979Y-64127761D01*
X122706562Y-63977876D01*
X122706560Y-63977874D01*
X122517404Y-63860754D01*
X122517398Y-63860752D01*
X122309940Y-63780382D01*
X122091243Y-63739500D01*
X121868757Y-63739500D01*
X121650060Y-63780382D01*
X121573956Y-63809865D01*
X121442601Y-63860752D01*
X121442595Y-63860754D01*
X121253439Y-63977874D01*
X121253437Y-63977876D01*
X121089020Y-64127761D01*
X120954943Y-64305308D01*
X120954938Y-64305316D01*
X120855775Y-64504461D01*
X120855769Y-64504476D01*
X120829266Y-64597627D01*
X120791987Y-64656721D01*
X120728677Y-64686278D01*
X120659438Y-64676916D01*
X120606251Y-64631606D01*
X120590734Y-64597627D01*
X120567719Y-64516739D01*
X120564229Y-64504472D01*
X120564224Y-64504461D01*
X120465061Y-64305316D01*
X120465056Y-64305308D01*
X120330979Y-64127761D01*
X120166562Y-63977876D01*
X120166560Y-63977874D01*
X119977404Y-63860754D01*
X119977398Y-63860752D01*
X119769940Y-63780382D01*
X119551243Y-63739500D01*
X119328757Y-63739500D01*
X119110060Y-63780382D01*
X119033956Y-63809865D01*
X118902601Y-63860752D01*
X118902595Y-63860754D01*
X118713439Y-63977874D01*
X118713437Y-63977876D01*
X118549020Y-64127761D01*
X118414943Y-64305308D01*
X118414938Y-64305316D01*
X118315775Y-64504461D01*
X118315769Y-64504476D01*
X118289266Y-64597627D01*
X118251987Y-64656721D01*
X118188677Y-64686278D01*
X118119438Y-64676916D01*
X118066251Y-64631606D01*
X118050734Y-64597627D01*
X118027719Y-64516739D01*
X118024229Y-64504472D01*
X118024224Y-64504461D01*
X117925061Y-64305316D01*
X117925056Y-64305308D01*
X117790979Y-64127761D01*
X117626562Y-63977876D01*
X117626560Y-63977874D01*
X117437404Y-63860754D01*
X117437398Y-63860752D01*
X117229940Y-63780382D01*
X117011243Y-63739500D01*
X116788757Y-63739500D01*
X116570060Y-63780382D01*
X116493956Y-63809865D01*
X116362601Y-63860752D01*
X116362595Y-63860754D01*
X116173439Y-63977874D01*
X116173437Y-63977876D01*
X116009020Y-64127761D01*
X115874943Y-64305308D01*
X115874938Y-64305316D01*
X115775775Y-64504461D01*
X115775769Y-64504476D01*
X115749266Y-64597627D01*
X115711987Y-64656721D01*
X115648677Y-64686278D01*
X115579438Y-64676916D01*
X115526251Y-64631606D01*
X115510734Y-64597627D01*
X115487719Y-64516739D01*
X115484229Y-64504472D01*
X115484224Y-64504461D01*
X115385061Y-64305316D01*
X115385056Y-64305308D01*
X115250979Y-64127761D01*
X115086562Y-63977876D01*
X115086560Y-63977874D01*
X114897404Y-63860754D01*
X114897398Y-63860752D01*
X114689940Y-63780382D01*
X114471243Y-63739500D01*
X114248757Y-63739500D01*
X114030060Y-63780382D01*
X113953956Y-63809865D01*
X113822601Y-63860752D01*
X113822595Y-63860754D01*
X113633439Y-63977874D01*
X113633437Y-63977876D01*
X113469020Y-64127761D01*
X113334943Y-64305308D01*
X113334938Y-64305316D01*
X113235775Y-64504461D01*
X113235769Y-64504476D01*
X113209266Y-64597627D01*
X113171987Y-64656721D01*
X113108677Y-64686278D01*
X113039438Y-64676916D01*
X112986251Y-64631606D01*
X112970734Y-64597627D01*
X112947719Y-64516739D01*
X112944229Y-64504472D01*
X112944224Y-64504461D01*
X112845061Y-64305316D01*
X112845056Y-64305308D01*
X112710979Y-64127761D01*
X112546562Y-63977876D01*
X112546560Y-63977874D01*
X112357404Y-63860754D01*
X112357398Y-63860752D01*
X112149940Y-63780382D01*
X111931243Y-63739500D01*
X111708757Y-63739500D01*
X111490060Y-63780382D01*
X111413956Y-63809865D01*
X111282601Y-63860752D01*
X111282595Y-63860754D01*
X111093439Y-63977874D01*
X111093437Y-63977876D01*
X110929020Y-64127761D01*
X110794943Y-64305308D01*
X110794941Y-64305312D01*
X110715174Y-64465503D01*
X110667670Y-64516739D01*
X110600007Y-64534160D01*
X110533667Y-64512234D01*
X110491792Y-64462634D01*
X110410135Y-64287520D01*
X110410134Y-64287518D01*
X110279657Y-64101179D01*
X110118820Y-63940342D01*
X109932482Y-63809865D01*
X109726328Y-63713734D01*
X109530000Y-63661127D01*
X109530000Y-64506988D01*
X109472993Y-64474075D01*
X109345826Y-64440000D01*
X109214174Y-64440000D01*
X109087007Y-64474075D01*
X109030000Y-64506988D01*
X109030000Y-63661127D01*
X108833671Y-63713734D01*
X108627517Y-63809865D01*
X108441179Y-63940342D01*
X108280342Y-64101179D01*
X108149865Y-64287517D01*
X108068207Y-64462635D01*
X108022035Y-64515074D01*
X107954841Y-64534226D01*
X107887960Y-64514010D01*
X107844825Y-64465502D01*
X107765061Y-64305316D01*
X107765056Y-64305308D01*
X107630979Y-64127761D01*
X107466562Y-63977876D01*
X107466560Y-63977874D01*
X107277404Y-63860754D01*
X107277398Y-63860752D01*
X107069940Y-63780382D01*
X106851243Y-63739500D01*
X106628757Y-63739500D01*
X106410060Y-63780382D01*
X106333956Y-63809865D01*
X106202601Y-63860752D01*
X106202595Y-63860754D01*
X106013439Y-63977874D01*
X106013437Y-63977876D01*
X105849020Y-64127761D01*
X105714943Y-64305308D01*
X105714938Y-64305316D01*
X105615775Y-64504461D01*
X105615769Y-64504476D01*
X105589266Y-64597627D01*
X105551987Y-64656721D01*
X105488677Y-64686278D01*
X105419438Y-64676916D01*
X105366251Y-64631606D01*
X105350734Y-64597627D01*
X105327719Y-64516739D01*
X105324229Y-64504472D01*
X105324224Y-64504461D01*
X105225061Y-64305316D01*
X105225056Y-64305308D01*
X105090979Y-64127761D01*
X104926562Y-63977876D01*
X104926560Y-63977874D01*
X104737404Y-63860754D01*
X104737398Y-63860752D01*
X104529940Y-63780382D01*
X104311243Y-63739500D01*
X104088757Y-63739500D01*
X103870060Y-63780382D01*
X103793956Y-63809865D01*
X103662601Y-63860752D01*
X103662595Y-63860754D01*
X103473439Y-63977874D01*
X103473437Y-63977876D01*
X103309020Y-64127761D01*
X103174943Y-64305308D01*
X103174938Y-64305316D01*
X103075775Y-64504461D01*
X103075769Y-64504476D01*
X103049266Y-64597627D01*
X103011987Y-64656721D01*
X102948677Y-64686278D01*
X102879438Y-64676916D01*
X102826251Y-64631606D01*
X102810734Y-64597627D01*
X102787719Y-64516739D01*
X102784229Y-64504472D01*
X102784224Y-64504461D01*
X102685061Y-64305316D01*
X102685056Y-64305308D01*
X102550979Y-64127761D01*
X102386562Y-63977876D01*
X102386560Y-63977874D01*
X102197404Y-63860754D01*
X102197398Y-63860752D01*
X101989940Y-63780382D01*
X101771243Y-63739500D01*
X101548757Y-63739500D01*
X101330060Y-63780382D01*
X101253956Y-63809865D01*
X101122601Y-63860752D01*
X101122595Y-63860754D01*
X100933439Y-63977874D01*
X100933437Y-63977876D01*
X100769020Y-64127761D01*
X100634943Y-64305308D01*
X100634938Y-64305316D01*
X100535775Y-64504461D01*
X100535769Y-64504476D01*
X100474885Y-64718462D01*
X100474884Y-64718464D01*
X100454357Y-64939999D01*
X72504129Y-64939999D01*
X72515803Y-64747007D01*
X72518271Y-64706201D01*
X72520076Y-64691340D01*
X72522720Y-64676916D01*
X72571780Y-64409197D01*
X72575364Y-64394663D01*
X72603207Y-64305312D01*
X72660696Y-64120822D01*
X72665998Y-64106841D01*
X72783731Y-63845249D01*
X72790676Y-63832016D01*
X72939080Y-63586526D01*
X72947567Y-63574230D01*
X73124480Y-63348417D01*
X73134395Y-63337226D01*
X73337226Y-63134395D01*
X73348417Y-63124480D01*
X73574230Y-62947567D01*
X73586526Y-62939080D01*
X73832016Y-62790676D01*
X73845249Y-62783731D01*
X74106841Y-62665998D01*
X74120822Y-62660696D01*
X74394668Y-62575362D01*
X74409197Y-62571780D01*
X74691344Y-62520075D01*
X74706201Y-62518271D01*
X74996264Y-62500726D01*
X75003751Y-62500500D01*
X75065892Y-62500500D01*
X148934108Y-62500500D01*
X148996249Y-62500500D01*
X149003736Y-62500726D01*
G37*
%TD.AperFunction*%
%TD*%
M02*
