M48
; DRILL file {KiCad 8.0.3} date 2024-07-14T15:46:54+0800
; FORMAT={-:-/ absolute / metric / decimal}
; #@! TF.CreationDate,2024-07-14T15:46:54+08:00
; #@! TF.GenerationSoftware,Kicad,Pcbnew,8.0.3
; #@! TF.FileFunction,Plated,1,2,PTH
FMAT,2
METRIC
; #@! TA.AperFunction,Plated,PTH,ComponentDrill
T1C0.800
; #@! TA.AperFunction,Plated,PTH,ComponentDrill
T2C1.000
; #@! TA.AperFunction,Plated,PTH,ComponentDrill
T3C1.100
; #@! TA.AperFunction,Plated,PTH,ComponentDrill
T4C1.320
%
G90
G05
T1
X90.3Y-100.8
X94.25Y-84.6
X95.5Y-89.0
X97.8Y-100.8
X100.5Y-89.0
X101.75Y-84.6
X101.8Y-92.7
X101.8Y-97.7
X106.6Y-99.39
X106.6Y-107.01
X106.8Y-84.13
X106.8Y-91.75
X115.8Y-70.22
X115.8Y-77.84
X120.1Y-70.22
X120.1Y-77.84
X121.0Y-83.93
X121.0Y-91.55
X121.0Y-99.19
X121.0Y-106.81
X123.9Y-70.42
X123.9Y-78.04
X130.6Y-70.42
X130.6Y-78.04
X134.6Y-70.31
X134.6Y-77.93
X136.4Y-83.99
X136.4Y-91.61
X136.4Y-99.25
X136.4Y-106.87
X138.7Y-70.31
X138.7Y-77.93
T2
X101.66Y-64.94
X104.2Y-64.94
X106.74Y-64.94
X109.28Y-64.94
X111.82Y-64.94
X114.36Y-64.94
X116.9Y-64.94
X119.44Y-64.94
X120.96Y-113.2
X121.98Y-64.94
X123.5Y-113.2
X124.52Y-64.94
X126.04Y-113.2
X128.58Y-64.94
X131.12Y-64.94
X133.66Y-64.94
X136.2Y-64.94
X138.74Y-64.94
X141.28Y-64.94
X143.82Y-64.94
X146.36Y-64.94
X146.8Y-73.78
X146.8Y-76.32
X146.8Y-78.86
X146.8Y-81.4
X146.8Y-83.94
X146.8Y-86.48
T3
X111.455Y-85.4
X111.455Y-87.94
X111.455Y-90.48
X111.455Y-100.66
X111.455Y-103.2
X111.455Y-105.74
X125.055Y-85.2
X125.055Y-87.74
X125.055Y-90.28
X125.055Y-100.46
X125.055Y-103.0
X125.055Y-105.54
X132.0Y-99.19
X132.0Y-106.81
X140.455Y-85.26
X140.455Y-87.8
X140.455Y-90.34
X140.455Y-100.52
X140.455Y-103.06
X140.455Y-105.6
T4
X76.235Y-122.4
X81.235Y-122.4
X89.3Y-122.4
X94.3Y-122.4
X102.3Y-122.4
X107.3Y-122.4
X115.4Y-122.5
X120.4Y-122.5
X128.7Y-122.5
X133.7Y-122.5
X141.9Y-122.5
X146.9Y-122.5
T2
G00X80.2Y-91.1
M15
G01X80.2Y-93.3
M16
G05
G00X82.2Y-97.2
M15
G01X84.4Y-97.2
M16
G05
G00X86.4Y-91.1
M15
G01X86.4Y-93.3
M16
G05
M30
