%TF.GenerationSoftware,KiCad,Pcbnew,8.0.3*%
%TF.CreationDate,2024-07-14T15:46:43+08:00*%
%TF.ProjectId,circadian-rave-hardware,63697263-6164-4696-916e-2d726176652d,rev?*%
%TF.SameCoordinates,Original*%
%TF.FileFunction,Soldermask,Bot*%
%TF.FilePolarity,Negative*%
%FSLAX46Y46*%
G04 Gerber Fmt 4.6, Leading zero omitted, Abs format (unit mm)*
G04 Created by KiCad (PCBNEW 8.0.3) date 2024-07-14 15:46:43*
%MOMM*%
%LPD*%
G01*
G04 APERTURE LIST*
G04 Aperture macros list*
%AMRoundRect*
0 Rectangle with rounded corners*
0 $1 Rounding radius*
0 $2 $3 $4 $5 $6 $7 $8 $9 X,Y pos of 4 corners*
0 Add a 4 corners polygon primitive as box body*
4,1,4,$2,$3,$4,$5,$6,$7,$8,$9,$2,$3,0*
0 Add four circle primitives for the rounded corners*
1,1,$1+$1,$2,$3*
1,1,$1+$1,$4,$5*
1,1,$1+$1,$6,$7*
1,1,$1+$1,$8,$9*
0 Add four rect primitives between the rounded corners*
20,1,$1+$1,$2,$3,$4,$5,0*
20,1,$1+$1,$4,$5,$6,$7,0*
20,1,$1+$1,$6,$7,$8,$9,0*
20,1,$1+$1,$8,$9,$2,$3,0*%
G04 Aperture macros list end*
%ADD10R,3.500000X3.900000*%
%ADD11RoundRect,0.750000X-0.750000X-1.200000X0.750000X-1.200000X0.750000X1.200000X-0.750000X1.200000X0*%
%ADD12RoundRect,0.925000X-1.025000X-0.925000X1.025000X-0.925000X1.025000X0.925000X-1.025000X0.925000X0*%
%ADD13C,1.600000*%
%ADD14O,1.600000X1.600000*%
%ADD15R,2.200000X2.200000*%
%ADD16O,2.200000X2.200000*%
%ADD17R,1.980000X3.960000*%
%ADD18O,1.980000X3.960000*%
%ADD19O,2.000000X1.905000*%
%ADD20R,2.000000X1.905000*%
%ADD21R,1.700000X1.700000*%
%ADD22O,1.700000X1.700000*%
G04 APERTURE END LIST*
D10*
%TO.C,J1*%
X86400000Y-92200000D03*
D11*
X80200000Y-92200000D03*
D12*
X83300000Y-97200000D03*
%TD*%
D13*
%TO.C,C2*%
X97800000Y-100800000D03*
D14*
X90300000Y-100800000D03*
%TD*%
D13*
%TO.C,C1*%
X94250000Y-84600000D03*
D14*
X101750000Y-84600000D03*
%TD*%
D13*
%TO.C,C4*%
X101800000Y-97700000D03*
X101800000Y-92700000D03*
%TD*%
%TO.C,C3*%
X95500000Y-89000000D03*
X100500000Y-89000000D03*
%TD*%
D15*
%TO.C,D1*%
X132000000Y-106810000D03*
D16*
X132000000Y-99190000D03*
%TD*%
D17*
%TO.C,J3*%
X128700000Y-122500000D03*
D18*
X133700000Y-122500000D03*
%TD*%
D14*
%TO.C,A1*%
X120960000Y-113200000D03*
X123500000Y-113200000D03*
X126040000Y-113200000D03*
X146360000Y-64940000D03*
X143820000Y-64940000D03*
X141280000Y-64940000D03*
X138740000Y-64940000D03*
X136200000Y-64940000D03*
X133660000Y-64940000D03*
X131120000Y-64940000D03*
X128580000Y-64940000D03*
X124520000Y-64940000D03*
X121980000Y-64940000D03*
X119440000Y-64940000D03*
X116900000Y-64940000D03*
X114360000Y-64940000D03*
X111820000Y-64940000D03*
X109280000Y-64940000D03*
X106740000Y-64940000D03*
X104200000Y-64940000D03*
X101660000Y-64940000D03*
%TD*%
D18*
%TO.C,J8*%
X81235000Y-122400000D03*
D17*
X76235000Y-122400000D03*
%TD*%
D18*
%TO.C,J7*%
X94300000Y-122400000D03*
D17*
X89300000Y-122400000D03*
%TD*%
D18*
%TO.C,J6*%
X107300000Y-122400000D03*
D17*
X102300000Y-122400000D03*
%TD*%
D18*
%TO.C,J5*%
X120400000Y-122500000D03*
D17*
X115400000Y-122500000D03*
%TD*%
%TO.C,J2*%
X141900000Y-122500000D03*
D18*
X146900000Y-122500000D03*
%TD*%
D14*
%TO.C,R12*%
X106600000Y-99390000D03*
D13*
X106600000Y-107010000D03*
%TD*%
D14*
%TO.C,R11*%
X115800000Y-77840000D03*
D13*
X115800000Y-70220000D03*
%TD*%
D14*
%TO.C,R10*%
X106800000Y-84130000D03*
D13*
X106800000Y-91750000D03*
%TD*%
D14*
%TO.C,R9*%
X120100000Y-77840000D03*
D13*
X120100000Y-70220000D03*
%TD*%
%TO.C,R8*%
X121000000Y-106810000D03*
D14*
X121000000Y-99190000D03*
%TD*%
%TO.C,R7*%
X123900000Y-78040000D03*
D13*
X123900000Y-70420000D03*
%TD*%
D14*
%TO.C,R6*%
X121000000Y-83930000D03*
D13*
X121000000Y-91550000D03*
%TD*%
D14*
%TO.C,R5*%
X130600000Y-78040000D03*
D13*
X130600000Y-70420000D03*
%TD*%
%TO.C,R4*%
X136400000Y-106870000D03*
D14*
X136400000Y-99250000D03*
%TD*%
%TO.C,R3*%
X134600000Y-77930000D03*
D13*
X134600000Y-70310000D03*
%TD*%
%TO.C,R2*%
X136400000Y-91610000D03*
D14*
X136400000Y-83990000D03*
%TD*%
%TO.C,R1*%
X138700000Y-77930000D03*
D13*
X138700000Y-70310000D03*
%TD*%
D19*
%TO.C,Q6*%
X111455000Y-105740000D03*
X111455000Y-103200000D03*
D20*
X111455000Y-100660000D03*
%TD*%
D19*
%TO.C,Q5*%
X111455000Y-90480000D03*
X111455000Y-87940000D03*
D20*
X111455000Y-85400000D03*
%TD*%
%TO.C,Q4*%
X125055000Y-100460000D03*
D19*
X125055000Y-103000000D03*
X125055000Y-105540000D03*
%TD*%
%TO.C,Q3*%
X125055000Y-90280000D03*
X125055000Y-87740000D03*
D20*
X125055000Y-85200000D03*
%TD*%
D19*
%TO.C,Q2*%
X140455000Y-105600000D03*
X140455000Y-103060000D03*
D20*
X140455000Y-100520000D03*
%TD*%
D19*
%TO.C,Q1*%
X140455000Y-90340000D03*
X140455000Y-87800000D03*
D20*
X140455000Y-85260000D03*
%TD*%
D21*
%TO.C,J4*%
X146800000Y-73780000D03*
D22*
X146800000Y-76320000D03*
X146800000Y-78860000D03*
X146800000Y-81400000D03*
X146800000Y-83940000D03*
X146800000Y-86480000D03*
%TD*%
M02*
