%TF.GenerationSoftware,KiCad,Pcbnew,8.0.3*%
%TF.CreationDate,2024-07-14T15:46:43+08:00*%
%TF.ProjectId,circadian-rave-hardware,63697263-6164-4696-916e-2d726176652d,rev?*%
%TF.SameCoordinates,Original*%
%TF.FileFunction,Legend,Top*%
%TF.FilePolarity,Positive*%
%FSLAX46Y46*%
G04 Gerber Fmt 4.6, Leading zero omitted, Abs format (unit mm)*
G04 Created by KiCad (PCBNEW 8.0.3) date 2024-07-14 15:46:43*
%MOMM*%
%LPD*%
G01*
G04 APERTURE LIST*
%ADD10C,0.100000*%
%ADD11C,0.615685*%
%ADD12C,0.150000*%
%ADD13C,0.200000*%
%ADD14C,0.300000*%
%ADD15C,0.120000*%
G04 APERTURE END LIST*
D10*
X87458683Y-83815300D02*
X87524924Y-83892282D01*
X87399604Y-83772333D02*
X87458683Y-83815300D01*
X87320000Y-83750000D02*
X87399604Y-83772333D01*
X87188832Y-83733855D02*
X87320000Y-83750000D01*
X87181974Y-83648127D02*
X87188832Y-83733855D01*
X87181974Y-83552112D02*
X87181974Y-83648127D01*
X87175115Y-83445809D02*
X87181974Y-83552112D01*
X87154541Y-83342935D02*
X87175115Y-83445809D01*
X87103104Y-83253778D02*
X87154541Y-83342935D01*
X90776730Y-83776681D02*
X90749647Y-83796180D01*
X90812480Y-83742014D02*
X90776730Y-83776681D01*
X90836313Y-83709515D02*
X90812480Y-83742014D01*
X90860146Y-83673765D02*
X90836313Y-83709515D01*
X90876396Y-83623932D02*
X90860146Y-83673765D01*
X90875313Y-83584932D02*
X90876396Y-83623932D01*
X90859283Y-83538960D02*
X90875313Y-83584932D01*
X90816904Y-83487439D02*
X90859283Y-83538960D01*
X90614004Y-83376766D02*
X90816904Y-83487439D01*
X90457217Y-83266092D02*
X90614004Y-83376766D01*
X82330225Y-81368935D02*
X82447524Y-81290736D01*
X82157070Y-81463891D02*
X82330225Y-81368935D01*
X82017429Y-81519747D02*
X82157070Y-81463891D01*
X81894544Y-81620289D02*
X82017429Y-81519747D01*
X81805174Y-81782273D02*
X81894544Y-81620289D01*
X81821931Y-81938671D02*
X81805174Y-81782273D01*
X81900130Y-82089484D02*
X81821931Y-81938671D01*
X81950401Y-82257053D02*
X81900130Y-82089484D01*
X81967158Y-82441380D02*
X81950401Y-82257053D01*
X80974420Y-85119855D02*
X80913664Y-85241368D01*
X81118716Y-85005937D02*
X80974420Y-85119855D01*
X81236432Y-84945180D02*
X81118716Y-85005937D01*
X81369336Y-84899613D02*
X81236432Y-84945180D01*
X81731903Y-80328710D02*
X81698693Y-80355532D01*
X81770221Y-80278896D02*
X81731903Y-80328710D01*
X81800876Y-80230359D02*
X81770221Y-80278896D01*
X81824814Y-80172407D02*
X81800876Y-80230359D01*
X81828267Y-80034267D02*
X81824814Y-80172407D01*
X81786825Y-79916849D02*
X81828267Y-80034267D01*
X81669407Y-79813244D02*
X81786825Y-79916849D01*
X81576163Y-79771802D02*
X81669407Y-79813244D01*
X80830392Y-80777354D02*
X81001441Y-80777354D01*
X80754370Y-80774186D02*
X80830392Y-80777354D01*
X80667261Y-80769435D02*
X80754370Y-80774186D01*
X80573818Y-80739343D02*
X80667261Y-80769435D01*
X80486709Y-80663321D02*
X80573818Y-80739343D01*
X80447115Y-80617391D02*
X80486709Y-80663321D01*
X80409783Y-80551565D02*
X80447115Y-80617391D01*
X80363385Y-80406571D02*
X80409783Y-80551565D01*
X94198817Y-71655376D02*
X94305051Y-71655376D01*
X94085257Y-71670029D02*
X94198817Y-71655376D01*
X93949717Y-71692008D02*
X94085257Y-71670029D01*
X93850809Y-71732304D02*
X93949717Y-71692008D01*
X93748239Y-71790916D02*
X93850809Y-71732304D01*
X93656658Y-71867844D02*
X93748239Y-71790916D01*
X93587056Y-71952099D02*
X93656658Y-71867844D01*
X93528444Y-72065659D02*
X93587056Y-71952099D01*
X93484165Y-72183100D02*
X93528444Y-72065659D01*
X93456541Y-72376469D02*
X93484165Y-72183100D01*
X91144422Y-78688185D02*
X91189170Y-78615471D01*
X91108065Y-78786071D02*
X91144422Y-78688185D01*
X91088488Y-78864379D02*
X91108065Y-78786071D01*
X91080098Y-78953874D02*
X91088488Y-78864379D01*
X91082894Y-79040572D02*
X91080098Y-78953874D01*
X91099675Y-79144051D02*
X91082894Y-79040572D01*
X91127642Y-79225156D02*
X91099675Y-79144051D01*
X91166796Y-79300668D02*
X91127642Y-79225156D01*
X91214340Y-79376179D02*
X91166796Y-79300668D01*
X91260000Y-79420000D02*
X91214340Y-79376179D01*
X92616931Y-79316316D02*
X92663261Y-79296240D01*
X92542803Y-79358013D02*
X92616931Y-79316316D01*
X92498017Y-79418243D02*
X92542803Y-79358013D01*
X92467130Y-79483105D02*
X92498017Y-79418243D01*
X92428521Y-79541790D02*
X92467130Y-79483105D01*
X92325876Y-79606976D02*
X92428521Y-79541790D01*
X92189686Y-79628152D02*
X92325876Y-79606976D01*
X92030737Y-79596362D02*
X92189686Y-79628152D01*
X82122986Y-72036933D02*
X82312864Y-71890094D01*
X81981210Y-72163518D02*
X82122986Y-72036933D01*
X81857156Y-72295167D02*
X81981210Y-72163518D01*
X81768546Y-72414158D02*
X81857156Y-72295167D01*
X81667278Y-72568592D02*
X81768546Y-72414158D01*
X81586263Y-72712899D02*
X81667278Y-72568592D01*
X78439878Y-74008402D02*
X78437118Y-74080155D01*
X78400000Y-73940000D02*
X78439878Y-74008402D01*
X78320000Y-73870000D02*
X78400000Y-73940000D01*
X78240000Y-73800000D02*
X78320000Y-73870000D01*
X78160000Y-73760000D02*
X78240000Y-73800000D01*
X78050000Y-73710000D02*
X78160000Y-73760000D01*
X77940000Y-73660000D02*
X78050000Y-73710000D01*
X77830000Y-73620000D02*
X77940000Y-73660000D01*
X77740000Y-73590000D02*
X77830000Y-73620000D01*
X77040000Y-74690000D02*
X77150000Y-74690000D01*
X76960000Y-74610000D02*
X77040000Y-74690000D01*
X76930000Y-74480000D02*
X76960000Y-74610000D01*
X76940000Y-74360000D02*
X76930000Y-74480000D01*
X76970000Y-74230000D02*
X76940000Y-74360000D01*
X77000000Y-74120000D02*
X76970000Y-74230000D01*
X89471404Y-85800935D02*
X89400000Y-85740000D01*
X89540000Y-85830000D02*
X89471404Y-85800935D01*
X89680000Y-85850000D02*
X89540000Y-85830000D01*
X89830000Y-85860000D02*
X89680000Y-85850000D01*
X90080000Y-85850000D02*
X89830000Y-85860000D01*
X90250000Y-85830000D02*
X90080000Y-85850000D01*
X90360000Y-85810000D02*
X90250000Y-85830000D01*
X90490000Y-85780000D02*
X90360000Y-85810000D01*
X90600000Y-85750000D02*
X90490000Y-85780000D01*
X90673175Y-85715105D02*
X90600000Y-85750000D01*
X90690000Y-85680000D02*
X90673175Y-85715105D01*
X90680000Y-85530000D02*
X90690000Y-85680000D01*
X90660000Y-85430000D02*
X90680000Y-85530000D01*
X90610000Y-85330000D02*
X90660000Y-85430000D01*
X90530000Y-85240000D02*
X90610000Y-85330000D01*
X90410000Y-85180000D02*
X90530000Y-85240000D01*
X90270000Y-85150000D02*
X90410000Y-85180000D01*
X89970000Y-85160000D02*
X90270000Y-85150000D01*
X89840000Y-85190000D02*
X89970000Y-85160000D01*
X89740000Y-85210000D02*
X89840000Y-85190000D01*
X89610000Y-85270000D02*
X89740000Y-85210000D01*
X89520000Y-85350000D02*
X89610000Y-85270000D01*
X89450000Y-85450000D02*
X89520000Y-85350000D01*
X89390000Y-85550000D02*
X89450000Y-85450000D01*
X89370000Y-85620000D02*
X89390000Y-85550000D01*
X89380000Y-85700000D02*
X89370000Y-85620000D01*
X89390000Y-85730000D02*
X89380000Y-85700000D01*
X90020000Y-84730000D02*
X90210000Y-84720000D01*
X89890000Y-84760000D02*
X90020000Y-84730000D01*
X89740000Y-84810000D02*
X89890000Y-84760000D01*
X89630000Y-84850000D02*
X89740000Y-84810000D01*
X89480000Y-84890000D02*
X89630000Y-84850000D01*
X90062956Y-84443454D02*
X90207395Y-84436576D01*
X89959786Y-84470966D02*
X90062956Y-84443454D01*
X89852030Y-84491600D02*
X89959786Y-84470966D01*
X89723640Y-84516819D02*
X89852030Y-84491600D01*
X89560860Y-84564965D02*
X89723640Y-84516819D01*
X89411836Y-84624575D02*
X89560860Y-84564965D01*
X89310000Y-84700000D02*
X89411836Y-84624575D01*
X89815347Y-84248576D02*
X89948323Y-84246283D01*
X89703006Y-84294430D02*
X89815347Y-84248576D01*
X89583787Y-84351747D02*
X89703006Y-84294430D01*
X89430178Y-84409063D02*
X89583787Y-84351747D01*
X89270000Y-84470000D02*
X89430178Y-84409063D01*
X89703351Y-83674038D02*
X89600000Y-83780000D01*
X89779029Y-83640253D02*
X89703351Y-83674038D01*
X89850653Y-83621333D02*
X89779029Y-83640253D01*
X89938494Y-83605116D02*
X89850653Y-83621333D01*
X90024983Y-83613225D02*
X89938494Y-83605116D01*
X90102013Y-83661875D02*
X90024983Y-83613225D01*
X90169583Y-83725391D02*
X90102013Y-83661875D01*
X90199332Y-83824869D02*
X90169583Y-83725391D01*
X90202041Y-84006425D02*
X90199332Y-83824869D01*
X90250000Y-84160000D02*
X90202041Y-84006425D01*
X90310000Y-84260000D02*
X90250000Y-84160000D01*
X90400000Y-84410000D02*
X90310000Y-84260000D01*
X90520000Y-84560000D02*
X90400000Y-84410000D01*
X90610000Y-84710000D02*
X90520000Y-84560000D01*
X90690000Y-84890000D02*
X90610000Y-84710000D01*
X90720000Y-85070000D02*
X90690000Y-84890000D01*
X90790000Y-85270000D02*
X90720000Y-85070000D01*
X90850000Y-85490000D02*
X90790000Y-85270000D01*
X90850000Y-85690000D02*
X90850000Y-85490000D01*
X90820000Y-85830000D02*
X90850000Y-85690000D01*
X90600000Y-85970000D02*
X90820000Y-85830000D01*
X90290000Y-86000000D02*
X90600000Y-85970000D01*
X89730000Y-86010000D02*
X90290000Y-86000000D01*
X89520000Y-86010000D02*
X89730000Y-86010000D01*
X89360000Y-85960000D02*
X89520000Y-86010000D01*
X89260000Y-85860000D02*
X89360000Y-85960000D01*
X89240000Y-85710000D02*
X89260000Y-85860000D01*
X89290000Y-85490000D02*
X89240000Y-85710000D01*
X89310000Y-85300000D02*
X89290000Y-85490000D01*
X89310000Y-85140000D02*
X89310000Y-85300000D01*
X89270000Y-84970000D02*
X89310000Y-85140000D01*
X89200000Y-84820000D02*
X89270000Y-84970000D01*
X89100000Y-84680000D02*
X89200000Y-84820000D01*
X88970000Y-84560000D02*
X89100000Y-84680000D01*
X88870000Y-84470000D02*
X88970000Y-84560000D01*
X88830000Y-84360000D02*
X88870000Y-84470000D01*
X88850000Y-84280000D02*
X88830000Y-84360000D01*
X88930000Y-84220000D02*
X88850000Y-84280000D01*
X88760000Y-82680000D02*
X88773100Y-82403356D01*
X88810969Y-82800763D02*
X88760000Y-82680000D01*
X88970000Y-83070000D02*
X88810969Y-82800763D01*
X89130000Y-83250000D02*
X88970000Y-83070000D01*
X89280000Y-83430000D02*
X89130000Y-83250000D01*
X89460000Y-83570000D02*
X89280000Y-83430000D01*
X89600000Y-83780000D02*
X89460000Y-83570000D01*
X89470000Y-83910000D02*
X89600000Y-83780000D01*
X89330000Y-84030000D02*
X89470000Y-83910000D01*
X89110000Y-84130000D02*
X89330000Y-84030000D01*
X88810000Y-84220000D02*
X89110000Y-84130000D01*
X88480000Y-84060000D02*
X88810000Y-84220000D01*
X88130000Y-83800000D02*
X88480000Y-84060000D01*
X87790000Y-83400000D02*
X88130000Y-83800000D01*
X87490682Y-82946913D02*
X87790000Y-83400000D01*
X83190000Y-84500000D02*
X83420000Y-84630000D01*
X83040000Y-84410000D02*
X83190000Y-84500000D01*
X82870000Y-84390000D02*
X83040000Y-84410000D01*
X83150000Y-84830000D02*
X83350000Y-84910000D01*
X82940000Y-84700000D02*
X83150000Y-84830000D01*
X82810000Y-84640000D02*
X82940000Y-84700000D01*
X82680000Y-84610000D02*
X82810000Y-84640000D01*
X82940000Y-85010000D02*
X83080000Y-85110000D01*
X82800000Y-84920000D02*
X82940000Y-85010000D01*
X82660000Y-84850000D02*
X82800000Y-84920000D01*
X82540000Y-84840000D02*
X82660000Y-84850000D01*
X82060940Y-85870352D02*
X81950000Y-85960000D01*
X82100999Y-85788492D02*
X82060940Y-85870352D01*
X82127125Y-85666574D02*
X82100999Y-85788492D01*
X82130608Y-85527239D02*
X82127125Y-85666574D01*
X82109708Y-85400095D02*
X82130608Y-85527239D01*
X82060940Y-85297336D02*
X82109708Y-85400095D01*
X81972114Y-85250310D02*
X82060940Y-85297336D01*
X81857163Y-85257277D02*
X81972114Y-85250310D01*
X81721311Y-85297336D02*
X81857163Y-85257277D01*
X81606359Y-85363520D02*
X81721311Y-85297336D01*
X81496633Y-85462796D02*
X81606359Y-85363520D01*
X81414774Y-85558589D02*
X81496633Y-85462796D01*
X81364265Y-85689216D02*
X81414774Y-85558589D01*
X81353814Y-85776300D02*
X81364265Y-85689216D01*
X81376456Y-85832034D02*
X81353814Y-85776300D01*
X81439157Y-85884285D02*
X81376456Y-85832034D01*
X81521017Y-85920861D02*
X81439157Y-85884285D01*
X81651643Y-85950469D02*
X81521017Y-85920861D01*
X81950000Y-85960000D02*
X81651643Y-85950469D01*
X84100809Y-83853329D02*
X83914390Y-84003561D01*
X84141382Y-83833591D02*
X84100809Y-83853329D01*
X84183052Y-83821528D02*
X84141382Y-83833591D01*
X84222529Y-83819335D02*
X84183052Y-83821528D01*
X84255427Y-83825914D02*
X84222529Y-83819335D01*
X84280648Y-83840170D02*
X84255427Y-83825914D01*
X84298924Y-83874328D02*
X84280648Y-83840170D01*
X84321713Y-83918344D02*
X84298924Y-83874328D01*
X84341308Y-84143690D02*
X84321713Y-83918344D01*
X84380499Y-84540495D02*
X84341308Y-84143690D01*
X84424589Y-85054873D02*
X84380499Y-84540495D01*
X84478476Y-85495768D02*
X84424589Y-85054873D01*
X84483375Y-85789698D02*
X84478476Y-85495768D01*
X84282522Y-85887675D02*
X84483375Y-85789698D01*
X83973896Y-85917068D02*
X84282522Y-85887675D01*
X83660450Y-85957358D02*
X83973896Y-85917068D01*
X83335971Y-85975725D02*
X83660450Y-85957358D01*
X82993126Y-86036947D02*
X83335971Y-85975725D01*
X82546202Y-86122659D02*
X82993126Y-86036947D01*
X82200295Y-86144087D02*
X82546202Y-86122659D01*
X81829900Y-86125720D02*
X82200295Y-86144087D01*
X81508482Y-86052253D02*
X81829900Y-86125720D01*
X81324815Y-85966542D02*
X81508482Y-86052253D01*
X81233666Y-85894540D02*
X81324815Y-85966542D01*
X81233666Y-85769412D02*
X81233666Y-85894540D01*
X81277630Y-85546209D02*
X81233666Y-85769412D01*
X81331740Y-85404171D02*
X81277630Y-85546209D01*
X81460250Y-85268897D02*
X81331740Y-85404171D01*
X81629343Y-85174205D02*
X81460250Y-85268897D01*
X81740944Y-85126859D02*
X81629343Y-85174205D01*
X81896510Y-85113331D02*
X81740944Y-85126859D01*
X82021639Y-85099804D02*
X81896510Y-85113331D01*
X82123094Y-85028785D02*
X82021639Y-85099804D01*
X82254987Y-84934093D02*
X82123094Y-85028785D01*
X82490439Y-84725512D02*
X82254987Y-84934093D01*
X82608775Y-84618133D02*
X82490439Y-84725512D01*
X82678900Y-84523902D02*
X82608775Y-84618133D01*
X82722728Y-84398992D02*
X82678900Y-84523902D01*
X82724920Y-84322293D02*
X82722728Y-84398992D01*
X82724920Y-84243402D02*
X82724920Y-84322293D01*
X82705197Y-84146980D02*
X82724920Y-84243402D01*
X82674517Y-84076855D02*
X82705197Y-84146980D01*
X82659177Y-83995773D02*
X82674517Y-84076855D01*
X82665752Y-83914691D02*
X82659177Y-83995773D01*
X82716154Y-83855523D02*
X82665752Y-83914691D01*
X82795045Y-83829226D02*
X82716154Y-83855523D01*
X82922146Y-83829226D02*
X82795045Y-83829226D01*
X82957312Y-83725724D02*
X82922146Y-83829226D01*
X84125188Y-82471274D02*
X84335898Y-82437846D01*
X84013785Y-82483427D02*
X84125188Y-82471274D01*
X83922637Y-82499631D02*
X84013785Y-82483427D01*
X83803131Y-82536091D02*
X83922637Y-82499631D01*
X83748442Y-82562422D02*
X83803131Y-82536091D01*
X83705906Y-82617111D02*
X83748442Y-82562422D01*
X83685651Y-82677877D02*
X83705906Y-82617111D01*
X83683625Y-82752821D02*
X83685651Y-82677877D01*
X83707357Y-82906349D02*
X83683625Y-82752821D01*
X83778940Y-83098882D02*
X83707357Y-82906349D01*
X83867801Y-83358062D02*
X83778940Y-83098882D01*
X83907295Y-83619709D02*
X83867801Y-83358062D01*
X83924574Y-83873952D02*
X83907295Y-83619709D01*
X83892485Y-84046738D02*
X83924574Y-83873952D01*
X83820902Y-84133132D02*
X83892485Y-84046738D01*
X83712293Y-84202246D02*
X83820902Y-84133132D01*
X83524697Y-84217056D02*
X83712293Y-84202246D01*
X83317353Y-84177562D02*
X83524697Y-84217056D01*
X83144567Y-84071422D02*
X83317353Y-84177562D01*
X83048300Y-83965282D02*
X83144567Y-84071422D01*
X83015886Y-83881921D02*
X83048300Y-83965282D01*
X82898738Y-83569526D02*
X83015886Y-83881921D01*
X82646438Y-82968490D02*
X82898738Y-83569526D01*
X82565086Y-82685388D02*
X82646438Y-82968490D01*
X82503260Y-82441334D02*
X82565086Y-82685388D01*
X82509768Y-82184265D02*
X82503260Y-82441334D01*
X82509768Y-81992276D02*
X82509768Y-82184265D01*
X82560000Y-81870000D02*
X82509768Y-81992276D01*
X82640000Y-81790000D02*
X82560000Y-81870000D01*
X82760000Y-81700000D02*
X82640000Y-81790000D01*
X82990000Y-81510000D02*
X82760000Y-81700000D01*
X83140000Y-81380000D02*
X82990000Y-81510000D01*
X83460000Y-81165000D02*
X83140000Y-81380000D01*
X83636305Y-80768522D02*
X83816125Y-80730883D01*
X83551555Y-80799655D02*
X83636305Y-80768522D01*
X83458157Y-80858461D02*
X83551555Y-80799655D01*
X83399351Y-80913808D02*
X83458157Y-80858461D01*
X83355691Y-80978650D02*
X83399351Y-80913808D01*
X83347970Y-81066151D02*
X83355691Y-80978650D01*
X83364270Y-81133064D02*
X83347970Y-81066151D01*
X83400000Y-81160000D02*
X83364270Y-81133064D01*
X83520000Y-81170000D02*
X83400000Y-81160000D01*
X83660000Y-81200000D02*
X83520000Y-81170000D01*
X83760000Y-81240000D02*
X83660000Y-81200000D01*
X83830000Y-81330000D02*
X83760000Y-81240000D01*
X83920000Y-81460000D02*
X83830000Y-81330000D01*
X84000000Y-81600000D02*
X83920000Y-81460000D01*
X84328946Y-82054543D02*
X84000000Y-81600000D01*
X84400443Y-82159802D02*
X84328946Y-82054543D01*
X84446122Y-82278964D02*
X84400443Y-82159802D01*
X84432219Y-82364363D02*
X84446122Y-82278964D01*
X84372639Y-82423944D02*
X84432219Y-82364363D01*
X84299156Y-82451748D02*
X84372639Y-82423944D01*
X84235603Y-82497427D02*
X84299156Y-82451748D01*
X84231631Y-82570910D02*
X84235603Y-82497427D01*
X84277309Y-82680141D02*
X84231631Y-82570910D01*
X84332918Y-82747666D02*
X84277309Y-82680141D01*
X84384555Y-82805261D02*
X84332918Y-82747666D01*
X84452080Y-82846967D02*
X84384555Y-82805261D01*
X84507688Y-82872786D02*
X84452080Y-82846967D01*
X84626850Y-82886688D02*
X84507688Y-82872786D01*
X84761900Y-82882716D02*
X84626850Y-82886688D01*
X84885033Y-82870800D02*
X84761900Y-82882716D01*
X84982349Y-82835051D02*
X84885033Y-82870800D01*
X85040000Y-82780000D02*
X84982349Y-82835051D01*
X85100000Y-82620000D02*
X85040000Y-82780000D01*
X85110000Y-82470000D02*
X85100000Y-82620000D01*
X85040000Y-82280000D02*
X85110000Y-82470000D01*
X84960000Y-82080000D02*
X85040000Y-82280000D01*
X84800000Y-81840000D02*
X84960000Y-82080000D01*
X84750000Y-81650000D02*
X84800000Y-81840000D01*
X84640000Y-81400000D02*
X84750000Y-81650000D01*
X84450000Y-81140000D02*
X84640000Y-81400000D01*
X84310000Y-80970000D02*
X84450000Y-81140000D01*
X84150000Y-80830000D02*
X84310000Y-80970000D01*
X83980000Y-80730000D02*
X84150000Y-80830000D01*
X83816125Y-80730883D02*
X83980000Y-80730000D01*
X86710000Y-81960000D02*
X86839860Y-81754401D01*
X86500000Y-82040000D02*
X86710000Y-81960000D01*
X86240000Y-82110000D02*
X86500000Y-82040000D01*
X86000000Y-82180000D02*
X86240000Y-82110000D01*
X85780000Y-82290000D02*
X86000000Y-82180000D01*
X85480000Y-82450000D02*
X85780000Y-82290000D01*
X85260000Y-82500000D02*
X85480000Y-82450000D01*
X85110000Y-82470000D02*
X85260000Y-82500000D01*
X86345000Y-80050000D02*
X86510000Y-80520000D01*
X88966979Y-80758586D02*
X88970000Y-80540000D01*
X88930899Y-80917940D02*
X88966979Y-80758586D01*
X88933906Y-81140434D02*
X88930899Y-80917940D01*
X88985019Y-81335867D02*
X88933906Y-81140434D01*
X89051477Y-81734389D02*
X88985019Y-81335867D01*
X89077372Y-81978238D02*
X89051477Y-81734389D01*
X89103268Y-82194034D02*
X89077372Y-81978238D01*
X89101110Y-82472411D02*
X89103268Y-82194034D01*
X89070898Y-82614836D02*
X89101110Y-82472411D01*
X88991054Y-82714102D02*
X89070898Y-82614836D01*
X88909052Y-82856528D02*
X88991054Y-82714102D01*
X88924157Y-82746472D02*
X88909052Y-82856528D01*
X88898262Y-82612678D02*
X88924157Y-82746472D01*
X88846471Y-82496149D02*
X88898262Y-82612678D01*
X88773100Y-82403356D02*
X88846471Y-82496149D01*
X88660886Y-82329986D02*
X88773100Y-82403356D01*
X88511987Y-82271721D02*
X88660886Y-82329986D01*
X88207693Y-82257130D02*
X88511987Y-82271721D01*
X87930872Y-82259399D02*
X88207693Y-82257130D01*
X87733467Y-82291165D02*
X87930872Y-82259399D01*
X87606402Y-82327469D02*
X87733467Y-82291165D01*
X87511103Y-82402347D02*
X87606402Y-82327469D01*
X87449839Y-82472687D02*
X87511103Y-82402347D01*
X87408997Y-82570255D02*
X87449839Y-82472687D01*
X87408997Y-82656478D02*
X87408997Y-82570255D01*
X87438494Y-82749508D02*
X87408997Y-82656478D01*
X87472530Y-82840269D02*
X87438494Y-82749508D01*
X87490682Y-82946913D02*
X87472530Y-82840269D01*
X87424759Y-82884448D02*
X87490682Y-82946913D01*
X87299829Y-82697053D02*
X87424759Y-82884448D01*
X87186256Y-82424479D02*
X87299829Y-82697053D01*
X86998862Y-82038333D02*
X87186256Y-82424479D01*
X86839860Y-81754401D02*
X86998862Y-82038333D01*
X86788753Y-81561328D02*
X86839860Y-81754401D01*
X86794431Y-81271718D02*
X86788753Y-81561328D01*
X86771717Y-81038895D02*
X86794431Y-81271718D01*
X86630000Y-80760000D02*
X86771717Y-81038895D01*
X86510000Y-80520000D02*
X86630000Y-80760000D01*
X86340000Y-80230000D02*
X86510000Y-80520000D01*
X86210000Y-80030000D02*
X86340000Y-80230000D01*
X85220000Y-79970000D02*
X85360000Y-79895000D01*
X84900000Y-80130000D02*
X85220000Y-79970000D01*
X84590000Y-80330000D02*
X84900000Y-80130000D01*
X84360000Y-80500000D02*
X84590000Y-80330000D01*
X83980000Y-80730000D02*
X84360000Y-80500000D01*
X90733684Y-75723488D02*
X90719744Y-75890767D01*
X90663985Y-75632879D02*
X90733684Y-75723488D01*
X90573375Y-75542270D02*
X90663985Y-75632879D01*
X90514131Y-75423781D02*
X90573375Y-75542270D01*
X90490000Y-75260000D02*
X90514131Y-75423781D01*
X90540000Y-75160000D02*
X90490000Y-75260000D01*
X90590629Y-75130339D02*
X90540000Y-75160000D01*
X90680000Y-75110000D02*
X90590629Y-75130339D01*
X90710000Y-75060000D02*
X90680000Y-75110000D01*
X90691059Y-74993688D02*
X90710000Y-75060000D01*
X90646606Y-74934418D02*
X90691059Y-74993688D01*
X90556055Y-74876794D02*
X90646606Y-74934418D01*
X90432575Y-74779657D02*
X90556055Y-74876794D01*
X90338730Y-74684166D02*
X90432575Y-74779657D01*
X90300863Y-74593614D02*
X90338730Y-74684166D01*
X90295833Y-74517485D02*
X90300863Y-74593614D01*
X90312801Y-74470498D02*
X90295833Y-74517485D01*
X90379365Y-74428732D02*
X90312801Y-74470498D01*
X90440709Y-74411112D02*
X90379365Y-74428732D01*
X90492916Y-74400018D02*
X90440709Y-74411112D01*
X90520978Y-74392839D02*
X90492916Y-74400018D01*
X90539903Y-74372609D02*
X90520978Y-74392839D01*
X90543166Y-74347158D02*
X90539903Y-74372609D01*
X90523946Y-74309371D02*
X90543166Y-74347158D01*
X90473730Y-74260724D02*
X90523946Y-74309371D01*
X90354466Y-74164999D02*
X90473730Y-74260724D01*
X90272864Y-74094382D02*
X90354466Y-74164999D01*
X90184985Y-74045734D02*
X90272864Y-74094382D01*
X90100985Y-73987153D02*
X90184985Y-74045734D01*
X90061120Y-73922757D02*
X90100985Y-73987153D01*
X90061120Y-73843029D02*
X90061120Y-73922757D01*
X90094852Y-73772500D02*
X90061120Y-73843029D01*
X90155884Y-73716771D02*
X90094852Y-73772500D01*
X90258374Y-73636227D02*
X90155884Y-73716771D01*
X90322962Y-73575806D02*
X90258374Y-73636227D01*
X90302127Y-73519552D02*
X90322962Y-73575806D01*
X90235456Y-73475799D02*
X90302127Y-73519552D01*
X90139616Y-73454964D02*
X90235456Y-73475799D01*
X90037525Y-73427879D02*
X90139616Y-73454964D01*
X89885431Y-73338289D02*
X90037525Y-73427879D01*
X89791674Y-73271618D02*
X89885431Y-73338289D01*
X89739587Y-73215364D02*
X89791674Y-73271618D01*
X89706251Y-73150776D02*
X89739587Y-73215364D01*
X89700001Y-73088272D02*
X89706251Y-73150776D01*
X89712502Y-73025767D02*
X89700001Y-73088272D01*
X89764052Y-72987336D02*
X89712502Y-73025767D01*
X89827183Y-72947425D02*
X89764052Y-72987336D01*
X89870722Y-72919851D02*
X89827183Y-72947425D01*
X89899748Y-72893728D02*
X89870722Y-72919851D01*
X89900000Y-72860000D02*
X89899748Y-72893728D01*
X89812181Y-72819888D02*
X89888754Y-72854268D01*
X89709041Y-72793322D02*
X89812181Y-72819888D01*
X89641843Y-72776132D02*
X89709041Y-72793322D01*
X89432858Y-72695522D02*
X89641843Y-72776132D01*
X89363198Y-72666839D02*
X89432858Y-72695522D01*
X89305831Y-72624496D02*
X89363198Y-72666839D01*
X89258025Y-72568495D02*
X89305831Y-72624496D01*
X89241634Y-72513860D02*
X89258025Y-72568495D01*
X89278513Y-72483811D02*
X89241634Y-72513860D01*
X89320856Y-72408687D02*
X89278513Y-72483811D01*
X89320856Y-72334930D02*
X89320856Y-72408687D01*
X89279952Y-72289822D02*
X89320856Y-72334930D01*
X89198153Y-72237886D02*
X89279952Y-72289822D01*
X89074807Y-72204128D02*
X89198153Y-72237886D01*
X88961847Y-72175564D02*
X89074807Y-72204128D01*
X88846326Y-72122645D02*
X88961847Y-72175564D01*
X88779963Y-72069825D02*
X88846326Y-72122645D01*
X88758294Y-72019714D02*
X88779963Y-72069825D01*
X88750168Y-71969604D02*
X88758294Y-72019714D01*
X88759648Y-71923556D02*
X88750168Y-71969604D01*
X88794861Y-71892406D02*
X88759648Y-71923556D01*
X88828720Y-71865319D02*
X88794861Y-71892406D01*
X88858515Y-71831460D02*
X88828720Y-71865319D01*
X88860000Y-71790000D02*
X88858515Y-71831460D01*
X88544790Y-71795319D02*
X88860000Y-71790000D01*
X88461762Y-71792877D02*
X88544790Y-71795319D01*
X88409665Y-71767643D02*
X88461762Y-71792877D01*
X88354313Y-71737524D02*
X88409665Y-71767643D01*
X88318497Y-71717174D02*
X88354313Y-71737524D01*
X88292449Y-71692754D02*
X88318497Y-71717174D01*
X88283494Y-71661822D02*
X88292449Y-71692754D01*
X88289193Y-71634146D02*
X88283494Y-71661822D01*
X88302217Y-71609726D02*
X88289193Y-71634146D01*
X88320939Y-71580421D02*
X88302217Y-71609726D01*
X88344312Y-71542016D02*
X88320939Y-71580421D01*
X88356043Y-71492329D02*
X88344312Y-71542016D01*
X88353283Y-71435741D02*
X88356043Y-71492329D01*
X88349142Y-71401926D02*
X88353283Y-71435741D01*
X88341551Y-71379153D02*
X88349142Y-71401926D01*
X88315692Y-71356093D02*
X88341551Y-71379153D01*
X88193385Y-71339415D02*
X88315692Y-71356093D01*
X88089608Y-71326443D02*
X88193385Y-71339415D01*
X88002510Y-71326443D02*
X88089608Y-71326443D01*
X87922825Y-71313471D02*
X88002510Y-71326443D01*
X87833874Y-71294939D02*
X87922825Y-71313471D01*
X87746776Y-71259729D02*
X87833874Y-71294939D01*
X87693035Y-71222666D02*
X87746776Y-71259729D01*
X87655972Y-71165219D02*
X87693035Y-71222666D01*
X87646706Y-71100359D02*
X87655972Y-71165219D01*
X87660000Y-71040000D02*
X87646706Y-71100359D01*
X87685735Y-70962826D02*
X87660000Y-71040000D01*
X87552012Y-70996215D02*
X87685735Y-70962826D01*
X87406632Y-71007617D02*
X87552012Y-70996215D01*
X87281206Y-70999065D02*
X87406632Y-71007617D01*
X87183474Y-70978897D02*
X87281206Y-70999065D01*
X87098952Y-70944015D02*
X87183474Y-70978897D01*
X87041263Y-70878276D02*
X87098952Y-70944015D01*
X87007722Y-70813879D02*
X87041263Y-70878276D01*
X86998331Y-70758873D02*
X87007722Y-70813879D01*
X87002507Y-70673910D02*
X86998331Y-70758873D01*
X87059110Y-70580393D02*
X87002507Y-70673910D01*
X87002507Y-70673910D02*
X87059110Y-70580393D01*
X86939751Y-70737896D02*
X87002507Y-70673910D01*
X86843773Y-70762506D02*
X86939751Y-70737896D01*
X86735489Y-70762506D02*
X86843773Y-70762506D01*
X86606286Y-70721900D02*
X86735489Y-70762506D01*
X86525074Y-70672680D02*
X86606286Y-70721900D01*
X86459314Y-70616747D02*
X86525074Y-70672680D01*
X86379526Y-70548982D02*
X86459314Y-70616747D01*
X86336900Y-70477937D02*
X86379526Y-70548982D01*
X86324877Y-70400335D02*
X86336900Y-70477937D01*
X86335000Y-70265000D02*
X86324877Y-70400335D01*
X80286695Y-78937911D02*
X80218445Y-78891812D01*
X80302261Y-78953477D02*
X80286695Y-78937911D01*
X80312439Y-78968444D02*
X80302261Y-78953477D01*
X80314235Y-79001371D02*
X80312439Y-78968444D01*
X80300000Y-79030000D02*
X80314235Y-79001371D01*
X80240000Y-79100000D02*
X80300000Y-79030000D01*
X80140000Y-79140000D02*
X80240000Y-79100000D01*
X80020000Y-79160000D02*
X80140000Y-79140000D01*
X79860653Y-79144521D02*
X80020000Y-79160000D01*
X79723379Y-79129600D02*
X79860653Y-79144521D01*
X79598042Y-79093790D02*
X79723379Y-79129600D01*
X79502547Y-79019184D02*
X79598042Y-79093790D01*
X79460644Y-78881149D02*
X79502547Y-79019184D01*
X79171809Y-78613132D02*
X79128649Y-78467905D01*
X79248138Y-78718951D02*
X79171809Y-78613132D01*
X79310588Y-78784871D02*
X79248138Y-78718951D01*
X79426816Y-78866403D02*
X79310588Y-78784871D01*
X79494471Y-78895894D02*
X79426816Y-78866403D01*
X79588146Y-78909772D02*
X79494471Y-78895894D01*
X79704374Y-78935793D02*
X79588146Y-78909772D01*
X79820601Y-78949671D02*
X79704374Y-78935793D01*
X79968054Y-78949671D02*
X79820601Y-78949671D01*
X80098159Y-78920180D02*
X79968054Y-78949671D01*
X80235203Y-78861199D02*
X80098159Y-78920180D01*
X80335818Y-78802218D02*
X80235203Y-78861199D01*
X80424289Y-78705073D02*
X80335818Y-78802218D01*
X80458984Y-78639153D02*
X80424289Y-78705073D01*
X80462454Y-78561090D02*
X80458984Y-78639153D01*
X80427759Y-78507313D02*
X80462454Y-78561090D01*
X80380000Y-78490000D02*
X80427759Y-78507313D01*
X81230000Y-80170000D02*
X80440000Y-78750000D01*
X80760000Y-80440000D02*
X81230000Y-80170000D01*
X80020000Y-79160000D02*
X80760000Y-80440000D01*
X77394187Y-74416480D02*
G75*
G02*
X77903264Y-74116578I255901J147638D01*
G01*
X77905823Y-74122159D02*
X79766213Y-77515483D01*
X79417951Y-78116738D02*
X77400000Y-74420000D01*
X79916462Y-77812934D02*
X80221725Y-78265419D01*
X79417951Y-78116738D02*
X79698545Y-78444284D01*
X79397829Y-78215113D02*
X79417951Y-78116738D01*
X79404536Y-78309017D02*
X79397829Y-78215113D01*
X79453724Y-78376092D02*
X79404536Y-78309017D01*
X79529742Y-78420808D02*
X79453724Y-78376092D01*
X79625881Y-78438694D02*
X79529742Y-78420808D01*
X79771209Y-78449873D02*
X79625881Y-78438694D01*
X79887471Y-78438694D02*
X79771209Y-78449873D01*
X79976904Y-78405157D02*
X79887471Y-78438694D01*
X80052921Y-78360441D02*
X79976904Y-78405157D01*
X80122231Y-78306782D02*
X80052921Y-78360441D01*
X80184834Y-78268773D02*
X80122231Y-78306782D01*
X80258616Y-78262065D02*
X80184834Y-78268773D01*
X80318370Y-78286047D02*
X80258616Y-78262065D01*
X80345325Y-78330768D02*
X80318370Y-78286047D01*
X80356353Y-78391418D02*
X80345325Y-78330768D01*
X80353158Y-78436054D02*
X80356353Y-78391418D01*
X80296533Y-78528069D02*
X80353158Y-78436054D01*
X80190362Y-78609467D02*
X80296533Y-78528069D01*
X80027566Y-78712099D02*
X80190362Y-78609467D01*
X79772755Y-78751028D02*
X80027566Y-78712099D01*
X79510866Y-78736872D02*
X79772755Y-78751028D01*
X79365765Y-78687326D02*
X79510866Y-78736872D01*
X79241899Y-78591771D02*
X79365765Y-78687326D01*
X79128649Y-78467905D02*
X79241899Y-78591771D01*
X79107415Y-78308648D02*
X79128649Y-78467905D01*
X79096798Y-78075071D02*
X79107415Y-78308648D01*
X79110000Y-77870000D02*
X79096798Y-78075071D01*
X79220000Y-77740000D02*
X79110000Y-77870000D01*
X84099188Y-77449030D02*
X84330000Y-77260000D01*
X83653214Y-77689715D02*
X84099188Y-77449030D01*
X83217859Y-77905622D02*
X83653214Y-77689715D01*
X82853293Y-78050741D02*
X83217859Y-77905622D01*
X82610000Y-78090000D02*
X82853293Y-78050741D01*
X82220000Y-78110000D02*
X82610000Y-78090000D01*
X81870000Y-78110000D02*
X82220000Y-78110000D01*
X81630000Y-78110000D02*
X81870000Y-78110000D01*
X81301511Y-78112847D02*
X81630000Y-78110000D01*
X81120983Y-78115483D02*
X81301511Y-78112847D01*
X81045656Y-78112344D02*
X81120983Y-78115483D01*
X80960912Y-78104497D02*
X81045656Y-78112344D01*
X80882446Y-78057418D02*
X80960912Y-78104497D01*
X80819673Y-77996214D02*
X80882446Y-78057418D01*
X80800841Y-77920887D02*
X80819673Y-77996214D01*
X80780440Y-77807895D02*
X80800841Y-77920887D01*
X80742776Y-77720013D02*
X80780440Y-77807895D01*
X80669018Y-77633701D02*
X80742776Y-77720013D01*
X80595260Y-77561512D02*
X80669018Y-77633701D01*
X80524641Y-77503447D02*
X80595260Y-77561512D01*
X80435189Y-77450090D02*
X80524641Y-77503447D01*
X80317490Y-77418704D02*
X80435189Y-77450090D01*
X80171543Y-77410857D02*
X80317490Y-77418704D01*
X79997349Y-77410857D02*
X80171543Y-77410857D01*
X79909429Y-77432103D02*
X79997349Y-77410857D01*
X79809374Y-77481150D02*
X79909429Y-77432103D01*
X79723051Y-77549816D02*
X79809374Y-77481150D01*
X79646538Y-77638101D02*
X79723051Y-77549816D01*
X79597491Y-77740119D02*
X79646538Y-77638101D01*
X79571986Y-77848022D02*
X79597491Y-77740119D01*
X79570024Y-77948078D02*
X79571986Y-77848022D01*
X79595529Y-78050095D02*
X79570024Y-77948078D01*
X79640652Y-78089333D02*
X79595529Y-78050095D01*
X79719127Y-78095219D02*
X79640652Y-78089333D01*
X79766212Y-78057943D02*
X79719127Y-78095219D01*
X79799863Y-78013119D02*
X79766212Y-78057943D01*
X79856055Y-77896520D02*
X79799863Y-78013119D01*
X79891175Y-77837518D02*
X79856055Y-77896520D01*
X79941749Y-77788350D02*
X79891175Y-77837518D01*
X79993726Y-77781326D02*
X79941749Y-77788350D01*
X80050000Y-77800000D02*
X79993726Y-77781326D01*
X80210000Y-78050000D02*
X80050000Y-77800000D01*
X80420000Y-78290000D02*
X80210000Y-78050000D01*
X80570000Y-78530000D02*
X80420000Y-78290000D01*
X80570000Y-78920000D02*
X80570000Y-78530000D01*
X80620000Y-78990000D02*
X80570000Y-78920000D01*
X81320000Y-79000000D02*
X80620000Y-78990000D01*
X81730000Y-79010000D02*
X81320000Y-79000000D01*
X82340000Y-79000000D02*
X81730000Y-79010000D01*
X82650000Y-79000000D02*
X82340000Y-79000000D01*
X82960000Y-78990000D02*
X82650000Y-79000000D01*
X83260000Y-78940000D02*
X82960000Y-78990000D01*
X83480000Y-78900000D02*
X83260000Y-78940000D01*
X83640000Y-78850000D02*
X83480000Y-78900000D01*
X83990000Y-78720000D02*
X83640000Y-78850000D01*
X84330000Y-78590000D02*
X83990000Y-78720000D01*
X84720000Y-78420000D02*
X84330000Y-78590000D01*
X85010000Y-78260000D02*
X84720000Y-78420000D01*
X85240000Y-78130000D02*
X85010000Y-78260000D01*
X85425000Y-77945000D02*
X85240000Y-78130000D01*
X93135633Y-77555042D02*
X93002178Y-77604506D01*
X93221501Y-77484786D02*
X93135633Y-77555042D01*
X93289155Y-77406724D02*
X93221501Y-77484786D01*
X93346401Y-77323458D02*
X93289155Y-77406724D01*
X93372421Y-77232385D02*
X93346401Y-77323458D01*
X93392260Y-77076179D02*
X93372421Y-77232385D01*
X93389003Y-76901912D02*
X93392260Y-77076179D01*
X93385746Y-76766733D02*
X93389003Y-76901912D01*
X93381845Y-76648827D02*
X93385746Y-76766733D01*
X93338941Y-76535715D02*
X93381845Y-76648827D01*
X93280000Y-76450000D02*
X93338941Y-76535715D01*
X92571287Y-77186676D02*
X92775909Y-77162344D01*
X92494963Y-77181023D02*
X92571287Y-77186676D01*
X92429947Y-77181023D02*
X92494963Y-77181023D01*
X92350797Y-77185263D02*
X92429947Y-77181023D01*
X92275887Y-77207877D02*
X92350797Y-77185263D01*
X92225004Y-77254519D02*
X92275887Y-77207877D01*
X92199563Y-77319536D02*
X92225004Y-77254519D01*
X92200977Y-77400099D02*
X92199563Y-77319536D01*
X92225846Y-77454620D02*
X92200977Y-77400099D01*
X92329614Y-77546858D02*
X92225846Y-77454620D01*
X92437224Y-77616036D02*
X92329614Y-77546858D01*
X92540991Y-77631409D02*
X92437224Y-77616036D01*
X92644758Y-77635252D02*
X92540991Y-77631409D01*
X92752369Y-77639095D02*
X92644758Y-77635252D01*
X92883038Y-77616036D02*
X92752369Y-77639095D01*
X93002178Y-77604506D02*
X92883038Y-77616036D01*
X92994492Y-77715960D02*
X93002178Y-77604506D01*
X92933000Y-77915807D02*
X92994492Y-77715960D01*
X92802331Y-78015731D02*
X92933000Y-77915807D01*
X92593869Y-78063743D02*
X92802331Y-78015731D01*
X92441222Y-78045127D02*
X92593869Y-78063743D01*
X92297882Y-78000450D02*
X92441222Y-78045127D01*
X92201082Y-77942742D02*
X92297882Y-78000450D01*
X92109866Y-77855249D02*
X92201082Y-77942742D01*
X92076358Y-77765895D02*
X92109866Y-77855249D01*
X92077673Y-77649675D02*
X92076358Y-77765895D01*
X91857031Y-77778333D02*
X91990000Y-77740000D01*
X91758090Y-77770256D02*
X91857031Y-77778333D01*
X91630879Y-77721795D02*
X91758090Y-77770256D01*
X91540000Y-77660000D02*
X91630879Y-77721795D01*
X91462512Y-77560761D02*
X91540000Y-77660000D01*
X91403369Y-77450924D02*
X91462512Y-77560761D01*
X91395000Y-77260000D02*
X91403369Y-77450924D01*
X92077673Y-77649675D02*
X91990000Y-77740000D01*
X92109242Y-77557839D02*
X92077673Y-77649675D01*
X92109242Y-77460264D02*
X92109242Y-77557839D01*
X92114981Y-77354079D02*
X92109242Y-77460264D01*
X92158029Y-77247895D02*
X92114981Y-77354079D01*
X92244125Y-77144580D02*
X92158029Y-77247895D01*
X92256223Y-77065253D02*
X92244125Y-77144580D01*
X92249952Y-76973268D02*
X92256223Y-77065253D01*
X92266676Y-76879193D02*
X92249952Y-76973268D01*
X92266676Y-76791390D02*
X92266676Y-76879193D01*
X92287794Y-76737800D02*
X92266676Y-76791390D01*
X92323179Y-76619851D02*
X92287794Y-76737800D01*
X92357245Y-76616902D02*
X92323179Y-76619851D01*
X92422109Y-76708301D02*
X92357245Y-76616902D01*
X92457489Y-76876356D02*
X92422109Y-76708301D01*
X92489920Y-76991341D02*
X92457489Y-76876356D01*
X92554784Y-77088636D02*
X92489920Y-76991341D01*
X92643234Y-77144654D02*
X92554784Y-77088636D01*
X92775909Y-77162344D02*
X92643234Y-77144654D01*
X92864359Y-77135809D02*
X92775909Y-77162344D01*
X92929222Y-77067998D02*
X92864359Y-77135809D01*
X92991137Y-76970702D02*
X92929222Y-77067998D01*
X93030000Y-76850000D02*
X92991137Y-76970702D01*
X92970499Y-76646386D02*
X93030000Y-76850000D01*
X92923326Y-76534349D02*
X92970499Y-76646386D01*
X92876152Y-76437054D02*
X92923326Y-76534349D01*
X92802444Y-76322069D02*
X92876152Y-76437054D01*
X92734632Y-76245412D02*
X92802444Y-76322069D01*
X92660000Y-76160000D02*
X92734632Y-76245412D01*
X92519404Y-76097995D02*
X92660000Y-76160000D01*
X92392625Y-76080305D02*
X92519404Y-76097995D01*
X92274692Y-76086202D02*
X92392625Y-76080305D01*
X92153810Y-76115685D02*
X92274692Y-76086202D01*
X92024083Y-76174652D02*
X92153810Y-76115685D01*
X91906150Y-76257205D02*
X92024083Y-76174652D01*
X91808855Y-76345655D02*
X91906150Y-76257205D01*
X91720405Y-76472434D02*
X91808855Y-76345655D01*
X91661438Y-76575626D02*
X91720405Y-76472434D01*
X91600000Y-76730000D02*
X91661438Y-76575626D01*
X85670000Y-70070000D02*
X85645999Y-69809790D01*
X85710000Y-70180000D02*
X85670000Y-70070000D01*
X85783966Y-70268504D02*
X85710000Y-70180000D01*
X85856428Y-70339573D02*
X85783966Y-70268504D01*
X85914956Y-70392526D02*
X85856428Y-70339573D01*
X85973483Y-70424577D02*
X85914956Y-70392526D01*
X86052913Y-70441299D02*
X85973483Y-70424577D01*
X86146278Y-70445479D02*
X86052913Y-70441299D01*
X86207593Y-70445479D02*
X86146278Y-70445479D01*
X86252185Y-70424577D02*
X86207593Y-70445479D01*
X86280000Y-70390000D02*
X86252185Y-70424577D01*
X86390000Y-70140000D02*
X86280000Y-70390000D01*
X85540000Y-70330000D02*
X85680000Y-69630000D01*
X85340000Y-71150000D02*
X85540000Y-70330000D01*
X85155000Y-71625000D02*
X85340000Y-71150000D01*
X90270000Y-76970000D02*
X90260000Y-76800000D01*
X90320000Y-77280000D02*
X90270000Y-76970000D01*
X90220000Y-77390000D02*
X90320000Y-77280000D01*
X90250000Y-77790000D02*
X90220000Y-77390000D01*
X90150000Y-77910000D02*
X90250000Y-77790000D01*
X90150000Y-78110000D02*
X90150000Y-77910000D01*
X89980000Y-78460000D02*
X90150000Y-78110000D01*
X89970000Y-78720000D02*
X89980000Y-78460000D01*
X89850000Y-78920000D02*
X89970000Y-78720000D01*
X89730000Y-79210000D02*
X89850000Y-78920000D01*
X89610000Y-79420000D02*
X89730000Y-79210000D01*
X89460000Y-79580000D02*
X89610000Y-79420000D01*
X89410000Y-79340000D02*
X89388954Y-79037732D01*
X89460000Y-79580000D02*
X89410000Y-79340000D01*
X89240000Y-79480000D02*
X89060000Y-79900000D01*
X89420000Y-78950000D02*
X89240000Y-79480000D01*
X89660000Y-78000000D02*
X89420000Y-78950000D01*
X89750000Y-77390000D02*
X89660000Y-78000000D01*
X89770000Y-77080000D02*
X89750000Y-77390000D01*
X89770000Y-76600000D02*
X89770000Y-77080000D01*
X89770000Y-76600000D02*
X89800000Y-76485000D01*
X88270000Y-79350000D02*
X88295000Y-79725000D01*
X88260000Y-78850000D02*
X88270000Y-79350000D01*
X88150000Y-78320000D02*
X88260000Y-78850000D01*
X87980000Y-77810000D02*
X88150000Y-78320000D01*
X87770000Y-77250000D02*
X87980000Y-77810000D01*
X87740000Y-77180000D02*
X87770000Y-77250000D01*
X87720000Y-77120000D02*
X87740000Y-77180000D01*
X87710000Y-77070000D02*
X87720000Y-77120000D01*
X87730000Y-76280000D02*
X87710000Y-77070000D01*
X87730000Y-76160000D02*
X87730000Y-76280000D01*
X87720000Y-76130000D02*
X87730000Y-76160000D01*
X87710000Y-76110000D02*
X87720000Y-76130000D01*
X87690000Y-76100000D02*
X87710000Y-76110000D01*
X87660000Y-76100000D02*
X87690000Y-76100000D01*
X87610000Y-76110000D02*
X87660000Y-76100000D01*
X87480000Y-76180000D02*
X87610000Y-76110000D01*
X87260000Y-76270000D02*
X87480000Y-76180000D01*
X87060000Y-76370000D02*
X87260000Y-76270000D01*
X86860000Y-76550000D02*
X87060000Y-76370000D01*
X86690000Y-76730000D02*
X86860000Y-76550000D01*
X86210000Y-77000000D02*
X86690000Y-76730000D01*
X86030000Y-77100000D02*
X86210000Y-77000000D01*
X85820000Y-77190000D02*
X86030000Y-77100000D01*
X85510000Y-77270000D02*
X85820000Y-77190000D01*
X85340000Y-77300000D02*
X85510000Y-77270000D01*
X85240000Y-77330000D02*
X85340000Y-77300000D01*
X85180000Y-77360000D02*
X85240000Y-77330000D01*
X85160000Y-77390000D02*
X85180000Y-77360000D01*
X85160000Y-77450000D02*
X85160000Y-77390000D01*
X85180000Y-77520000D02*
X85160000Y-77450000D01*
X85240000Y-77610000D02*
X85180000Y-77520000D01*
X85320000Y-77720000D02*
X85240000Y-77610000D01*
X85390000Y-77820000D02*
X85320000Y-77720000D01*
X85425000Y-77945000D02*
X85390000Y-77820000D01*
X89310000Y-74990000D02*
X89690000Y-75160000D01*
X89000000Y-74830000D02*
X89310000Y-74990000D01*
X88690000Y-74670000D02*
X89000000Y-74830000D01*
X88400000Y-74550000D02*
X88690000Y-74670000D01*
X88040000Y-74430000D02*
X88400000Y-74550000D01*
X87730000Y-74380000D02*
X88040000Y-74430000D01*
X87430000Y-74370000D02*
X87730000Y-74380000D01*
X90170000Y-75500000D02*
X89690000Y-75160000D01*
X90470000Y-75740000D02*
X90170000Y-75500000D01*
X91320000Y-76390000D02*
X90470000Y-75740000D01*
X91470000Y-76490000D02*
X91320000Y-76390000D01*
X91540000Y-76570000D02*
X91470000Y-76490000D01*
X91580000Y-76670000D02*
X91540000Y-76570000D01*
X91600000Y-76730000D02*
X91580000Y-76670000D01*
X91590000Y-76870000D02*
X91600000Y-76730000D01*
X91580000Y-76990000D02*
X91590000Y-76870000D01*
X91530000Y-77130000D02*
X91580000Y-76990000D01*
X91440000Y-77220000D02*
X91530000Y-77130000D01*
X91350000Y-77300000D02*
X91440000Y-77220000D01*
X91220000Y-77330000D02*
X91350000Y-77300000D01*
X91100000Y-77320000D02*
X91220000Y-77330000D01*
X91020000Y-77280000D02*
X91100000Y-77320000D01*
X90810000Y-77150000D02*
X91020000Y-77280000D01*
X90300000Y-76800000D02*
X90810000Y-77150000D01*
X89960000Y-76580000D02*
X90300000Y-76800000D01*
X89640000Y-76390000D02*
X89960000Y-76580000D01*
X89260000Y-76210000D02*
X89640000Y-76390000D01*
X88800000Y-75980000D02*
X89260000Y-76210000D01*
X88560000Y-75900000D02*
X88800000Y-75980000D01*
X88360000Y-75850000D02*
X88560000Y-75900000D01*
X88150000Y-75810000D02*
X88360000Y-75850000D01*
X87970000Y-75760000D02*
X88150000Y-75810000D01*
X87820000Y-75710000D02*
X87970000Y-75760000D01*
X87680000Y-75640000D02*
X87820000Y-75710000D01*
X87530000Y-75550000D02*
X87680000Y-75640000D01*
X87420000Y-75460000D02*
X87530000Y-75550000D01*
X87360000Y-75370000D02*
X87420000Y-75460000D01*
X87350000Y-75290000D02*
X87360000Y-75370000D01*
X87380000Y-75000000D02*
X87350000Y-75290000D01*
X87400000Y-74860000D02*
X87380000Y-75000000D01*
X87420000Y-74690000D02*
X87400000Y-74860000D01*
X87430000Y-74370000D02*
X87420000Y-74690000D01*
X87870000Y-79620000D02*
X85870000Y-79560000D01*
X88140000Y-79690000D02*
X87870000Y-79620000D01*
X88450000Y-79760000D02*
X88140000Y-79690000D01*
X88760000Y-79820000D02*
X88450000Y-79760000D01*
X88960000Y-79860000D02*
X88760000Y-79820000D01*
X89060000Y-79900000D02*
X88960000Y-79860000D01*
X89160000Y-79960000D02*
X89060000Y-79900000D01*
X89210000Y-80040000D02*
X89160000Y-79960000D01*
X89230000Y-80130000D02*
X89210000Y-80040000D01*
X89220000Y-80330000D02*
X89230000Y-80130000D01*
X89210000Y-80440000D02*
X89220000Y-80330000D01*
X89170000Y-80500000D02*
X89210000Y-80440000D01*
X89080000Y-80530000D02*
X89170000Y-80500000D01*
X88970000Y-80540000D02*
X89080000Y-80530000D01*
X88850000Y-80480000D02*
X88970000Y-80540000D01*
X88700000Y-80330000D02*
X88850000Y-80480000D01*
X88500000Y-80230000D02*
X88700000Y-80330000D01*
X88210000Y-80160000D02*
X88500000Y-80230000D01*
X87840000Y-80130000D02*
X88210000Y-80160000D01*
X87480000Y-80120000D02*
X87840000Y-80130000D01*
X87170000Y-80110000D02*
X87480000Y-80120000D01*
X86760000Y-80080000D02*
X87170000Y-80110000D01*
X86480000Y-80070000D02*
X86760000Y-80080000D01*
X86210000Y-80030000D02*
X86480000Y-80070000D01*
X85890000Y-80000000D02*
X86210000Y-80030000D01*
X85602328Y-80000550D02*
X85890000Y-80000000D01*
X85494457Y-79999234D02*
X85602328Y-80000550D01*
X85437891Y-79986079D02*
X85494457Y-79999234D01*
X85380000Y-79940000D02*
X85437891Y-79986079D01*
X85340000Y-79850000D02*
X85380000Y-79940000D01*
X85350000Y-79730000D02*
X85340000Y-79850000D01*
X85400000Y-79650000D02*
X85350000Y-79730000D01*
X85490000Y-79580000D02*
X85400000Y-79650000D01*
X85870000Y-79560000D02*
X85490000Y-79580000D01*
X85840000Y-79350000D02*
X85870000Y-79560000D01*
X85790000Y-78950000D02*
X85840000Y-79350000D01*
X85700000Y-78440000D02*
X85790000Y-78950000D01*
X85530000Y-78080000D02*
X85700000Y-78440000D01*
X85320000Y-77810000D02*
X85530000Y-78080000D01*
X85130000Y-77610000D02*
X85320000Y-77810000D01*
X84950000Y-77460000D02*
X85130000Y-77610000D01*
X84790000Y-77370000D02*
X84950000Y-77460000D01*
X84550000Y-77290000D02*
X84790000Y-77370000D01*
X84330000Y-77260000D02*
X84550000Y-77290000D01*
X84280000Y-77240000D02*
X84330000Y-77260000D01*
X94230001Y-72700000D02*
G75*
G02*
X94767358Y-72964769I259999J-150000D01*
G01*
X93030000Y-76850000D02*
X94780000Y-72970000D01*
X92660000Y-76160000D02*
X94230000Y-72700000D01*
X91440000Y-78970000D02*
X91990000Y-77740000D01*
X91940000Y-79230000D02*
X92490000Y-78100000D01*
X91440000Y-78970000D02*
X91940000Y-79230000D01*
X86210000Y-73120000D02*
X85960000Y-73070000D01*
X86440000Y-73220000D02*
X86210000Y-73120000D01*
X86710000Y-73410000D02*
X86440000Y-73220000D01*
X86960000Y-73670000D02*
X86710000Y-73410000D01*
X87130000Y-73940000D02*
X86960000Y-73670000D01*
X87250000Y-74270000D02*
X87130000Y-73940000D01*
X87300000Y-74490000D02*
X87250000Y-74270000D01*
X87320000Y-74870000D02*
X87300000Y-74490000D01*
X87300000Y-75220000D02*
X87320000Y-74870000D01*
X87240000Y-75550000D02*
X87300000Y-75220000D01*
X87100000Y-75900000D02*
X87240000Y-75550000D01*
X86940000Y-76210000D02*
X87100000Y-75900000D01*
X86650000Y-76530000D02*
X86940000Y-76210000D01*
X86240000Y-76820000D02*
X86650000Y-76530000D01*
X85880000Y-77010000D02*
X86240000Y-76820000D01*
X85440000Y-77160000D02*
X85880000Y-77010000D01*
X84780000Y-77220000D02*
X85440000Y-77160000D01*
X84180000Y-77210000D02*
X84780000Y-77220000D01*
X83770000Y-77210000D02*
X84180000Y-77210000D01*
X83550000Y-77190000D02*
X83770000Y-77210000D01*
X83360000Y-77150000D02*
X83550000Y-77190000D01*
X83220000Y-77100000D02*
X83360000Y-77150000D01*
X83080000Y-77010000D02*
X83220000Y-77100000D01*
X83460000Y-76830000D02*
X83990000Y-76490000D01*
X83080000Y-77010000D02*
X83460000Y-76830000D01*
X82830000Y-77110000D02*
X83080000Y-77010000D01*
X82700000Y-77140000D02*
X82830000Y-77110000D01*
X82580000Y-77160000D02*
X82700000Y-77140000D01*
X82460000Y-77160000D02*
X82580000Y-77160000D01*
X82340000Y-77140000D02*
X82460000Y-77160000D01*
X82260000Y-77110000D02*
X82340000Y-77140000D01*
X82200000Y-77070000D02*
X82260000Y-77110000D01*
X82150000Y-77010000D02*
X82200000Y-77070000D01*
X82090000Y-76930000D02*
X82150000Y-77010000D01*
X82080000Y-76830000D02*
X82090000Y-76930000D01*
X82090000Y-76710000D02*
X82080000Y-76830000D01*
X82130000Y-76620000D02*
X82090000Y-76710000D01*
X82190000Y-76510000D02*
X82130000Y-76620000D01*
X82270000Y-76410000D02*
X82190000Y-76510000D01*
X82330000Y-76330000D02*
X82270000Y-76410000D01*
X82360000Y-76290000D02*
X82330000Y-76330000D01*
X82370000Y-76230000D02*
X82360000Y-76290000D01*
X83420000Y-76400000D02*
X83910000Y-76130000D01*
X83270000Y-76470000D02*
X83420000Y-76400000D01*
X83210000Y-76500000D02*
X83270000Y-76470000D01*
X83140000Y-76530000D02*
X83210000Y-76500000D01*
X83060000Y-76560000D02*
X83140000Y-76530000D01*
X82970000Y-76590000D02*
X83060000Y-76560000D01*
X82900000Y-76610000D02*
X82970000Y-76590000D01*
X82830000Y-76630000D02*
X82900000Y-76610000D01*
X82760000Y-76640000D02*
X82830000Y-76630000D01*
X82690000Y-76650000D02*
X82760000Y-76640000D01*
X82620000Y-76650000D02*
X82690000Y-76650000D01*
X82570000Y-76630000D02*
X82620000Y-76650000D01*
X82530000Y-76600000D02*
X82570000Y-76630000D01*
X82510000Y-76570000D02*
X82530000Y-76600000D01*
X82490000Y-76530000D02*
X82510000Y-76570000D01*
X82480000Y-76500000D02*
X82490000Y-76530000D01*
X82480000Y-76460000D02*
X82480000Y-76500000D01*
X82480000Y-76410000D02*
X82480000Y-76460000D01*
X82480000Y-76380000D02*
X82480000Y-76410000D01*
X82530000Y-76290000D02*
X82490000Y-76360000D01*
X82580000Y-76220000D02*
X82530000Y-76290000D01*
X82610000Y-76180000D02*
X82580000Y-76220000D01*
X82610000Y-76160000D02*
X82610000Y-76180000D01*
X82272504Y-76102477D02*
X82610000Y-76160000D01*
X82398845Y-76120258D02*
X82272504Y-76102477D01*
X82230000Y-76030000D02*
X82398845Y-76120258D01*
X82320000Y-76060000D02*
X82230000Y-76030000D01*
X82360000Y-76070000D02*
X82320000Y-76060000D01*
X82410000Y-76080000D02*
X82360000Y-76070000D01*
X82480000Y-76100000D02*
X82410000Y-76080000D01*
X82526928Y-76122760D02*
X82480000Y-76100000D01*
X82576189Y-76149443D02*
X82526928Y-76122760D01*
X82204677Y-76124812D02*
X82216993Y-76159706D01*
X82189283Y-76080682D02*
X82204677Y-76124812D01*
X82169784Y-76051947D02*
X82189283Y-76080682D01*
X82146180Y-76029369D02*
X82169784Y-76051947D01*
X82145153Y-76003712D02*
X82146180Y-76029369D01*
X82170000Y-75980000D02*
X82145153Y-76003712D01*
X82230000Y-75960000D02*
X82170000Y-75980000D01*
X82310000Y-75960000D02*
X82230000Y-75960000D01*
X82380000Y-75960000D02*
X82310000Y-75960000D01*
X82470000Y-75970000D02*
X82380000Y-75960000D01*
X82540000Y-75970000D02*
X82470000Y-75970000D01*
X82640000Y-75990000D02*
X82540000Y-75970000D01*
X82720000Y-76000000D02*
X82640000Y-75990000D01*
X82820000Y-76030000D02*
X82720000Y-76000000D01*
X82880000Y-76060000D02*
X82820000Y-76030000D01*
X82940000Y-76070000D02*
X82880000Y-76060000D01*
X83020000Y-76090000D02*
X82940000Y-76070000D01*
X83080000Y-76100000D02*
X83020000Y-76090000D01*
X83140000Y-76110000D02*
X83080000Y-76100000D01*
X83200000Y-76130000D02*
X83140000Y-76110000D01*
X83260000Y-76150000D02*
X83200000Y-76130000D01*
X83330000Y-76160000D02*
X83260000Y-76150000D01*
X83400000Y-76170000D02*
X83330000Y-76160000D01*
X83460000Y-76170000D02*
X83400000Y-76170000D01*
X83520000Y-76170000D02*
X83460000Y-76170000D01*
X83600000Y-76170000D02*
X83520000Y-76170000D01*
X83680000Y-76170000D02*
X83600000Y-76170000D01*
X83760000Y-76160000D02*
X83680000Y-76170000D01*
X83820000Y-76150000D02*
X83760000Y-76160000D01*
X83910000Y-76130000D02*
X83820000Y-76150000D01*
X84000000Y-76110000D02*
X83910000Y-76130000D01*
X84130000Y-76080000D02*
X84000000Y-76110000D01*
X84230000Y-76060000D02*
X84130000Y-76080000D01*
X84310000Y-76040000D02*
X84230000Y-76060000D01*
X84400000Y-76010000D02*
X84310000Y-76040000D01*
X84500000Y-75970000D02*
X84400000Y-76010000D01*
X84590000Y-75930000D02*
X84500000Y-75970000D01*
X84670000Y-75890000D02*
X84590000Y-75930000D01*
X84710000Y-75850000D02*
X84670000Y-75890000D01*
X84740000Y-75780000D02*
X84710000Y-75850000D01*
X84740000Y-75720000D02*
X84740000Y-75780000D01*
X84910000Y-75900000D02*
X84890000Y-76000000D01*
X84890000Y-75800000D02*
X84910000Y-75900000D01*
X84840000Y-75730000D02*
X84890000Y-75800000D01*
X84750000Y-75680000D02*
X84840000Y-75730000D01*
X84660000Y-75670000D02*
X84750000Y-75680000D01*
X84560000Y-75680000D02*
X84660000Y-75670000D01*
X84450000Y-75710000D02*
X84560000Y-75680000D01*
X84320000Y-75760000D02*
X84450000Y-75710000D01*
X84180000Y-75790000D02*
X84320000Y-75760000D01*
X84030000Y-75810000D02*
X84180000Y-75790000D01*
X83900000Y-75810000D02*
X84030000Y-75810000D01*
X83760000Y-75800000D02*
X83900000Y-75810000D01*
X83630000Y-75780000D02*
X83760000Y-75800000D01*
X83510000Y-75770000D02*
X83630000Y-75780000D01*
X83400000Y-75750000D02*
X83510000Y-75770000D01*
X83310000Y-75730000D02*
X83400000Y-75750000D01*
X83170000Y-75700000D02*
X83310000Y-75730000D01*
X83040000Y-75660000D02*
X83170000Y-75700000D01*
X82930000Y-75640000D02*
X83040000Y-75660000D01*
X82790000Y-75600000D02*
X82930000Y-75640000D01*
X82620000Y-75550000D02*
X82790000Y-75600000D01*
X82400000Y-75500000D02*
X82620000Y-75550000D01*
X82260000Y-75470000D02*
X82400000Y-75500000D01*
X82150000Y-75460000D02*
X82260000Y-75470000D01*
X82010000Y-75460000D02*
X82150000Y-75460000D01*
X81910000Y-75470000D02*
X82010000Y-75460000D01*
X81830000Y-75500000D02*
X81910000Y-75470000D01*
X81770000Y-75540000D02*
X81830000Y-75500000D01*
X81690000Y-75630000D02*
X81770000Y-75540000D01*
X81670000Y-75770000D02*
X81690000Y-75630000D01*
X81690000Y-75890000D02*
X81670000Y-75770000D01*
X81760000Y-76000000D02*
X81690000Y-75890000D01*
X81860000Y-76080000D02*
X81760000Y-76000000D01*
X81970000Y-76140000D02*
X81860000Y-76080000D01*
X82110000Y-76170000D02*
X81970000Y-76140000D01*
X82270000Y-76190000D02*
X82110000Y-76170000D01*
X82460000Y-76180000D02*
X82270000Y-76190000D01*
X82610000Y-76160000D02*
X82460000Y-76180000D01*
D11*
X84507842Y-74200000D02*
G75*
G02*
X83892158Y-74200000I-307842J0D01*
G01*
X83892158Y-74200000D02*
G75*
G02*
X84507842Y-74200000I307842J0D01*
G01*
D10*
X82330000Y-73580000D02*
X82530000Y-73450000D01*
X82240000Y-73660000D02*
X82330000Y-73580000D01*
X82150000Y-73750000D02*
X82240000Y-73660000D01*
X82060000Y-73860000D02*
X82150000Y-73750000D01*
X81990000Y-73970000D02*
X82060000Y-73860000D01*
X81970000Y-74080000D02*
X81990000Y-73970000D01*
X81960000Y-74200000D02*
X81970000Y-74080000D01*
X81970000Y-74300000D02*
X81960000Y-74200000D01*
X81990000Y-74470000D02*
X81970000Y-74300000D01*
X82055000Y-74605000D02*
X81990000Y-74470000D01*
X89670000Y-74970000D02*
X89690000Y-75160000D01*
X89580000Y-74640000D02*
X89670000Y-74970000D01*
X89470000Y-74340000D02*
X89580000Y-74640000D01*
X89330000Y-74040000D02*
X89470000Y-74340000D01*
X89220000Y-73850000D02*
X89330000Y-74040000D01*
X88950000Y-73450000D02*
X89220000Y-73850000D01*
X88790000Y-73240000D02*
X88950000Y-73450000D01*
X88590000Y-73010000D02*
X88790000Y-73240000D01*
X88400000Y-72820000D02*
X88590000Y-73010000D01*
X88180000Y-72630000D02*
X88400000Y-72820000D01*
X87980000Y-72470000D02*
X88180000Y-72630000D01*
X87730000Y-72280000D02*
X87980000Y-72470000D01*
X87480000Y-72110000D02*
X87730000Y-72280000D01*
X87220000Y-71970000D02*
X87480000Y-72110000D01*
X86940000Y-71860000D02*
X87220000Y-71970000D01*
X86600000Y-71760000D02*
X86940000Y-71860000D01*
X86350000Y-71690000D02*
X86600000Y-71760000D01*
X86060000Y-71630000D02*
X86350000Y-71690000D01*
X85730000Y-71600000D02*
X86060000Y-71630000D01*
X85450000Y-71600000D02*
X85730000Y-71600000D01*
X85260000Y-71610000D02*
X85450000Y-71600000D01*
X85050000Y-71640000D02*
X85260000Y-71610000D01*
X84860000Y-71680000D02*
X85050000Y-71640000D01*
X84640000Y-71720000D02*
X84860000Y-71680000D01*
X84430000Y-71790000D02*
X84640000Y-71720000D01*
X84270000Y-71840000D02*
X84430000Y-71790000D01*
X84080000Y-71930000D02*
X84270000Y-71840000D01*
X83940000Y-72000000D02*
X84080000Y-71930000D01*
X83790000Y-72080000D02*
X83940000Y-72000000D01*
X83660000Y-72160000D02*
X83790000Y-72080000D01*
X83530000Y-72250000D02*
X83660000Y-72160000D01*
X83320000Y-72430000D02*
X83530000Y-72250000D01*
X83120000Y-72610000D02*
X83320000Y-72430000D01*
X82960000Y-72780000D02*
X83120000Y-72610000D01*
X82810000Y-72980000D02*
X82960000Y-72780000D01*
X82640000Y-73260000D02*
X82810000Y-72980000D01*
X82530000Y-73450000D02*
X82640000Y-73260000D01*
X82400000Y-73690000D02*
X82530000Y-73450000D01*
X82270000Y-73950000D02*
X82400000Y-73690000D01*
X82210000Y-74100000D02*
X82270000Y-73950000D01*
X82140000Y-74300000D02*
X82210000Y-74100000D01*
X82090000Y-74480000D02*
X82140000Y-74300000D01*
X82020000Y-74730000D02*
X82090000Y-74480000D01*
X81990000Y-74890000D02*
X82020000Y-74730000D01*
X81960000Y-75050000D02*
X81990000Y-74890000D01*
X81940000Y-75190000D02*
X81960000Y-75050000D01*
X81930000Y-75330000D02*
X81940000Y-75190000D01*
X81930000Y-75430000D02*
X81930000Y-75330000D01*
X85277033Y-74200000D02*
G75*
G02*
X83122967Y-74200000I-1077033J0D01*
G01*
X83122967Y-74200000D02*
G75*
G02*
X85277033Y-74200000I1077033J0D01*
G01*
D12*
X73336779Y-102039903D02*
X73336779Y-101039903D01*
X73336779Y-101039903D02*
X73574874Y-101039903D01*
X73574874Y-101039903D02*
X73717731Y-101087522D01*
X73717731Y-101087522D02*
X73812969Y-101182760D01*
X73812969Y-101182760D02*
X73860588Y-101277998D01*
X73860588Y-101277998D02*
X73908207Y-101468474D01*
X73908207Y-101468474D02*
X73908207Y-101611331D01*
X73908207Y-101611331D02*
X73860588Y-101801807D01*
X73860588Y-101801807D02*
X73812969Y-101897045D01*
X73812969Y-101897045D02*
X73717731Y-101992284D01*
X73717731Y-101992284D02*
X73574874Y-102039903D01*
X73574874Y-102039903D02*
X73336779Y-102039903D01*
X74527255Y-101039903D02*
X74717731Y-101039903D01*
X74717731Y-101039903D02*
X74812969Y-101087522D01*
X74812969Y-101087522D02*
X74908207Y-101182760D01*
X74908207Y-101182760D02*
X74955826Y-101373236D01*
X74955826Y-101373236D02*
X74955826Y-101706569D01*
X74955826Y-101706569D02*
X74908207Y-101897045D01*
X74908207Y-101897045D02*
X74812969Y-101992284D01*
X74812969Y-101992284D02*
X74717731Y-102039903D01*
X74717731Y-102039903D02*
X74527255Y-102039903D01*
X74527255Y-102039903D02*
X74432017Y-101992284D01*
X74432017Y-101992284D02*
X74336779Y-101897045D01*
X74336779Y-101897045D02*
X74289160Y-101706569D01*
X74289160Y-101706569D02*
X74289160Y-101373236D01*
X74289160Y-101373236D02*
X74336779Y-101182760D01*
X74336779Y-101182760D02*
X74432017Y-101087522D01*
X74432017Y-101087522D02*
X74527255Y-101039903D01*
X76146303Y-102039903D02*
X76146303Y-101039903D01*
X76146303Y-101039903D02*
X76717731Y-102039903D01*
X76717731Y-102039903D02*
X76717731Y-101039903D01*
X77384398Y-101039903D02*
X77574874Y-101039903D01*
X77574874Y-101039903D02*
X77670112Y-101087522D01*
X77670112Y-101087522D02*
X77765350Y-101182760D01*
X77765350Y-101182760D02*
X77812969Y-101373236D01*
X77812969Y-101373236D02*
X77812969Y-101706569D01*
X77812969Y-101706569D02*
X77765350Y-101897045D01*
X77765350Y-101897045D02*
X77670112Y-101992284D01*
X77670112Y-101992284D02*
X77574874Y-102039903D01*
X77574874Y-102039903D02*
X77384398Y-102039903D01*
X77384398Y-102039903D02*
X77289160Y-101992284D01*
X77289160Y-101992284D02*
X77193922Y-101897045D01*
X77193922Y-101897045D02*
X77146303Y-101706569D01*
X77146303Y-101706569D02*
X77146303Y-101373236D01*
X77146303Y-101373236D02*
X77193922Y-101182760D01*
X77193922Y-101182760D02*
X77289160Y-101087522D01*
X77289160Y-101087522D02*
X77384398Y-101039903D01*
X78098684Y-101039903D02*
X78670112Y-101039903D01*
X78384398Y-102039903D02*
X78384398Y-101039903D01*
X79765351Y-102039903D02*
X79765351Y-101039903D01*
X79765351Y-101039903D02*
X80146303Y-101039903D01*
X80146303Y-101039903D02*
X80241541Y-101087522D01*
X80241541Y-101087522D02*
X80289160Y-101135141D01*
X80289160Y-101135141D02*
X80336779Y-101230379D01*
X80336779Y-101230379D02*
X80336779Y-101373236D01*
X80336779Y-101373236D02*
X80289160Y-101468474D01*
X80289160Y-101468474D02*
X80241541Y-101516093D01*
X80241541Y-101516093D02*
X80146303Y-101563712D01*
X80146303Y-101563712D02*
X79765351Y-101563712D01*
X81241541Y-102039903D02*
X80765351Y-102039903D01*
X80765351Y-102039903D02*
X80765351Y-101039903D01*
X81574875Y-101039903D02*
X81574875Y-101849426D01*
X81574875Y-101849426D02*
X81622494Y-101944664D01*
X81622494Y-101944664D02*
X81670113Y-101992284D01*
X81670113Y-101992284D02*
X81765351Y-102039903D01*
X81765351Y-102039903D02*
X81955827Y-102039903D01*
X81955827Y-102039903D02*
X82051065Y-101992284D01*
X82051065Y-101992284D02*
X82098684Y-101944664D01*
X82098684Y-101944664D02*
X82146303Y-101849426D01*
X82146303Y-101849426D02*
X82146303Y-101039903D01*
X83146303Y-101087522D02*
X83051065Y-101039903D01*
X83051065Y-101039903D02*
X82908208Y-101039903D01*
X82908208Y-101039903D02*
X82765351Y-101087522D01*
X82765351Y-101087522D02*
X82670113Y-101182760D01*
X82670113Y-101182760D02*
X82622494Y-101277998D01*
X82622494Y-101277998D02*
X82574875Y-101468474D01*
X82574875Y-101468474D02*
X82574875Y-101611331D01*
X82574875Y-101611331D02*
X82622494Y-101801807D01*
X82622494Y-101801807D02*
X82670113Y-101897045D01*
X82670113Y-101897045D02*
X82765351Y-101992284D01*
X82765351Y-101992284D02*
X82908208Y-102039903D01*
X82908208Y-102039903D02*
X83003446Y-102039903D01*
X83003446Y-102039903D02*
X83146303Y-101992284D01*
X83146303Y-101992284D02*
X83193922Y-101944664D01*
X83193922Y-101944664D02*
X83193922Y-101611331D01*
X83193922Y-101611331D02*
X83003446Y-101611331D01*
X73289160Y-103364132D02*
X73765350Y-103364132D01*
X73193922Y-103649847D02*
X73527255Y-102649847D01*
X73527255Y-102649847D02*
X73860588Y-103649847D01*
X74765350Y-103649847D02*
X74432017Y-103173656D01*
X74193922Y-103649847D02*
X74193922Y-102649847D01*
X74193922Y-102649847D02*
X74574874Y-102649847D01*
X74574874Y-102649847D02*
X74670112Y-102697466D01*
X74670112Y-102697466D02*
X74717731Y-102745085D01*
X74717731Y-102745085D02*
X74765350Y-102840323D01*
X74765350Y-102840323D02*
X74765350Y-102983180D01*
X74765350Y-102983180D02*
X74717731Y-103078418D01*
X74717731Y-103078418D02*
X74670112Y-103126037D01*
X74670112Y-103126037D02*
X74574874Y-103173656D01*
X74574874Y-103173656D02*
X74193922Y-103173656D01*
X75193922Y-103649847D02*
X75193922Y-102649847D01*
X75193922Y-102649847D02*
X75432017Y-102649847D01*
X75432017Y-102649847D02*
X75574874Y-102697466D01*
X75574874Y-102697466D02*
X75670112Y-102792704D01*
X75670112Y-102792704D02*
X75717731Y-102887942D01*
X75717731Y-102887942D02*
X75765350Y-103078418D01*
X75765350Y-103078418D02*
X75765350Y-103221275D01*
X75765350Y-103221275D02*
X75717731Y-103411751D01*
X75717731Y-103411751D02*
X75670112Y-103506989D01*
X75670112Y-103506989D02*
X75574874Y-103602228D01*
X75574874Y-103602228D02*
X75432017Y-103649847D01*
X75432017Y-103649847D02*
X75193922Y-103649847D01*
X76193922Y-102649847D02*
X76193922Y-103459370D01*
X76193922Y-103459370D02*
X76241541Y-103554608D01*
X76241541Y-103554608D02*
X76289160Y-103602228D01*
X76289160Y-103602228D02*
X76384398Y-103649847D01*
X76384398Y-103649847D02*
X76574874Y-103649847D01*
X76574874Y-103649847D02*
X76670112Y-103602228D01*
X76670112Y-103602228D02*
X76717731Y-103554608D01*
X76717731Y-103554608D02*
X76765350Y-103459370D01*
X76765350Y-103459370D02*
X76765350Y-102649847D01*
X77241541Y-103649847D02*
X77241541Y-102649847D01*
X77717731Y-103649847D02*
X77717731Y-102649847D01*
X77717731Y-102649847D02*
X78289159Y-103649847D01*
X78289159Y-103649847D02*
X78289159Y-102649847D01*
X78955826Y-102649847D02*
X79146302Y-102649847D01*
X79146302Y-102649847D02*
X79241540Y-102697466D01*
X79241540Y-102697466D02*
X79336778Y-102792704D01*
X79336778Y-102792704D02*
X79384397Y-102983180D01*
X79384397Y-102983180D02*
X79384397Y-103316513D01*
X79384397Y-103316513D02*
X79336778Y-103506989D01*
X79336778Y-103506989D02*
X79241540Y-103602228D01*
X79241540Y-103602228D02*
X79146302Y-103649847D01*
X79146302Y-103649847D02*
X78955826Y-103649847D01*
X78955826Y-103649847D02*
X78860588Y-103602228D01*
X78860588Y-103602228D02*
X78765350Y-103506989D01*
X78765350Y-103506989D02*
X78717731Y-103316513D01*
X78717731Y-103316513D02*
X78717731Y-102983180D01*
X78717731Y-102983180D02*
X78765350Y-102792704D01*
X78765350Y-102792704D02*
X78860588Y-102697466D01*
X78860588Y-102697466D02*
X78955826Y-102649847D01*
X80574874Y-102649847D02*
X80574874Y-103459370D01*
X80574874Y-103459370D02*
X80622493Y-103554608D01*
X80622493Y-103554608D02*
X80670112Y-103602228D01*
X80670112Y-103602228D02*
X80765350Y-103649847D01*
X80765350Y-103649847D02*
X80955826Y-103649847D01*
X80955826Y-103649847D02*
X81051064Y-103602228D01*
X81051064Y-103602228D02*
X81098683Y-103554608D01*
X81098683Y-103554608D02*
X81146302Y-103459370D01*
X81146302Y-103459370D02*
X81146302Y-102649847D01*
X81574874Y-103602228D02*
X81717731Y-103649847D01*
X81717731Y-103649847D02*
X81955826Y-103649847D01*
X81955826Y-103649847D02*
X82051064Y-103602228D01*
X82051064Y-103602228D02*
X82098683Y-103554608D01*
X82098683Y-103554608D02*
X82146302Y-103459370D01*
X82146302Y-103459370D02*
X82146302Y-103364132D01*
X82146302Y-103364132D02*
X82098683Y-103268894D01*
X82098683Y-103268894D02*
X82051064Y-103221275D01*
X82051064Y-103221275D02*
X81955826Y-103173656D01*
X81955826Y-103173656D02*
X81765350Y-103126037D01*
X81765350Y-103126037D02*
X81670112Y-103078418D01*
X81670112Y-103078418D02*
X81622493Y-103030799D01*
X81622493Y-103030799D02*
X81574874Y-102935561D01*
X81574874Y-102935561D02*
X81574874Y-102840323D01*
X81574874Y-102840323D02*
X81622493Y-102745085D01*
X81622493Y-102745085D02*
X81670112Y-102697466D01*
X81670112Y-102697466D02*
X81765350Y-102649847D01*
X81765350Y-102649847D02*
X82003445Y-102649847D01*
X82003445Y-102649847D02*
X82146302Y-102697466D01*
X82908207Y-103126037D02*
X83051064Y-103173656D01*
X83051064Y-103173656D02*
X83098683Y-103221275D01*
X83098683Y-103221275D02*
X83146302Y-103316513D01*
X83146302Y-103316513D02*
X83146302Y-103459370D01*
X83146302Y-103459370D02*
X83098683Y-103554608D01*
X83098683Y-103554608D02*
X83051064Y-103602228D01*
X83051064Y-103602228D02*
X82955826Y-103649847D01*
X82955826Y-103649847D02*
X82574874Y-103649847D01*
X82574874Y-103649847D02*
X82574874Y-102649847D01*
X82574874Y-102649847D02*
X82908207Y-102649847D01*
X82908207Y-102649847D02*
X83003445Y-102697466D01*
X83003445Y-102697466D02*
X83051064Y-102745085D01*
X83051064Y-102745085D02*
X83098683Y-102840323D01*
X83098683Y-102840323D02*
X83098683Y-102935561D01*
X83098683Y-102935561D02*
X83051064Y-103030799D01*
X83051064Y-103030799D02*
X83003445Y-103078418D01*
X83003445Y-103078418D02*
X82908207Y-103126037D01*
X82908207Y-103126037D02*
X82574874Y-103126037D01*
X84336779Y-103649847D02*
X84336779Y-102649847D01*
X84336779Y-102649847D02*
X84717731Y-102649847D01*
X84717731Y-102649847D02*
X84812969Y-102697466D01*
X84812969Y-102697466D02*
X84860588Y-102745085D01*
X84860588Y-102745085D02*
X84908207Y-102840323D01*
X84908207Y-102840323D02*
X84908207Y-102983180D01*
X84908207Y-102983180D02*
X84860588Y-103078418D01*
X84860588Y-103078418D02*
X84812969Y-103126037D01*
X84812969Y-103126037D02*
X84717731Y-103173656D01*
X84717731Y-103173656D02*
X84336779Y-103173656D01*
X85527255Y-102649847D02*
X85717731Y-102649847D01*
X85717731Y-102649847D02*
X85812969Y-102697466D01*
X85812969Y-102697466D02*
X85908207Y-102792704D01*
X85908207Y-102792704D02*
X85955826Y-102983180D01*
X85955826Y-102983180D02*
X85955826Y-103316513D01*
X85955826Y-103316513D02*
X85908207Y-103506989D01*
X85908207Y-103506989D02*
X85812969Y-103602228D01*
X85812969Y-103602228D02*
X85717731Y-103649847D01*
X85717731Y-103649847D02*
X85527255Y-103649847D01*
X85527255Y-103649847D02*
X85432017Y-103602228D01*
X85432017Y-103602228D02*
X85336779Y-103506989D01*
X85336779Y-103506989D02*
X85289160Y-103316513D01*
X85289160Y-103316513D02*
X85289160Y-102983180D01*
X85289160Y-102983180D02*
X85336779Y-102792704D01*
X85336779Y-102792704D02*
X85432017Y-102697466D01*
X85432017Y-102697466D02*
X85527255Y-102649847D01*
X86955826Y-103649847D02*
X86622493Y-103173656D01*
X86384398Y-103649847D02*
X86384398Y-102649847D01*
X86384398Y-102649847D02*
X86765350Y-102649847D01*
X86765350Y-102649847D02*
X86860588Y-102697466D01*
X86860588Y-102697466D02*
X86908207Y-102745085D01*
X86908207Y-102745085D02*
X86955826Y-102840323D01*
X86955826Y-102840323D02*
X86955826Y-102983180D01*
X86955826Y-102983180D02*
X86908207Y-103078418D01*
X86908207Y-103078418D02*
X86860588Y-103126037D01*
X86860588Y-103126037D02*
X86765350Y-103173656D01*
X86765350Y-103173656D02*
X86384398Y-103173656D01*
X87241541Y-102649847D02*
X87812969Y-102649847D01*
X87527255Y-103649847D02*
X87527255Y-102649847D01*
X73289160Y-104974076D02*
X73765350Y-104974076D01*
X73193922Y-105259791D02*
X73527255Y-104259791D01*
X73527255Y-104259791D02*
X73860588Y-105259791D01*
X74193922Y-105259791D02*
X74193922Y-104259791D01*
X74193922Y-104259791D02*
X74765350Y-105259791D01*
X74765350Y-105259791D02*
X74765350Y-104259791D01*
X75241541Y-105259791D02*
X75241541Y-104259791D01*
X75241541Y-104259791D02*
X75479636Y-104259791D01*
X75479636Y-104259791D02*
X75622493Y-104307410D01*
X75622493Y-104307410D02*
X75717731Y-104402648D01*
X75717731Y-104402648D02*
X75765350Y-104497886D01*
X75765350Y-104497886D02*
X75812969Y-104688362D01*
X75812969Y-104688362D02*
X75812969Y-104831219D01*
X75812969Y-104831219D02*
X75765350Y-105021695D01*
X75765350Y-105021695D02*
X75717731Y-105116933D01*
X75717731Y-105116933D02*
X75622493Y-105212172D01*
X75622493Y-105212172D02*
X75479636Y-105259791D01*
X75479636Y-105259791D02*
X75241541Y-105259791D01*
X77479636Y-104259791D02*
X77003446Y-104259791D01*
X77003446Y-104259791D02*
X76955827Y-104735981D01*
X76955827Y-104735981D02*
X77003446Y-104688362D01*
X77003446Y-104688362D02*
X77098684Y-104640743D01*
X77098684Y-104640743D02*
X77336779Y-104640743D01*
X77336779Y-104640743D02*
X77432017Y-104688362D01*
X77432017Y-104688362D02*
X77479636Y-104735981D01*
X77479636Y-104735981D02*
X77527255Y-104831219D01*
X77527255Y-104831219D02*
X77527255Y-105069314D01*
X77527255Y-105069314D02*
X77479636Y-105164552D01*
X77479636Y-105164552D02*
X77432017Y-105212172D01*
X77432017Y-105212172D02*
X77336779Y-105259791D01*
X77336779Y-105259791D02*
X77098684Y-105259791D01*
X77098684Y-105259791D02*
X77003446Y-105212172D01*
X77003446Y-105212172D02*
X76955827Y-105164552D01*
X77812970Y-104259791D02*
X78146303Y-105259791D01*
X78146303Y-105259791D02*
X78479636Y-104259791D01*
X79574875Y-105259791D02*
X79574875Y-104259791D01*
X80051065Y-105259791D02*
X80051065Y-104259791D01*
X80051065Y-104259791D02*
X80622493Y-105259791D01*
X80622493Y-105259791D02*
X80622493Y-104259791D01*
X81098684Y-105259791D02*
X81098684Y-104259791D01*
X81098684Y-104259791D02*
X81479636Y-104259791D01*
X81479636Y-104259791D02*
X81574874Y-104307410D01*
X81574874Y-104307410D02*
X81622493Y-104355029D01*
X81622493Y-104355029D02*
X81670112Y-104450267D01*
X81670112Y-104450267D02*
X81670112Y-104593124D01*
X81670112Y-104593124D02*
X81622493Y-104688362D01*
X81622493Y-104688362D02*
X81574874Y-104735981D01*
X81574874Y-104735981D02*
X81479636Y-104783600D01*
X81479636Y-104783600D02*
X81098684Y-104783600D01*
X82098684Y-104259791D02*
X82098684Y-105069314D01*
X82098684Y-105069314D02*
X82146303Y-105164552D01*
X82146303Y-105164552D02*
X82193922Y-105212172D01*
X82193922Y-105212172D02*
X82289160Y-105259791D01*
X82289160Y-105259791D02*
X82479636Y-105259791D01*
X82479636Y-105259791D02*
X82574874Y-105212172D01*
X82574874Y-105212172D02*
X82622493Y-105164552D01*
X82622493Y-105164552D02*
X82670112Y-105069314D01*
X82670112Y-105069314D02*
X82670112Y-104259791D01*
X83003446Y-104259791D02*
X83574874Y-104259791D01*
X83289160Y-105259791D02*
X83289160Y-104259791D01*
X73289160Y-106584020D02*
X73765350Y-106584020D01*
X73193922Y-106869735D02*
X73527255Y-105869735D01*
X73527255Y-105869735D02*
X73860588Y-106869735D01*
X74051065Y-105869735D02*
X74622493Y-105869735D01*
X74336779Y-106869735D02*
X74336779Y-105869735D01*
X75574875Y-105869735D02*
X76146303Y-105869735D01*
X75860589Y-106869735D02*
X75860589Y-105869735D01*
X76479637Y-106869735D02*
X76479637Y-105869735D01*
X76479637Y-106345925D02*
X77051065Y-106345925D01*
X77051065Y-106869735D02*
X77051065Y-105869735D01*
X77527256Y-106345925D02*
X77860589Y-106345925D01*
X78003446Y-106869735D02*
X77527256Y-106869735D01*
X77527256Y-106869735D02*
X77527256Y-105869735D01*
X77527256Y-105869735D02*
X78003446Y-105869735D01*
X79146304Y-106822116D02*
X79289161Y-106869735D01*
X79289161Y-106869735D02*
X79527256Y-106869735D01*
X79527256Y-106869735D02*
X79622494Y-106822116D01*
X79622494Y-106822116D02*
X79670113Y-106774496D01*
X79670113Y-106774496D02*
X79717732Y-106679258D01*
X79717732Y-106679258D02*
X79717732Y-106584020D01*
X79717732Y-106584020D02*
X79670113Y-106488782D01*
X79670113Y-106488782D02*
X79622494Y-106441163D01*
X79622494Y-106441163D02*
X79527256Y-106393544D01*
X79527256Y-106393544D02*
X79336780Y-106345925D01*
X79336780Y-106345925D02*
X79241542Y-106298306D01*
X79241542Y-106298306D02*
X79193923Y-106250687D01*
X79193923Y-106250687D02*
X79146304Y-106155449D01*
X79146304Y-106155449D02*
X79146304Y-106060211D01*
X79146304Y-106060211D02*
X79193923Y-105964973D01*
X79193923Y-105964973D02*
X79241542Y-105917354D01*
X79241542Y-105917354D02*
X79336780Y-105869735D01*
X79336780Y-105869735D02*
X79574875Y-105869735D01*
X79574875Y-105869735D02*
X79717732Y-105917354D01*
X80098685Y-106584020D02*
X80574875Y-106584020D01*
X80003447Y-106869735D02*
X80336780Y-105869735D01*
X80336780Y-105869735D02*
X80670113Y-106869735D01*
X81003447Y-106869735D02*
X81003447Y-105869735D01*
X81003447Y-105869735D02*
X81336780Y-106584020D01*
X81336780Y-106584020D02*
X81670113Y-105869735D01*
X81670113Y-105869735D02*
X81670113Y-106869735D01*
X82146304Y-106345925D02*
X82479637Y-106345925D01*
X82622494Y-106869735D02*
X82146304Y-106869735D01*
X82146304Y-106869735D02*
X82146304Y-105869735D01*
X82146304Y-105869735D02*
X82622494Y-105869735D01*
X83670114Y-105869735D02*
X84241542Y-105869735D01*
X83955828Y-106869735D02*
X83955828Y-105869735D01*
X84574876Y-106869735D02*
X84574876Y-105869735D01*
X85051066Y-106869735D02*
X85051066Y-105869735D01*
X85051066Y-105869735D02*
X85384399Y-106584020D01*
X85384399Y-106584020D02*
X85717732Y-105869735D01*
X85717732Y-105869735D02*
X85717732Y-106869735D01*
X86193923Y-106345925D02*
X86527256Y-106345925D01*
X86670113Y-106869735D02*
X86193923Y-106869735D01*
X86193923Y-106869735D02*
X86193923Y-105869735D01*
X86193923Y-105869735D02*
X86670113Y-105869735D01*
D13*
X145791004Y-114654761D02*
X145791004Y-115273809D01*
X145791004Y-115273809D02*
X144491004Y-115273809D01*
X145110052Y-114221428D02*
X145110052Y-113788094D01*
X145791004Y-113602380D02*
X145791004Y-114221428D01*
X145791004Y-114221428D02*
X144491004Y-114221428D01*
X144491004Y-114221428D02*
X144491004Y-113602380D01*
X145791004Y-113045238D02*
X144491004Y-113045238D01*
X144491004Y-113045238D02*
X144491004Y-112735714D01*
X144491004Y-112735714D02*
X144552909Y-112550000D01*
X144552909Y-112550000D02*
X144676719Y-112426190D01*
X144676719Y-112426190D02*
X144800528Y-112364285D01*
X144800528Y-112364285D02*
X145048147Y-112302381D01*
X145048147Y-112302381D02*
X145233861Y-112302381D01*
X145233861Y-112302381D02*
X145481480Y-112364285D01*
X145481480Y-112364285D02*
X145605290Y-112426190D01*
X145605290Y-112426190D02*
X145729100Y-112550000D01*
X145729100Y-112550000D02*
X145791004Y-112735714D01*
X145791004Y-112735714D02*
X145791004Y-113045238D01*
X145791004Y-111064285D02*
X145791004Y-111807142D01*
X145791004Y-111435714D02*
X144491004Y-111435714D01*
X144491004Y-111435714D02*
X144676719Y-111559523D01*
X144676719Y-111559523D02*
X144800528Y-111683333D01*
X144800528Y-111683333D02*
X144862433Y-111807142D01*
X131991004Y-114654761D02*
X131991004Y-115273809D01*
X131991004Y-115273809D02*
X130691004Y-115273809D01*
X131310052Y-114221428D02*
X131310052Y-113788094D01*
X131991004Y-113602380D02*
X131991004Y-114221428D01*
X131991004Y-114221428D02*
X130691004Y-114221428D01*
X130691004Y-114221428D02*
X130691004Y-113602380D01*
X131991004Y-113045238D02*
X130691004Y-113045238D01*
X130691004Y-113045238D02*
X130691004Y-112735714D01*
X130691004Y-112735714D02*
X130752909Y-112550000D01*
X130752909Y-112550000D02*
X130876719Y-112426190D01*
X130876719Y-112426190D02*
X131000528Y-112364285D01*
X131000528Y-112364285D02*
X131248147Y-112302381D01*
X131248147Y-112302381D02*
X131433861Y-112302381D01*
X131433861Y-112302381D02*
X131681480Y-112364285D01*
X131681480Y-112364285D02*
X131805290Y-112426190D01*
X131805290Y-112426190D02*
X131929100Y-112550000D01*
X131929100Y-112550000D02*
X131991004Y-112735714D01*
X131991004Y-112735714D02*
X131991004Y-113045238D01*
X130814814Y-111807142D02*
X130752909Y-111745238D01*
X130752909Y-111745238D02*
X130691004Y-111621428D01*
X130691004Y-111621428D02*
X130691004Y-111311904D01*
X130691004Y-111311904D02*
X130752909Y-111188095D01*
X130752909Y-111188095D02*
X130814814Y-111126190D01*
X130814814Y-111126190D02*
X130938623Y-111064285D01*
X130938623Y-111064285D02*
X131062433Y-111064285D01*
X131062433Y-111064285D02*
X131248147Y-111126190D01*
X131248147Y-111126190D02*
X131991004Y-111869047D01*
X131991004Y-111869047D02*
X131991004Y-111064285D01*
X118591004Y-114654761D02*
X118591004Y-115273809D01*
X118591004Y-115273809D02*
X117291004Y-115273809D01*
X117910052Y-114221428D02*
X117910052Y-113788094D01*
X118591004Y-113602380D02*
X118591004Y-114221428D01*
X118591004Y-114221428D02*
X117291004Y-114221428D01*
X117291004Y-114221428D02*
X117291004Y-113602380D01*
X118591004Y-113045238D02*
X117291004Y-113045238D01*
X117291004Y-113045238D02*
X117291004Y-112735714D01*
X117291004Y-112735714D02*
X117352909Y-112550000D01*
X117352909Y-112550000D02*
X117476719Y-112426190D01*
X117476719Y-112426190D02*
X117600528Y-112364285D01*
X117600528Y-112364285D02*
X117848147Y-112302381D01*
X117848147Y-112302381D02*
X118033861Y-112302381D01*
X118033861Y-112302381D02*
X118281480Y-112364285D01*
X118281480Y-112364285D02*
X118405290Y-112426190D01*
X118405290Y-112426190D02*
X118529100Y-112550000D01*
X118529100Y-112550000D02*
X118591004Y-112735714D01*
X118591004Y-112735714D02*
X118591004Y-113045238D01*
X117291004Y-111869047D02*
X117291004Y-111064285D01*
X117291004Y-111064285D02*
X117786242Y-111497619D01*
X117786242Y-111497619D02*
X117786242Y-111311904D01*
X117786242Y-111311904D02*
X117848147Y-111188095D01*
X117848147Y-111188095D02*
X117910052Y-111126190D01*
X117910052Y-111126190D02*
X118033861Y-111064285D01*
X118033861Y-111064285D02*
X118343385Y-111064285D01*
X118343385Y-111064285D02*
X118467195Y-111126190D01*
X118467195Y-111126190D02*
X118529100Y-111188095D01*
X118529100Y-111188095D02*
X118591004Y-111311904D01*
X118591004Y-111311904D02*
X118591004Y-111683333D01*
X118591004Y-111683333D02*
X118529100Y-111807142D01*
X118529100Y-111807142D02*
X118467195Y-111869047D01*
X106391004Y-114654761D02*
X106391004Y-115273809D01*
X106391004Y-115273809D02*
X105091004Y-115273809D01*
X105710052Y-114221428D02*
X105710052Y-113788094D01*
X106391004Y-113602380D02*
X106391004Y-114221428D01*
X106391004Y-114221428D02*
X105091004Y-114221428D01*
X105091004Y-114221428D02*
X105091004Y-113602380D01*
X106391004Y-113045238D02*
X105091004Y-113045238D01*
X105091004Y-113045238D02*
X105091004Y-112735714D01*
X105091004Y-112735714D02*
X105152909Y-112550000D01*
X105152909Y-112550000D02*
X105276719Y-112426190D01*
X105276719Y-112426190D02*
X105400528Y-112364285D01*
X105400528Y-112364285D02*
X105648147Y-112302381D01*
X105648147Y-112302381D02*
X105833861Y-112302381D01*
X105833861Y-112302381D02*
X106081480Y-112364285D01*
X106081480Y-112364285D02*
X106205290Y-112426190D01*
X106205290Y-112426190D02*
X106329100Y-112550000D01*
X106329100Y-112550000D02*
X106391004Y-112735714D01*
X106391004Y-112735714D02*
X106391004Y-113045238D01*
X105524338Y-111188095D02*
X106391004Y-111188095D01*
X105029100Y-111497619D02*
X105957671Y-111807142D01*
X105957671Y-111807142D02*
X105957671Y-111002381D01*
X92991004Y-114654761D02*
X92991004Y-115273809D01*
X92991004Y-115273809D02*
X91691004Y-115273809D01*
X92310052Y-114221428D02*
X92310052Y-113788094D01*
X92991004Y-113602380D02*
X92991004Y-114221428D01*
X92991004Y-114221428D02*
X91691004Y-114221428D01*
X91691004Y-114221428D02*
X91691004Y-113602380D01*
X92991004Y-113045238D02*
X91691004Y-113045238D01*
X91691004Y-113045238D02*
X91691004Y-112735714D01*
X91691004Y-112735714D02*
X91752909Y-112550000D01*
X91752909Y-112550000D02*
X91876719Y-112426190D01*
X91876719Y-112426190D02*
X92000528Y-112364285D01*
X92000528Y-112364285D02*
X92248147Y-112302381D01*
X92248147Y-112302381D02*
X92433861Y-112302381D01*
X92433861Y-112302381D02*
X92681480Y-112364285D01*
X92681480Y-112364285D02*
X92805290Y-112426190D01*
X92805290Y-112426190D02*
X92929100Y-112550000D01*
X92929100Y-112550000D02*
X92991004Y-112735714D01*
X92991004Y-112735714D02*
X92991004Y-113045238D01*
X91691004Y-111126190D02*
X91691004Y-111745238D01*
X91691004Y-111745238D02*
X92310052Y-111807142D01*
X92310052Y-111807142D02*
X92248147Y-111745238D01*
X92248147Y-111745238D02*
X92186242Y-111621428D01*
X92186242Y-111621428D02*
X92186242Y-111311904D01*
X92186242Y-111311904D02*
X92248147Y-111188095D01*
X92248147Y-111188095D02*
X92310052Y-111126190D01*
X92310052Y-111126190D02*
X92433861Y-111064285D01*
X92433861Y-111064285D02*
X92743385Y-111064285D01*
X92743385Y-111064285D02*
X92867195Y-111126190D01*
X92867195Y-111126190D02*
X92929100Y-111188095D01*
X92929100Y-111188095D02*
X92991004Y-111311904D01*
X92991004Y-111311904D02*
X92991004Y-111621428D01*
X92991004Y-111621428D02*
X92929100Y-111745238D01*
X92929100Y-111745238D02*
X92867195Y-111807142D01*
D12*
X73812969Y-83649847D02*
X73336779Y-83649847D01*
X73336779Y-83649847D02*
X73289160Y-84126037D01*
X73289160Y-84126037D02*
X73336779Y-84078418D01*
X73336779Y-84078418D02*
X73432017Y-84030799D01*
X73432017Y-84030799D02*
X73670112Y-84030799D01*
X73670112Y-84030799D02*
X73765350Y-84078418D01*
X73765350Y-84078418D02*
X73812969Y-84126037D01*
X73812969Y-84126037D02*
X73860588Y-84221275D01*
X73860588Y-84221275D02*
X73860588Y-84459370D01*
X73860588Y-84459370D02*
X73812969Y-84554608D01*
X73812969Y-84554608D02*
X73765350Y-84602228D01*
X73765350Y-84602228D02*
X73670112Y-84649847D01*
X73670112Y-84649847D02*
X73432017Y-84649847D01*
X73432017Y-84649847D02*
X73336779Y-84602228D01*
X73336779Y-84602228D02*
X73289160Y-84554608D01*
X74146303Y-83649847D02*
X74479636Y-84649847D01*
X74479636Y-84649847D02*
X74812969Y-83649847D01*
X75908208Y-84649847D02*
X75908208Y-83649847D01*
X76384398Y-84649847D02*
X76384398Y-83649847D01*
X76384398Y-83649847D02*
X76955826Y-84649847D01*
X76955826Y-84649847D02*
X76955826Y-83649847D01*
X77432017Y-84649847D02*
X77432017Y-83649847D01*
X77432017Y-83649847D02*
X77812969Y-83649847D01*
X77812969Y-83649847D02*
X77908207Y-83697466D01*
X77908207Y-83697466D02*
X77955826Y-83745085D01*
X77955826Y-83745085D02*
X78003445Y-83840323D01*
X78003445Y-83840323D02*
X78003445Y-83983180D01*
X78003445Y-83983180D02*
X77955826Y-84078418D01*
X77955826Y-84078418D02*
X77908207Y-84126037D01*
X77908207Y-84126037D02*
X77812969Y-84173656D01*
X77812969Y-84173656D02*
X77432017Y-84173656D01*
X78432017Y-83649847D02*
X78432017Y-84459370D01*
X78432017Y-84459370D02*
X78479636Y-84554608D01*
X78479636Y-84554608D02*
X78527255Y-84602228D01*
X78527255Y-84602228D02*
X78622493Y-84649847D01*
X78622493Y-84649847D02*
X78812969Y-84649847D01*
X78812969Y-84649847D02*
X78908207Y-84602228D01*
X78908207Y-84602228D02*
X78955826Y-84554608D01*
X78955826Y-84554608D02*
X79003445Y-84459370D01*
X79003445Y-84459370D02*
X79003445Y-83649847D01*
X79336779Y-83649847D02*
X79908207Y-83649847D01*
X79622493Y-84649847D02*
X79622493Y-83649847D01*
X73241541Y-85259791D02*
X73860588Y-85259791D01*
X73860588Y-85259791D02*
X73527255Y-85640743D01*
X73527255Y-85640743D02*
X73670112Y-85640743D01*
X73670112Y-85640743D02*
X73765350Y-85688362D01*
X73765350Y-85688362D02*
X73812969Y-85735981D01*
X73812969Y-85735981D02*
X73860588Y-85831219D01*
X73860588Y-85831219D02*
X73860588Y-86069314D01*
X73860588Y-86069314D02*
X73812969Y-86164552D01*
X73812969Y-86164552D02*
X73765350Y-86212172D01*
X73765350Y-86212172D02*
X73670112Y-86259791D01*
X73670112Y-86259791D02*
X73384398Y-86259791D01*
X73384398Y-86259791D02*
X73289160Y-86212172D01*
X73289160Y-86212172D02*
X73241541Y-86164552D01*
X74241541Y-85974076D02*
X74717731Y-85974076D01*
X74146303Y-86259791D02*
X74479636Y-85259791D01*
X74479636Y-85259791D02*
X74812969Y-86259791D01*
X75908208Y-86259791D02*
X75908208Y-85259791D01*
X75908208Y-85259791D02*
X76241541Y-85974076D01*
X76241541Y-85974076D02*
X76574874Y-85259791D01*
X76574874Y-85259791D02*
X76574874Y-86259791D01*
X77003446Y-85974076D02*
X77479636Y-85974076D01*
X76908208Y-86259791D02*
X77241541Y-85259791D01*
X77241541Y-85259791D02*
X77574874Y-86259791D01*
X77812970Y-85259791D02*
X78479636Y-86259791D01*
X78479636Y-85259791D02*
X77812970Y-86259791D01*
D13*
X80391004Y-114654761D02*
X80391004Y-115273809D01*
X80391004Y-115273809D02*
X79091004Y-115273809D01*
X79710052Y-114221428D02*
X79710052Y-113788094D01*
X80391004Y-113602380D02*
X80391004Y-114221428D01*
X80391004Y-114221428D02*
X79091004Y-114221428D01*
X79091004Y-114221428D02*
X79091004Y-113602380D01*
X80391004Y-113045238D02*
X79091004Y-113045238D01*
X79091004Y-113045238D02*
X79091004Y-112735714D01*
X79091004Y-112735714D02*
X79152909Y-112550000D01*
X79152909Y-112550000D02*
X79276719Y-112426190D01*
X79276719Y-112426190D02*
X79400528Y-112364285D01*
X79400528Y-112364285D02*
X79648147Y-112302381D01*
X79648147Y-112302381D02*
X79833861Y-112302381D01*
X79833861Y-112302381D02*
X80081480Y-112364285D01*
X80081480Y-112364285D02*
X80205290Y-112426190D01*
X80205290Y-112426190D02*
X80329100Y-112550000D01*
X80329100Y-112550000D02*
X80391004Y-112735714D01*
X80391004Y-112735714D02*
X80391004Y-113045238D01*
X79091004Y-111188095D02*
X79091004Y-111435714D01*
X79091004Y-111435714D02*
X79152909Y-111559523D01*
X79152909Y-111559523D02*
X79214814Y-111621428D01*
X79214814Y-111621428D02*
X79400528Y-111745238D01*
X79400528Y-111745238D02*
X79648147Y-111807142D01*
X79648147Y-111807142D02*
X80143385Y-111807142D01*
X80143385Y-111807142D02*
X80267195Y-111745238D01*
X80267195Y-111745238D02*
X80329100Y-111683333D01*
X80329100Y-111683333D02*
X80391004Y-111559523D01*
X80391004Y-111559523D02*
X80391004Y-111311904D01*
X80391004Y-111311904D02*
X80329100Y-111188095D01*
X80329100Y-111188095D02*
X80267195Y-111126190D01*
X80267195Y-111126190D02*
X80143385Y-111064285D01*
X80143385Y-111064285D02*
X79833861Y-111064285D01*
X79833861Y-111064285D02*
X79710052Y-111126190D01*
X79710052Y-111126190D02*
X79648147Y-111188095D01*
X79648147Y-111188095D02*
X79586242Y-111311904D01*
X79586242Y-111311904D02*
X79586242Y-111559523D01*
X79586242Y-111559523D02*
X79648147Y-111683333D01*
X79648147Y-111683333D02*
X79710052Y-111745238D01*
X79710052Y-111745238D02*
X79833861Y-111807142D01*
D14*
X75076988Y-65699427D02*
X75005560Y-65770856D01*
X75005560Y-65770856D02*
X74791274Y-65842284D01*
X74791274Y-65842284D02*
X74648417Y-65842284D01*
X74648417Y-65842284D02*
X74434131Y-65770856D01*
X74434131Y-65770856D02*
X74291274Y-65627998D01*
X74291274Y-65627998D02*
X74219845Y-65485141D01*
X74219845Y-65485141D02*
X74148417Y-65199427D01*
X74148417Y-65199427D02*
X74148417Y-64985141D01*
X74148417Y-64985141D02*
X74219845Y-64699427D01*
X74219845Y-64699427D02*
X74291274Y-64556570D01*
X74291274Y-64556570D02*
X74434131Y-64413713D01*
X74434131Y-64413713D02*
X74648417Y-64342284D01*
X74648417Y-64342284D02*
X74791274Y-64342284D01*
X74791274Y-64342284D02*
X75005560Y-64413713D01*
X75005560Y-64413713D02*
X75076988Y-64485141D01*
X75719845Y-65842284D02*
X75719845Y-64342284D01*
X77291274Y-65842284D02*
X76791274Y-65127998D01*
X76434131Y-65842284D02*
X76434131Y-64342284D01*
X76434131Y-64342284D02*
X77005560Y-64342284D01*
X77005560Y-64342284D02*
X77148417Y-64413713D01*
X77148417Y-64413713D02*
X77219846Y-64485141D01*
X77219846Y-64485141D02*
X77291274Y-64627998D01*
X77291274Y-64627998D02*
X77291274Y-64842284D01*
X77291274Y-64842284D02*
X77219846Y-64985141D01*
X77219846Y-64985141D02*
X77148417Y-65056570D01*
X77148417Y-65056570D02*
X77005560Y-65127998D01*
X77005560Y-65127998D02*
X76434131Y-65127998D01*
X78791274Y-65699427D02*
X78719846Y-65770856D01*
X78719846Y-65770856D02*
X78505560Y-65842284D01*
X78505560Y-65842284D02*
X78362703Y-65842284D01*
X78362703Y-65842284D02*
X78148417Y-65770856D01*
X78148417Y-65770856D02*
X78005560Y-65627998D01*
X78005560Y-65627998D02*
X77934131Y-65485141D01*
X77934131Y-65485141D02*
X77862703Y-65199427D01*
X77862703Y-65199427D02*
X77862703Y-64985141D01*
X77862703Y-64985141D02*
X77934131Y-64699427D01*
X77934131Y-64699427D02*
X78005560Y-64556570D01*
X78005560Y-64556570D02*
X78148417Y-64413713D01*
X78148417Y-64413713D02*
X78362703Y-64342284D01*
X78362703Y-64342284D02*
X78505560Y-64342284D01*
X78505560Y-64342284D02*
X78719846Y-64413713D01*
X78719846Y-64413713D02*
X78791274Y-64485141D01*
X79362703Y-65413713D02*
X80076989Y-65413713D01*
X79219846Y-65842284D02*
X79719846Y-64342284D01*
X79719846Y-64342284D02*
X80219846Y-65842284D01*
X80719845Y-65842284D02*
X80719845Y-64342284D01*
X80719845Y-64342284D02*
X81076988Y-64342284D01*
X81076988Y-64342284D02*
X81291274Y-64413713D01*
X81291274Y-64413713D02*
X81434131Y-64556570D01*
X81434131Y-64556570D02*
X81505560Y-64699427D01*
X81505560Y-64699427D02*
X81576988Y-64985141D01*
X81576988Y-64985141D02*
X81576988Y-65199427D01*
X81576988Y-65199427D02*
X81505560Y-65485141D01*
X81505560Y-65485141D02*
X81434131Y-65627998D01*
X81434131Y-65627998D02*
X81291274Y-65770856D01*
X81291274Y-65770856D02*
X81076988Y-65842284D01*
X81076988Y-65842284D02*
X80719845Y-65842284D01*
X82219845Y-65842284D02*
X82219845Y-64342284D01*
X82862703Y-65413713D02*
X83576989Y-65413713D01*
X82719846Y-65842284D02*
X83219846Y-64342284D01*
X83219846Y-64342284D02*
X83719846Y-65842284D01*
X84219845Y-65842284D02*
X84219845Y-64342284D01*
X84219845Y-64342284D02*
X85076988Y-65842284D01*
X85076988Y-65842284D02*
X85076988Y-64342284D01*
X87791274Y-65842284D02*
X87291274Y-65127998D01*
X86934131Y-65842284D02*
X86934131Y-64342284D01*
X86934131Y-64342284D02*
X87505560Y-64342284D01*
X87505560Y-64342284D02*
X87648417Y-64413713D01*
X87648417Y-64413713D02*
X87719846Y-64485141D01*
X87719846Y-64485141D02*
X87791274Y-64627998D01*
X87791274Y-64627998D02*
X87791274Y-64842284D01*
X87791274Y-64842284D02*
X87719846Y-64985141D01*
X87719846Y-64985141D02*
X87648417Y-65056570D01*
X87648417Y-65056570D02*
X87505560Y-65127998D01*
X87505560Y-65127998D02*
X86934131Y-65127998D01*
X88362703Y-65413713D02*
X89076989Y-65413713D01*
X88219846Y-65842284D02*
X88719846Y-64342284D01*
X88719846Y-64342284D02*
X89219846Y-65842284D01*
X89505560Y-64342284D02*
X90005560Y-65842284D01*
X90005560Y-65842284D02*
X90505560Y-64342284D01*
X91005559Y-65056570D02*
X91505559Y-65056570D01*
X91719845Y-65842284D02*
X91005559Y-65842284D01*
X91005559Y-65842284D02*
X91005559Y-64342284D01*
X91005559Y-64342284D02*
X91719845Y-64342284D01*
X74148417Y-68185772D02*
X74362703Y-68257200D01*
X74362703Y-68257200D02*
X74719845Y-68257200D01*
X74719845Y-68257200D02*
X74862703Y-68185772D01*
X74862703Y-68185772D02*
X74934131Y-68114343D01*
X74934131Y-68114343D02*
X75005560Y-67971486D01*
X75005560Y-67971486D02*
X75005560Y-67828629D01*
X75005560Y-67828629D02*
X74934131Y-67685772D01*
X74934131Y-67685772D02*
X74862703Y-67614343D01*
X74862703Y-67614343D02*
X74719845Y-67542914D01*
X74719845Y-67542914D02*
X74434131Y-67471486D01*
X74434131Y-67471486D02*
X74291274Y-67400057D01*
X74291274Y-67400057D02*
X74219845Y-67328629D01*
X74219845Y-67328629D02*
X74148417Y-67185772D01*
X74148417Y-67185772D02*
X74148417Y-67042914D01*
X74148417Y-67042914D02*
X74219845Y-66900057D01*
X74219845Y-66900057D02*
X74291274Y-66828629D01*
X74291274Y-66828629D02*
X74434131Y-66757200D01*
X74434131Y-66757200D02*
X74791274Y-66757200D01*
X74791274Y-66757200D02*
X75005560Y-66828629D01*
X75934131Y-67542914D02*
X75934131Y-68257200D01*
X75434131Y-66757200D02*
X75934131Y-67542914D01*
X75934131Y-67542914D02*
X76434131Y-66757200D01*
X76862702Y-68185772D02*
X77076988Y-68257200D01*
X77076988Y-68257200D02*
X77434130Y-68257200D01*
X77434130Y-68257200D02*
X77576988Y-68185772D01*
X77576988Y-68185772D02*
X77648416Y-68114343D01*
X77648416Y-68114343D02*
X77719845Y-67971486D01*
X77719845Y-67971486D02*
X77719845Y-67828629D01*
X77719845Y-67828629D02*
X77648416Y-67685772D01*
X77648416Y-67685772D02*
X77576988Y-67614343D01*
X77576988Y-67614343D02*
X77434130Y-67542914D01*
X77434130Y-67542914D02*
X77148416Y-67471486D01*
X77148416Y-67471486D02*
X77005559Y-67400057D01*
X77005559Y-67400057D02*
X76934130Y-67328629D01*
X76934130Y-67328629D02*
X76862702Y-67185772D01*
X76862702Y-67185772D02*
X76862702Y-67042914D01*
X76862702Y-67042914D02*
X76934130Y-66900057D01*
X76934130Y-66900057D02*
X77005559Y-66828629D01*
X77005559Y-66828629D02*
X77148416Y-66757200D01*
X77148416Y-66757200D02*
X77505559Y-66757200D01*
X77505559Y-66757200D02*
X77719845Y-66828629D01*
X78148416Y-66757200D02*
X79005559Y-66757200D01*
X78576987Y-68257200D02*
X78576987Y-66757200D01*
X79505558Y-67471486D02*
X80005558Y-67471486D01*
X80219844Y-68257200D02*
X79505558Y-68257200D01*
X79505558Y-68257200D02*
X79505558Y-66757200D01*
X79505558Y-66757200D02*
X80219844Y-66757200D01*
X80862701Y-68257200D02*
X80862701Y-66757200D01*
X80862701Y-66757200D02*
X81362701Y-67828629D01*
X81362701Y-67828629D02*
X81862701Y-66757200D01*
X81862701Y-66757200D02*
X81862701Y-68257200D01*
X84576987Y-68114343D02*
X84505559Y-68185772D01*
X84505559Y-68185772D02*
X84291273Y-68257200D01*
X84291273Y-68257200D02*
X84148416Y-68257200D01*
X84148416Y-68257200D02*
X83934130Y-68185772D01*
X83934130Y-68185772D02*
X83791273Y-68042914D01*
X83791273Y-68042914D02*
X83719844Y-67900057D01*
X83719844Y-67900057D02*
X83648416Y-67614343D01*
X83648416Y-67614343D02*
X83648416Y-67400057D01*
X83648416Y-67400057D02*
X83719844Y-67114343D01*
X83719844Y-67114343D02*
X83791273Y-66971486D01*
X83791273Y-66971486D02*
X83934130Y-66828629D01*
X83934130Y-66828629D02*
X84148416Y-66757200D01*
X84148416Y-66757200D02*
X84291273Y-66757200D01*
X84291273Y-66757200D02*
X84505559Y-66828629D01*
X84505559Y-66828629D02*
X84576987Y-66900057D01*
X85505559Y-66757200D02*
X85791273Y-66757200D01*
X85791273Y-66757200D02*
X85934130Y-66828629D01*
X85934130Y-66828629D02*
X86076987Y-66971486D01*
X86076987Y-66971486D02*
X86148416Y-67257200D01*
X86148416Y-67257200D02*
X86148416Y-67757200D01*
X86148416Y-67757200D02*
X86076987Y-68042914D01*
X86076987Y-68042914D02*
X85934130Y-68185772D01*
X85934130Y-68185772D02*
X85791273Y-68257200D01*
X85791273Y-68257200D02*
X85505559Y-68257200D01*
X85505559Y-68257200D02*
X85362702Y-68185772D01*
X85362702Y-68185772D02*
X85219844Y-68042914D01*
X85219844Y-68042914D02*
X85148416Y-67757200D01*
X85148416Y-67757200D02*
X85148416Y-67257200D01*
X85148416Y-67257200D02*
X85219844Y-66971486D01*
X85219844Y-66971486D02*
X85362702Y-66828629D01*
X85362702Y-66828629D02*
X85505559Y-66757200D01*
X86791273Y-68257200D02*
X86791273Y-66757200D01*
X86791273Y-66757200D02*
X87648416Y-68257200D01*
X87648416Y-68257200D02*
X87648416Y-66757200D01*
X88148417Y-66757200D02*
X89005560Y-66757200D01*
X88576988Y-68257200D02*
X88576988Y-66757200D01*
X90362702Y-68257200D02*
X89862702Y-67542914D01*
X89505559Y-68257200D02*
X89505559Y-66757200D01*
X89505559Y-66757200D02*
X90076988Y-66757200D01*
X90076988Y-66757200D02*
X90219845Y-66828629D01*
X90219845Y-66828629D02*
X90291274Y-66900057D01*
X90291274Y-66900057D02*
X90362702Y-67042914D01*
X90362702Y-67042914D02*
X90362702Y-67257200D01*
X90362702Y-67257200D02*
X90291274Y-67400057D01*
X90291274Y-67400057D02*
X90219845Y-67471486D01*
X90219845Y-67471486D02*
X90076988Y-67542914D01*
X90076988Y-67542914D02*
X89505559Y-67542914D01*
X91291274Y-66757200D02*
X91576988Y-66757200D01*
X91576988Y-66757200D02*
X91719845Y-66828629D01*
X91719845Y-66828629D02*
X91862702Y-66971486D01*
X91862702Y-66971486D02*
X91934131Y-67257200D01*
X91934131Y-67257200D02*
X91934131Y-67757200D01*
X91934131Y-67757200D02*
X91862702Y-68042914D01*
X91862702Y-68042914D02*
X91719845Y-68185772D01*
X91719845Y-68185772D02*
X91576988Y-68257200D01*
X91576988Y-68257200D02*
X91291274Y-68257200D01*
X91291274Y-68257200D02*
X91148417Y-68185772D01*
X91148417Y-68185772D02*
X91005559Y-68042914D01*
X91005559Y-68042914D02*
X90934131Y-67757200D01*
X90934131Y-67757200D02*
X90934131Y-67257200D01*
X90934131Y-67257200D02*
X91005559Y-66971486D01*
X91005559Y-66971486D02*
X91148417Y-66828629D01*
X91148417Y-66828629D02*
X91291274Y-66757200D01*
X93291274Y-68257200D02*
X92576988Y-68257200D01*
X92576988Y-68257200D02*
X92576988Y-66757200D01*
X94505560Y-68257200D02*
X93791274Y-68257200D01*
X93791274Y-68257200D02*
X93791274Y-66757200D01*
X95005560Y-67471486D02*
X95505560Y-67471486D01*
X95719846Y-68257200D02*
X95005560Y-68257200D01*
X95005560Y-68257200D02*
X95005560Y-66757200D01*
X95005560Y-66757200D02*
X95719846Y-66757200D01*
X97219846Y-68257200D02*
X96719846Y-67542914D01*
X96362703Y-68257200D02*
X96362703Y-66757200D01*
X96362703Y-66757200D02*
X96934132Y-66757200D01*
X96934132Y-66757200D02*
X97076989Y-66828629D01*
X97076989Y-66828629D02*
X97148418Y-66900057D01*
X97148418Y-66900057D02*
X97219846Y-67042914D01*
X97219846Y-67042914D02*
X97219846Y-67257200D01*
X97219846Y-67257200D02*
X97148418Y-67400057D01*
X97148418Y-67400057D02*
X97076989Y-67471486D01*
X97076989Y-67471486D02*
X96934132Y-67542914D01*
X96934132Y-67542914D02*
X96362703Y-67542914D01*
X98862703Y-67257200D02*
X99219846Y-68257200D01*
X99219846Y-68257200D02*
X99576989Y-67257200D01*
X100934132Y-68257200D02*
X100076989Y-68257200D01*
X100505560Y-68257200D02*
X100505560Y-66757200D01*
X100505560Y-66757200D02*
X100362703Y-66971486D01*
X100362703Y-66971486D02*
X100219846Y-67114343D01*
X100219846Y-67114343D02*
X100076989Y-67185772D01*
X101576988Y-68114343D02*
X101648417Y-68185772D01*
X101648417Y-68185772D02*
X101576988Y-68257200D01*
X101576988Y-68257200D02*
X101505560Y-68185772D01*
X101505560Y-68185772D02*
X101576988Y-68114343D01*
X101576988Y-68114343D02*
X101576988Y-68257200D01*
X102576989Y-66757200D02*
X102719846Y-66757200D01*
X102719846Y-66757200D02*
X102862703Y-66828629D01*
X102862703Y-66828629D02*
X102934132Y-66900057D01*
X102934132Y-66900057D02*
X103005560Y-67042914D01*
X103005560Y-67042914D02*
X103076989Y-67328629D01*
X103076989Y-67328629D02*
X103076989Y-67685772D01*
X103076989Y-67685772D02*
X103005560Y-67971486D01*
X103005560Y-67971486D02*
X102934132Y-68114343D01*
X102934132Y-68114343D02*
X102862703Y-68185772D01*
X102862703Y-68185772D02*
X102719846Y-68257200D01*
X102719846Y-68257200D02*
X102576989Y-68257200D01*
X102576989Y-68257200D02*
X102434132Y-68185772D01*
X102434132Y-68185772D02*
X102362703Y-68114343D01*
X102362703Y-68114343D02*
X102291274Y-67971486D01*
X102291274Y-67971486D02*
X102219846Y-67685772D01*
X102219846Y-67685772D02*
X102219846Y-67328629D01*
X102219846Y-67328629D02*
X102291274Y-67042914D01*
X102291274Y-67042914D02*
X102362703Y-66900057D01*
X102362703Y-66900057D02*
X102434132Y-66828629D01*
X102434132Y-66828629D02*
X102576989Y-66757200D01*
D12*
X88466666Y-87754819D02*
X88466666Y-88469104D01*
X88466666Y-88469104D02*
X88419047Y-88611961D01*
X88419047Y-88611961D02*
X88323809Y-88707200D01*
X88323809Y-88707200D02*
X88180952Y-88754819D01*
X88180952Y-88754819D02*
X88085714Y-88754819D01*
X89466666Y-88754819D02*
X88895238Y-88754819D01*
X89180952Y-88754819D02*
X89180952Y-87754819D01*
X89180952Y-87754819D02*
X89085714Y-87897676D01*
X89085714Y-87897676D02*
X88990476Y-87992914D01*
X88990476Y-87992914D02*
X88895238Y-88040533D01*
X92433333Y-98159580D02*
X92385714Y-98207200D01*
X92385714Y-98207200D02*
X92242857Y-98254819D01*
X92242857Y-98254819D02*
X92147619Y-98254819D01*
X92147619Y-98254819D02*
X92004762Y-98207200D01*
X92004762Y-98207200D02*
X91909524Y-98111961D01*
X91909524Y-98111961D02*
X91861905Y-98016723D01*
X91861905Y-98016723D02*
X91814286Y-97826247D01*
X91814286Y-97826247D02*
X91814286Y-97683390D01*
X91814286Y-97683390D02*
X91861905Y-97492914D01*
X91861905Y-97492914D02*
X91909524Y-97397676D01*
X91909524Y-97397676D02*
X92004762Y-97302438D01*
X92004762Y-97302438D02*
X92147619Y-97254819D01*
X92147619Y-97254819D02*
X92242857Y-97254819D01*
X92242857Y-97254819D02*
X92385714Y-97302438D01*
X92385714Y-97302438D02*
X92433333Y-97350057D01*
X92814286Y-97350057D02*
X92861905Y-97302438D01*
X92861905Y-97302438D02*
X92957143Y-97254819D01*
X92957143Y-97254819D02*
X93195238Y-97254819D01*
X93195238Y-97254819D02*
X93290476Y-97302438D01*
X93290476Y-97302438D02*
X93338095Y-97350057D01*
X93338095Y-97350057D02*
X93385714Y-97445295D01*
X93385714Y-97445295D02*
X93385714Y-97540533D01*
X93385714Y-97540533D02*
X93338095Y-97683390D01*
X93338095Y-97683390D02*
X92766667Y-98254819D01*
X92766667Y-98254819D02*
X93385714Y-98254819D01*
X97633333Y-82159580D02*
X97585714Y-82207200D01*
X97585714Y-82207200D02*
X97442857Y-82254819D01*
X97442857Y-82254819D02*
X97347619Y-82254819D01*
X97347619Y-82254819D02*
X97204762Y-82207200D01*
X97204762Y-82207200D02*
X97109524Y-82111961D01*
X97109524Y-82111961D02*
X97061905Y-82016723D01*
X97061905Y-82016723D02*
X97014286Y-81826247D01*
X97014286Y-81826247D02*
X97014286Y-81683390D01*
X97014286Y-81683390D02*
X97061905Y-81492914D01*
X97061905Y-81492914D02*
X97109524Y-81397676D01*
X97109524Y-81397676D02*
X97204762Y-81302438D01*
X97204762Y-81302438D02*
X97347619Y-81254819D01*
X97347619Y-81254819D02*
X97442857Y-81254819D01*
X97442857Y-81254819D02*
X97585714Y-81302438D01*
X97585714Y-81302438D02*
X97633333Y-81350057D01*
X98585714Y-82254819D02*
X98014286Y-82254819D01*
X98300000Y-82254819D02*
X98300000Y-81254819D01*
X98300000Y-81254819D02*
X98204762Y-81397676D01*
X98204762Y-81397676D02*
X98109524Y-81492914D01*
X98109524Y-81492914D02*
X98014286Y-81540533D01*
X102159580Y-100566666D02*
X102207200Y-100614285D01*
X102207200Y-100614285D02*
X102254819Y-100757142D01*
X102254819Y-100757142D02*
X102254819Y-100852380D01*
X102254819Y-100852380D02*
X102207200Y-100995237D01*
X102207200Y-100995237D02*
X102111961Y-101090475D01*
X102111961Y-101090475D02*
X102016723Y-101138094D01*
X102016723Y-101138094D02*
X101826247Y-101185713D01*
X101826247Y-101185713D02*
X101683390Y-101185713D01*
X101683390Y-101185713D02*
X101492914Y-101138094D01*
X101492914Y-101138094D02*
X101397676Y-101090475D01*
X101397676Y-101090475D02*
X101302438Y-100995237D01*
X101302438Y-100995237D02*
X101254819Y-100852380D01*
X101254819Y-100852380D02*
X101254819Y-100757142D01*
X101254819Y-100757142D02*
X101302438Y-100614285D01*
X101302438Y-100614285D02*
X101350057Y-100566666D01*
X101588152Y-99709523D02*
X102254819Y-99709523D01*
X101207200Y-99947618D02*
X101921485Y-100185713D01*
X101921485Y-100185713D02*
X101921485Y-99566666D01*
X93759580Y-89366666D02*
X93807200Y-89414285D01*
X93807200Y-89414285D02*
X93854819Y-89557142D01*
X93854819Y-89557142D02*
X93854819Y-89652380D01*
X93854819Y-89652380D02*
X93807200Y-89795237D01*
X93807200Y-89795237D02*
X93711961Y-89890475D01*
X93711961Y-89890475D02*
X93616723Y-89938094D01*
X93616723Y-89938094D02*
X93426247Y-89985713D01*
X93426247Y-89985713D02*
X93283390Y-89985713D01*
X93283390Y-89985713D02*
X93092914Y-89938094D01*
X93092914Y-89938094D02*
X92997676Y-89890475D01*
X92997676Y-89890475D02*
X92902438Y-89795237D01*
X92902438Y-89795237D02*
X92854819Y-89652380D01*
X92854819Y-89652380D02*
X92854819Y-89557142D01*
X92854819Y-89557142D02*
X92902438Y-89414285D01*
X92902438Y-89414285D02*
X92950057Y-89366666D01*
X92854819Y-89033332D02*
X92854819Y-88414285D01*
X92854819Y-88414285D02*
X93235771Y-88747618D01*
X93235771Y-88747618D02*
X93235771Y-88604761D01*
X93235771Y-88604761D02*
X93283390Y-88509523D01*
X93283390Y-88509523D02*
X93331009Y-88461904D01*
X93331009Y-88461904D02*
X93426247Y-88414285D01*
X93426247Y-88414285D02*
X93664342Y-88414285D01*
X93664342Y-88414285D02*
X93759580Y-88461904D01*
X93759580Y-88461904D02*
X93807200Y-88509523D01*
X93807200Y-88509523D02*
X93854819Y-88604761D01*
X93854819Y-88604761D02*
X93854819Y-88890475D01*
X93854819Y-88890475D02*
X93807200Y-88985713D01*
X93807200Y-88985713D02*
X93759580Y-89033332D01*
X98854819Y-95461904D02*
X99664342Y-95461904D01*
X99664342Y-95461904D02*
X99759580Y-95414285D01*
X99759580Y-95414285D02*
X99807200Y-95366666D01*
X99807200Y-95366666D02*
X99854819Y-95271428D01*
X99854819Y-95271428D02*
X99854819Y-95080952D01*
X99854819Y-95080952D02*
X99807200Y-94985714D01*
X99807200Y-94985714D02*
X99759580Y-94938095D01*
X99759580Y-94938095D02*
X99664342Y-94890476D01*
X99664342Y-94890476D02*
X98854819Y-94890476D01*
X99854819Y-93890476D02*
X99854819Y-94461904D01*
X99854819Y-94176190D02*
X98854819Y-94176190D01*
X98854819Y-94176190D02*
X98997676Y-94271428D01*
X98997676Y-94271428D02*
X99092914Y-94366666D01*
X99092914Y-94366666D02*
X99140533Y-94461904D01*
X131261905Y-97254819D02*
X131261905Y-96254819D01*
X131261905Y-96254819D02*
X131500000Y-96254819D01*
X131500000Y-96254819D02*
X131642857Y-96302438D01*
X131642857Y-96302438D02*
X131738095Y-96397676D01*
X131738095Y-96397676D02*
X131785714Y-96492914D01*
X131785714Y-96492914D02*
X131833333Y-96683390D01*
X131833333Y-96683390D02*
X131833333Y-96826247D01*
X131833333Y-96826247D02*
X131785714Y-97016723D01*
X131785714Y-97016723D02*
X131738095Y-97111961D01*
X131738095Y-97111961D02*
X131642857Y-97207200D01*
X131642857Y-97207200D02*
X131500000Y-97254819D01*
X131500000Y-97254819D02*
X131261905Y-97254819D01*
X132785714Y-97254819D02*
X132214286Y-97254819D01*
X132500000Y-97254819D02*
X132500000Y-96254819D01*
X132500000Y-96254819D02*
X132404762Y-96397676D01*
X132404762Y-96397676D02*
X132309524Y-96492914D01*
X132309524Y-96492914D02*
X132214286Y-96540533D01*
X124654819Y-117333333D02*
X125369104Y-117333333D01*
X125369104Y-117333333D02*
X125511961Y-117380952D01*
X125511961Y-117380952D02*
X125607200Y-117476190D01*
X125607200Y-117476190D02*
X125654819Y-117619047D01*
X125654819Y-117619047D02*
X125654819Y-117714285D01*
X124654819Y-116952380D02*
X124654819Y-116333333D01*
X124654819Y-116333333D02*
X125035771Y-116666666D01*
X125035771Y-116666666D02*
X125035771Y-116523809D01*
X125035771Y-116523809D02*
X125083390Y-116428571D01*
X125083390Y-116428571D02*
X125131009Y-116380952D01*
X125131009Y-116380952D02*
X125226247Y-116333333D01*
X125226247Y-116333333D02*
X125464342Y-116333333D01*
X125464342Y-116333333D02*
X125559580Y-116380952D01*
X125559580Y-116380952D02*
X125607200Y-116428571D01*
X125607200Y-116428571D02*
X125654819Y-116523809D01*
X125654819Y-116523809D02*
X125654819Y-116809523D01*
X125654819Y-116809523D02*
X125607200Y-116904761D01*
X125607200Y-116904761D02*
X125559580Y-116952380D01*
X73866666Y-114454819D02*
X73866666Y-115169104D01*
X73866666Y-115169104D02*
X73819047Y-115311961D01*
X73819047Y-115311961D02*
X73723809Y-115407200D01*
X73723809Y-115407200D02*
X73580952Y-115454819D01*
X73580952Y-115454819D02*
X73485714Y-115454819D01*
X74485714Y-114883390D02*
X74390476Y-114835771D01*
X74390476Y-114835771D02*
X74342857Y-114788152D01*
X74342857Y-114788152D02*
X74295238Y-114692914D01*
X74295238Y-114692914D02*
X74295238Y-114645295D01*
X74295238Y-114645295D02*
X74342857Y-114550057D01*
X74342857Y-114550057D02*
X74390476Y-114502438D01*
X74390476Y-114502438D02*
X74485714Y-114454819D01*
X74485714Y-114454819D02*
X74676190Y-114454819D01*
X74676190Y-114454819D02*
X74771428Y-114502438D01*
X74771428Y-114502438D02*
X74819047Y-114550057D01*
X74819047Y-114550057D02*
X74866666Y-114645295D01*
X74866666Y-114645295D02*
X74866666Y-114692914D01*
X74866666Y-114692914D02*
X74819047Y-114788152D01*
X74819047Y-114788152D02*
X74771428Y-114835771D01*
X74771428Y-114835771D02*
X74676190Y-114883390D01*
X74676190Y-114883390D02*
X74485714Y-114883390D01*
X74485714Y-114883390D02*
X74390476Y-114931009D01*
X74390476Y-114931009D02*
X74342857Y-114978628D01*
X74342857Y-114978628D02*
X74295238Y-115073866D01*
X74295238Y-115073866D02*
X74295238Y-115264342D01*
X74295238Y-115264342D02*
X74342857Y-115359580D01*
X74342857Y-115359580D02*
X74390476Y-115407200D01*
X74390476Y-115407200D02*
X74485714Y-115454819D01*
X74485714Y-115454819D02*
X74676190Y-115454819D01*
X74676190Y-115454819D02*
X74771428Y-115407200D01*
X74771428Y-115407200D02*
X74819047Y-115359580D01*
X74819047Y-115359580D02*
X74866666Y-115264342D01*
X74866666Y-115264342D02*
X74866666Y-115073866D01*
X74866666Y-115073866D02*
X74819047Y-114978628D01*
X74819047Y-114978628D02*
X74771428Y-114931009D01*
X74771428Y-114931009D02*
X74676190Y-114883390D01*
X85254819Y-117333333D02*
X85969104Y-117333333D01*
X85969104Y-117333333D02*
X86111961Y-117380952D01*
X86111961Y-117380952D02*
X86207200Y-117476190D01*
X86207200Y-117476190D02*
X86254819Y-117619047D01*
X86254819Y-117619047D02*
X86254819Y-117714285D01*
X85254819Y-116952380D02*
X85254819Y-116285714D01*
X85254819Y-116285714D02*
X86254819Y-116714285D01*
X98254819Y-117333333D02*
X98969104Y-117333333D01*
X98969104Y-117333333D02*
X99111961Y-117380952D01*
X99111961Y-117380952D02*
X99207200Y-117476190D01*
X99207200Y-117476190D02*
X99254819Y-117619047D01*
X99254819Y-117619047D02*
X99254819Y-117714285D01*
X98254819Y-116428571D02*
X98254819Y-116619047D01*
X98254819Y-116619047D02*
X98302438Y-116714285D01*
X98302438Y-116714285D02*
X98350057Y-116761904D01*
X98350057Y-116761904D02*
X98492914Y-116857142D01*
X98492914Y-116857142D02*
X98683390Y-116904761D01*
X98683390Y-116904761D02*
X99064342Y-116904761D01*
X99064342Y-116904761D02*
X99159580Y-116857142D01*
X99159580Y-116857142D02*
X99207200Y-116809523D01*
X99207200Y-116809523D02*
X99254819Y-116714285D01*
X99254819Y-116714285D02*
X99254819Y-116523809D01*
X99254819Y-116523809D02*
X99207200Y-116428571D01*
X99207200Y-116428571D02*
X99159580Y-116380952D01*
X99159580Y-116380952D02*
X99064342Y-116333333D01*
X99064342Y-116333333D02*
X98826247Y-116333333D01*
X98826247Y-116333333D02*
X98731009Y-116380952D01*
X98731009Y-116380952D02*
X98683390Y-116428571D01*
X98683390Y-116428571D02*
X98635771Y-116523809D01*
X98635771Y-116523809D02*
X98635771Y-116714285D01*
X98635771Y-116714285D02*
X98683390Y-116809523D01*
X98683390Y-116809523D02*
X98731009Y-116857142D01*
X98731009Y-116857142D02*
X98826247Y-116904761D01*
X111254819Y-117333333D02*
X111969104Y-117333333D01*
X111969104Y-117333333D02*
X112111961Y-117380952D01*
X112111961Y-117380952D02*
X112207200Y-117476190D01*
X112207200Y-117476190D02*
X112254819Y-117619047D01*
X112254819Y-117619047D02*
X112254819Y-117714285D01*
X111254819Y-116380952D02*
X111254819Y-116857142D01*
X111254819Y-116857142D02*
X111731009Y-116904761D01*
X111731009Y-116904761D02*
X111683390Y-116857142D01*
X111683390Y-116857142D02*
X111635771Y-116761904D01*
X111635771Y-116761904D02*
X111635771Y-116523809D01*
X111635771Y-116523809D02*
X111683390Y-116428571D01*
X111683390Y-116428571D02*
X111731009Y-116380952D01*
X111731009Y-116380952D02*
X111826247Y-116333333D01*
X111826247Y-116333333D02*
X112064342Y-116333333D01*
X112064342Y-116333333D02*
X112159580Y-116380952D01*
X112159580Y-116380952D02*
X112207200Y-116428571D01*
X112207200Y-116428571D02*
X112254819Y-116523809D01*
X112254819Y-116523809D02*
X112254819Y-116761904D01*
X112254819Y-116761904D02*
X112207200Y-116857142D01*
X112207200Y-116857142D02*
X112159580Y-116904761D01*
X137854819Y-117333333D02*
X138569104Y-117333333D01*
X138569104Y-117333333D02*
X138711961Y-117380952D01*
X138711961Y-117380952D02*
X138807200Y-117476190D01*
X138807200Y-117476190D02*
X138854819Y-117619047D01*
X138854819Y-117619047D02*
X138854819Y-117714285D01*
X137950057Y-116904761D02*
X137902438Y-116857142D01*
X137902438Y-116857142D02*
X137854819Y-116761904D01*
X137854819Y-116761904D02*
X137854819Y-116523809D01*
X137854819Y-116523809D02*
X137902438Y-116428571D01*
X137902438Y-116428571D02*
X137950057Y-116380952D01*
X137950057Y-116380952D02*
X138045295Y-116333333D01*
X138045295Y-116333333D02*
X138140533Y-116333333D01*
X138140533Y-116333333D02*
X138283390Y-116380952D01*
X138283390Y-116380952D02*
X138854819Y-116952380D01*
X138854819Y-116952380D02*
X138854819Y-116333333D01*
X105957142Y-97454819D02*
X105623809Y-96978628D01*
X105385714Y-97454819D02*
X105385714Y-96454819D01*
X105385714Y-96454819D02*
X105766666Y-96454819D01*
X105766666Y-96454819D02*
X105861904Y-96502438D01*
X105861904Y-96502438D02*
X105909523Y-96550057D01*
X105909523Y-96550057D02*
X105957142Y-96645295D01*
X105957142Y-96645295D02*
X105957142Y-96788152D01*
X105957142Y-96788152D02*
X105909523Y-96883390D01*
X105909523Y-96883390D02*
X105861904Y-96931009D01*
X105861904Y-96931009D02*
X105766666Y-96978628D01*
X105766666Y-96978628D02*
X105385714Y-96978628D01*
X106909523Y-97454819D02*
X106338095Y-97454819D01*
X106623809Y-97454819D02*
X106623809Y-96454819D01*
X106623809Y-96454819D02*
X106528571Y-96597676D01*
X106528571Y-96597676D02*
X106433333Y-96692914D01*
X106433333Y-96692914D02*
X106338095Y-96740533D01*
X107290476Y-96550057D02*
X107338095Y-96502438D01*
X107338095Y-96502438D02*
X107433333Y-96454819D01*
X107433333Y-96454819D02*
X107671428Y-96454819D01*
X107671428Y-96454819D02*
X107766666Y-96502438D01*
X107766666Y-96502438D02*
X107814285Y-96550057D01*
X107814285Y-96550057D02*
X107861904Y-96645295D01*
X107861904Y-96645295D02*
X107861904Y-96740533D01*
X107861904Y-96740533D02*
X107814285Y-96883390D01*
X107814285Y-96883390D02*
X107242857Y-97454819D01*
X107242857Y-97454819D02*
X107861904Y-97454819D01*
X113854819Y-74642857D02*
X113378628Y-74976190D01*
X113854819Y-75214285D02*
X112854819Y-75214285D01*
X112854819Y-75214285D02*
X112854819Y-74833333D01*
X112854819Y-74833333D02*
X112902438Y-74738095D01*
X112902438Y-74738095D02*
X112950057Y-74690476D01*
X112950057Y-74690476D02*
X113045295Y-74642857D01*
X113045295Y-74642857D02*
X113188152Y-74642857D01*
X113188152Y-74642857D02*
X113283390Y-74690476D01*
X113283390Y-74690476D02*
X113331009Y-74738095D01*
X113331009Y-74738095D02*
X113378628Y-74833333D01*
X113378628Y-74833333D02*
X113378628Y-75214285D01*
X113854819Y-73690476D02*
X113854819Y-74261904D01*
X113854819Y-73976190D02*
X112854819Y-73976190D01*
X112854819Y-73976190D02*
X112997676Y-74071428D01*
X112997676Y-74071428D02*
X113092914Y-74166666D01*
X113092914Y-74166666D02*
X113140533Y-74261904D01*
X113854819Y-72738095D02*
X113854819Y-73309523D01*
X113854819Y-73023809D02*
X112854819Y-73023809D01*
X112854819Y-73023809D02*
X112997676Y-73119047D01*
X112997676Y-73119047D02*
X113092914Y-73214285D01*
X113092914Y-73214285D02*
X113140533Y-73309523D01*
X106157142Y-82254819D02*
X105823809Y-81778628D01*
X105585714Y-82254819D02*
X105585714Y-81254819D01*
X105585714Y-81254819D02*
X105966666Y-81254819D01*
X105966666Y-81254819D02*
X106061904Y-81302438D01*
X106061904Y-81302438D02*
X106109523Y-81350057D01*
X106109523Y-81350057D02*
X106157142Y-81445295D01*
X106157142Y-81445295D02*
X106157142Y-81588152D01*
X106157142Y-81588152D02*
X106109523Y-81683390D01*
X106109523Y-81683390D02*
X106061904Y-81731009D01*
X106061904Y-81731009D02*
X105966666Y-81778628D01*
X105966666Y-81778628D02*
X105585714Y-81778628D01*
X107109523Y-82254819D02*
X106538095Y-82254819D01*
X106823809Y-82254819D02*
X106823809Y-81254819D01*
X106823809Y-81254819D02*
X106728571Y-81397676D01*
X106728571Y-81397676D02*
X106633333Y-81492914D01*
X106633333Y-81492914D02*
X106538095Y-81540533D01*
X107728571Y-81254819D02*
X107823809Y-81254819D01*
X107823809Y-81254819D02*
X107919047Y-81302438D01*
X107919047Y-81302438D02*
X107966666Y-81350057D01*
X107966666Y-81350057D02*
X108014285Y-81445295D01*
X108014285Y-81445295D02*
X108061904Y-81635771D01*
X108061904Y-81635771D02*
X108061904Y-81873866D01*
X108061904Y-81873866D02*
X108014285Y-82064342D01*
X108014285Y-82064342D02*
X107966666Y-82159580D01*
X107966666Y-82159580D02*
X107919047Y-82207200D01*
X107919047Y-82207200D02*
X107823809Y-82254819D01*
X107823809Y-82254819D02*
X107728571Y-82254819D01*
X107728571Y-82254819D02*
X107633333Y-82207200D01*
X107633333Y-82207200D02*
X107585714Y-82159580D01*
X107585714Y-82159580D02*
X107538095Y-82064342D01*
X107538095Y-82064342D02*
X107490476Y-81873866D01*
X107490476Y-81873866D02*
X107490476Y-81635771D01*
X107490476Y-81635771D02*
X107538095Y-81445295D01*
X107538095Y-81445295D02*
X107585714Y-81350057D01*
X107585714Y-81350057D02*
X107633333Y-81302438D01*
X107633333Y-81302438D02*
X107728571Y-81254819D01*
X120654819Y-80166666D02*
X120178628Y-80499999D01*
X120654819Y-80738094D02*
X119654819Y-80738094D01*
X119654819Y-80738094D02*
X119654819Y-80357142D01*
X119654819Y-80357142D02*
X119702438Y-80261904D01*
X119702438Y-80261904D02*
X119750057Y-80214285D01*
X119750057Y-80214285D02*
X119845295Y-80166666D01*
X119845295Y-80166666D02*
X119988152Y-80166666D01*
X119988152Y-80166666D02*
X120083390Y-80214285D01*
X120083390Y-80214285D02*
X120131009Y-80261904D01*
X120131009Y-80261904D02*
X120178628Y-80357142D01*
X120178628Y-80357142D02*
X120178628Y-80738094D01*
X120654819Y-79690475D02*
X120654819Y-79499999D01*
X120654819Y-79499999D02*
X120607200Y-79404761D01*
X120607200Y-79404761D02*
X120559580Y-79357142D01*
X120559580Y-79357142D02*
X120416723Y-79261904D01*
X120416723Y-79261904D02*
X120226247Y-79214285D01*
X120226247Y-79214285D02*
X119845295Y-79214285D01*
X119845295Y-79214285D02*
X119750057Y-79261904D01*
X119750057Y-79261904D02*
X119702438Y-79309523D01*
X119702438Y-79309523D02*
X119654819Y-79404761D01*
X119654819Y-79404761D02*
X119654819Y-79595237D01*
X119654819Y-79595237D02*
X119702438Y-79690475D01*
X119702438Y-79690475D02*
X119750057Y-79738094D01*
X119750057Y-79738094D02*
X119845295Y-79785713D01*
X119845295Y-79785713D02*
X120083390Y-79785713D01*
X120083390Y-79785713D02*
X120178628Y-79738094D01*
X120178628Y-79738094D02*
X120226247Y-79690475D01*
X120226247Y-79690475D02*
X120273866Y-79595237D01*
X120273866Y-79595237D02*
X120273866Y-79404761D01*
X120273866Y-79404761D02*
X120226247Y-79309523D01*
X120226247Y-79309523D02*
X120178628Y-79261904D01*
X120178628Y-79261904D02*
X120083390Y-79214285D01*
X119084819Y-103166666D02*
X118608628Y-103499999D01*
X119084819Y-103738094D02*
X118084819Y-103738094D01*
X118084819Y-103738094D02*
X118084819Y-103357142D01*
X118084819Y-103357142D02*
X118132438Y-103261904D01*
X118132438Y-103261904D02*
X118180057Y-103214285D01*
X118180057Y-103214285D02*
X118275295Y-103166666D01*
X118275295Y-103166666D02*
X118418152Y-103166666D01*
X118418152Y-103166666D02*
X118513390Y-103214285D01*
X118513390Y-103214285D02*
X118561009Y-103261904D01*
X118561009Y-103261904D02*
X118608628Y-103357142D01*
X118608628Y-103357142D02*
X118608628Y-103738094D01*
X118513390Y-102595237D02*
X118465771Y-102690475D01*
X118465771Y-102690475D02*
X118418152Y-102738094D01*
X118418152Y-102738094D02*
X118322914Y-102785713D01*
X118322914Y-102785713D02*
X118275295Y-102785713D01*
X118275295Y-102785713D02*
X118180057Y-102738094D01*
X118180057Y-102738094D02*
X118132438Y-102690475D01*
X118132438Y-102690475D02*
X118084819Y-102595237D01*
X118084819Y-102595237D02*
X118084819Y-102404761D01*
X118084819Y-102404761D02*
X118132438Y-102309523D01*
X118132438Y-102309523D02*
X118180057Y-102261904D01*
X118180057Y-102261904D02*
X118275295Y-102214285D01*
X118275295Y-102214285D02*
X118322914Y-102214285D01*
X118322914Y-102214285D02*
X118418152Y-102261904D01*
X118418152Y-102261904D02*
X118465771Y-102309523D01*
X118465771Y-102309523D02*
X118513390Y-102404761D01*
X118513390Y-102404761D02*
X118513390Y-102595237D01*
X118513390Y-102595237D02*
X118561009Y-102690475D01*
X118561009Y-102690475D02*
X118608628Y-102738094D01*
X118608628Y-102738094D02*
X118703866Y-102785713D01*
X118703866Y-102785713D02*
X118894342Y-102785713D01*
X118894342Y-102785713D02*
X118989580Y-102738094D01*
X118989580Y-102738094D02*
X119037200Y-102690475D01*
X119037200Y-102690475D02*
X119084819Y-102595237D01*
X119084819Y-102595237D02*
X119084819Y-102404761D01*
X119084819Y-102404761D02*
X119037200Y-102309523D01*
X119037200Y-102309523D02*
X118989580Y-102261904D01*
X118989580Y-102261904D02*
X118894342Y-102214285D01*
X118894342Y-102214285D02*
X118703866Y-102214285D01*
X118703866Y-102214285D02*
X118608628Y-102261904D01*
X118608628Y-102261904D02*
X118561009Y-102309523D01*
X118561009Y-102309523D02*
X118513390Y-102404761D01*
X126854819Y-73966666D02*
X126378628Y-74299999D01*
X126854819Y-74538094D02*
X125854819Y-74538094D01*
X125854819Y-74538094D02*
X125854819Y-74157142D01*
X125854819Y-74157142D02*
X125902438Y-74061904D01*
X125902438Y-74061904D02*
X125950057Y-74014285D01*
X125950057Y-74014285D02*
X126045295Y-73966666D01*
X126045295Y-73966666D02*
X126188152Y-73966666D01*
X126188152Y-73966666D02*
X126283390Y-74014285D01*
X126283390Y-74014285D02*
X126331009Y-74061904D01*
X126331009Y-74061904D02*
X126378628Y-74157142D01*
X126378628Y-74157142D02*
X126378628Y-74538094D01*
X125854819Y-73633332D02*
X125854819Y-72966666D01*
X125854819Y-72966666D02*
X126854819Y-73395237D01*
X119084819Y-87906666D02*
X118608628Y-88239999D01*
X119084819Y-88478094D02*
X118084819Y-88478094D01*
X118084819Y-88478094D02*
X118084819Y-88097142D01*
X118084819Y-88097142D02*
X118132438Y-88001904D01*
X118132438Y-88001904D02*
X118180057Y-87954285D01*
X118180057Y-87954285D02*
X118275295Y-87906666D01*
X118275295Y-87906666D02*
X118418152Y-87906666D01*
X118418152Y-87906666D02*
X118513390Y-87954285D01*
X118513390Y-87954285D02*
X118561009Y-88001904D01*
X118561009Y-88001904D02*
X118608628Y-88097142D01*
X118608628Y-88097142D02*
X118608628Y-88478094D01*
X118084819Y-87049523D02*
X118084819Y-87239999D01*
X118084819Y-87239999D02*
X118132438Y-87335237D01*
X118132438Y-87335237D02*
X118180057Y-87382856D01*
X118180057Y-87382856D02*
X118322914Y-87478094D01*
X118322914Y-87478094D02*
X118513390Y-87525713D01*
X118513390Y-87525713D02*
X118894342Y-87525713D01*
X118894342Y-87525713D02*
X118989580Y-87478094D01*
X118989580Y-87478094D02*
X119037200Y-87430475D01*
X119037200Y-87430475D02*
X119084819Y-87335237D01*
X119084819Y-87335237D02*
X119084819Y-87144761D01*
X119084819Y-87144761D02*
X119037200Y-87049523D01*
X119037200Y-87049523D02*
X118989580Y-87001904D01*
X118989580Y-87001904D02*
X118894342Y-86954285D01*
X118894342Y-86954285D02*
X118656247Y-86954285D01*
X118656247Y-86954285D02*
X118561009Y-87001904D01*
X118561009Y-87001904D02*
X118513390Y-87049523D01*
X118513390Y-87049523D02*
X118465771Y-87144761D01*
X118465771Y-87144761D02*
X118465771Y-87335237D01*
X118465771Y-87335237D02*
X118513390Y-87430475D01*
X118513390Y-87430475D02*
X118561009Y-87478094D01*
X118561009Y-87478094D02*
X118656247Y-87525713D01*
X128654819Y-73966666D02*
X128178628Y-74299999D01*
X128654819Y-74538094D02*
X127654819Y-74538094D01*
X127654819Y-74538094D02*
X127654819Y-74157142D01*
X127654819Y-74157142D02*
X127702438Y-74061904D01*
X127702438Y-74061904D02*
X127750057Y-74014285D01*
X127750057Y-74014285D02*
X127845295Y-73966666D01*
X127845295Y-73966666D02*
X127988152Y-73966666D01*
X127988152Y-73966666D02*
X128083390Y-74014285D01*
X128083390Y-74014285D02*
X128131009Y-74061904D01*
X128131009Y-74061904D02*
X128178628Y-74157142D01*
X128178628Y-74157142D02*
X128178628Y-74538094D01*
X127654819Y-73061904D02*
X127654819Y-73538094D01*
X127654819Y-73538094D02*
X128131009Y-73585713D01*
X128131009Y-73585713D02*
X128083390Y-73538094D01*
X128083390Y-73538094D02*
X128035771Y-73442856D01*
X128035771Y-73442856D02*
X128035771Y-73204761D01*
X128035771Y-73204761D02*
X128083390Y-73109523D01*
X128083390Y-73109523D02*
X128131009Y-73061904D01*
X128131009Y-73061904D02*
X128226247Y-73014285D01*
X128226247Y-73014285D02*
X128464342Y-73014285D01*
X128464342Y-73014285D02*
X128559580Y-73061904D01*
X128559580Y-73061904D02*
X128607200Y-73109523D01*
X128607200Y-73109523D02*
X128654819Y-73204761D01*
X128654819Y-73204761D02*
X128654819Y-73442856D01*
X128654819Y-73442856D02*
X128607200Y-73538094D01*
X128607200Y-73538094D02*
X128559580Y-73585713D01*
X136203333Y-97714819D02*
X135870000Y-97238628D01*
X135631905Y-97714819D02*
X135631905Y-96714819D01*
X135631905Y-96714819D02*
X136012857Y-96714819D01*
X136012857Y-96714819D02*
X136108095Y-96762438D01*
X136108095Y-96762438D02*
X136155714Y-96810057D01*
X136155714Y-96810057D02*
X136203333Y-96905295D01*
X136203333Y-96905295D02*
X136203333Y-97048152D01*
X136203333Y-97048152D02*
X136155714Y-97143390D01*
X136155714Y-97143390D02*
X136108095Y-97191009D01*
X136108095Y-97191009D02*
X136012857Y-97238628D01*
X136012857Y-97238628D02*
X135631905Y-97238628D01*
X137060476Y-97048152D02*
X137060476Y-97714819D01*
X136822381Y-96667200D02*
X136584286Y-97381485D01*
X136584286Y-97381485D02*
X137203333Y-97381485D01*
X135254819Y-80566666D02*
X134778628Y-80899999D01*
X135254819Y-81138094D02*
X134254819Y-81138094D01*
X134254819Y-81138094D02*
X134254819Y-80757142D01*
X134254819Y-80757142D02*
X134302438Y-80661904D01*
X134302438Y-80661904D02*
X134350057Y-80614285D01*
X134350057Y-80614285D02*
X134445295Y-80566666D01*
X134445295Y-80566666D02*
X134588152Y-80566666D01*
X134588152Y-80566666D02*
X134683390Y-80614285D01*
X134683390Y-80614285D02*
X134731009Y-80661904D01*
X134731009Y-80661904D02*
X134778628Y-80757142D01*
X134778628Y-80757142D02*
X134778628Y-81138094D01*
X134254819Y-80233332D02*
X134254819Y-79614285D01*
X134254819Y-79614285D02*
X134635771Y-79947618D01*
X134635771Y-79947618D02*
X134635771Y-79804761D01*
X134635771Y-79804761D02*
X134683390Y-79709523D01*
X134683390Y-79709523D02*
X134731009Y-79661904D01*
X134731009Y-79661904D02*
X134826247Y-79614285D01*
X134826247Y-79614285D02*
X135064342Y-79614285D01*
X135064342Y-79614285D02*
X135159580Y-79661904D01*
X135159580Y-79661904D02*
X135207200Y-79709523D01*
X135207200Y-79709523D02*
X135254819Y-79804761D01*
X135254819Y-79804761D02*
X135254819Y-80090475D01*
X135254819Y-80090475D02*
X135207200Y-80185713D01*
X135207200Y-80185713D02*
X135159580Y-80233332D01*
X134484819Y-87966666D02*
X134008628Y-88299999D01*
X134484819Y-88538094D02*
X133484819Y-88538094D01*
X133484819Y-88538094D02*
X133484819Y-88157142D01*
X133484819Y-88157142D02*
X133532438Y-88061904D01*
X133532438Y-88061904D02*
X133580057Y-88014285D01*
X133580057Y-88014285D02*
X133675295Y-87966666D01*
X133675295Y-87966666D02*
X133818152Y-87966666D01*
X133818152Y-87966666D02*
X133913390Y-88014285D01*
X133913390Y-88014285D02*
X133961009Y-88061904D01*
X133961009Y-88061904D02*
X134008628Y-88157142D01*
X134008628Y-88157142D02*
X134008628Y-88538094D01*
X133580057Y-87585713D02*
X133532438Y-87538094D01*
X133532438Y-87538094D02*
X133484819Y-87442856D01*
X133484819Y-87442856D02*
X133484819Y-87204761D01*
X133484819Y-87204761D02*
X133532438Y-87109523D01*
X133532438Y-87109523D02*
X133580057Y-87061904D01*
X133580057Y-87061904D02*
X133675295Y-87014285D01*
X133675295Y-87014285D02*
X133770533Y-87014285D01*
X133770533Y-87014285D02*
X133913390Y-87061904D01*
X133913390Y-87061904D02*
X134484819Y-87633332D01*
X134484819Y-87633332D02*
X134484819Y-87014285D01*
X141854819Y-73966666D02*
X141378628Y-74299999D01*
X141854819Y-74538094D02*
X140854819Y-74538094D01*
X140854819Y-74538094D02*
X140854819Y-74157142D01*
X140854819Y-74157142D02*
X140902438Y-74061904D01*
X140902438Y-74061904D02*
X140950057Y-74014285D01*
X140950057Y-74014285D02*
X141045295Y-73966666D01*
X141045295Y-73966666D02*
X141188152Y-73966666D01*
X141188152Y-73966666D02*
X141283390Y-74014285D01*
X141283390Y-74014285D02*
X141331009Y-74061904D01*
X141331009Y-74061904D02*
X141378628Y-74157142D01*
X141378628Y-74157142D02*
X141378628Y-74538094D01*
X141854819Y-73014285D02*
X141854819Y-73585713D01*
X141854819Y-73299999D02*
X140854819Y-73299999D01*
X140854819Y-73299999D02*
X140997676Y-73395237D01*
X140997676Y-73395237D02*
X141092914Y-73490475D01*
X141092914Y-73490475D02*
X141140533Y-73585713D01*
X112304761Y-97550057D02*
X112209523Y-97502438D01*
X112209523Y-97502438D02*
X112114285Y-97407200D01*
X112114285Y-97407200D02*
X111971428Y-97264342D01*
X111971428Y-97264342D02*
X111876190Y-97216723D01*
X111876190Y-97216723D02*
X111780952Y-97216723D01*
X111828571Y-97454819D02*
X111733333Y-97407200D01*
X111733333Y-97407200D02*
X111638095Y-97311961D01*
X111638095Y-97311961D02*
X111590476Y-97121485D01*
X111590476Y-97121485D02*
X111590476Y-96788152D01*
X111590476Y-96788152D02*
X111638095Y-96597676D01*
X111638095Y-96597676D02*
X111733333Y-96502438D01*
X111733333Y-96502438D02*
X111828571Y-96454819D01*
X111828571Y-96454819D02*
X112019047Y-96454819D01*
X112019047Y-96454819D02*
X112114285Y-96502438D01*
X112114285Y-96502438D02*
X112209523Y-96597676D01*
X112209523Y-96597676D02*
X112257142Y-96788152D01*
X112257142Y-96788152D02*
X112257142Y-97121485D01*
X112257142Y-97121485D02*
X112209523Y-97311961D01*
X112209523Y-97311961D02*
X112114285Y-97407200D01*
X112114285Y-97407200D02*
X112019047Y-97454819D01*
X112019047Y-97454819D02*
X111828571Y-97454819D01*
X113114285Y-96454819D02*
X112923809Y-96454819D01*
X112923809Y-96454819D02*
X112828571Y-96502438D01*
X112828571Y-96502438D02*
X112780952Y-96550057D01*
X112780952Y-96550057D02*
X112685714Y-96692914D01*
X112685714Y-96692914D02*
X112638095Y-96883390D01*
X112638095Y-96883390D02*
X112638095Y-97264342D01*
X112638095Y-97264342D02*
X112685714Y-97359580D01*
X112685714Y-97359580D02*
X112733333Y-97407200D01*
X112733333Y-97407200D02*
X112828571Y-97454819D01*
X112828571Y-97454819D02*
X113019047Y-97454819D01*
X113019047Y-97454819D02*
X113114285Y-97407200D01*
X113114285Y-97407200D02*
X113161904Y-97359580D01*
X113161904Y-97359580D02*
X113209523Y-97264342D01*
X113209523Y-97264342D02*
X113209523Y-97026247D01*
X113209523Y-97026247D02*
X113161904Y-96931009D01*
X113161904Y-96931009D02*
X113114285Y-96883390D01*
X113114285Y-96883390D02*
X113019047Y-96835771D01*
X113019047Y-96835771D02*
X112828571Y-96835771D01*
X112828571Y-96835771D02*
X112733333Y-96883390D01*
X112733333Y-96883390D02*
X112685714Y-96931009D01*
X112685714Y-96931009D02*
X112638095Y-97026247D01*
X112304761Y-82150057D02*
X112209523Y-82102438D01*
X112209523Y-82102438D02*
X112114285Y-82007200D01*
X112114285Y-82007200D02*
X111971428Y-81864342D01*
X111971428Y-81864342D02*
X111876190Y-81816723D01*
X111876190Y-81816723D02*
X111780952Y-81816723D01*
X111828571Y-82054819D02*
X111733333Y-82007200D01*
X111733333Y-82007200D02*
X111638095Y-81911961D01*
X111638095Y-81911961D02*
X111590476Y-81721485D01*
X111590476Y-81721485D02*
X111590476Y-81388152D01*
X111590476Y-81388152D02*
X111638095Y-81197676D01*
X111638095Y-81197676D02*
X111733333Y-81102438D01*
X111733333Y-81102438D02*
X111828571Y-81054819D01*
X111828571Y-81054819D02*
X112019047Y-81054819D01*
X112019047Y-81054819D02*
X112114285Y-81102438D01*
X112114285Y-81102438D02*
X112209523Y-81197676D01*
X112209523Y-81197676D02*
X112257142Y-81388152D01*
X112257142Y-81388152D02*
X112257142Y-81721485D01*
X112257142Y-81721485D02*
X112209523Y-81911961D01*
X112209523Y-81911961D02*
X112114285Y-82007200D01*
X112114285Y-82007200D02*
X112019047Y-82054819D01*
X112019047Y-82054819D02*
X111828571Y-82054819D01*
X113161904Y-81054819D02*
X112685714Y-81054819D01*
X112685714Y-81054819D02*
X112638095Y-81531009D01*
X112638095Y-81531009D02*
X112685714Y-81483390D01*
X112685714Y-81483390D02*
X112780952Y-81435771D01*
X112780952Y-81435771D02*
X113019047Y-81435771D01*
X113019047Y-81435771D02*
X113114285Y-81483390D01*
X113114285Y-81483390D02*
X113161904Y-81531009D01*
X113161904Y-81531009D02*
X113209523Y-81626247D01*
X113209523Y-81626247D02*
X113209523Y-81864342D01*
X113209523Y-81864342D02*
X113161904Y-81959580D01*
X113161904Y-81959580D02*
X113114285Y-82007200D01*
X113114285Y-82007200D02*
X113019047Y-82054819D01*
X113019047Y-82054819D02*
X112780952Y-82054819D01*
X112780952Y-82054819D02*
X112685714Y-82007200D01*
X112685714Y-82007200D02*
X112638095Y-81959580D01*
X125904761Y-97350057D02*
X125809523Y-97302438D01*
X125809523Y-97302438D02*
X125714285Y-97207200D01*
X125714285Y-97207200D02*
X125571428Y-97064342D01*
X125571428Y-97064342D02*
X125476190Y-97016723D01*
X125476190Y-97016723D02*
X125380952Y-97016723D01*
X125428571Y-97254819D02*
X125333333Y-97207200D01*
X125333333Y-97207200D02*
X125238095Y-97111961D01*
X125238095Y-97111961D02*
X125190476Y-96921485D01*
X125190476Y-96921485D02*
X125190476Y-96588152D01*
X125190476Y-96588152D02*
X125238095Y-96397676D01*
X125238095Y-96397676D02*
X125333333Y-96302438D01*
X125333333Y-96302438D02*
X125428571Y-96254819D01*
X125428571Y-96254819D02*
X125619047Y-96254819D01*
X125619047Y-96254819D02*
X125714285Y-96302438D01*
X125714285Y-96302438D02*
X125809523Y-96397676D01*
X125809523Y-96397676D02*
X125857142Y-96588152D01*
X125857142Y-96588152D02*
X125857142Y-96921485D01*
X125857142Y-96921485D02*
X125809523Y-97111961D01*
X125809523Y-97111961D02*
X125714285Y-97207200D01*
X125714285Y-97207200D02*
X125619047Y-97254819D01*
X125619047Y-97254819D02*
X125428571Y-97254819D01*
X126714285Y-96588152D02*
X126714285Y-97254819D01*
X126476190Y-96207200D02*
X126238095Y-96921485D01*
X126238095Y-96921485D02*
X126857142Y-96921485D01*
X125904761Y-81950057D02*
X125809523Y-81902438D01*
X125809523Y-81902438D02*
X125714285Y-81807200D01*
X125714285Y-81807200D02*
X125571428Y-81664342D01*
X125571428Y-81664342D02*
X125476190Y-81616723D01*
X125476190Y-81616723D02*
X125380952Y-81616723D01*
X125428571Y-81854819D02*
X125333333Y-81807200D01*
X125333333Y-81807200D02*
X125238095Y-81711961D01*
X125238095Y-81711961D02*
X125190476Y-81521485D01*
X125190476Y-81521485D02*
X125190476Y-81188152D01*
X125190476Y-81188152D02*
X125238095Y-80997676D01*
X125238095Y-80997676D02*
X125333333Y-80902438D01*
X125333333Y-80902438D02*
X125428571Y-80854819D01*
X125428571Y-80854819D02*
X125619047Y-80854819D01*
X125619047Y-80854819D02*
X125714285Y-80902438D01*
X125714285Y-80902438D02*
X125809523Y-80997676D01*
X125809523Y-80997676D02*
X125857142Y-81188152D01*
X125857142Y-81188152D02*
X125857142Y-81521485D01*
X125857142Y-81521485D02*
X125809523Y-81711961D01*
X125809523Y-81711961D02*
X125714285Y-81807200D01*
X125714285Y-81807200D02*
X125619047Y-81854819D01*
X125619047Y-81854819D02*
X125428571Y-81854819D01*
X126190476Y-80854819D02*
X126809523Y-80854819D01*
X126809523Y-80854819D02*
X126476190Y-81235771D01*
X126476190Y-81235771D02*
X126619047Y-81235771D01*
X126619047Y-81235771D02*
X126714285Y-81283390D01*
X126714285Y-81283390D02*
X126761904Y-81331009D01*
X126761904Y-81331009D02*
X126809523Y-81426247D01*
X126809523Y-81426247D02*
X126809523Y-81664342D01*
X126809523Y-81664342D02*
X126761904Y-81759580D01*
X126761904Y-81759580D02*
X126714285Y-81807200D01*
X126714285Y-81807200D02*
X126619047Y-81854819D01*
X126619047Y-81854819D02*
X126333333Y-81854819D01*
X126333333Y-81854819D02*
X126238095Y-81807200D01*
X126238095Y-81807200D02*
X126190476Y-81759580D01*
X141304761Y-97350057D02*
X141209523Y-97302438D01*
X141209523Y-97302438D02*
X141114285Y-97207200D01*
X141114285Y-97207200D02*
X140971428Y-97064342D01*
X140971428Y-97064342D02*
X140876190Y-97016723D01*
X140876190Y-97016723D02*
X140780952Y-97016723D01*
X140828571Y-97254819D02*
X140733333Y-97207200D01*
X140733333Y-97207200D02*
X140638095Y-97111961D01*
X140638095Y-97111961D02*
X140590476Y-96921485D01*
X140590476Y-96921485D02*
X140590476Y-96588152D01*
X140590476Y-96588152D02*
X140638095Y-96397676D01*
X140638095Y-96397676D02*
X140733333Y-96302438D01*
X140733333Y-96302438D02*
X140828571Y-96254819D01*
X140828571Y-96254819D02*
X141019047Y-96254819D01*
X141019047Y-96254819D02*
X141114285Y-96302438D01*
X141114285Y-96302438D02*
X141209523Y-96397676D01*
X141209523Y-96397676D02*
X141257142Y-96588152D01*
X141257142Y-96588152D02*
X141257142Y-96921485D01*
X141257142Y-96921485D02*
X141209523Y-97111961D01*
X141209523Y-97111961D02*
X141114285Y-97207200D01*
X141114285Y-97207200D02*
X141019047Y-97254819D01*
X141019047Y-97254819D02*
X140828571Y-97254819D01*
X141638095Y-96350057D02*
X141685714Y-96302438D01*
X141685714Y-96302438D02*
X141780952Y-96254819D01*
X141780952Y-96254819D02*
X142019047Y-96254819D01*
X142019047Y-96254819D02*
X142114285Y-96302438D01*
X142114285Y-96302438D02*
X142161904Y-96350057D01*
X142161904Y-96350057D02*
X142209523Y-96445295D01*
X142209523Y-96445295D02*
X142209523Y-96540533D01*
X142209523Y-96540533D02*
X142161904Y-96683390D01*
X142161904Y-96683390D02*
X141590476Y-97254819D01*
X141590476Y-97254819D02*
X142209523Y-97254819D01*
X141304761Y-82150057D02*
X141209523Y-82102438D01*
X141209523Y-82102438D02*
X141114285Y-82007200D01*
X141114285Y-82007200D02*
X140971428Y-81864342D01*
X140971428Y-81864342D02*
X140876190Y-81816723D01*
X140876190Y-81816723D02*
X140780952Y-81816723D01*
X140828571Y-82054819D02*
X140733333Y-82007200D01*
X140733333Y-82007200D02*
X140638095Y-81911961D01*
X140638095Y-81911961D02*
X140590476Y-81721485D01*
X140590476Y-81721485D02*
X140590476Y-81388152D01*
X140590476Y-81388152D02*
X140638095Y-81197676D01*
X140638095Y-81197676D02*
X140733333Y-81102438D01*
X140733333Y-81102438D02*
X140828571Y-81054819D01*
X140828571Y-81054819D02*
X141019047Y-81054819D01*
X141019047Y-81054819D02*
X141114285Y-81102438D01*
X141114285Y-81102438D02*
X141209523Y-81197676D01*
X141209523Y-81197676D02*
X141257142Y-81388152D01*
X141257142Y-81388152D02*
X141257142Y-81721485D01*
X141257142Y-81721485D02*
X141209523Y-81911961D01*
X141209523Y-81911961D02*
X141114285Y-82007200D01*
X141114285Y-82007200D02*
X141019047Y-82054819D01*
X141019047Y-82054819D02*
X140828571Y-82054819D01*
X142209523Y-82054819D02*
X141638095Y-82054819D01*
X141923809Y-82054819D02*
X141923809Y-81054819D01*
X141923809Y-81054819D02*
X141828571Y-81197676D01*
X141828571Y-81197676D02*
X141733333Y-81292914D01*
X141733333Y-81292914D02*
X141638095Y-81340533D01*
X146666666Y-70794819D02*
X146666666Y-71509104D01*
X146666666Y-71509104D02*
X146619047Y-71651961D01*
X146619047Y-71651961D02*
X146523809Y-71747200D01*
X146523809Y-71747200D02*
X146380952Y-71794819D01*
X146380952Y-71794819D02*
X146285714Y-71794819D01*
X147571428Y-71128152D02*
X147571428Y-71794819D01*
X147333333Y-70747200D02*
X147095238Y-71461485D01*
X147095238Y-71461485D02*
X147714285Y-71461485D01*
D15*
%TO.C,J1*%
X72600000Y-87600000D02*
X87300000Y-87600000D01*
X72600000Y-96800000D02*
X72600000Y-87600000D01*
X81400000Y-96800000D02*
X72600000Y-96800000D01*
X86450000Y-87400000D02*
X87500000Y-87400000D01*
X87300000Y-87600000D02*
X87300000Y-90200000D01*
X87300000Y-94100000D02*
X87300000Y-96800000D01*
X87300000Y-96800000D02*
X85400000Y-96800000D01*
X87500000Y-88450000D02*
X87500000Y-87400000D01*
%TO.C,C2*%
X96760000Y-100800000D02*
X96720000Y-100800000D01*
X96720000Y-102470000D02*
X96720000Y-99130000D01*
X96720000Y-99130000D02*
X91380000Y-99130000D01*
X91380000Y-102470000D02*
X96720000Y-102470000D01*
X91380000Y-99130000D02*
X91380000Y-102470000D01*
X91340000Y-100800000D02*
X91380000Y-100800000D01*
%TO.C,C1*%
X95290000Y-84600000D02*
X95330000Y-84600000D01*
X95330000Y-82930000D02*
X95330000Y-86270000D01*
X95330000Y-86270000D02*
X100670000Y-86270000D01*
X100670000Y-82930000D02*
X95330000Y-82930000D01*
X100670000Y-86270000D02*
X100670000Y-82930000D01*
X100710000Y-84600000D02*
X100670000Y-84600000D01*
%TO.C,C4*%
X100430000Y-97670000D02*
X100745000Y-97670000D01*
X100430000Y-97670000D02*
X100430000Y-92730000D01*
X102855000Y-97670000D02*
X103170000Y-97670000D01*
X103170000Y-97670000D02*
X103170000Y-92730000D01*
X100430000Y-92730000D02*
X100745000Y-92730000D01*
X102855000Y-92730000D02*
X103170000Y-92730000D01*
%TO.C,C3*%
X95530000Y-87630000D02*
X95530000Y-87945000D01*
X95530000Y-87630000D02*
X100470000Y-87630000D01*
X95530000Y-90055000D02*
X95530000Y-90370000D01*
X95530000Y-90370000D02*
X100470000Y-90370000D01*
X100470000Y-87630000D02*
X100470000Y-87945000D01*
X100470000Y-90055000D02*
X100470000Y-90370000D01*
%TO.C,U1*%
X98230000Y-94660000D02*
X98230000Y-93860000D01*
X98230000Y-94660000D02*
X98230000Y-95460000D01*
X98230000Y-95460000D02*
X97300000Y-95460000D01*
X95070000Y-95460000D02*
X95070000Y-94000000D01*
X95070000Y-95460000D02*
X96000000Y-95460000D01*
X98590000Y-93600000D02*
X98260000Y-93360000D01*
X98590000Y-93120000D01*
X98590000Y-93600000D01*
G36*
X98590000Y-93600000D02*
G01*
X98260000Y-93360000D01*
X98590000Y-93120000D01*
X98590000Y-93600000D01*
G37*
%TO.C,D1*%
X130530000Y-105720000D02*
X130530000Y-100280000D01*
X130660000Y-105720000D02*
X130530000Y-105720000D01*
X133340000Y-105720000D02*
X133470000Y-105720000D01*
X133470000Y-105720000D02*
X133470000Y-100280000D01*
X130530000Y-104940000D02*
X133470000Y-104940000D01*
X130530000Y-104820000D02*
X133470000Y-104820000D01*
X130530000Y-104700000D02*
X133470000Y-104700000D01*
X130530000Y-100280000D02*
X130660000Y-100280000D01*
X133470000Y-100280000D02*
X133340000Y-100280000D01*
%TO.C,J3*%
X126050000Y-116200000D02*
X126050000Y-128800000D01*
X126050000Y-128800000D02*
X136400000Y-128800000D01*
X136400000Y-121000000D02*
X136900000Y-121300000D01*
X136400000Y-126400000D02*
X136400000Y-121000000D01*
X136400000Y-127850000D02*
X136900000Y-128100000D01*
X136400000Y-128800000D02*
X136400000Y-127850000D01*
X136900000Y-116200000D02*
X126050000Y-116200000D01*
X136900000Y-121300000D02*
X136900000Y-116200000D01*
X136900000Y-126150000D02*
X136400000Y-126400000D01*
X136900000Y-126200000D02*
X136900000Y-126150000D01*
X136900000Y-128100000D02*
X136900000Y-126200000D01*
%TO.C,J8*%
X84435000Y-128000000D02*
X84435000Y-126100000D01*
X84435000Y-126100000D02*
X84435000Y-126050000D01*
X84435000Y-126050000D02*
X83935000Y-126300000D01*
X84435000Y-121200000D02*
X84435000Y-116100000D01*
X84435000Y-116100000D02*
X73585000Y-116100000D01*
X83935000Y-128700000D02*
X83935000Y-127750000D01*
X83935000Y-127750000D02*
X84435000Y-128000000D01*
X83935000Y-126300000D02*
X83935000Y-120900000D01*
X83935000Y-120900000D02*
X84435000Y-121200000D01*
X73585000Y-128700000D02*
X83935000Y-128700000D01*
X73585000Y-116100000D02*
X73585000Y-128700000D01*
%TO.C,J7*%
X97500000Y-128000000D02*
X97500000Y-126100000D01*
X97500000Y-126100000D02*
X97500000Y-126050000D01*
X97500000Y-126050000D02*
X97000000Y-126300000D01*
X97500000Y-121200000D02*
X97500000Y-116100000D01*
X97500000Y-116100000D02*
X86650000Y-116100000D01*
X97000000Y-128700000D02*
X97000000Y-127750000D01*
X97000000Y-127750000D02*
X97500000Y-128000000D01*
X97000000Y-126300000D02*
X97000000Y-120900000D01*
X97000000Y-120900000D02*
X97500000Y-121200000D01*
X86650000Y-128700000D02*
X97000000Y-128700000D01*
X86650000Y-116100000D02*
X86650000Y-128700000D01*
%TO.C,J6*%
X110500000Y-128000000D02*
X110500000Y-126100000D01*
X110500000Y-126100000D02*
X110500000Y-126050000D01*
X110500000Y-126050000D02*
X110000000Y-126300000D01*
X110500000Y-121200000D02*
X110500000Y-116100000D01*
X110500000Y-116100000D02*
X99650000Y-116100000D01*
X110000000Y-128700000D02*
X110000000Y-127750000D01*
X110000000Y-127750000D02*
X110500000Y-128000000D01*
X110000000Y-126300000D02*
X110000000Y-120900000D01*
X110000000Y-120900000D02*
X110500000Y-121200000D01*
X99650000Y-128700000D02*
X110000000Y-128700000D01*
X99650000Y-116100000D02*
X99650000Y-128700000D01*
%TO.C,J5*%
X123600000Y-128100000D02*
X123600000Y-126200000D01*
X123600000Y-126200000D02*
X123600000Y-126150000D01*
X123600000Y-126150000D02*
X123100000Y-126400000D01*
X123600000Y-121300000D02*
X123600000Y-116200000D01*
X123600000Y-116200000D02*
X112750000Y-116200000D01*
X123100000Y-128800000D02*
X123100000Y-127850000D01*
X123100000Y-127850000D02*
X123600000Y-128100000D01*
X123100000Y-126400000D02*
X123100000Y-121000000D01*
X123100000Y-121000000D02*
X123600000Y-121300000D01*
X112750000Y-128800000D02*
X123100000Y-128800000D01*
X112750000Y-116200000D02*
X112750000Y-128800000D01*
%TO.C,J2*%
X139250000Y-116200000D02*
X139250000Y-128800000D01*
X139250000Y-128800000D02*
X149600000Y-128800000D01*
X149600000Y-121000000D02*
X150100000Y-121300000D01*
X149600000Y-126400000D02*
X149600000Y-121000000D01*
X149600000Y-127850000D02*
X150100000Y-128100000D01*
X149600000Y-128800000D02*
X149600000Y-127850000D01*
X150100000Y-116200000D02*
X139250000Y-116200000D01*
X150100000Y-121300000D02*
X150100000Y-116200000D01*
X150100000Y-126150000D02*
X149600000Y-126400000D01*
X150100000Y-126200000D02*
X150100000Y-126150000D01*
X150100000Y-128100000D02*
X150100000Y-126200000D01*
%TO.C,R12*%
X107970000Y-99930000D02*
X107640000Y-99930000D01*
X105230000Y-99930000D02*
X105560000Y-99930000D01*
X107970000Y-106470000D02*
X107970000Y-99930000D01*
X107640000Y-106470000D02*
X107970000Y-106470000D01*
X105560000Y-106470000D02*
X105230000Y-106470000D01*
X105230000Y-106470000D02*
X105230000Y-99930000D01*
%TO.C,R11*%
X114430000Y-77300000D02*
X114760000Y-77300000D01*
X117170000Y-77300000D02*
X116840000Y-77300000D01*
X114430000Y-70760000D02*
X114430000Y-77300000D01*
X114760000Y-70760000D02*
X114430000Y-70760000D01*
X116840000Y-70760000D02*
X117170000Y-70760000D01*
X117170000Y-70760000D02*
X117170000Y-77300000D01*
%TO.C,R10*%
X108170000Y-84670000D02*
X107840000Y-84670000D01*
X105430000Y-84670000D02*
X105760000Y-84670000D01*
X108170000Y-91210000D02*
X108170000Y-84670000D01*
X107840000Y-91210000D02*
X108170000Y-91210000D01*
X105760000Y-91210000D02*
X105430000Y-91210000D01*
X105430000Y-91210000D02*
X105430000Y-84670000D01*
%TO.C,R9*%
X118730000Y-77300000D02*
X119060000Y-77300000D01*
X121470000Y-77300000D02*
X121140000Y-77300000D01*
X118730000Y-70760000D02*
X118730000Y-77300000D01*
X119060000Y-70760000D02*
X118730000Y-70760000D01*
X121140000Y-70760000D02*
X121470000Y-70760000D01*
X121470000Y-70760000D02*
X121470000Y-77300000D01*
%TO.C,R8*%
X119630000Y-106270000D02*
X119630000Y-99730000D01*
X119960000Y-106270000D02*
X119630000Y-106270000D01*
X122040000Y-106270000D02*
X122370000Y-106270000D01*
X122370000Y-106270000D02*
X122370000Y-99730000D01*
X119630000Y-99730000D02*
X119960000Y-99730000D01*
X122370000Y-99730000D02*
X122040000Y-99730000D01*
%TO.C,R7*%
X122530000Y-77500000D02*
X122860000Y-77500000D01*
X125270000Y-77500000D02*
X124940000Y-77500000D01*
X122530000Y-70960000D02*
X122530000Y-77500000D01*
X122860000Y-70960000D02*
X122530000Y-70960000D01*
X124940000Y-70960000D02*
X125270000Y-70960000D01*
X125270000Y-70960000D02*
X125270000Y-77500000D01*
%TO.C,R6*%
X122370000Y-84470000D02*
X122040000Y-84470000D01*
X119630000Y-84470000D02*
X119960000Y-84470000D01*
X122370000Y-91010000D02*
X122370000Y-84470000D01*
X122040000Y-91010000D02*
X122370000Y-91010000D01*
X119960000Y-91010000D02*
X119630000Y-91010000D01*
X119630000Y-91010000D02*
X119630000Y-84470000D01*
%TO.C,R5*%
X129230000Y-77500000D02*
X129560000Y-77500000D01*
X131970000Y-77500000D02*
X131640000Y-77500000D01*
X129230000Y-70960000D02*
X129230000Y-77500000D01*
X129560000Y-70960000D02*
X129230000Y-70960000D01*
X131640000Y-70960000D02*
X131970000Y-70960000D01*
X131970000Y-70960000D02*
X131970000Y-77500000D01*
%TO.C,R4*%
X135030000Y-106330000D02*
X135030000Y-99790000D01*
X135360000Y-106330000D02*
X135030000Y-106330000D01*
X137440000Y-106330000D02*
X137770000Y-106330000D01*
X137770000Y-106330000D02*
X137770000Y-99790000D01*
X135030000Y-99790000D02*
X135360000Y-99790000D01*
X137770000Y-99790000D02*
X137440000Y-99790000D01*
%TO.C,R3*%
X133230000Y-77390000D02*
X133560000Y-77390000D01*
X135970000Y-77390000D02*
X135640000Y-77390000D01*
X133230000Y-70850000D02*
X133230000Y-77390000D01*
X133560000Y-70850000D02*
X133230000Y-70850000D01*
X135640000Y-70850000D02*
X135970000Y-70850000D01*
X135970000Y-70850000D02*
X135970000Y-77390000D01*
%TO.C,R2*%
X135030000Y-91070000D02*
X135030000Y-84530000D01*
X135360000Y-91070000D02*
X135030000Y-91070000D01*
X137440000Y-91070000D02*
X137770000Y-91070000D01*
X137770000Y-91070000D02*
X137770000Y-84530000D01*
X135030000Y-84530000D02*
X135360000Y-84530000D01*
X137770000Y-84530000D02*
X137440000Y-84530000D01*
%TO.C,R1*%
X137330000Y-77390000D02*
X137660000Y-77390000D01*
X140070000Y-77390000D02*
X139740000Y-77390000D01*
X137330000Y-70850000D02*
X137330000Y-77390000D01*
X137660000Y-70850000D02*
X137330000Y-70850000D01*
X139740000Y-70850000D02*
X140070000Y-70850000D01*
X140070000Y-70850000D02*
X140070000Y-77390000D01*
%TO.C,Q6*%
X114725000Y-108320000D02*
X110084000Y-108320000D01*
X114725000Y-105051000D02*
X113215000Y-105051000D01*
X114725000Y-101350000D02*
X113215000Y-101350000D01*
X110084000Y-98080000D02*
X110084000Y-108320000D01*
X113215000Y-98080000D02*
X113215000Y-108320000D01*
X114725000Y-98080000D02*
X114725000Y-108320000D01*
X114725000Y-98080000D02*
X110084000Y-98080000D01*
%TO.C,Q5*%
X114725000Y-93060000D02*
X110084000Y-93060000D01*
X114725000Y-89791000D02*
X113215000Y-89791000D01*
X114725000Y-86090000D02*
X113215000Y-86090000D01*
X110084000Y-82820000D02*
X110084000Y-93060000D01*
X113215000Y-82820000D02*
X113215000Y-93060000D01*
X114725000Y-82820000D02*
X114725000Y-93060000D01*
X114725000Y-82820000D02*
X110084000Y-82820000D01*
%TO.C,Q4*%
X128325000Y-97880000D02*
X123684000Y-97880000D01*
X128325000Y-97880000D02*
X128325000Y-108120000D01*
X126815000Y-97880000D02*
X126815000Y-108120000D01*
X123684000Y-97880000D02*
X123684000Y-108120000D01*
X128325000Y-101150000D02*
X126815000Y-101150000D01*
X128325000Y-104851000D02*
X126815000Y-104851000D01*
X128325000Y-108120000D02*
X123684000Y-108120000D01*
%TO.C,Q3*%
X128325000Y-92860000D02*
X123684000Y-92860000D01*
X128325000Y-89591000D02*
X126815000Y-89591000D01*
X128325000Y-85890000D02*
X126815000Y-85890000D01*
X123684000Y-82620000D02*
X123684000Y-92860000D01*
X126815000Y-82620000D02*
X126815000Y-92860000D01*
X128325000Y-82620000D02*
X128325000Y-92860000D01*
X128325000Y-82620000D02*
X123684000Y-82620000D01*
%TO.C,Q2*%
X143725000Y-108180000D02*
X139084000Y-108180000D01*
X143725000Y-104911000D02*
X142215000Y-104911000D01*
X143725000Y-101210000D02*
X142215000Y-101210000D01*
X139084000Y-97940000D02*
X139084000Y-108180000D01*
X142215000Y-97940000D02*
X142215000Y-108180000D01*
X143725000Y-97940000D02*
X143725000Y-108180000D01*
X143725000Y-97940000D02*
X139084000Y-97940000D01*
%TO.C,Q1*%
X143725000Y-92920000D02*
X139084000Y-92920000D01*
X143725000Y-89651000D02*
X142215000Y-89651000D01*
X143725000Y-85950000D02*
X142215000Y-85950000D01*
X139084000Y-82680000D02*
X139084000Y-92920000D01*
X142215000Y-82680000D02*
X142215000Y-92920000D01*
X143725000Y-82680000D02*
X143725000Y-92920000D01*
X143725000Y-82680000D02*
X139084000Y-82680000D01*
%TO.C,J4*%
X145530000Y-72510000D02*
X146800000Y-72510000D01*
X145530000Y-73780000D02*
X145530000Y-72510000D01*
X147842929Y-75940000D02*
X148240000Y-75940000D01*
X147842929Y-76700000D02*
X148240000Y-76700000D01*
X147842929Y-78480000D02*
X148240000Y-78480000D01*
X147842929Y-79240000D02*
X148240000Y-79240000D01*
X147842929Y-81020000D02*
X148240000Y-81020000D01*
X147842929Y-81780000D02*
X148240000Y-81780000D01*
X147842929Y-83560000D02*
X148240000Y-83560000D01*
X147842929Y-84320000D02*
X148240000Y-84320000D01*
X147842929Y-86100000D02*
X148240000Y-86100000D01*
X147842929Y-86860000D02*
X148240000Y-86860000D01*
X147910000Y-73400000D02*
X148240000Y-73400000D01*
X147910000Y-74160000D02*
X148240000Y-74160000D01*
X148240000Y-72450000D02*
X148240000Y-87810000D01*
X148240000Y-75050000D02*
X150900000Y-75050000D01*
X148240000Y-77590000D02*
X150900000Y-77590000D01*
X148240000Y-80130000D02*
X150900000Y-80130000D01*
X148240000Y-82670000D02*
X150900000Y-82670000D01*
X148240000Y-85210000D02*
X150900000Y-85210000D01*
X148240000Y-87810000D02*
X150900000Y-87810000D01*
X150900000Y-72450000D02*
X148240000Y-72450000D01*
X150900000Y-73400000D02*
X156900000Y-73400000D01*
X150900000Y-73460000D02*
X156900000Y-73460000D01*
X150900000Y-73580000D02*
X156900000Y-73580000D01*
X150900000Y-73700000D02*
X156900000Y-73700000D01*
X150900000Y-73820000D02*
X156900000Y-73820000D01*
X150900000Y-73940000D02*
X156900000Y-73940000D01*
X150900000Y-74060000D02*
X156900000Y-74060000D01*
X150900000Y-75940000D02*
X156900000Y-75940000D01*
X150900000Y-78480000D02*
X156900000Y-78480000D01*
X150900000Y-81020000D02*
X156900000Y-81020000D01*
X150900000Y-83560000D02*
X156900000Y-83560000D01*
X150900000Y-86100000D02*
X156900000Y-86100000D01*
X150900000Y-87810000D02*
X150900000Y-72450000D01*
X156900000Y-73400000D02*
X156900000Y-74160000D01*
X156900000Y-74160000D02*
X150900000Y-74160000D01*
X156900000Y-75940000D02*
X156900000Y-76700000D01*
X156900000Y-76700000D02*
X150900000Y-76700000D01*
X156900000Y-78480000D02*
X156900000Y-79240000D01*
X156900000Y-79240000D02*
X150900000Y-79240000D01*
X156900000Y-81020000D02*
X156900000Y-81780000D01*
X156900000Y-81780000D02*
X150900000Y-81780000D01*
X156900000Y-83560000D02*
X156900000Y-84320000D01*
X156900000Y-84320000D02*
X150900000Y-84320000D01*
X156900000Y-86100000D02*
X156900000Y-86860000D01*
X156900000Y-86860000D02*
X150900000Y-86860000D01*
%TD*%
M02*
